%TF.GenerationSoftware,KiCad,Pcbnew,10.0.6*%
%TF.CreationDate,2026-09-12T20:41:53+08:00*%
%TF.ProjectId,DormRadar_TX,446f726d-5261-4646-9172-5f54582e6b69,rev?*%
%TF.SameCoordinates,Original*%
%TF.FileFunction,Legend,Top*%
%TF.FilePolarity,Positive*%
%FSLAX46Y46*%
G04 Gerber Fmt 4.6, Leading zero omitted, Abs format (unit mm)*
G04 Created by KiCad (PCBNEW 10.0.6) date 2026-09-12 20:41:53*
%MOMM*%
%LPD*%
G01*
G04 APERTURE LIST*
G04 Aperture macros list*
%AMRoundRect*
0 Rectangle with rounded corners*
0 $1 Rounding radius*
0 $2 $3 $4 $5 $6 $7 $8 $9 X,Y pos of 4 corners*
0 Add a 4 corners polygon primitive as box body*
4,1,4,$2,$3,$4,$5,$6,$7,$8,$9,$2,$3,0*
0 Add four circle primitives for the rounded corners*
1,1,$1+$1,$2,$3*
1,1,$1+$1,$4,$5*
1,1,$1+$1,$6,$7*
1,1,$1+$1,$8,$9*
0 Add four rect primitives between the rounded corners*
20,1,$1+$1,$2,$3,$4,$5,0*
20,1,$1+$1,$4,$5,$6,$7,0*
20,1,$1+$1,$6,$7,$8,$9,0*
20,1,$1+$1,$8,$9,$2,$3,0*%
G04 Aperture macros list end*
%ADD10C,0.150000*%
%ADD11C,0.120000*%
%ADD12C,2.700000*%
%ADD13RoundRect,0.150000X-0.512500X-0.150000X0.512500X-0.150000X0.512500X0.150000X-0.512500X0.150000X0*%
%ADD14RoundRect,0.250000X-0.262500X-0.450000X0.262500X-0.450000X0.262500X0.450000X-0.262500X0.450000X0*%
%ADD15R,2.900000X5.400000*%
%ADD16RoundRect,0.250000X-1.000000X-0.650000X1.000000X-0.650000X1.000000X0.650000X-1.000000X0.650000X0*%
%ADD17RoundRect,0.225000X-0.225000X-0.250000X0.225000X-0.250000X0.225000X0.250000X-0.225000X0.250000X0*%
%ADD18RoundRect,0.250000X-0.250000X-0.475000X0.250000X-0.475000X0.250000X0.475000X-0.250000X0.475000X0*%
%ADD19RoundRect,0.250000X-0.375000X-0.625000X0.375000X-0.625000X0.375000X0.625000X-0.375000X0.625000X0*%
%ADD20RoundRect,0.250000X-0.325000X-0.650000X0.325000X-0.650000X0.325000X0.650000X-0.325000X0.650000X0*%
%ADD21R,1.000000X1.000000*%
%ADD22C,1.000000*%
%ADD23R,1.700000X1.700000*%
%ADD24C,1.700000*%
%ADD25RoundRect,0.250000X-0.325000X-1.100000X0.325000X-1.100000X0.325000X1.100000X-0.325000X1.100000X0*%
%ADD26R,1.500000X0.900000*%
%ADD27C,0.600000*%
%ADD28R,2.900000X2.900000*%
%ADD29RoundRect,0.250001X-1.099999X-1.099999X1.099999X-1.099999X1.099999X1.099999X-1.099999X1.099999X0*%
G04 APERTURE END LIST*
D10*
X66238095Y-35804819D02*
X66238095Y-34804819D01*
X66238095Y-35281009D02*
X66809523Y-35281009D01*
X66809523Y-35804819D02*
X66809523Y-34804819D01*
X67714285Y-35138152D02*
X67714285Y-35804819D01*
X67476190Y-34757200D02*
X67238095Y-35471485D01*
X67238095Y-35471485D02*
X67857142Y-35471485D01*
X21238095Y-19054819D02*
X21238095Y-19864342D01*
X21238095Y-19864342D02*
X21285714Y-19959580D01*
X21285714Y-19959580D02*
X21333333Y-20007200D01*
X21333333Y-20007200D02*
X21428571Y-20054819D01*
X21428571Y-20054819D02*
X21619047Y-20054819D01*
X21619047Y-20054819D02*
X21714285Y-20007200D01*
X21714285Y-20007200D02*
X21761904Y-19959580D01*
X21761904Y-19959580D02*
X21809523Y-19864342D01*
X21809523Y-19864342D02*
X21809523Y-19054819D01*
X22190476Y-19054819D02*
X22809523Y-19054819D01*
X22809523Y-19054819D02*
X22476190Y-19435771D01*
X22476190Y-19435771D02*
X22619047Y-19435771D01*
X22619047Y-19435771D02*
X22714285Y-19483390D01*
X22714285Y-19483390D02*
X22761904Y-19531009D01*
X22761904Y-19531009D02*
X22809523Y-19626247D01*
X22809523Y-19626247D02*
X22809523Y-19864342D01*
X22809523Y-19864342D02*
X22761904Y-19959580D01*
X22761904Y-19959580D02*
X22714285Y-20007200D01*
X22714285Y-20007200D02*
X22619047Y-20054819D01*
X22619047Y-20054819D02*
X22333333Y-20054819D01*
X22333333Y-20054819D02*
X22238095Y-20007200D01*
X22238095Y-20007200D02*
X22190476Y-19959580D01*
X51833333Y-18804819D02*
X51500000Y-18328628D01*
X51261905Y-18804819D02*
X51261905Y-17804819D01*
X51261905Y-17804819D02*
X51642857Y-17804819D01*
X51642857Y-17804819D02*
X51738095Y-17852438D01*
X51738095Y-17852438D02*
X51785714Y-17900057D01*
X51785714Y-17900057D02*
X51833333Y-17995295D01*
X51833333Y-17995295D02*
X51833333Y-18138152D01*
X51833333Y-18138152D02*
X51785714Y-18233390D01*
X51785714Y-18233390D02*
X51738095Y-18281009D01*
X51738095Y-18281009D02*
X51642857Y-18328628D01*
X51642857Y-18328628D02*
X51261905Y-18328628D01*
X52690476Y-18138152D02*
X52690476Y-18804819D01*
X52452381Y-17757200D02*
X52214286Y-18471485D01*
X52214286Y-18471485D02*
X52833333Y-18471485D01*
X66238095Y195180D02*
X66238095Y1195180D01*
X66238095Y718990D02*
X66809523Y718990D01*
X66809523Y195180D02*
X66809523Y1195180D01*
X67238095Y1099942D02*
X67285714Y1147561D01*
X67285714Y1147561D02*
X67380952Y1195180D01*
X67380952Y1195180D02*
X67619047Y1195180D01*
X67619047Y1195180D02*
X67714285Y1147561D01*
X67714285Y1147561D02*
X67761904Y1099942D01*
X67761904Y1099942D02*
X67809523Y1004704D01*
X67809523Y1004704D02*
X67809523Y909466D01*
X67809523Y909466D02*
X67761904Y766609D01*
X67761904Y766609D02*
X67190476Y195180D01*
X67190476Y195180D02*
X67809523Y195180D01*
X7833333Y-13564819D02*
X7357143Y-13564819D01*
X7357143Y-13564819D02*
X7357143Y-12564819D01*
X8690476Y-13564819D02*
X8119048Y-13564819D01*
X8404762Y-13564819D02*
X8404762Y-12564819D01*
X8404762Y-12564819D02*
X8309524Y-12707676D01*
X8309524Y-12707676D02*
X8214286Y-12802914D01*
X8214286Y-12802914D02*
X8119048Y-12850533D01*
X2238095Y-35804819D02*
X2238095Y-34804819D01*
X2238095Y-35281009D02*
X2809523Y-35281009D01*
X2809523Y-35804819D02*
X2809523Y-34804819D01*
X3190476Y-34804819D02*
X3809523Y-34804819D01*
X3809523Y-34804819D02*
X3476190Y-35185771D01*
X3476190Y-35185771D02*
X3619047Y-35185771D01*
X3619047Y-35185771D02*
X3714285Y-35233390D01*
X3714285Y-35233390D02*
X3761904Y-35281009D01*
X3761904Y-35281009D02*
X3809523Y-35376247D01*
X3809523Y-35376247D02*
X3809523Y-35614342D01*
X3809523Y-35614342D02*
X3761904Y-35709580D01*
X3761904Y-35709580D02*
X3714285Y-35757200D01*
X3714285Y-35757200D02*
X3619047Y-35804819D01*
X3619047Y-35804819D02*
X3333333Y-35804819D01*
X3333333Y-35804819D02*
X3238095Y-35757200D01*
X3238095Y-35757200D02*
X3190476Y-35709580D01*
X32261905Y-19954819D02*
X32261905Y-18954819D01*
X32261905Y-18954819D02*
X32500000Y-18954819D01*
X32500000Y-18954819D02*
X32642857Y-19002438D01*
X32642857Y-19002438D02*
X32738095Y-19097676D01*
X32738095Y-19097676D02*
X32785714Y-19192914D01*
X32785714Y-19192914D02*
X32833333Y-19383390D01*
X32833333Y-19383390D02*
X32833333Y-19526247D01*
X32833333Y-19526247D02*
X32785714Y-19716723D01*
X32785714Y-19716723D02*
X32738095Y-19811961D01*
X32738095Y-19811961D02*
X32642857Y-19907200D01*
X32642857Y-19907200D02*
X32500000Y-19954819D01*
X32500000Y-19954819D02*
X32261905Y-19954819D01*
X33785714Y-19954819D02*
X33214286Y-19954819D01*
X33500000Y-19954819D02*
X33500000Y-18954819D01*
X33500000Y-18954819D02*
X33404762Y-19097676D01*
X33404762Y-19097676D02*
X33309524Y-19192914D01*
X33309524Y-19192914D02*
X33214286Y-19240533D01*
X36833333Y-17929580D02*
X36785714Y-17977200D01*
X36785714Y-17977200D02*
X36642857Y-18024819D01*
X36642857Y-18024819D02*
X36547619Y-18024819D01*
X36547619Y-18024819D02*
X36404762Y-17977200D01*
X36404762Y-17977200D02*
X36309524Y-17881961D01*
X36309524Y-17881961D02*
X36261905Y-17786723D01*
X36261905Y-17786723D02*
X36214286Y-17596247D01*
X36214286Y-17596247D02*
X36214286Y-17453390D01*
X36214286Y-17453390D02*
X36261905Y-17262914D01*
X36261905Y-17262914D02*
X36309524Y-17167676D01*
X36309524Y-17167676D02*
X36404762Y-17072438D01*
X36404762Y-17072438D02*
X36547619Y-17024819D01*
X36547619Y-17024819D02*
X36642857Y-17024819D01*
X36642857Y-17024819D02*
X36785714Y-17072438D01*
X36785714Y-17072438D02*
X36833333Y-17120057D01*
X37404762Y-17453390D02*
X37309524Y-17405771D01*
X37309524Y-17405771D02*
X37261905Y-17358152D01*
X37261905Y-17358152D02*
X37214286Y-17262914D01*
X37214286Y-17262914D02*
X37214286Y-17215295D01*
X37214286Y-17215295D02*
X37261905Y-17120057D01*
X37261905Y-17120057D02*
X37309524Y-17072438D01*
X37309524Y-17072438D02*
X37404762Y-17024819D01*
X37404762Y-17024819D02*
X37595238Y-17024819D01*
X37595238Y-17024819D02*
X37690476Y-17072438D01*
X37690476Y-17072438D02*
X37738095Y-17120057D01*
X37738095Y-17120057D02*
X37785714Y-17215295D01*
X37785714Y-17215295D02*
X37785714Y-17262914D01*
X37785714Y-17262914D02*
X37738095Y-17358152D01*
X37738095Y-17358152D02*
X37690476Y-17405771D01*
X37690476Y-17405771D02*
X37595238Y-17453390D01*
X37595238Y-17453390D02*
X37404762Y-17453390D01*
X37404762Y-17453390D02*
X37309524Y-17501009D01*
X37309524Y-17501009D02*
X37261905Y-17548628D01*
X37261905Y-17548628D02*
X37214286Y-17643866D01*
X37214286Y-17643866D02*
X37214286Y-17834342D01*
X37214286Y-17834342D02*
X37261905Y-17929580D01*
X37261905Y-17929580D02*
X37309524Y-17977200D01*
X37309524Y-17977200D02*
X37404762Y-18024819D01*
X37404762Y-18024819D02*
X37595238Y-18024819D01*
X37595238Y-18024819D02*
X37690476Y-17977200D01*
X37690476Y-17977200D02*
X37738095Y-17929580D01*
X37738095Y-17929580D02*
X37785714Y-17834342D01*
X37785714Y-17834342D02*
X37785714Y-17643866D01*
X37785714Y-17643866D02*
X37738095Y-17548628D01*
X37738095Y-17548628D02*
X37690476Y-17501009D01*
X37690476Y-17501009D02*
X37595238Y-17453390D01*
X23833333Y-11679580D02*
X23785714Y-11727200D01*
X23785714Y-11727200D02*
X23642857Y-11774819D01*
X23642857Y-11774819D02*
X23547619Y-11774819D01*
X23547619Y-11774819D02*
X23404762Y-11727200D01*
X23404762Y-11727200D02*
X23309524Y-11631961D01*
X23309524Y-11631961D02*
X23261905Y-11536723D01*
X23261905Y-11536723D02*
X23214286Y-11346247D01*
X23214286Y-11346247D02*
X23214286Y-11203390D01*
X23214286Y-11203390D02*
X23261905Y-11012914D01*
X23261905Y-11012914D02*
X23309524Y-10917676D01*
X23309524Y-10917676D02*
X23404762Y-10822438D01*
X23404762Y-10822438D02*
X23547619Y-10774819D01*
X23547619Y-10774819D02*
X23642857Y-10774819D01*
X23642857Y-10774819D02*
X23785714Y-10822438D01*
X23785714Y-10822438D02*
X23833333Y-10870057D01*
X24738095Y-10774819D02*
X24261905Y-10774819D01*
X24261905Y-10774819D02*
X24214286Y-11251009D01*
X24214286Y-11251009D02*
X24261905Y-11203390D01*
X24261905Y-11203390D02*
X24357143Y-11155771D01*
X24357143Y-11155771D02*
X24595238Y-11155771D01*
X24595238Y-11155771D02*
X24690476Y-11203390D01*
X24690476Y-11203390D02*
X24738095Y-11251009D01*
X24738095Y-11251009D02*
X24785714Y-11346247D01*
X24785714Y-11346247D02*
X24785714Y-11584342D01*
X24785714Y-11584342D02*
X24738095Y-11679580D01*
X24738095Y-11679580D02*
X24690476Y-11727200D01*
X24690476Y-11727200D02*
X24595238Y-11774819D01*
X24595238Y-11774819D02*
X24357143Y-11774819D01*
X24357143Y-11774819D02*
X24261905Y-11727200D01*
X24261905Y-11727200D02*
X24214286Y-11679580D01*
X41833333Y-18804819D02*
X41500000Y-18328628D01*
X41261905Y-18804819D02*
X41261905Y-17804819D01*
X41261905Y-17804819D02*
X41642857Y-17804819D01*
X41642857Y-17804819D02*
X41738095Y-17852438D01*
X41738095Y-17852438D02*
X41785714Y-17900057D01*
X41785714Y-17900057D02*
X41833333Y-17995295D01*
X41833333Y-17995295D02*
X41833333Y-18138152D01*
X41833333Y-18138152D02*
X41785714Y-18233390D01*
X41785714Y-18233390D02*
X41738095Y-18281009D01*
X41738095Y-18281009D02*
X41642857Y-18328628D01*
X41642857Y-18328628D02*
X41261905Y-18328628D01*
X42166667Y-17804819D02*
X42785714Y-17804819D01*
X42785714Y-17804819D02*
X42452381Y-18185771D01*
X42452381Y-18185771D02*
X42595238Y-18185771D01*
X42595238Y-18185771D02*
X42690476Y-18233390D01*
X42690476Y-18233390D02*
X42738095Y-18281009D01*
X42738095Y-18281009D02*
X42785714Y-18376247D01*
X42785714Y-18376247D02*
X42785714Y-18614342D01*
X42785714Y-18614342D02*
X42738095Y-18709580D01*
X42738095Y-18709580D02*
X42690476Y-18757200D01*
X42690476Y-18757200D02*
X42595238Y-18804819D01*
X42595238Y-18804819D02*
X42309524Y-18804819D01*
X42309524Y-18804819D02*
X42214286Y-18757200D01*
X42214286Y-18757200D02*
X42166667Y-18709580D01*
X36833333Y-11679580D02*
X36785714Y-11727200D01*
X36785714Y-11727200D02*
X36642857Y-11774819D01*
X36642857Y-11774819D02*
X36547619Y-11774819D01*
X36547619Y-11774819D02*
X36404762Y-11727200D01*
X36404762Y-11727200D02*
X36309524Y-11631961D01*
X36309524Y-11631961D02*
X36261905Y-11536723D01*
X36261905Y-11536723D02*
X36214286Y-11346247D01*
X36214286Y-11346247D02*
X36214286Y-11203390D01*
X36214286Y-11203390D02*
X36261905Y-11012914D01*
X36261905Y-11012914D02*
X36309524Y-10917676D01*
X36309524Y-10917676D02*
X36404762Y-10822438D01*
X36404762Y-10822438D02*
X36547619Y-10774819D01*
X36547619Y-10774819D02*
X36642857Y-10774819D01*
X36642857Y-10774819D02*
X36785714Y-10822438D01*
X36785714Y-10822438D02*
X36833333Y-10870057D01*
X37690476Y-10774819D02*
X37500000Y-10774819D01*
X37500000Y-10774819D02*
X37404762Y-10822438D01*
X37404762Y-10822438D02*
X37357143Y-10870057D01*
X37357143Y-10870057D02*
X37261905Y-11012914D01*
X37261905Y-11012914D02*
X37214286Y-11203390D01*
X37214286Y-11203390D02*
X37214286Y-11584342D01*
X37214286Y-11584342D02*
X37261905Y-11679580D01*
X37261905Y-11679580D02*
X37309524Y-11727200D01*
X37309524Y-11727200D02*
X37404762Y-11774819D01*
X37404762Y-11774819D02*
X37595238Y-11774819D01*
X37595238Y-11774819D02*
X37690476Y-11727200D01*
X37690476Y-11727200D02*
X37738095Y-11679580D01*
X37738095Y-11679580D02*
X37785714Y-11584342D01*
X37785714Y-11584342D02*
X37785714Y-11346247D01*
X37785714Y-11346247D02*
X37738095Y-11251009D01*
X37738095Y-11251009D02*
X37690476Y-11203390D01*
X37690476Y-11203390D02*
X37595238Y-11155771D01*
X37595238Y-11155771D02*
X37404762Y-11155771D01*
X37404762Y-11155771D02*
X37309524Y-11203390D01*
X37309524Y-11203390D02*
X37261905Y-11251009D01*
X37261905Y-11251009D02*
X37214286Y-11346247D01*
X28833333Y-29804819D02*
X28500000Y-29328628D01*
X28261905Y-29804819D02*
X28261905Y-28804819D01*
X28261905Y-28804819D02*
X28642857Y-28804819D01*
X28642857Y-28804819D02*
X28738095Y-28852438D01*
X28738095Y-28852438D02*
X28785714Y-28900057D01*
X28785714Y-28900057D02*
X28833333Y-28995295D01*
X28833333Y-28995295D02*
X28833333Y-29138152D01*
X28833333Y-29138152D02*
X28785714Y-29233390D01*
X28785714Y-29233390D02*
X28738095Y-29281009D01*
X28738095Y-29281009D02*
X28642857Y-29328628D01*
X28642857Y-29328628D02*
X28261905Y-29328628D01*
X29785714Y-29804819D02*
X29214286Y-29804819D01*
X29500000Y-29804819D02*
X29500000Y-28804819D01*
X29500000Y-28804819D02*
X29404762Y-28947676D01*
X29404762Y-28947676D02*
X29309524Y-29042914D01*
X29309524Y-29042914D02*
X29214286Y-29090533D01*
X33833333Y-31804819D02*
X33500000Y-31328628D01*
X33261905Y-31804819D02*
X33261905Y-30804819D01*
X33261905Y-30804819D02*
X33642857Y-30804819D01*
X33642857Y-30804819D02*
X33738095Y-30852438D01*
X33738095Y-30852438D02*
X33785714Y-30900057D01*
X33785714Y-30900057D02*
X33833333Y-30995295D01*
X33833333Y-30995295D02*
X33833333Y-31138152D01*
X33833333Y-31138152D02*
X33785714Y-31233390D01*
X33785714Y-31233390D02*
X33738095Y-31281009D01*
X33738095Y-31281009D02*
X33642857Y-31328628D01*
X33642857Y-31328628D02*
X33261905Y-31328628D01*
X34214286Y-30900057D02*
X34261905Y-30852438D01*
X34261905Y-30852438D02*
X34357143Y-30804819D01*
X34357143Y-30804819D02*
X34595238Y-30804819D01*
X34595238Y-30804819D02*
X34690476Y-30852438D01*
X34690476Y-30852438D02*
X34738095Y-30900057D01*
X34738095Y-30900057D02*
X34785714Y-30995295D01*
X34785714Y-30995295D02*
X34785714Y-31090533D01*
X34785714Y-31090533D02*
X34738095Y-31233390D01*
X34738095Y-31233390D02*
X34166667Y-31804819D01*
X34166667Y-31804819D02*
X34785714Y-31804819D01*
X24666666Y-26101009D02*
X24333333Y-26101009D01*
X24333333Y-26624819D02*
X24333333Y-25624819D01*
X24333333Y-25624819D02*
X24809523Y-25624819D01*
X25714285Y-26624819D02*
X25142857Y-26624819D01*
X25428571Y-26624819D02*
X25428571Y-25624819D01*
X25428571Y-25624819D02*
X25333333Y-25767676D01*
X25333333Y-25767676D02*
X25238095Y-25862914D01*
X25238095Y-25862914D02*
X25142857Y-25910533D01*
X30833333Y-36509580D02*
X30785714Y-36557200D01*
X30785714Y-36557200D02*
X30642857Y-36604819D01*
X30642857Y-36604819D02*
X30547619Y-36604819D01*
X30547619Y-36604819D02*
X30404762Y-36557200D01*
X30404762Y-36557200D02*
X30309524Y-36461961D01*
X30309524Y-36461961D02*
X30261905Y-36366723D01*
X30261905Y-36366723D02*
X30214286Y-36176247D01*
X30214286Y-36176247D02*
X30214286Y-36033390D01*
X30214286Y-36033390D02*
X30261905Y-35842914D01*
X30261905Y-35842914D02*
X30309524Y-35747676D01*
X30309524Y-35747676D02*
X30404762Y-35652438D01*
X30404762Y-35652438D02*
X30547619Y-35604819D01*
X30547619Y-35604819D02*
X30642857Y-35604819D01*
X30642857Y-35604819D02*
X30785714Y-35652438D01*
X30785714Y-35652438D02*
X30833333Y-35700057D01*
X31166667Y-35604819D02*
X31785714Y-35604819D01*
X31785714Y-35604819D02*
X31452381Y-35985771D01*
X31452381Y-35985771D02*
X31595238Y-35985771D01*
X31595238Y-35985771D02*
X31690476Y-36033390D01*
X31690476Y-36033390D02*
X31738095Y-36081009D01*
X31738095Y-36081009D02*
X31785714Y-36176247D01*
X31785714Y-36176247D02*
X31785714Y-36414342D01*
X31785714Y-36414342D02*
X31738095Y-36509580D01*
X31738095Y-36509580D02*
X31690476Y-36557200D01*
X31690476Y-36557200D02*
X31595238Y-36604819D01*
X31595238Y-36604819D02*
X31309524Y-36604819D01*
X31309524Y-36604819D02*
X31214286Y-36557200D01*
X31214286Y-36557200D02*
X31166667Y-36509580D01*
X60709819Y-24333333D02*
X61424104Y-24333333D01*
X61424104Y-24333333D02*
X61566961Y-24380952D01*
X61566961Y-24380952D02*
X61662200Y-24476190D01*
X61662200Y-24476190D02*
X61709819Y-24619047D01*
X61709819Y-24619047D02*
X61709819Y-24714285D01*
X60805057Y-23904761D02*
X60757438Y-23857142D01*
X60757438Y-23857142D02*
X60709819Y-23761904D01*
X60709819Y-23761904D02*
X60709819Y-23523809D01*
X60709819Y-23523809D02*
X60757438Y-23428571D01*
X60757438Y-23428571D02*
X60805057Y-23380952D01*
X60805057Y-23380952D02*
X60900295Y-23333333D01*
X60900295Y-23333333D02*
X60995533Y-23333333D01*
X60995533Y-23333333D02*
X61138390Y-23380952D01*
X61138390Y-23380952D02*
X61709819Y-23952380D01*
X61709819Y-23952380D02*
X61709819Y-23333333D01*
X2238095Y195180D02*
X2238095Y1195180D01*
X2238095Y718990D02*
X2809523Y718990D01*
X2809523Y195180D02*
X2809523Y1195180D01*
X3809523Y195180D02*
X3238095Y195180D01*
X3523809Y195180D02*
X3523809Y1195180D01*
X3523809Y1195180D02*
X3428571Y1052323D01*
X3428571Y1052323D02*
X3333333Y957085D01*
X3333333Y957085D02*
X3238095Y909466D01*
X12833333Y-30509580D02*
X12785714Y-30557200D01*
X12785714Y-30557200D02*
X12642857Y-30604819D01*
X12642857Y-30604819D02*
X12547619Y-30604819D01*
X12547619Y-30604819D02*
X12404762Y-30557200D01*
X12404762Y-30557200D02*
X12309524Y-30461961D01*
X12309524Y-30461961D02*
X12261905Y-30366723D01*
X12261905Y-30366723D02*
X12214286Y-30176247D01*
X12214286Y-30176247D02*
X12214286Y-30033390D01*
X12214286Y-30033390D02*
X12261905Y-29842914D01*
X12261905Y-29842914D02*
X12309524Y-29747676D01*
X12309524Y-29747676D02*
X12404762Y-29652438D01*
X12404762Y-29652438D02*
X12547619Y-29604819D01*
X12547619Y-29604819D02*
X12642857Y-29604819D01*
X12642857Y-29604819D02*
X12785714Y-29652438D01*
X12785714Y-29652438D02*
X12833333Y-29700057D01*
X13214286Y-29700057D02*
X13261905Y-29652438D01*
X13261905Y-29652438D02*
X13357143Y-29604819D01*
X13357143Y-29604819D02*
X13595238Y-29604819D01*
X13595238Y-29604819D02*
X13690476Y-29652438D01*
X13690476Y-29652438D02*
X13738095Y-29700057D01*
X13738095Y-29700057D02*
X13785714Y-29795295D01*
X13785714Y-29795295D02*
X13785714Y-29890533D01*
X13785714Y-29890533D02*
X13738095Y-30033390D01*
X13738095Y-30033390D02*
X13166667Y-30604819D01*
X13166667Y-30604819D02*
X13785714Y-30604819D01*
X48074819Y-39333333D02*
X48789104Y-39333333D01*
X48789104Y-39333333D02*
X48931961Y-39380952D01*
X48931961Y-39380952D02*
X49027200Y-39476190D01*
X49027200Y-39476190D02*
X49074819Y-39619047D01*
X49074819Y-39619047D02*
X49074819Y-39714285D01*
X48074819Y-38952380D02*
X48074819Y-38333333D01*
X48074819Y-38333333D02*
X48455771Y-38666666D01*
X48455771Y-38666666D02*
X48455771Y-38523809D01*
X48455771Y-38523809D02*
X48503390Y-38428571D01*
X48503390Y-38428571D02*
X48551009Y-38380952D01*
X48551009Y-38380952D02*
X48646247Y-38333333D01*
X48646247Y-38333333D02*
X48884342Y-38333333D01*
X48884342Y-38333333D02*
X48979580Y-38380952D01*
X48979580Y-38380952D02*
X49027200Y-38428571D01*
X49027200Y-38428571D02*
X49074819Y-38523809D01*
X49074819Y-38523809D02*
X49074819Y-38809523D01*
X49074819Y-38809523D02*
X49027200Y-38904761D01*
X49027200Y-38904761D02*
X48979580Y-38952380D01*
X36833333Y-36929580D02*
X36785714Y-36977200D01*
X36785714Y-36977200D02*
X36642857Y-37024819D01*
X36642857Y-37024819D02*
X36547619Y-37024819D01*
X36547619Y-37024819D02*
X36404762Y-36977200D01*
X36404762Y-36977200D02*
X36309524Y-36881961D01*
X36309524Y-36881961D02*
X36261905Y-36786723D01*
X36261905Y-36786723D02*
X36214286Y-36596247D01*
X36214286Y-36596247D02*
X36214286Y-36453390D01*
X36214286Y-36453390D02*
X36261905Y-36262914D01*
X36261905Y-36262914D02*
X36309524Y-36167676D01*
X36309524Y-36167676D02*
X36404762Y-36072438D01*
X36404762Y-36072438D02*
X36547619Y-36024819D01*
X36547619Y-36024819D02*
X36642857Y-36024819D01*
X36642857Y-36024819D02*
X36785714Y-36072438D01*
X36785714Y-36072438D02*
X36833333Y-36120057D01*
X37690476Y-36358152D02*
X37690476Y-37024819D01*
X37452381Y-35977200D02*
X37214286Y-36691485D01*
X37214286Y-36691485D02*
X37833333Y-36691485D01*
X46833333Y-18679580D02*
X46785714Y-18727200D01*
X46785714Y-18727200D02*
X46642857Y-18774819D01*
X46642857Y-18774819D02*
X46547619Y-18774819D01*
X46547619Y-18774819D02*
X46404762Y-18727200D01*
X46404762Y-18727200D02*
X46309524Y-18631961D01*
X46309524Y-18631961D02*
X46261905Y-18536723D01*
X46261905Y-18536723D02*
X46214286Y-18346247D01*
X46214286Y-18346247D02*
X46214286Y-18203390D01*
X46214286Y-18203390D02*
X46261905Y-18012914D01*
X46261905Y-18012914D02*
X46309524Y-17917676D01*
X46309524Y-17917676D02*
X46404762Y-17822438D01*
X46404762Y-17822438D02*
X46547619Y-17774819D01*
X46547619Y-17774819D02*
X46642857Y-17774819D01*
X46642857Y-17774819D02*
X46785714Y-17822438D01*
X46785714Y-17822438D02*
X46833333Y-17870057D01*
X47309524Y-18774819D02*
X47500000Y-18774819D01*
X47500000Y-18774819D02*
X47595238Y-18727200D01*
X47595238Y-18727200D02*
X47642857Y-18679580D01*
X47642857Y-18679580D02*
X47738095Y-18536723D01*
X47738095Y-18536723D02*
X47785714Y-18346247D01*
X47785714Y-18346247D02*
X47785714Y-17965295D01*
X47785714Y-17965295D02*
X47738095Y-17870057D01*
X47738095Y-17870057D02*
X47690476Y-17822438D01*
X47690476Y-17822438D02*
X47595238Y-17774819D01*
X47595238Y-17774819D02*
X47404762Y-17774819D01*
X47404762Y-17774819D02*
X47309524Y-17822438D01*
X47309524Y-17822438D02*
X47261905Y-17870057D01*
X47261905Y-17870057D02*
X47214286Y-17965295D01*
X47214286Y-17965295D02*
X47214286Y-18203390D01*
X47214286Y-18203390D02*
X47261905Y-18298628D01*
X47261905Y-18298628D02*
X47309524Y-18346247D01*
X47309524Y-18346247D02*
X47404762Y-18393866D01*
X47404762Y-18393866D02*
X47595238Y-18393866D01*
X47595238Y-18393866D02*
X47690476Y-18346247D01*
X47690476Y-18346247D02*
X47738095Y-18298628D01*
X47738095Y-18298628D02*
X47785714Y-18203390D01*
X29238095Y-13054819D02*
X29238095Y-13864342D01*
X29238095Y-13864342D02*
X29285714Y-13959580D01*
X29285714Y-13959580D02*
X29333333Y-14007200D01*
X29333333Y-14007200D02*
X29428571Y-14054819D01*
X29428571Y-14054819D02*
X29619047Y-14054819D01*
X29619047Y-14054819D02*
X29714285Y-14007200D01*
X29714285Y-14007200D02*
X29761904Y-13959580D01*
X29761904Y-13959580D02*
X29809523Y-13864342D01*
X29809523Y-13864342D02*
X29809523Y-13054819D01*
X30238095Y-13150057D02*
X30285714Y-13102438D01*
X30285714Y-13102438D02*
X30380952Y-13054819D01*
X30380952Y-13054819D02*
X30619047Y-13054819D01*
X30619047Y-13054819D02*
X30714285Y-13102438D01*
X30714285Y-13102438D02*
X30761904Y-13150057D01*
X30761904Y-13150057D02*
X30809523Y-13245295D01*
X30809523Y-13245295D02*
X30809523Y-13340533D01*
X30809523Y-13340533D02*
X30761904Y-13483390D01*
X30761904Y-13483390D02*
X30190476Y-14054819D01*
X30190476Y-14054819D02*
X30809523Y-14054819D01*
X6833333Y-30059580D02*
X6785714Y-30107200D01*
X6785714Y-30107200D02*
X6642857Y-30154819D01*
X6642857Y-30154819D02*
X6547619Y-30154819D01*
X6547619Y-30154819D02*
X6404762Y-30107200D01*
X6404762Y-30107200D02*
X6309524Y-30011961D01*
X6309524Y-30011961D02*
X6261905Y-29916723D01*
X6261905Y-29916723D02*
X6214286Y-29726247D01*
X6214286Y-29726247D02*
X6214286Y-29583390D01*
X6214286Y-29583390D02*
X6261905Y-29392914D01*
X6261905Y-29392914D02*
X6309524Y-29297676D01*
X6309524Y-29297676D02*
X6404762Y-29202438D01*
X6404762Y-29202438D02*
X6547619Y-29154819D01*
X6547619Y-29154819D02*
X6642857Y-29154819D01*
X6642857Y-29154819D02*
X6785714Y-29202438D01*
X6785714Y-29202438D02*
X6833333Y-29250057D01*
X7785714Y-30154819D02*
X7214286Y-30154819D01*
X7500000Y-30154819D02*
X7500000Y-29154819D01*
X7500000Y-29154819D02*
X7404762Y-29297676D01*
X7404762Y-29297676D02*
X7309524Y-29392914D01*
X7309524Y-29392914D02*
X7214286Y-29440533D01*
X38954819Y-13891904D02*
X39764342Y-13891904D01*
X39764342Y-13891904D02*
X39859580Y-13844285D01*
X39859580Y-13844285D02*
X39907200Y-13796666D01*
X39907200Y-13796666D02*
X39954819Y-13701428D01*
X39954819Y-13701428D02*
X39954819Y-13510952D01*
X39954819Y-13510952D02*
X39907200Y-13415714D01*
X39907200Y-13415714D02*
X39859580Y-13368095D01*
X39859580Y-13368095D02*
X39764342Y-13320476D01*
X39764342Y-13320476D02*
X38954819Y-13320476D01*
X39954819Y-12320476D02*
X39954819Y-12891904D01*
X39954819Y-12606190D02*
X38954819Y-12606190D01*
X38954819Y-12606190D02*
X39097676Y-12701428D01*
X39097676Y-12701428D02*
X39192914Y-12796666D01*
X39192914Y-12796666D02*
X39240533Y-12891904D01*
X17646666Y-32554819D02*
X17646666Y-33269104D01*
X17646666Y-33269104D02*
X17599047Y-33411961D01*
X17599047Y-33411961D02*
X17503809Y-33507200D01*
X17503809Y-33507200D02*
X17360952Y-33554819D01*
X17360952Y-33554819D02*
X17265714Y-33554819D01*
X18646666Y-33554819D02*
X18075238Y-33554819D01*
X18360952Y-33554819D02*
X18360952Y-32554819D01*
X18360952Y-32554819D02*
X18265714Y-32697676D01*
X18265714Y-32697676D02*
X18170476Y-32792914D01*
X18170476Y-32792914D02*
X18075238Y-32840533D01*
X23833333Y-17509580D02*
X23785714Y-17557200D01*
X23785714Y-17557200D02*
X23642857Y-17604819D01*
X23642857Y-17604819D02*
X23547619Y-17604819D01*
X23547619Y-17604819D02*
X23404762Y-17557200D01*
X23404762Y-17557200D02*
X23309524Y-17461961D01*
X23309524Y-17461961D02*
X23261905Y-17366723D01*
X23261905Y-17366723D02*
X23214286Y-17176247D01*
X23214286Y-17176247D02*
X23214286Y-17033390D01*
X23214286Y-17033390D02*
X23261905Y-16842914D01*
X23261905Y-16842914D02*
X23309524Y-16747676D01*
X23309524Y-16747676D02*
X23404762Y-16652438D01*
X23404762Y-16652438D02*
X23547619Y-16604819D01*
X23547619Y-16604819D02*
X23642857Y-16604819D01*
X23642857Y-16604819D02*
X23785714Y-16652438D01*
X23785714Y-16652438D02*
X23833333Y-16700057D01*
X24166667Y-16604819D02*
X24833333Y-16604819D01*
X24833333Y-16604819D02*
X24404762Y-17604819D01*
X44357142Y-34679580D02*
X44309523Y-34727200D01*
X44309523Y-34727200D02*
X44166666Y-34774819D01*
X44166666Y-34774819D02*
X44071428Y-34774819D01*
X44071428Y-34774819D02*
X43928571Y-34727200D01*
X43928571Y-34727200D02*
X43833333Y-34631961D01*
X43833333Y-34631961D02*
X43785714Y-34536723D01*
X43785714Y-34536723D02*
X43738095Y-34346247D01*
X43738095Y-34346247D02*
X43738095Y-34203390D01*
X43738095Y-34203390D02*
X43785714Y-34012914D01*
X43785714Y-34012914D02*
X43833333Y-33917676D01*
X43833333Y-33917676D02*
X43928571Y-33822438D01*
X43928571Y-33822438D02*
X44071428Y-33774819D01*
X44071428Y-33774819D02*
X44166666Y-33774819D01*
X44166666Y-33774819D02*
X44309523Y-33822438D01*
X44309523Y-33822438D02*
X44357142Y-33870057D01*
X45309523Y-34774819D02*
X44738095Y-34774819D01*
X45023809Y-34774819D02*
X45023809Y-33774819D01*
X45023809Y-33774819D02*
X44928571Y-33917676D01*
X44928571Y-33917676D02*
X44833333Y-34012914D01*
X44833333Y-34012914D02*
X44738095Y-34060533D01*
X45928571Y-33774819D02*
X46023809Y-33774819D01*
X46023809Y-33774819D02*
X46119047Y-33822438D01*
X46119047Y-33822438D02*
X46166666Y-33870057D01*
X46166666Y-33870057D02*
X46214285Y-33965295D01*
X46214285Y-33965295D02*
X46261904Y-34155771D01*
X46261904Y-34155771D02*
X46261904Y-34393866D01*
X46261904Y-34393866D02*
X46214285Y-34584342D01*
X46214285Y-34584342D02*
X46166666Y-34679580D01*
X46166666Y-34679580D02*
X46119047Y-34727200D01*
X46119047Y-34727200D02*
X46023809Y-34774819D01*
X46023809Y-34774819D02*
X45928571Y-34774819D01*
X45928571Y-34774819D02*
X45833333Y-34727200D01*
X45833333Y-34727200D02*
X45785714Y-34679580D01*
X45785714Y-34679580D02*
X45738095Y-34584342D01*
X45738095Y-34584342D02*
X45690476Y-34393866D01*
X45690476Y-34393866D02*
X45690476Y-34155771D01*
X45690476Y-34155771D02*
X45738095Y-33965295D01*
X45738095Y-33965295D02*
X45785714Y-33870057D01*
X45785714Y-33870057D02*
X45833333Y-33822438D01*
X45833333Y-33822438D02*
X45928571Y-33774819D01*
%TO.C,U3*%
D11*
X21090000Y-20440000D02*
X22910000Y-20440000D01*
X21090000Y-20490000D02*
X21090000Y-20440000D01*
X21090000Y-23560000D02*
X21090000Y-23510000D01*
X22910000Y-20440000D02*
X22910000Y-20490000D01*
X22910000Y-23510000D02*
X22910000Y-23560000D01*
X22910000Y-23560000D02*
X21090000Y-23560000D01*
X20550000Y-20490000D02*
X20310000Y-20160000D01*
X20790000Y-20160000D01*
X20550000Y-20490000D01*
G36*
X20550000Y-20490000D02*
G01*
X20310000Y-20160000D01*
X20790000Y-20160000D01*
X20550000Y-20490000D01*
G37*
%TO.C,R4*%
X51772936Y-19265000D02*
X52227064Y-19265000D01*
X51772936Y-20735000D02*
X52227064Y-20735000D01*
%TO.C,L1*%
X1700000Y-15700000D02*
X14300000Y-15700000D01*
X1700000Y-18700000D02*
X1700000Y-15700000D01*
X1700000Y-28300000D02*
X1700000Y-25300000D01*
X14300000Y-15700000D02*
X14300000Y-18700000D01*
X14300000Y-25300000D02*
X14300000Y-28300000D01*
X14300000Y-28300000D02*
X1700000Y-28300000D01*
%TO.C,D1*%
X29490000Y-20350000D02*
X29490000Y-23650000D01*
X29490000Y-20350000D02*
X35000000Y-20350000D01*
X29490000Y-23650000D02*
X35000000Y-23650000D01*
%TO.C,C8*%
X36859420Y-18490000D02*
X37140580Y-18490000D01*
X36859420Y-19510000D02*
X37140580Y-19510000D01*
%TO.C,C5*%
X23738748Y-12265000D02*
X24261252Y-12265000D01*
X23738748Y-13735000D02*
X24261252Y-13735000D01*
%TO.C,R3*%
X41772936Y-19265000D02*
X42227064Y-19265000D01*
X41772936Y-20735000D02*
X42227064Y-20735000D01*
%TO.C,C6*%
X36738748Y-12265000D02*
X37261252Y-12265000D01*
X36738748Y-13735000D02*
X37261252Y-13735000D01*
%TO.C,R1*%
X28772936Y-30265000D02*
X29227064Y-30265000D01*
X28772936Y-31735000D02*
X29227064Y-31735000D01*
%TO.C,R2*%
X33772936Y-32265000D02*
X34227064Y-32265000D01*
X33772936Y-33735000D02*
X34227064Y-33735000D01*
%TO.C,F1*%
X24397936Y-27090000D02*
X25602064Y-27090000D01*
X24397936Y-28910000D02*
X25602064Y-28910000D01*
%TO.C,C3*%
X30288748Y-37090000D02*
X31711252Y-37090000D01*
X30288748Y-38910000D02*
X31711252Y-38910000D01*
%TO.C,J2*%
X62190000Y-25160000D02*
X62190000Y-24000000D01*
X63000000Y-25160000D02*
X62190000Y-25160000D01*
X63810000Y-22840000D02*
X68825000Y-22840000D01*
X63810000Y-23333292D02*
X63810000Y-22840000D01*
X63810000Y-25160000D02*
X63810000Y-24666708D01*
X63810000Y-25160000D02*
X68825000Y-25160000D01*
X68825000Y-23682077D02*
X68825000Y-22840000D01*
X68825000Y-25160000D02*
X68825000Y-24317923D01*
%TO.C,C2*%
X12288748Y-31090000D02*
X13711252Y-31090000D01*
X12288748Y-32910000D02*
X13711252Y-32910000D01*
%TO.C,J3*%
X49620000Y-40380000D02*
X49620000Y-39000000D01*
X51000000Y-40380000D02*
X49620000Y-40380000D01*
X52270000Y-37620000D02*
X62540000Y-37620000D01*
X52270000Y-40380000D02*
X52270000Y-37620000D01*
X52270000Y-40380000D02*
X62540000Y-40380000D01*
X62540000Y-40380000D02*
X62540000Y-37620000D01*
%TO.C,C4*%
X36859420Y-37490000D02*
X37140580Y-37490000D01*
X36859420Y-38510000D02*
X37140580Y-38510000D01*
%TO.C,C9*%
X46738748Y-19265000D02*
X47261252Y-19265000D01*
X46738748Y-20735000D02*
X47261252Y-20735000D01*
%TO.C,U2*%
X29090000Y-14440000D02*
X30910000Y-14440000D01*
X29090000Y-14490000D02*
X29090000Y-14440000D01*
X29090000Y-17560000D02*
X29090000Y-17510000D01*
X30910000Y-14440000D02*
X30910000Y-14490000D01*
X30910000Y-15610000D02*
X30910000Y-16390000D01*
X30910000Y-17510000D02*
X30910000Y-17560000D01*
X30910000Y-17560000D02*
X29090000Y-17560000D01*
X28550000Y-14490000D02*
X28310000Y-14160000D01*
X28790000Y-14160000D01*
X28550000Y-14490000D01*
G36*
X28550000Y-14490000D02*
G01*
X28310000Y-14160000D01*
X28790000Y-14160000D01*
X28550000Y-14490000D01*
G37*
%TO.C,C1*%
X6288748Y-30640000D02*
X7711252Y-30640000D01*
X6288748Y-33360000D02*
X7711252Y-33360000D01*
%TO.C,U1*%
X40890000Y5210000D02*
X40890000Y-600000D01*
X40890000Y5210000D02*
X59110000Y5210000D01*
X40890000Y-14710000D02*
X40890000Y-15010000D01*
X40890000Y-15010000D02*
X59110000Y-15010000D01*
X59110000Y5210000D02*
X59110000Y-1290000D01*
X59110000Y-14710000D02*
X59110000Y-15010000D01*
X40900000Y-1300000D02*
X40400000Y-1300000D01*
X40900000Y-800000D01*
X40900000Y-1300000D01*
G36*
X40900000Y-1300000D02*
G01*
X40400000Y-1300000D01*
X40900000Y-800000D01*
X40900000Y-1300000D01*
G37*
%TO.C,J1*%
X13140000Y-37700000D02*
X13740000Y-38000000D01*
X13140000Y-38300000D02*
X13140000Y-37700000D01*
X13740000Y-38000000D02*
X13140000Y-38300000D01*
X13940000Y-35890000D02*
X15140000Y-35890000D01*
X13940000Y-42910000D02*
X13940000Y-35890000D01*
X15140000Y-34190000D02*
X20820000Y-34190000D01*
X15140000Y-35890000D02*
X15140000Y-34190000D01*
X20820000Y-34190000D02*
X20820000Y-35890000D01*
X20820000Y-35890000D02*
X22020000Y-35890000D01*
X22020000Y-35890000D02*
X22020000Y-42910000D01*
X22020000Y-42910000D02*
X13940000Y-42910000D01*
%TO.C,C7*%
X23288748Y-18090000D02*
X24711252Y-18090000D01*
X23288748Y-19910000D02*
X24711252Y-19910000D01*
%TO.C,C10*%
X44738748Y-35265000D02*
X45261252Y-35265000D01*
X44738748Y-36735000D02*
X45261252Y-36735000D01*
%TD*%
%LPC*%
D12*
%TO.C,H4*%
X67000000Y-39000000D03*
%TD*%
D13*
%TO.C,U3*%
X20862500Y-21050000D03*
X20862500Y-22000000D03*
X20862500Y-22950000D03*
X23137500Y-22950000D03*
X23137500Y-22000000D03*
X23137500Y-21050000D03*
%TD*%
D14*
%TO.C,R4*%
X51087500Y-20000000D03*
X52912500Y-20000000D03*
%TD*%
D12*
%TO.C,H2*%
X67000000Y-3000000D03*
%TD*%
D15*
%TO.C,L1*%
X3050000Y-22000000D03*
X12950000Y-22000000D03*
%TD*%
D12*
%TO.C,H3*%
X3000000Y-39000000D03*
%TD*%
D16*
%TO.C,D1*%
X31000000Y-22000000D03*
X35000000Y-22000000D03*
%TD*%
D17*
%TO.C,C8*%
X36225000Y-19000000D03*
X37775000Y-19000000D03*
%TD*%
D18*
%TO.C,C5*%
X23050000Y-13000000D03*
X24950000Y-13000000D03*
%TD*%
D14*
%TO.C,R3*%
X41087500Y-20000000D03*
X42912500Y-20000000D03*
%TD*%
D18*
%TO.C,C6*%
X36050000Y-13000000D03*
X37950000Y-13000000D03*
%TD*%
D14*
%TO.C,R1*%
X28087500Y-31000000D03*
X29912500Y-31000000D03*
%TD*%
%TO.C,R2*%
X33087500Y-33000000D03*
X34912500Y-33000000D03*
%TD*%
D19*
%TO.C,F1*%
X23600000Y-28000000D03*
X26400000Y-28000000D03*
%TD*%
D20*
%TO.C,C3*%
X29525000Y-38000000D03*
X32475000Y-38000000D03*
%TD*%
D21*
%TO.C,J2*%
X63000000Y-24000000D03*
D22*
X64270000Y-24000000D03*
X65540000Y-24000000D03*
X66810000Y-24000000D03*
X68080000Y-24000000D03*
%TD*%
D12*
%TO.C,H1*%
X3000000Y-3000000D03*
%TD*%
D20*
%TO.C,C2*%
X11525000Y-32000000D03*
X14475000Y-32000000D03*
%TD*%
D23*
%TO.C,J3*%
X51000000Y-39000000D03*
D24*
X53540000Y-39000000D03*
X56080000Y-39000000D03*
X58620000Y-39000000D03*
X61160000Y-39000000D03*
%TD*%
D17*
%TO.C,C4*%
X36225000Y-38000000D03*
X37775000Y-38000000D03*
%TD*%
D18*
%TO.C,C9*%
X46050000Y-20000000D03*
X47950000Y-20000000D03*
%TD*%
D13*
%TO.C,U2*%
X28862500Y-15050000D03*
X28862500Y-16000000D03*
X28862500Y-16950000D03*
X31137500Y-16950000D03*
X31137500Y-15050000D03*
%TD*%
D25*
%TO.C,C1*%
X5525000Y-32000000D03*
X8475000Y-32000000D03*
%TD*%
D26*
%TO.C,U1*%
X41250000Y-2000000D03*
X41250000Y-3500000D03*
X41250000Y-5000000D03*
X41250000Y-6500000D03*
X41250000Y-8000000D03*
X41250000Y-9500000D03*
X41250000Y-11000000D03*
X41250000Y-12500000D03*
X41250000Y-14000000D03*
X58750000Y-14000000D03*
X58750000Y-12500000D03*
X58750000Y-11000000D03*
X58750000Y-9500000D03*
X58750000Y-8000000D03*
X58750000Y-6500000D03*
X58750000Y-5000000D03*
X58750000Y-3500000D03*
X58750000Y-2000000D03*
D27*
X49860000Y-7650000D03*
X49860000Y-8750000D03*
X50410000Y-7100000D03*
X50410000Y-8200000D03*
X50410000Y-9300000D03*
X50960000Y-7650000D03*
D28*
X50960000Y-8200000D03*
D27*
X50960000Y-8750000D03*
X51510000Y-7100000D03*
X51510000Y-8200000D03*
X51510000Y-9300000D03*
X52060000Y-7650000D03*
X52060000Y-8750000D03*
%TD*%
D29*
%TO.C,J1*%
X16000000Y-38000000D03*
D12*
X19960000Y-38000000D03*
%TD*%
D20*
%TO.C,C7*%
X22525000Y-19000000D03*
X25475000Y-19000000D03*
%TD*%
D18*
%TO.C,C10*%
X44050000Y-36000000D03*
X45950000Y-36000000D03*
%TD*%
%LPD*%
M02*
