%TF.GenerationSoftware,KiCad,Pcbnew,10.0.6*%
%TF.CreationDate,2026-09-12T20:41:53+08:00*%
%TF.ProjectId,DormRadar_TX,446f726d-5261-4646-9172-5f54582e6b69,rev?*%
%TF.SameCoordinates,Original*%
%TF.FileFunction,Copper,L1,Top*%
%TF.FilePolarity,Positive*%
%FSLAX46Y46*%
G04 Gerber Fmt 4.6, Leading zero omitted, Abs format (unit mm)*
G04 Created by KiCad (PCBNEW 10.0.6) date 2026-09-12 20:41:53*
%MOMM*%
%LPD*%
G01*
G04 APERTURE LIST*
G04 Aperture macros list*
%AMRoundRect*
0 Rectangle with rounded corners*
0 $1 Rounding radius*
0 $2 $3 $4 $5 $6 $7 $8 $9 X,Y pos of 4 corners*
0 Add a 4 corners polygon primitive as box body*
4,1,4,$2,$3,$4,$5,$6,$7,$8,$9,$2,$3,0*
0 Add four circle primitives for the rounded corners*
1,1,$1+$1,$2,$3*
1,1,$1+$1,$4,$5*
1,1,$1+$1,$6,$7*
1,1,$1+$1,$8,$9*
0 Add four rect primitives between the rounded corners*
20,1,$1+$1,$2,$3,$4,$5,0*
20,1,$1+$1,$4,$5,$6,$7,0*
20,1,$1+$1,$6,$7,$8,$9,0*
20,1,$1+$1,$8,$9,$2,$3,0*%
G04 Aperture macros list end*
%TA.AperFunction,SMDPad,CuDef*%
%ADD10RoundRect,0.150000X-0.512500X-0.150000X0.512500X-0.150000X0.512500X0.150000X-0.512500X0.150000X0*%
%TD*%
%TA.AperFunction,SMDPad,CuDef*%
%ADD11RoundRect,0.250000X-0.262500X-0.450000X0.262500X-0.450000X0.262500X0.450000X-0.262500X0.450000X0*%
%TD*%
%TA.AperFunction,SMDPad,CuDef*%
%ADD12R,2.900000X5.400000*%
%TD*%
%TA.AperFunction,SMDPad,CuDef*%
%ADD13RoundRect,0.250000X-1.000000X-0.650000X1.000000X-0.650000X1.000000X0.650000X-1.000000X0.650000X0*%
%TD*%
%TA.AperFunction,SMDPad,CuDef*%
%ADD14RoundRect,0.225000X-0.225000X-0.250000X0.225000X-0.250000X0.225000X0.250000X-0.225000X0.250000X0*%
%TD*%
%TA.AperFunction,SMDPad,CuDef*%
%ADD15RoundRect,0.250000X-0.250000X-0.475000X0.250000X-0.475000X0.250000X0.475000X-0.250000X0.475000X0*%
%TD*%
%TA.AperFunction,SMDPad,CuDef*%
%ADD16RoundRect,0.250000X-0.375000X-0.625000X0.375000X-0.625000X0.375000X0.625000X-0.375000X0.625000X0*%
%TD*%
%TA.AperFunction,SMDPad,CuDef*%
%ADD17RoundRect,0.250000X-0.325000X-0.650000X0.325000X-0.650000X0.325000X0.650000X-0.325000X0.650000X0*%
%TD*%
%TA.AperFunction,ComponentPad*%
%ADD18R,1.000000X1.000000*%
%TD*%
%TA.AperFunction,ComponentPad*%
%ADD19C,1.000000*%
%TD*%
%TA.AperFunction,ComponentPad*%
%ADD20R,1.700000X1.700000*%
%TD*%
%TA.AperFunction,ComponentPad*%
%ADD21C,1.700000*%
%TD*%
%TA.AperFunction,SMDPad,CuDef*%
%ADD22RoundRect,0.250000X-0.325000X-1.100000X0.325000X-1.100000X0.325000X1.100000X-0.325000X1.100000X0*%
%TD*%
%TA.AperFunction,SMDPad,CuDef*%
%ADD23R,1.500000X0.900000*%
%TD*%
%TA.AperFunction,HeatsinkPad*%
%ADD24C,0.600000*%
%TD*%
%TA.AperFunction,HeatsinkPad*%
%ADD25R,2.900000X2.900000*%
%TD*%
%TA.AperFunction,ComponentPad*%
%ADD26RoundRect,0.250001X-1.099999X-1.099999X1.099999X-1.099999X1.099999X1.099999X-1.099999X1.099999X0*%
%TD*%
%TA.AperFunction,ComponentPad*%
%ADD27C,2.700000*%
%TD*%
%TA.AperFunction,ViaPad*%
%ADD28C,0.600000*%
%TD*%
%TA.AperFunction,Conductor*%
%ADD29C,0.200000*%
%TD*%
G04 APERTURE END LIST*
D10*
%TO.P,U3,1*%
%TO.N,SW*%
X20862500Y-21050000D03*
%TO.P,U3,2*%
%TO.N,GND*%
X20862500Y-22000000D03*
%TO.P,U3,3*%
%TO.N,FB*%
X20862500Y-22950000D03*
%TO.P,U3,4*%
%TO.N,VBAT_F*%
X23137500Y-22950000D03*
%TO.P,U3,5*%
X23137500Y-22000000D03*
%TO.P,U3,6*%
%TO.N,N/C*%
X23137500Y-21050000D03*
%TD*%
D11*
%TO.P,R4,1*%
%TO.N,+3V3*%
X51087500Y-20000000D03*
%TO.P,R4,2*%
%TO.N,BOOT*%
X52912500Y-20000000D03*
%TD*%
D12*
%TO.P,L1,1*%
%TO.N,SW*%
X3050000Y-22000000D03*
%TO.P,L1,2*%
%TO.N,VBAT_F*%
X12950000Y-22000000D03*
%TD*%
D13*
%TO.P,D1,1*%
%TO.N,+5V*%
X31000000Y-22000000D03*
%TO.P,D1,2*%
%TO.N,SW*%
X35000000Y-22000000D03*
%TD*%
D14*
%TO.P,C8,1*%
%TO.N,+3V3*%
X36225000Y-19000000D03*
%TO.P,C8,2*%
%TO.N,GND*%
X37775000Y-19000000D03*
%TD*%
D15*
%TO.P,C5,1*%
%TO.N,+5V*%
X23050000Y-13000000D03*
%TO.P,C5,2*%
%TO.N,GND*%
X24950000Y-13000000D03*
%TD*%
D11*
%TO.P,R3,1*%
%TO.N,+3V3*%
X41087500Y-20000000D03*
%TO.P,R3,2*%
%TO.N,EN*%
X42912500Y-20000000D03*
%TD*%
D15*
%TO.P,C6,1*%
%TO.N,+3V3*%
X36050000Y-13000000D03*
%TO.P,C6,2*%
%TO.N,GND*%
X37950000Y-13000000D03*
%TD*%
D11*
%TO.P,R1,1*%
%TO.N,+5V*%
X28087500Y-31000000D03*
%TO.P,R1,2*%
%TO.N,FB*%
X29912500Y-31000000D03*
%TD*%
%TO.P,R2,1*%
%TO.N,FB*%
X33087500Y-33000000D03*
%TO.P,R2,2*%
%TO.N,GND*%
X34912500Y-33000000D03*
%TD*%
D16*
%TO.P,F1,1*%
%TO.N,VBAT*%
X23600000Y-28000000D03*
%TO.P,F1,2*%
%TO.N,VBAT_F*%
X26400000Y-28000000D03*
%TD*%
D17*
%TO.P,C3,1*%
%TO.N,+5V*%
X29525000Y-38000000D03*
%TO.P,C3,2*%
%TO.N,GND*%
X32475000Y-38000000D03*
%TD*%
D18*
%TO.P,J2,1*%
%TO.N,+5V*%
X63000000Y-24000000D03*
D19*
%TO.P,J2,2*%
%TO.N,GND*%
X64270000Y-24000000D03*
%TO.P,J2,3*%
%TO.N,RADAR_TX*%
X65540000Y-24000000D03*
%TO.P,J2,4*%
%TO.N,RADAR_RX*%
X66810000Y-24000000D03*
%TO.P,J2,5*%
%TO.N,N/C*%
X68080000Y-24000000D03*
%TD*%
D17*
%TO.P,C2,1*%
%TO.N,VBAT_F*%
X11525000Y-32000000D03*
%TO.P,C2,2*%
%TO.N,GND*%
X14475000Y-32000000D03*
%TD*%
D20*
%TO.P,J3,1*%
%TO.N,GND*%
X51000000Y-39000000D03*
D21*
%TO.P,J3,2*%
%TO.N,EN*%
X53540000Y-39000000D03*
%TO.P,J3,3*%
%TO.N,BOOT*%
X56080000Y-39000000D03*
%TO.P,J3,4*%
%TO.N,UART_RX*%
X58620000Y-39000000D03*
%TO.P,J3,5*%
%TO.N,UART_TX*%
X61160000Y-39000000D03*
%TD*%
D14*
%TO.P,C4,1*%
%TO.N,+5V*%
X36225000Y-38000000D03*
%TO.P,C4,2*%
%TO.N,GND*%
X37775000Y-38000000D03*
%TD*%
D15*
%TO.P,C9,1*%
%TO.N,EN*%
X46050000Y-20000000D03*
%TO.P,C9,2*%
%TO.N,GND*%
X47950000Y-20000000D03*
%TD*%
D10*
%TO.P,U2,1*%
%TO.N,+5V*%
X28862500Y-15050000D03*
%TO.P,U2,2*%
%TO.N,GND*%
X28862500Y-16000000D03*
%TO.P,U2,3*%
%TO.N,+5V*%
X28862500Y-16950000D03*
%TO.P,U2,4*%
%TO.N,N/C*%
X31137500Y-16950000D03*
%TO.P,U2,5*%
%TO.N,+3V3*%
X31137500Y-15050000D03*
%TD*%
D22*
%TO.P,C1,1*%
%TO.N,VBAT*%
X5525000Y-32000000D03*
%TO.P,C1,2*%
%TO.N,GND*%
X8475000Y-32000000D03*
%TD*%
D23*
%TO.P,U1,1*%
%TO.N,+3V3*%
X41250000Y-2000000D03*
%TO.P,U1,2*%
%TO.N,EN*%
X41250000Y-3500000D03*
%TO.P,U1,3*%
%TO.N,RADAR_TX*%
X41250000Y-5000000D03*
%TO.P,U1,4*%
%TO.N,RADAR_RX*%
X41250000Y-6500000D03*
%TO.P,U1,5*%
%TO.N,N/C*%
X41250000Y-8000000D03*
%TO.P,U1,6*%
%TO.N,LED_CTRL*%
X41250000Y-9500000D03*
%TO.P,U1,7*%
%TO.N,N/C*%
X41250000Y-11000000D03*
%TO.P,U1,8*%
%TO.N,BOOT*%
X41250000Y-12500000D03*
%TO.P,U1,9*%
%TO.N,GND*%
X41250000Y-14000000D03*
%TO.P,U1,10*%
%TO.N,N/C*%
X58750000Y-14000000D03*
%TO.P,U1,11*%
%TO.N,UART_RX*%
X58750000Y-12500000D03*
%TO.P,U1,12*%
%TO.N,UART_TX*%
X58750000Y-11000000D03*
%TO.P,U1,13*%
%TO.N,N/C*%
X58750000Y-9500000D03*
%TO.P,U1,14*%
X58750000Y-8000000D03*
%TO.P,U1,15*%
X58750000Y-6500000D03*
%TO.P,U1,16*%
X58750000Y-5000000D03*
%TO.P,U1,17*%
X58750000Y-3500000D03*
%TO.P,U1,18*%
X58750000Y-2000000D03*
D24*
%TO.P,U1,19*%
%TO.N,GND*%
X49860000Y-7650000D03*
X49860000Y-8750000D03*
X50410000Y-7100000D03*
X50410000Y-8200000D03*
X50410000Y-9300000D03*
X50960000Y-7650000D03*
D25*
X50960000Y-8200000D03*
D24*
X50960000Y-8750000D03*
X51510000Y-7100000D03*
X51510000Y-8200000D03*
X51510000Y-9300000D03*
X52060000Y-7650000D03*
X52060000Y-8750000D03*
%TD*%
D26*
%TO.P,J1,1*%
%TO.N,VBAT*%
X16000000Y-38000000D03*
D27*
%TO.P,J1,2*%
%TO.N,GND*%
X19960000Y-38000000D03*
%TD*%
D17*
%TO.P,C7,1*%
%TO.N,+3V3*%
X22525000Y-19000000D03*
%TO.P,C7,2*%
%TO.N,GND*%
X25475000Y-19000000D03*
%TD*%
D15*
%TO.P,C10,1*%
%TO.N,+5V*%
X44050000Y-36000000D03*
%TO.P,C10,2*%
%TO.N,GND*%
X45950000Y-36000000D03*
%TD*%
D28*
%TO.N,SW*%
X21926200Y-20493900D03*
X30056200Y-20194600D03*
%TO.N,GND*%
X39971700Y-14336900D03*
X10000000Y-32253100D03*
X48970900Y-20146200D03*
X27464300Y-15514300D03*
X19678300Y-21789800D03*
%TO.N,FB*%
X22000000Y-21541200D03*
X28718800Y-29564900D03*
%TO.N,BOOT*%
X53038000Y-21603600D03*
%TO.N,EN*%
X51087500Y-15372700D03*
%TO.N,RADAR_TX*%
X55817800Y-5183000D03*
%TO.N,RADAR_RX*%
X53584800Y-5602400D03*
%TO.N,UART_RX*%
X57360300Y-13232100D03*
%TO.N,UART_TX*%
X60072500Y-18186100D03*
%TD*%
%TO.N,SW*%
D29*
X7803400Y-18998300D02*
X18810800Y-18998300D01*
X21926200Y-20493900D02*
X21418600Y-20493900D01*
X4801700Y-22000000D02*
X7803400Y-18998300D01*
X21418600Y-20493900D02*
X20862500Y-21050000D01*
X35000000Y-22000000D02*
X33194600Y-20194600D01*
X3050000Y-22000000D02*
X4801700Y-22000000D01*
X33194600Y-20194600D02*
X30056200Y-20194600D01*
X18810800Y-18998300D02*
X20862500Y-21050000D01*
%TO.N,GND*%
X36987100Y-38787900D02*
X37775000Y-38000000D01*
X27464300Y-15514300D02*
X24950000Y-13000000D01*
X45950000Y-38787900D02*
X36987100Y-38787900D01*
X8475000Y-32000000D02*
X8728100Y-32253100D01*
X38525500Y-13250200D02*
X39473500Y-13250200D01*
X33263500Y-38788500D02*
X32475000Y-38000000D01*
X40198300Y-14110300D02*
X39971700Y-14336900D01*
X28862500Y-16000000D02*
X28512500Y-16000000D01*
X37775000Y-16533600D02*
X37775000Y-19000000D01*
X40198300Y-14000000D02*
X40198300Y-14110300D01*
X8728100Y-32253100D02*
X10000000Y-32253100D01*
X39473500Y-13250200D02*
X40223300Y-14000000D01*
X10000000Y-32253100D02*
X10986200Y-33239300D01*
X51000000Y-39000000D02*
X46162100Y-39000000D01*
X36987100Y-38787900D02*
X36986500Y-38788500D01*
X10986200Y-33239300D02*
X13235700Y-33239300D01*
X45950000Y-38787900D02*
X45950000Y-36000000D01*
X46162100Y-39000000D02*
X45950000Y-38787900D01*
X39971700Y-14336900D02*
X37775000Y-16533600D01*
X32475000Y-38000000D02*
X34912500Y-35562500D01*
X50410000Y-8200000D02*
X50960000Y-8200000D01*
X28512500Y-16000000D02*
X27950000Y-16000000D01*
X41250000Y-14000000D02*
X40223300Y-14000000D01*
X27950000Y-16000000D02*
X27464300Y-15514300D01*
X38275300Y-13000000D02*
X38525500Y-13250200D01*
X28475000Y-16000000D02*
X25475000Y-19000000D01*
X20652300Y-21789800D02*
X19678300Y-21789800D01*
X28512500Y-16000000D02*
X28475000Y-16000000D01*
X48096200Y-20146200D02*
X47950000Y-20000000D01*
X40223300Y-14000000D02*
X40198300Y-14000000D01*
X48970900Y-20146200D02*
X48096200Y-20146200D01*
X37950000Y-13000000D02*
X38275300Y-13000000D01*
X34912500Y-35562500D02*
X34912500Y-33000000D01*
X20862500Y-22000000D02*
X20652300Y-21789800D01*
X13235700Y-33239300D02*
X14475000Y-32000000D01*
X36986500Y-38788500D02*
X33263500Y-38788500D01*
%TO.N,FB*%
X29912500Y-31000000D02*
X29912500Y-30758600D01*
X22000000Y-21541200D02*
X22000000Y-22188400D01*
X21238400Y-22950000D02*
X20862500Y-22950000D01*
X29912500Y-30758600D02*
X28718800Y-29564900D01*
X33087500Y-33000000D02*
X31912500Y-33000000D01*
X31912500Y-33000000D02*
X29912500Y-31000000D01*
X22000000Y-22188400D02*
X21238400Y-22950000D01*
%TO.N,VBAT_F*%
X23137500Y-23580200D02*
X23137500Y-22950000D01*
X16281900Y-23580200D02*
X23137500Y-23580200D01*
X12950000Y-22000000D02*
X14701700Y-22000000D01*
X23137500Y-24737500D02*
X23137500Y-23580200D01*
X23137500Y-22950000D02*
X23137500Y-22000000D01*
X24401200Y-29998800D02*
X26400000Y-28000000D01*
X26400000Y-28000000D02*
X23137500Y-24737500D01*
X13526200Y-29998800D02*
X24401200Y-29998800D01*
X11525000Y-32000000D02*
X13526200Y-29998800D01*
X14701700Y-22000000D02*
X16281900Y-23580200D01*
%TO.N,+3V3*%
X41087500Y-20000000D02*
X41087500Y-20348800D01*
X34000000Y-15050000D02*
X34000000Y-16775000D01*
X36225000Y-19000000D02*
X37225000Y-20000000D01*
X22948200Y-11557000D02*
X22237700Y-12267500D01*
X40198300Y-2000000D02*
X29142900Y-13055400D01*
X34000000Y-15050000D02*
X36050000Y-13000000D01*
X41087500Y-20348800D02*
X42198400Y-21459700D01*
X37225000Y-20000000D02*
X41087500Y-20000000D01*
X42198400Y-21459700D02*
X49627800Y-21459700D01*
X41250000Y-2000000D02*
X40198300Y-2000000D01*
X34000000Y-16775000D02*
X36225000Y-19000000D01*
X27644500Y-11557000D02*
X22948200Y-11557000D01*
X22237700Y-18712700D02*
X22525000Y-19000000D01*
X31137500Y-15050000D02*
X29142900Y-13055400D01*
X31137500Y-15050000D02*
X34000000Y-15050000D01*
X49627800Y-21459700D02*
X51087500Y-20000000D01*
X22237700Y-12267500D02*
X22237700Y-18712700D01*
X29142900Y-13055400D02*
X27644500Y-11557000D01*
%TO.N,BOOT*%
X42301700Y-16933400D02*
X42094800Y-17140300D01*
X49805300Y-19742900D02*
X50605200Y-18943000D01*
X42391400Y-21027700D02*
X49007800Y-21027700D01*
X42094800Y-17140300D02*
X42094800Y-20731100D01*
X42094800Y-20731100D02*
X42391400Y-21027700D01*
X49805300Y-20230200D02*
X49805300Y-19742900D01*
X52912500Y-20000000D02*
X53038000Y-20125500D01*
X49007800Y-21027700D02*
X49805300Y-20230200D01*
X42301700Y-12500000D02*
X42301700Y-16933400D01*
X41250000Y-12500000D02*
X42301700Y-12500000D01*
X50605200Y-18943000D02*
X51855500Y-18943000D01*
X53038000Y-20125500D02*
X53038000Y-21603600D01*
X51855500Y-18943000D02*
X52912500Y-20000000D01*
%TO.N,+5V*%
X63000000Y-24000000D02*
X31000000Y-24000000D01*
X44050000Y-36000000D02*
X43431100Y-35381100D01*
X31000000Y-28941500D02*
X32404300Y-28941500D01*
X28087500Y-36562500D02*
X29525000Y-38000000D01*
X25771200Y-11958700D02*
X28862500Y-15050000D01*
X29238400Y-15050000D02*
X28862500Y-15050000D01*
X29271200Y-16950000D02*
X29876300Y-16344900D01*
X31000000Y-24000000D02*
X31000000Y-28941500D01*
X29271200Y-16950000D02*
X29271200Y-20271200D01*
X28087500Y-31000000D02*
X28087500Y-36562500D01*
X28862500Y-16950000D02*
X29271200Y-16950000D01*
X29876300Y-16344900D02*
X29876300Y-15687900D01*
X31000000Y-22000000D02*
X31000000Y-24000000D01*
X23050000Y-13000000D02*
X24091300Y-11958700D01*
X29271200Y-20271200D02*
X31000000Y-22000000D01*
X43431100Y-35381100D02*
X38843900Y-35381100D01*
X38843900Y-35381100D02*
X36225000Y-38000000D01*
X28087500Y-31000000D02*
X28087500Y-29327400D01*
X28473400Y-28941500D02*
X31000000Y-28941500D01*
X29876300Y-15687900D02*
X29238400Y-15050000D01*
X32404300Y-28941500D02*
X38843900Y-35381100D01*
X28087500Y-29327400D02*
X28473400Y-28941500D01*
X24091300Y-11958700D02*
X25771200Y-11958700D01*
%TO.N,EN*%
X46050000Y-20000000D02*
X42912500Y-20000000D01*
X51087500Y-15372700D02*
X50882500Y-15167700D01*
X50882500Y-15167700D02*
X50882300Y-15167700D01*
X54985700Y-3500000D02*
X41250000Y-3500000D01*
X50882500Y-15167700D02*
X56419500Y-9630700D01*
X50882300Y-15167700D02*
X46050000Y-20000000D01*
X56419500Y-9630700D02*
X56419500Y-4933800D01*
X56419500Y-4933800D02*
X54985700Y-3500000D01*
%TO.N,VBAT*%
X9525000Y-28000000D02*
X23600000Y-28000000D01*
X16000000Y-38000000D02*
X11525000Y-38000000D01*
X5525000Y-32000000D02*
X9525000Y-28000000D01*
X11525000Y-38000000D02*
X5525000Y-32000000D01*
%TO.N,RADAR_TX*%
X55634800Y-5000000D02*
X55817800Y-5183000D01*
X41250000Y-5000000D02*
X55634800Y-5000000D01*
%TO.N,RADAR_RX*%
X43199300Y-5602400D02*
X53584800Y-5602400D01*
X41250000Y-6500000D02*
X42301700Y-6500000D01*
X42301700Y-6500000D02*
X43199300Y-5602400D01*
%TO.N,UART_RX*%
X57698300Y-12500000D02*
X57360300Y-12838000D01*
X58750000Y-12500000D02*
X57698300Y-12500000D01*
X57360300Y-12838000D02*
X57360300Y-13232100D01*
%TO.N,UART_TX*%
X56758500Y-14872100D02*
X60072500Y-18186100D01*
X57698300Y-11000000D02*
X56758500Y-11939800D01*
X58750000Y-11000000D02*
X57698300Y-11000000D01*
X56758500Y-11939800D02*
X56758500Y-14872100D01*
%TD*%
M02*
