ISO-10303-21;
HEADER;
FILE_DESCRIPTION (( 'STEP AP203' ),
    '1' );
FILE_NAME ('RX_Base.STEP',
    '2026-09-12T18:20:17',
    ( '' ),
    ( '' ),
    'SwSTEP 2.0',
    'SolidWorks 2024',
    '' );
FILE_SCHEMA (( 'CONFIG_CONTROL_DESIGN' ));
ENDSEC;

DATA;
#1 = EDGE_CURVE ( 'NONE', #915, #593, #380, .T. ) ;
#2 = EDGE_CURVE ( 'NONE', #468, #926, #139, .T. ) ;
#3 =( NAMED_UNIT ( * ) PLANE_ANGLE_UNIT ( ) SI_UNIT ( $, .RADIAN. ) );
#4 = ORIENTED_EDGE ( 'NONE', *, *, #838, .F. ) ;
#5 = CARTESIAN_POINT ( 'NONE',  ( 0.000000000000000000, 0.000000000000000000, 22.00000000000000000 ) ) ;
#6 = LOCAL_TIME ( 2, 20, 17.00000000000000000, #32 ) ;
#7 = ORIENTED_EDGE ( 'NONE', *, *, #720, .T. ) ;
#8 = DIRECTION ( 'NONE',  ( -1.000000000000000000, -0.000000000000000000, -0.000000000000000000 ) ) ;
#9 = EDGE_CURVE ( 'NONE', #390, #842, #892, .T. ) ;
#10 = VECTOR ( 'NONE', #902, 1000.000000000000000 ) ;
#11 = CARTESIAN_POINT ( 'NONE',  ( 71.50000000000001421, 18.00000000000000000, 5.000000000000000000 ) ) ;
#12 = ORIENTED_EDGE ( 'NONE', *, *, #738, .T. ) ;
#13 = ORIENTED_EDGE ( 'NONE', *, *, #44, .F. ) ;
#14 = LINE ( 'NONE', #480, #525 ) ;
#15 = VECTOR ( 'NONE', #713, 1000.000000000000000 ) ;
#16 = ORIENTED_EDGE ( 'NONE', *, *, #584, .T. ) ;
#17 = ORIENTED_EDGE ( 'NONE', *, *, #871, .F. ) ;
#18 = DIRECTION ( 'NONE',  ( -1.000000000000000000, 0.000000000000000000, 0.000000000000000000 ) ) ;
#19 = ADVANCED_FACE ( 'NONE', ( #285 ), #966, .F. ) ;
#20 = EDGE_CURVE ( 'NONE', #322, #145, #813, .T. ) ;
#21 = ORIENTED_EDGE ( 'NONE', *, *, #116, .T. ) ;
#22 = DIRECTION ( 'NONE',  ( 0.000000000000000000, 1.000000000000000000, 0.000000000000000000 ) ) ;
#23 = CIRCLE ( 'NONE', #201, 3.000000000000002665 ) ;
#24 = APPROVAL_DATE_TIME ( #332, #306 ) ;
#25 = DIRECTION ( 'NONE',  ( 0.000000000000000000, 0.000000000000000000, 1.000000000000000000 ) ) ;
#26 = VECTOR ( 'NONE', #746, 1000.000000000000000 ) ;
#27 = EDGE_LOOP ( 'NONE', ( #315, #855 ) ) ;
#28 = LINE ( 'NONE', #484, #779 ) ;
#29 = ORIENTED_EDGE ( 'NONE', *, *, #321, .F. ) ;
#30 = FACE_OUTER_BOUND ( 'NONE', #304, .T. ) ;
#31 = EDGE_LOOP ( 'NONE', ( #934, #54, #395, #610 ) ) ;
#32 = COORDINATED_UNIVERSAL_TIME_OFFSET ( 8, 0, .AHEAD. ) ;
#33 = CARTESIAN_POINT ( 'NONE',  ( 3.499999999999998668, 54.00000000000000000, 5.000000000000000000 ) ) ;
#34 = AXIS2_PLACEMENT_3D ( 'NONE', #269, #961, #801 ) ;
#35 = EDGE_CURVE ( 'NONE', #755, #90, #974, .T. ) ;
#36 = VECTOR ( 'NONE', #839, 1000.000000000000000 ) ;
#37 = ORIENTED_EDGE ( 'NONE', *, *, #9, .F. ) ;
#38 = CARTESIAN_POINT ( 'NONE',  ( 7.599999999999999645, 18.00000000000000000, 22.00000000000000000 ) ) ;
#39 = CARTESIAN_POINT ( 'NONE',  ( 6.500000000000000000, 54.00000000000000000, 5.000000000000000888 ) ) ;
#40 = ORIENTED_EDGE ( 'NONE', *, *, #156, .F. ) ;
#41 = ADVANCED_FACE ( 'NONE', ( #133 ), #56, .T. ) ;
#42 = DIRECTION ( 'NONE',  ( 0.000000000000000000, 1.000000000000000000, 0.000000000000000000 ) ) ;
#43 = DIRECTION ( 'NONE',  ( -0.000000000000000000, -0.000000000000000000, -1.000000000000000000 ) ) ;
#44 = EDGE_CURVE ( 'NONE', #546, #313, #432, .T. ) ;
#45 = PLANE ( 'NONE',  #500 ) ;
#46 = DIRECTION ( 'NONE',  ( 1.000000000000000000, 0.000000000000000000, 0.000000000000000000 ) ) ;
#47 = ADVANCED_FACE ( 'NONE', ( #63 ), #205, .T. ) ;
#48 = EDGE_CURVE ( 'NONE', #926, #922, #413, .T. ) ;
#49 = CARTESIAN_POINT ( 'NONE',  ( 68.50000000000000000, 18.00000000000000000, 5.000000000000000000 ) ) ;
#50 = APPROVAL ( #190, 'æœª' ) ;
#51 = ORIENTED_EDGE ( 'NONE', *, *, #325, .F. ) ;
#52 = LINE ( 'NONE', #742, #76 ) ;
#53 = DIRECTION ( 'NONE',  ( 0.000000000000000000, 0.000000000000000000, 1.000000000000000000 ) ) ;
#54 = ORIENTED_EDGE ( 'NONE', *, *, #688, .T. ) ;
#55 = LOCAL_TIME ( 2, 20, 17.00000000000000000, #954 ) ;
#56 = CYLINDRICAL_SURFACE ( 'NONE', #664, 3.000000000000000000 ) ;
#57 = VERTEX_POINT ( 'NONE', #348 ) ;
#58 = DIRECTION ( 'NONE',  ( -0.000000000000000000, -0.000000000000000000, -1.000000000000000000 ) ) ;
#59 = CARTESIAN_POINT ( 'NONE',  ( 68.50000000000000000, 54.00000000000000000, 5.000000000000000000 ) ) ;
#60 = VECTOR ( 'NONE', #22, 1000.000000000000000 ) ;
#61 = CYLINDRICAL_SURFACE ( 'NONE', #172, 1.100000000000003642 ) ;
#62 = AXIS2_PLACEMENT_3D ( 'NONE', #732, #512, #120 ) ;
#63 = FACE_OUTER_BOUND ( 'NONE', #442, .T. ) ;
#64 = FACE_OUTER_BOUND ( 'NONE', #75, .T. ) ;
#65 = FACE_OUTER_BOUND ( 'NONE', #920, .T. ) ;
#66 = LINE ( 'NONE', #890, #700 ) ;
#67 = FACE_OUTER_BOUND ( 'NONE', #118, .T. ) ;
#68 = ORIENTED_EDGE ( 'NONE', *, *, #616, .F. ) ;
#69 = CYLINDRICAL_SURFACE ( 'NONE', #912, 1.100000000000000311 ) ;
#70 = DIRECTION ( 'NONE',  ( -0.000000000000000000, -0.000000000000000000, -1.000000000000000000 ) ) ;
#71 = AXIS2_PLACEMENT_3D ( 'NONE', #627, #463, #689 ) ;
#72 = FACE_OUTER_BOUND ( 'NONE', #253, .T. ) ;
#73 = ORIENTED_EDGE ( 'NONE', *, *, #48, .F. ) ;
#74 = DIRECTION ( 'NONE',  ( -1.000000000000000000, 0.000000000000000000, 0.000000000000000000 ) ) ;
#75 = EDGE_LOOP ( 'NONE', ( #549, #896 ) ) ;
#76 = VECTOR ( 'NONE', #213, 1000.000000000000000 ) ;
#77 = AXIS2_PLACEMENT_3D ( 'NONE', #580, #886, #821 ) ;
#78 = LINE ( 'NONE', #466, #36 ) ;
#79 = VERTEX_POINT ( 'NONE', #957 ) ;
#80 = DIRECTION ( 'NONE',  ( -1.000000000000000000, 0.000000000000000000, 0.000000000000000000 ) ) ;
#81 = ORIENTED_EDGE ( 'NONE', *, *, #652, .T. ) ;
#82 = DIRECTION ( 'NONE',  ( -1.000000000000000000, 0.000000000000000000, 0.000000000000000000 ) ) ;
#83 = EDGE_CURVE ( 'NONE', #712, #79, #280, .T. ) ;
#84 = ORIENTED_EDGE ( 'NONE', *, *, #774, .T. ) ;
#85 = LINE ( 'NONE', #387, #60 ) ;
#86 = APPROVAL ( #420, 'æœª' ) ;
#87 = CARTESIAN_POINT ( 'NONE',  ( 6.500000000000000000, 54.00000000000000000, 5.000000000000000888 ) ) ;
#88 = CIRCLE ( 'NONE', #216, 3.000000000000000000 ) ;
#89 = EDGE_LOOP ( 'NONE', ( #389, #715, #21, #73 ) ) ;
#90 = VERTEX_POINT ( 'NONE', #878 ) ;
#91 = CARTESIAN_POINT ( 'NONE',  ( 9.500000000000001776, 54.00000000000000000, 2.000000000000000000 ) ) ;
#92 = VECTOR ( 'NONE', #244, 1000.000000000000000 ) ;
#93 = DIRECTION ( 'NONE',  ( -1.000000000000000000, 0.000000000000000000, 0.000000000000000000 ) ) ;
#94 = ORIENTED_EDGE ( 'NONE', *, *, #431, .T. ) ;
#95 = ORIENTED_EDGE ( 'NONE', *, *, #753, .F. ) ;
#96 = LINE ( 'NONE', #398, #559 ) ;
#97 = CARTESIAN_POINT ( 'NONE',  ( 5.399999999999999467, 18.00000000000000000, 0.000000000000000000 ) ) ;
#98 = EDGE_LOOP ( 'NONE', ( #980, #225 ) ) ;
#99 = CARTESIAN_POINT ( 'NONE',  ( 6.500000000000000000, 54.00000000000000000, 2.000000000000000000 ) ) ;
#100 = APPROVAL_STATUS ( 'not_yet_approved' ) ;
#101 = ORIENTED_EDGE ( 'NONE', *, *, #681, .T. ) ;
#102 = DIRECTION ( 'NONE',  ( -1.000000000000000000, -0.000000000000000000, -0.000000000000000000 ) ) ;
#103 = ORIENTED_EDGE ( 'NONE', *, *, #609, .T. ) ;
#104 = VECTOR ( 'NONE', #893, 1000.000000000000000 ) ;
#105 = EDGE_CURVE ( 'NONE', #922, #926, #942, .T. ) ;
#106 = VECTOR ( 'NONE', #226, 1000.000000000000000 ) ;
#107 = PERSON_AND_ORGANIZATION_ROLE ( 'design_supplier' ) ;
#108 = ORIENTED_EDGE ( 'NONE', *, *, #509, .F. ) ;
#109 = CARTESIAN_POINT ( 'NONE',  ( 75.00000000000000000, 0.000000000000000000, 22.00000000000000000 ) ) ;
#110 = DATE_AND_TIME ( #405, #923 ) ;
#111 = CARTESIAN_POINT ( 'NONE',  ( 0.000000000000000000, 61.00000000000000000, 0.000000000000000000 ) ) ;
#112 = ADVANCED_FACE ( 'NONE', ( #670 ), #982, .T. ) ;
#113 = EDGE_CURVE ( 'NONE', #697, #166, #683, .T. ) ;
#114 = CARTESIAN_POINT ( 'NONE',  ( 0.000000000000000000, 0.000000000000000000, 22.00000000000000000 ) ) ;
#115 = CARTESIAN_POINT ( 'NONE',  ( 6.500000000000000000, 54.00000000000000000, 0.000000000000000000 ) ) ;
#116 = EDGE_CURVE ( 'NONE', #702, #922, #502, .T. ) ;
#117 = AXIS2_PLACEMENT_3D ( 'NONE', #967, #504, #440 ) ;
#118 = EDGE_LOOP ( 'NONE', ( #338, #695, #638, #727 ) ) ;
#119 = PERSON_AND_ORGANIZATION_ROLE ( 'classification_officer' ) ;
#120 = DIRECTION ( 'NONE',  ( -1.000000000000000000, 0.000000000000000000, 0.000000000000000000 ) ) ;
#121 = ADVANCED_FACE ( 'NONE', ( #658 ), #191, .T. ) ;
#122 = AXIS2_PLACEMENT_3D ( 'NONE', #963, #204, #751 ) ;
#123 = CARTESIAN_POINT ( 'NONE',  ( 71.50000000000001421, 54.00000000000000000, 2.000000000000000000 ) ) ;
#124 = VECTOR ( 'NONE', #649, 1000.000000000000000 ) ;
#125 = FACE_BOUND ( 'NONE', #780, .T. ) ;
#126 = ORIENTED_EDGE ( 'NONE', *, *, #494, .F. ) ;
#127 = ADVANCED_FACE ( 'NONE', ( #899, #804 ), #421, .F. ) ;
#128 = EDGE_CURVE ( 'NONE', #862, #472, #588, .T. ) ;
#129 = CARTESIAN_POINT ( 'NONE',  ( 73.00000000000000000, 2.000000000000000000, 2.000000000000001776 ) ) ;
#130 = DIRECTION ( 'NONE',  ( 0.000000000000000000, 0.000000000000000000, 1.000000000000000000 ) ) ;
#131 = ORIENTED_EDGE ( 'NONE', *, *, #116, .F. ) ;
#132 = CARTESIAN_POINT ( 'NONE',  ( 0.000000000000000000, 0.000000000000000000, 22.00000000000000000 ) ) ;
#133 = FACE_OUTER_BOUND ( 'NONE', #625, .T. ) ;
#134 = CARTESIAN_POINT ( 'NONE',  ( 0.000000000000000000, 61.00000000000000000, 0.000000000000000000 ) ) ;
#135 = EDGE_LOOP ( 'NONE', ( #848, #359, #456, #663 ) ) ;
#136 = CARTESIAN_POINT ( 'NONE',  ( 75.00000000000000000, 0.000000000000000000, 0.000000000000000000 ) ) ;
#137 = DIRECTION ( 'NONE',  ( -1.000000000000000000, 0.000000000000000000, 0.000000000000000000 ) ) ;
#138 = LOCAL_TIME ( 2, 20, 17.00000000000000000, #181 ) ;
#139 = LINE ( 'NONE', #38, #26 ) ;
#140 = CARTESIAN_POINT ( 'NONE',  ( 65.50000000000000000, 18.00000000000000000, 5.000000000000000000 ) ) ;
#141 = DIRECTION ( 'NONE',  ( -1.000000000000000000, 0.000000000000000000, 0.000000000000000000 ) ) ;
#142 = CIRCLE ( 'NONE', #476, 3.000000000000002665 ) ;
#143 = CARTESIAN_POINT ( 'NONE',  ( 2.000000000000000000, 59.00000000000000000, 2.000000000000001776 ) ) ;
#144 = DIRECTION ( 'NONE',  ( 1.000000000000000000, 0.000000000000000000, -0.000000000000000000 ) ) ;
#145 = VERTEX_POINT ( 'NONE', #830 ) ;
#146 = CARTESIAN_POINT ( 'NONE',  ( 68.50000000000000000, 18.00000000000000000, 22.00000000000000000 ) ) ;
#147 = FACE_BOUND ( 'NONE', #374, .T. ) ;
#148 = EDGE_CURVE ( 'NONE', #534, #284, #585, .T. ) ;
#149 = PLANE ( 'NONE',  #953 ) ;
#150 = ORIENTED_EDGE ( 'NONE', *, *, #258, .T. ) ;
#151 = DIRECTION ( 'NONE',  ( 1.000000000000000000, 0.000000000000000000, 0.000000000000000000 ) ) ;
#152 = ADVANCED_FACE ( 'NONE', ( #436 ), #61, .F. ) ;
#153 = VERTEX_POINT ( 'NONE', #597 ) ;
#154 = AXIS2_PLACEMENT_3D ( 'NONE', #312, #782, #93 ) ;
#155 = FACE_OUTER_BOUND ( 'NONE', #701, .T. ) ;
#156 = EDGE_CURVE ( 'NONE', #989, #707, #744, .T. ) ;
#157 = ORIENTED_EDGE ( 'NONE', *, *, #370, .F. ) ;
#158 = FACE_OUTER_BOUND ( 'NONE', #614, .T. ) ;
#159 = AXIS2_PLACEMENT_3D ( 'NONE', #811, #354, #449 ) ;
#160 = VECTOR ( 'NONE', #272, 1000.000000000000000 ) ;
#161 = EDGE_CURVE ( 'NONE', #776, #962, #23, .T. ) ;
#162 = ORIENTED_EDGE ( 'NONE', *, *, #921, .F. ) ;
#163 = DIRECTION ( 'NONE',  ( -0.000000000000000000, -0.000000000000000000, -1.000000000000000000 ) ) ;
#164 = CARTESIAN_POINT ( 'NONE',  ( 71.50000000000001421, 18.00000000000000000, 5.000000000000000000 ) ) ;
#165 = ORIENTED_EDGE ( 'NONE', *, *, #325, .T. ) ;
#166 = VERTEX_POINT ( 'NONE', #903 ) ;
#167 = CARTESIAN_POINT ( 'NONE',  ( 68.50000000000000000, 18.00000000000000000, 2.000000000000000000 ) ) ;
#168 = MECHANICAL_CONTEXT ( 'NONE', #425, 'mechanical' ) ;
#169 = AXIS2_PLACEMENT_3D ( 'NONE', #245, #399, #82 ) ;
#170 = ORIENTED_EDGE ( 'NONE', *, *, #20, .T. ) ;
#171 = DIRECTION ( 'NONE',  ( 0.000000000000000000, 0.000000000000000000, 1.000000000000000000 ) ) ;
#172 = AXIS2_PLACEMENT_3D ( 'NONE', #197, #673, #221 ) ;
#173 = PERSON_AND_ORGANIZATION_ROLE ( 'design_owner' ) ;
#174 = EDGE_LOOP ( 'NONE', ( #868, #51, #917, #986 ) ) ;
#175 = ORIENTED_EDGE ( 'NONE', *, *, #439, .F. ) ;
#176 = DIRECTION ( 'NONE',  ( -1.000000000000000000, 0.000000000000000000, 0.000000000000000000 ) ) ;
#177 = CIRCLE ( 'NONE', #255, 1.099999999999999423 ) ;
#178 = VERTEX_POINT ( 'NONE', #367 ) ;
#179 = ORIENTED_EDGE ( 'NONE', *, *, #289, .F. ) ;
#180 = CARTESIAN_POINT ( 'NONE',  ( 71.50000000000001421, 54.00000000000000000, 5.000000000000000000 ) ) ;
#181 = COORDINATED_UNIVERSAL_TIME_OFFSET ( 8, 0, .AHEAD. ) ;
#182 = ORIENTED_EDGE ( 'NONE', *, *, #1, .T. ) ;
#183 = DIRECTION ( 'NONE',  ( -0.000000000000000000, -0.000000000000000000, -1.000000000000000000 ) ) ;
#184 = EDGE_CURVE ( 'NONE', #908, #620, #66, .T. ) ;
#185 = AXIS2_PLACEMENT_3D ( 'NONE', #5, #927, #328 ) ;
#186 = ADVANCED_FACE ( 'NONE', ( #816 ), #592, .T. ) ;
#187 = AXIS2_PLACEMENT_3D ( 'NONE', #345, #881, #739 ) ;
#188 = UNCERTAINTY_MEASURE_WITH_UNIT (LENGTH_MEASURE( 1.000000000000000082E-05 ), #789, 'distance_accuracy_value', 'NONE');
#189 = DIRECTION ( 'NONE',  ( -0.000000000000000000, -0.000000000000000000, -1.000000000000000000 ) ) ;
#190 = APPROVAL_STATUS ( 'not_yet_approved' ) ;
#191 = PLANE ( 'NONE',  #331 ) ;
#192 = DIRECTION ( 'NONE',  ( 1.000000000000000000, 0.000000000000000000, 0.000000000000000000 ) ) ;
#193 = ADVANCED_FACE ( 'NONE', ( #528 ), #522, .F. ) ;
#194 = DATE_AND_TIME ( #793, #198 ) ;
#195 = DIRECTION ( 'NONE',  ( -0.000000000000000000, -0.000000000000000000, -1.000000000000000000 ) ) ;
#196 = CARTESIAN_POINT ( 'NONE',  ( 6.500000000000000000, 54.00000000000000000, 22.00000000000000000 ) ) ;
#197 = CARTESIAN_POINT ( 'NONE',  ( 68.50000000000000000, 54.00000000000000000, 22.00000000000000000 ) ) ;
#198 = LOCAL_TIME ( 2, 20, 17.00000000000000000, #482 ) ;
#199 = CC_DESIGN_PERSON_AND_ORGANIZATION_ASSIGNMENT ( #880, #119, ( #486 ) ) ;
#200 = DIRECTION ( 'NONE',  ( -1.000000000000000000, 0.000000000000000000, 0.000000000000000000 ) ) ;
#201 = AXIS2_PLACEMENT_3D ( 'NONE', #275, #668, #730 ) ;
#202 = DIRECTION ( 'NONE',  ( -1.000000000000000000, 0.000000000000000000, 0.000000000000000000 ) ) ;
#203 = ORIENTED_EDGE ( 'NONE', *, *, #552, .T. ) ;
#204 = DIRECTION ( 'NONE',  ( 0.000000000000000000, 0.000000000000000000, 1.000000000000000000 ) ) ;
#205 = CYLINDRICAL_SURFACE ( 'NONE', #62, 3.000000000000000888 ) ;
#206 = FACE_BOUND ( 'NONE', #852, .T. ) ;
#207 = CARTESIAN_POINT ( 'NONE',  ( 2.000000000000000000, 59.00000000000000000, 22.00000000000000000 ) ) ;
#208 = FACE_BOUND ( 'NONE', #98, .T. ) ;
#209 = ORIENTED_EDGE ( 'NONE', *, *, #477, .T. ) ;
#210 = EDGE_CURVE ( 'NONE', #702, #468, #763, .T. ) ;
#211 = DIRECTION ( 'NONE',  ( 0.000000000000000000, 0.000000000000000000, 1.000000000000000000 ) ) ;
#212 = CARTESIAN_POINT ( 'NONE',  ( 65.50000000000000000, 18.00000000000000000, 5.000000000000000000 ) ) ;
#213 = DIRECTION ( 'NONE',  ( 0.000000000000000000, 0.000000000000000000, -1.000000000000000000 ) ) ;
#214 = DIRECTION ( 'NONE',  ( -1.000000000000000000, 0.000000000000000000, 0.000000000000000000 ) ) ;
#215 = VERTEX_POINT ( 'NONE', #143 ) ;
#216 = AXIS2_PLACEMENT_3D ( 'NONE', #279, #130, #292 ) ;
#217 = DIRECTION ( 'NONE',  ( -1.000000000000000000, 0.000000000000000000, -0.000000000000000000 ) ) ;
#218 = FACE_OUTER_BOUND ( 'NONE', #333, .T. ) ;
#219 = ADVANCED_FACE ( 'NONE', ( #147, #271 ), #985, .T. ) ;
#220 = DIRECTION ( 'NONE',  ( 0.000000000000000000, 0.000000000000000000, -1.000000000000000000 ) ) ;
#221 = DIRECTION ( 'NONE',  ( -1.000000000000000000, 0.000000000000000000, 0.000000000000000000 ) ) ;
#222 = PRODUCT_DEFINITION_SHAPE ( 'NONE', 'NONE',  #511 ) ;
#223 = ADVANCED_FACE ( 'NONE', ( #295, #454 ), #350, .T. ) ;
#224 = PLANE ( 'NONE',  #885 ) ;
#225 = ORIENTED_EDGE ( 'NONE', *, *, #113, .F. ) ;
#226 = DIRECTION ( 'NONE',  ( 0.000000000000000000, 0.000000000000000000, -1.000000000000000000 ) ) ;
#227 = EDGE_CURVE ( 'NONE', #215, #322, #757, .T. ) ;
#228 = FACE_OUTER_BOUND ( 'NONE', #327, .T. ) ;
#229 = ORIENTED_EDGE ( 'NONE', *, *, #652, .F. ) ;
#230 = LINE ( 'NONE', #686, #605 ) ;
#231 = ADVANCED_FACE ( 'NONE', ( #125, #429, #208, #361, #662 ), #45, .F. ) ;
#232 = ADVANCED_FACE ( 'NONE', ( #283 ), #895, .T. ) ;
#233 = AXIS2_PLACEMENT_3D ( 'NONE', #818, #976, #748 ) ;
#234 = DIRECTION ( 'NONE',  ( -0.000000000000000000, -0.000000000000000000, 1.000000000000000000 ) ) ;
#235 = EDGE_LOOP ( 'NONE', ( #7, #170, #973, #624 ) ) ;
#236 = DIRECTION ( 'NONE',  ( 0.000000000000000000, 0.000000000000000000, -1.000000000000000000 ) ) ;
#237 = CIRCLE ( 'NONE', #446, 3.000000000000002665 ) ;
#238 = CARTESIAN_POINT ( 'NONE',  ( 75.00000000000000000, 61.00000000000000000, 22.00000000000000000 ) ) ;
#239 = VERTEX_POINT ( 'NONE', #288 ) ;
#240 = CARTESIAN_POINT ( 'NONE',  ( 9.500000000000000000, 18.00000000000000000, 2.000000000000000000 ) ) ;
#241 = ORIENTED_EDGE ( 'NONE', *, *, #494, .T. ) ;
#242 = ORIENTED_EDGE ( 'NONE', *, *, #303, .T. ) ;
#243 = ORIENTED_EDGE ( 'NONE', *, *, #838, .T. ) ;
#244 = DIRECTION ( 'NONE',  ( 0.000000000000000000, 0.000000000000000000, -1.000000000000000000 ) ) ;
#245 = CARTESIAN_POINT ( 'NONE',  ( 6.500000000000000000, 54.00000000000000000, 22.00000000000000000 ) ) ;
#246 = APPROVAL_PERSON_ORGANIZATION ( #940, #86, #648 ) ;
#247 = ORIENTED_EDGE ( 'NONE', *, *, #148, .F. ) ;
#248 = ORIENTED_EDGE ( 'NONE', *, *, #945, .T. ) ;
#249 = DIRECTION ( 'NONE',  ( -0.000000000000000000, -1.000000000000000000, -0.000000000000000000 ) ) ;
#250 = AXIS2_PLACEMENT_3D ( 'NONE', #884, #833, #604 ) ;
#251 = VECTOR ( 'NONE', #351, 1000.000000000000000 ) ;
#252 = DATE_AND_TIME ( #417, #138 ) ;
#253 = EDGE_LOOP ( 'NONE', ( #430, #95, #37, #734 ) ) ;
#254 = FACE_OUTER_BOUND ( 'NONE', #410, .T. ) ;
#255 = AXIS2_PLACEMENT_3D ( 'NONE', #39, #183, #642 ) ;
#256 = DATE_TIME_ROLE ( 'classification_date' ) ;
#257 = CARTESIAN_POINT ( 'NONE',  ( 67.40000000000000568, 54.00000000000000000, 5.000000000000000888 ) ) ;
#258 = EDGE_CURVE ( 'NONE', #145, #783, #475, .T. ) ;
#259 = CALENDAR_DATE ( 2026, 13, 9 ) ;
#260 = VERTEX_POINT ( 'NONE', #837 ) ;
#261 = DIRECTION ( 'NONE',  ( 1.000000000000000000, 0.000000000000000000, 0.000000000000000000 ) ) ;
#262 = CIRCLE ( 'NONE', #311, 1.100000000000003642 ) ;
#263 = CIRCLE ( 'NONE', #860, 3.000000000000001776 ) ;
#264 = CALENDAR_DATE ( 2026, 13, 9 ) ;
#265 = DIRECTION ( 'NONE',  ( 0.000000000000000000, 0.000000000000000000, 1.000000000000000000 ) ) ;
#266 = AXIS2_PLACEMENT_3D ( 'NONE', #99, #858, #80 ) ;
#267 = DATE_AND_TIME ( #259, #6 ) ;
#268 = CARTESIAN_POINT ( 'NONE',  ( 68.50000000000000000, 54.00000000000000000, 5.000000000000000888 ) ) ;
#269 = CARTESIAN_POINT ( 'NONE',  ( 6.500000000000000000, 18.00000000000000000, 5.000000000000000000 ) ) ;
#270 = VERTEX_POINT ( 'NONE', #207 ) ;
#271 = FACE_OUTER_BOUND ( 'NONE', #607, .T. ) ;
#272 = DIRECTION ( 'NONE',  ( 0.000000000000000000, -1.000000000000000000, 0.000000000000000000 ) ) ;
#273 = LINE ( 'NONE', #111, #644 ) ;
#274 = EDGE_LOOP ( 'NONE', ( #931, #977, #243, #718 ) ) ;
#275 = CARTESIAN_POINT ( 'NONE',  ( 68.50000000000000000, 18.00000000000000000, 5.000000000000000000 ) ) ;
#276 = AXIS2_PLACEMENT_3D ( 'NONE', #87, #307, #845 ) ;
#277 = DIRECTION ( 'NONE',  ( -0.000000000000000000, 1.000000000000000000, 0.000000000000000000 ) ) ;
#278 = CIRCLE ( 'NONE', #343, 1.099999999999999423 ) ;
#279 = CARTESIAN_POINT ( 'NONE',  ( 6.500000000000000000, 18.00000000000000000, 5.000000000000000000 ) ) ;
#280 = CIRCLE ( 'NONE', #542, 3.000000000000002665 ) ;
#281 = ORIENTED_EDGE ( 'NONE', *, *, #44, .T. ) ;
#282 = CARTESIAN_POINT ( 'NONE',  ( 65.50000000000000000, 54.00000000000000000, 5.000000000000000000 ) ) ;
#283 = FACE_OUTER_BOUND ( 'NONE', #31, .T. ) ;
#284 = VERTEX_POINT ( 'NONE', #360 ) ;
#285 = FACE_OUTER_BOUND ( 'NONE', #794, .T. ) ;
#286 = CARTESIAN_POINT ( 'NONE',  ( 75.00000000000000000, 0.000000000000000000, 22.00000000000000000 ) ) ;
#287 = DIRECTION ( 'NONE',  ( -0.000000000000000000, -0.000000000000000000, -1.000000000000000000 ) ) ;
#288 = CARTESIAN_POINT ( 'NONE',  ( 71.50000000000001421, 54.00000000000000000, 5.000000000000000000 ) ) ;
#289 = EDGE_CURVE ( 'NONE', #593, #862, #916, .T. ) ;
#290 = EDGE_CURVE ( 'NONE', #846, #260, #230, .T. ) ;
#291 = DIRECTION ( 'NONE',  ( 0.000000000000000000, 0.000000000000000000, -1.000000000000000000 ) ) ;
#292 = DIRECTION ( 'NONE',  ( 1.000000000000000000, 0.000000000000000000, 0.000000000000000000 ) ) ;
#293 = ORIENTED_EDGE ( 'NONE', *, *, #477, .F. ) ;
#294 = DIRECTION ( 'NONE',  ( 1.000000000000000000, 0.000000000000000000, 0.000000000000000000 ) ) ;
#295 = FACE_BOUND ( 'NONE', #904, .T. ) ;
#296 = ORIENTED_EDGE ( 'NONE', *, *, #2, .T. ) ;
#297 = AXIS2_PLACEMENT_3D ( 'NONE', #623, #929, #548 ) ;
#298 = DIRECTION ( 'NONE',  ( 0.000000000000000000, 0.000000000000000000, 1.000000000000000000 ) ) ;
#299 = ORIENTED_EDGE ( 'NONE', *, *, #616, .T. ) ;
#300 = CARTESIAN_POINT ( 'NONE',  ( 2.000000000000000000, 59.00000000000000000, 22.00000000000000000 ) ) ;
#301 = CIRCLE ( 'NONE', #864, 1.100000000000003642 ) ;
#302 = ADVANCED_FACE ( 'NONE', ( #756 ), #969, .F. ) ;
#303 = EDGE_CURVE ( 'NONE', #153, #534, #459, .T. ) ;
#304 = EDGE_LOOP ( 'NONE', ( #955, #590, #12, #179 ) ) ;
#305 = CARTESIAN_POINT ( 'NONE',  ( 68.50000000000000000, 54.00000000000000000, 5.000000000000000888 ) ) ;
#306 = APPROVAL ( #100, 'æœª' ) ;
#307 = DIRECTION ( 'NONE',  ( -0.000000000000000000, -0.000000000000000000, -1.000000000000000000 ) ) ;
#308 = ORIENTED_EDGE ( 'NONE', *, *, #438, .F. ) ;
#309 = CARTESIAN_POINT ( 'NONE',  ( 6.500000000000000000, 18.00000000000000000, 22.00000000000000000 ) ) ;
#310 = AXIS2_PLACEMENT_3D ( 'NONE', #803, #805, #346 ) ;
#311 = AXIS2_PLACEMENT_3D ( 'NONE', #334, #952, #639 ) ;
#312 = CARTESIAN_POINT ( 'NONE',  ( 68.50000000000000000, 18.00000000000000000, 22.00000000000000000 ) ) ;
#313 = VERTEX_POINT ( 'NONE', #443 ) ;
#314 = CARTESIAN_POINT ( 'NONE',  ( 68.50000000000000000, 18.00000000000000000, 5.000000000000000000 ) ) ;
#315 = ORIENTED_EDGE ( 'NONE', *, *, #128, .F. ) ;
#316 = VECTOR ( 'NONE', #626, 1000.000000000000000 ) ;
#317 = ORIENTED_EDGE ( 'NONE', *, *, #970, .T. ) ;
#318 = ORIENTED_EDGE ( 'NONE', *, *, #774, .F. ) ;
#319 = CARTESIAN_POINT ( 'NONE',  ( 6.500000000000000000, 54.00000000000000000, 5.000000000000000000 ) ) ;
#320 = CARTESIAN_POINT ( 'NONE',  ( 2.000000000000000000, 2.000000000000000000, 2.000000000000001776 ) ) ;
#321 = EDGE_CURVE ( 'NONE', #620, #846, #761, .T. ) ;
#322 = VERTEX_POINT ( 'NONE', #596 ) ;
#323 = EDGE_LOOP ( 'NONE', ( #516, #293, #108, #13 ) ) ;
#324 = CARTESIAN_POINT ( 'NONE',  ( 67.40000000000000568, 54.00000000000000000, 22.00000000000000000 ) ) ;
#325 = EDGE_CURVE ( 'NONE', #555, #239, #142, .T. ) ;
#326 = CIRCLE ( 'NONE', #310, 3.000000000000000000 ) ;
#327 = EDGE_LOOP ( 'NONE', ( #434, #229, #479, #825 ) ) ;
#328 = DIRECTION ( 'NONE',  ( 0.000000000000000000, -0.000000000000000000, 1.000000000000000000 ) ) ;
#329 = EDGE_CURVE ( 'NONE', #612, #57, #278, .T. ) ;
#330 = AXIS2_PLACEMENT_3D ( 'NONE', #521, #819, #978 ) ;
#331 = AXIS2_PLACEMENT_3D ( 'NONE', #492, #277, #437 ) ;
#332 = DATE_AND_TIME ( #264, #55 ) ;
#333 = EDGE_LOOP ( 'NONE', ( #622, #467, #396, #209 ) ) ;
#334 = CARTESIAN_POINT ( 'NONE',  ( 68.50000000000000000, 54.00000000000000000, 0.000000000000000000 ) ) ;
#335 = EDGE_CURVE ( 'NONE', #555, #79, #841, .T. ) ;
#336 = CC_DESIGN_DATE_AND_TIME_ASSIGNMENT ( #194, #256, ( #486 ) ) ;
#337 = PERSON_AND_ORGANIZATION ( #773, #987 ) ;
#338 = ORIENTED_EDGE ( 'NONE', *, *, #9, .T. ) ;
#339 = LINE ( 'NONE', #341, #806 ) ;
#340 = APPROVAL_DATE_TIME ( #110, #86 ) ;
#341 = CARTESIAN_POINT ( 'NONE',  ( 73.00000000000000000, 59.00000000000000000, 22.00000000000000000 ) ) ;
#342 = CIRCLE ( 'NONE', #722, 1.099999999999999423 ) ;
#343 = AXIS2_PLACEMENT_3D ( 'NONE', #611, #448, #294 ) ;
#344 = PERSON_AND_ORGANIZATION_ROLE ( 'creator' ) ;
#345 = CARTESIAN_POINT ( 'NONE',  ( 0.000000000000000000, 61.00000000000000000, 22.00000000000000000 ) ) ;
#346 = DIRECTION ( 'NONE',  ( -1.000000000000000000, 0.000000000000000000, 0.000000000000000000 ) ) ;
#347 = VERTEX_POINT ( 'NONE', #603 ) ;
#348 = CARTESIAN_POINT ( 'NONE',  ( 5.400000000000000355, 54.00000000000000000, 0.000000000000000000 ) ) ;
#349 = DIRECTION ( 'NONE',  ( 0.000000000000000000, 0.000000000000000000, -1.000000000000000000 ) ) ;
#350 = PLANE ( 'NONE',  #159 ) ;
#351 = DIRECTION ( 'NONE',  ( 0.000000000000000000, 0.000000000000000000, -1.000000000000000000 ) ) ;
#352 = CARTESIAN_POINT ( 'NONE',  ( 2.000000000000000000, 59.00000000000000000, 22.00000000000000000 ) ) ;
#353 = FACE_OUTER_BOUND ( 'NONE', #89, .T. ) ;
#354 = DIRECTION ( 'NONE',  ( 0.000000000000000000, 0.000000000000000000, 1.000000000000000000 ) ) ;
#355 = CC_DESIGN_APPROVAL ( #86, ( #537 ) ) ;
#356 = CARTESIAN_POINT ( 'NONE',  ( 68.50000000000000000, 18.00000000000000000, 5.000000000000000000 ) ) ;
#357 = VECTOR ( 'NONE', #8, 1000.000000000000000 ) ;
#358 = FACE_OUTER_BOUND ( 'NONE', #235, .T. ) ;
#359 = ORIENTED_EDGE ( 'NONE', *, *, #441, .F. ) ;
#360 = CARTESIAN_POINT ( 'NONE',  ( 67.40000000000000568, 18.00000000000000000, 0.000000000000000000 ) ) ;
#361 = FACE_BOUND ( 'NONE', #27, .T. ) ;
#362 = VECTOR ( 'NONE', #383, 1000.000000000000000 ) ;
#363 = CARTESIAN_POINT ( 'NONE',  ( 68.50000000000000000, 54.00000000000000000, 2.000000000000000000 ) ) ;
#364 = DIRECTION ( 'NONE',  ( 0.000000000000000000, 0.000000000000000000, 1.000000000000000000 ) ) ;
#365 = ORIENTED_EDGE ( 'NONE', *, *, #753, .T. ) ;
#366 = CARTESIAN_POINT ( 'NONE',  ( 7.599999999999998757, 54.00000000000000000, 5.000000000000000888 ) ) ;
#367 = CARTESIAN_POINT ( 'NONE',  ( 3.499999999999998668, 54.00000000000000000, 2.000000000000000000 ) ) ;
#368 = ORIENTED_EDGE ( 'NONE', *, *, #510, .F. ) ;
#369 = CARTESIAN_POINT ( 'NONE',  ( 2.000000000000000000, 2.000000000000000000, 2.000000000000001776 ) ) ;
#370 = EDGE_CURVE ( 'NONE', #178, #567, #829, .T. ) ;
#371 = ORIENTED_EDGE ( 'NONE', *, *, #48, .T. ) ;
#372 = DIRECTION ( 'NONE',  ( 1.000000000000000000, 0.000000000000000000, 0.000000000000000000 ) ) ;
#373 = CARTESIAN_POINT ( 'NONE',  ( 68.50000000000000000, 18.00000000000000000, 5.000000000000000000 ) ) ;
#374 = EDGE_LOOP ( 'NONE', ( #628, #242 ) ) ;
#375 = VECTOR ( 'NONE', #666, 1000.000000000000000 ) ;
#376 = DIRECTION ( 'NONE',  ( 1.000000000000000000, 0.000000000000000000, 0.000000000000000000 ) ) ;
#377 = VECTOR ( 'NONE', #591, 1000.000000000000000 ) ;
#378 = ORIENTED_EDGE ( 'NONE', *, *, #759, .T. ) ;
#379 = DIRECTION ( 'NONE',  ( 1.000000000000000000, 0.000000000000000000, 0.000000000000000000 ) ) ;
#380 = CIRCLE ( 'NONE', #490, 3.000000000000000000 ) ;
#381 = DIRECTION ( 'NONE',  ( -1.000000000000000000, 0.000000000000000000, 0.000000000000000000 ) ) ;
#382 = EDGE_LOOP ( 'NONE', ( #68, #687, #450, #691 ) ) ;
#383 = DIRECTION ( 'NONE',  ( -0.000000000000000000, -0.000000000000000000, -1.000000000000000000 ) ) ;
#384 = EDGE_LOOP ( 'NONE', ( #175, #460, #815, #386 ) ) ;
#385 = CARTESIAN_POINT ( 'NONE',  ( 73.00000000000000000, 59.00000000000000000, 22.00000000000000000 ) ) ;
#386 = ORIENTED_EDGE ( 'NONE', *, *, #571, .F. ) ;
#387 = CARTESIAN_POINT ( 'NONE',  ( 73.00000000000000000, 2.000000000000000000, 22.00000000000000000 ) ) ;
#388 = CIRCLE ( 'NONE', #617, 3.000000000000002665 ) ;
#389 = ORIENTED_EDGE ( 'NONE', *, *, #2, .F. ) ;
#390 = VERTEX_POINT ( 'NONE', #136 ) ;
#391 = LINE ( 'NONE', #324, #92 ) ;
#392 = AXIS2_PLACEMENT_3D ( 'NONE', #535, #287, #372 ) ;
#393 = CC_DESIGN_PERSON_AND_ORGANIZATION_ASSIGNMENT ( #637, #495, ( #537 ) ) ;
#394 = CYLINDRICAL_SURFACE ( 'NONE', #169, 1.099999999999999423 ) ;
#395 = ORIENTED_EDGE ( 'NONE', *, *, #83, .T. ) ;
#396 = ORIENTED_EDGE ( 'NONE', *, *, #720, .F. ) ;
#397 = ORIENTED_EDGE ( 'NONE', *, *, #571, .T. ) ;
#398 = CARTESIAN_POINT ( 'NONE',  ( 0.000000000000000000, 0.000000000000000000, 22.00000000000000000 ) ) ;
#399 = DIRECTION ( 'NONE',  ( 0.000000000000000000, 0.000000000000000000, -1.000000000000000000 ) ) ;
#400 = ORIENTED_EDGE ( 'NONE', *, *, #303, .F. ) ;
#401 = DIRECTION ( 'NONE',  ( -0.000000000000000000, -0.000000000000000000, -1.000000000000000000 ) ) ;
#402 = EDGE_CURVE ( 'NONE', #828, #57, #52, .T. ) ;
#403 = VECTOR ( 'NONE', #411, 1000.000000000000000 ) ;
#404 = ADVANCED_FACE ( 'NONE', ( #353 ), #69, .F. ) ;
#405 = CALENDAR_DATE ( 2026, 13, 9 ) ;
#406 = ORIENTED_EDGE ( 'NONE', *, *, #289, .T. ) ;
#407 = APPROVAL_PERSON_ORGANIZATION ( #632, #50, #798 ) ;
#408 = ADVANCED_FACE ( 'NONE', ( #65 ), #457, .F. ) ;
#409 = DESIGN_CONTEXT ( 'detailed design', #856, 'design' ) ;
#410 = EDGE_LOOP ( 'NONE', ( #103, #731, #872, #785 ) ) ;
#411 = DIRECTION ( 'NONE',  ( -0.000000000000000000, -1.000000000000000000, -0.000000000000000000 ) ) ;
#412 = CIRCLE ( 'NONE', #971, 1.100000000000003642 ) ;
#413 = CIRCLE ( 'NONE', #992, 1.100000000000000311 ) ;
#414 = SHAPE_DEFINITION_REPRESENTATION ( #222, #981 ) ;
#415 = VERTEX_POINT ( 'NONE', #366 ) ;
#416 = CARTESIAN_POINT ( 'NONE',  ( 68.50000000000000000, 54.00000000000000000, 5.000000000000000000 ) ) ;
#417 = CALENDAR_DATE ( 2026, 13, 9 ) ;
#418 = EDGE_CURVE ( 'NONE', #90, #989, #984, .T. ) ;
#419 = CARTESIAN_POINT ( 'NONE',  ( 7.599999999999998757, 54.00000000000000000, 0.000000000000000000 ) ) ;
#420 = APPROVAL_STATUS ( 'not_yet_approved' ) ;
#421 = PLANE ( 'NONE',  #462 ) ;
#422 = LINE ( 'NONE', #180, #579 ) ;
#423 = CIRCLE ( 'NONE', #520, 3.000000000000002665 ) ;
#424 = ORIENTED_EDGE ( 'NONE', *, *, #35, .F. ) ;
#425 = APPLICATION_CONTEXT ( 'configuration controlled 3d designs of mechanical parts and assemblies' ) ;
#426 = AXIS2_PLACEMENT_3D ( 'NONE', #506, #70, #214 ) ;
#427 = DIRECTION ( 'NONE',  ( 1.000000000000000000, 0.000000000000000000, 0.000000000000000000 ) ) ;
#428 = DIRECTION ( 'NONE',  ( 0.000000000000000000, 0.000000000000000000, -1.000000000000000000 ) ) ;
#429 = FACE_BOUND ( 'NONE', #483, .T. ) ;
#430 = ORIENTED_EDGE ( 'NONE', *, *, #290, .F. ) ;
#431 = EDGE_CURVE ( 'NONE', #546, #783, #735, .T. ) ;
#432 = LINE ( 'NONE', #570, #124 ) ;
#433 = FACE_BOUND ( 'NONE', #760, .T. ) ;
#434 = ORIENTED_EDGE ( 'NONE', *, *, #938, .F. ) ;
#435 = CARTESIAN_POINT ( 'NONE',  ( 6.500000000000000000, 54.00000000000000000, 2.000000000000000000 ) ) ;
#436 = FACE_OUTER_BOUND ( 'NONE', #840, .T. ) ;
#437 = DIRECTION ( 'NONE',  ( 0.000000000000000000, -0.000000000000000000, 1.000000000000000000 ) ) ;
#438 = EDGE_CURVE ( 'NONE', #270, #215, #678, .T. ) ;
#439 = EDGE_CURVE ( 'NONE', #90, #755, #412, .T. ) ;
#440 = DIRECTION ( 'NONE',  ( -1.000000000000000000, 0.000000000000000000, 0.000000000000000000 ) ) ;
#441 = EDGE_CURVE ( 'NONE', #347, #260, #995, .T. ) ;
#442 = EDGE_LOOP ( 'NONE', ( #368, #299, #16, #791 ) ) ;
#443 = CARTESIAN_POINT ( 'NONE',  ( 73.00000000000000000, 2.000000000000000000, 22.00000000000000000 ) ) ;
#444 = DIRECTION ( 'NONE',  ( 0.000000000000000000, 0.000000000000000000, -1.000000000000000000 ) ) ;
#445 = DIRECTION ( 'NONE',  ( 0.000000000000000000, 0.000000000000000000, 1.000000000000000000 ) ) ;
#446 = AXIS2_PLACEMENT_3D ( 'NONE', #167, #630, #936 ) ;
#447 = CARTESIAN_POINT ( 'NONE',  ( 68.50000000000000000, 18.00000000000000000, 5.000000000000000888 ) ) ;
#448 = DIRECTION ( 'NONE',  ( 0.000000000000000000, 0.000000000000000000, 1.000000000000000000 ) ) ;
#449 = DIRECTION ( 'NONE',  ( 1.000000000000000000, 0.000000000000000000, -0.000000000000000000 ) ) ;
#450 = ORIENTED_EDGE ( 'NONE', *, *, #564, .T. ) ;
#451 = CARTESIAN_POINT ( 'NONE',  ( 68.50000000000000000, 54.00000000000000000, 2.000000000000000000 ) ) ;
#452 = EDGE_LOOP ( 'NONE', ( #530, #790, #318, #930 ) ) ;
#453 = DIRECTION ( 'NONE',  ( 0.000000000000000000, 0.000000000000000000, -1.000000000000000000 ) ) ;
#454 = FACE_OUTER_BOUND ( 'NONE', #519, .T. ) ;
#455 = PLANE ( 'NONE',  #233 ) ;
#456 = ORIENTED_EDGE ( 'NONE', *, *, #599, .F. ) ;
#457 = CYLINDRICAL_SURFACE ( 'NONE', #587, 1.100000000000003642 ) ;
#458 = AXIS2_PLACEMENT_3D ( 'NONE', #831, #364, #144 ) ;
#459 = CIRCLE ( 'NONE', #392, 1.100000000000003642 ) ;
#460 = ORIENTED_EDGE ( 'NONE', *, *, #418, .T. ) ;
#461 = DIRECTION ( 'NONE',  ( -0.000000000000000000, -0.000000000000000000, -1.000000000000000000 ) ) ;
#462 = AXIS2_PLACEMENT_3D ( 'NONE', #114, #291, #217 ) ;
#463 = DIRECTION ( 'NONE',  ( 1.000000000000000000, -0.000000000000000000, 0.000000000000000000 ) ) ;
#464 = ORIENTED_EDGE ( 'NONE', *, *, #329, .T. ) ;
#465 = LINE ( 'NONE', #847, #357 ) ;
#466 = CARTESIAN_POINT ( 'NONE',  ( 7.599999999999998757, 54.00000000000000000, 22.00000000000000000 ) ) ;
#467 = ORIENTED_EDGE ( 'NONE', *, *, #227, .T. ) ;
#468 = VERTEX_POINT ( 'NONE', #772 ) ;
#469 = CARTESIAN_POINT ( 'NONE',  ( 69.60000000000000853, 18.00000000000000000, 0.000000000000000000 ) ) ;
#470 = CC_DESIGN_PERSON_AND_ORGANIZATION_ASSIGNMENT ( #950, #344, ( #511 ) ) ;
#471 = VECTOR ( 'NONE', #533, 1000.000000000000000 ) ;
#472 = VERTEX_POINT ( 'NONE', #240 ) ;
#473 = ORIENTED_EDGE ( 'NONE', *, *, #156, .T. ) ;
#474 = PLANE ( 'NONE',  #185 ) ;
#475 = LINE ( 'NONE', #320, #925 ) ;
#476 = AXIS2_PLACEMENT_3D ( 'NONE', #59, #667, #151 ) ;
#477 = EDGE_CURVE ( 'NONE', #943, #270, #465, .T. ) ;
#478 = DIRECTION ( 'NONE',  ( 1.000000000000000000, 0.000000000000000000, 0.000000000000000000 ) ) ;
#479 = ORIENTED_EDGE ( 'NONE', *, *, #402, .T. ) ;
#480 = CARTESIAN_POINT ( 'NONE',  ( 3.499999999999998668, 54.00000000000000000, 5.000000000000000000 ) ) ;
#481 = EDGE_CURVE ( 'NONE', #166, #697, #237, .T. ) ;
#482 = COORDINATED_UNIVERSAL_TIME_OFFSET ( 8, 0, .AHEAD. ) ;
#483 = EDGE_LOOP ( 'NONE', ( #157, #800 ) ) ;
#484 = CARTESIAN_POINT ( 'NONE',  ( 69.60000000000000853, 18.00000000000000000, 22.00000000000000000 ) ) ;
#485 = COORDINATED_UNIVERSAL_TIME_OFFSET ( 8, 0, .AHEAD. ) ;
#486 = SECURITY_CLASSIFICATION ( '', '', #566 ) ;
#487 = ORIENTED_EDGE ( 'NONE', *, *, #83, .F. ) ;
#488 = CARTESIAN_POINT ( 'NONE',  ( 73.00000000000000000, 2.000000000000000000, 22.00000000000000000 ) ) ;
#489 = VECTOR ( 'NONE', #444, 1000.000000000000000 ) ;
#490 = AXIS2_PLACEMENT_3D ( 'NONE', #941, #25, #574 ) ;
#491 = CYLINDRICAL_SURFACE ( 'NONE', #699, 1.099999999999999423 ) ;
#492 = CARTESIAN_POINT ( 'NONE',  ( 2.000000000000000000, 2.000000000000000000, 22.00000000000000000 ) ) ;
#493 = DIRECTION ( 'NONE',  ( -0.000000000000000000, -0.000000000000000000, -1.000000000000000000 ) ) ;
#494 = EDGE_CURVE ( 'NONE', #284, #560, #301, .T. ) ;
#495 = PERSON_AND_ORGANIZATION_ROLE ( 'creator' ) ;
#496 = CARTESIAN_POINT ( 'NONE',  ( 6.500000000000000000, 18.00000000000000000, 5.000000000000000000 ) ) ;
#497 = CARTESIAN_POINT ( 'NONE',  ( 71.50000000000001421, 18.00000000000000000, 2.000000000000000000 ) ) ;
#498 = VECTOR ( 'NONE', #775, 1000.000000000000000 ) ;
#499 = DIRECTION ( 'NONE',  ( 1.000000000000000000, 0.000000000000000000, -0.000000000000000000 ) ) ;
#500 = AXIS2_PLACEMENT_3D ( 'NONE', #979, #972, #656 ) ;
#501 = CLOSED_SHELL ( 'NONE', ( #503, #408, #709, #302, #232, #47, #544, #693, #946, #121, #867, #888, #127, #797, #193, #543, #822, #19, #231, #41, #762, #112, #219, #870, #897, #186, #223, #152, #947, #911, #404 ) ) ;
#502 = LINE ( 'NONE', #817, #251 ) ;
#503 = ADVANCED_FACE ( 'NONE', ( #778 ), #541, .F. ) ;
#504 = DIRECTION ( 'NONE',  ( -0.000000000000000000, -0.000000000000000000, -1.000000000000000000 ) ) ;
#505 = EDGE_LOOP ( 'NONE', ( #959, #562, #948, #576 ) ) ;
#506 = CARTESIAN_POINT ( 'NONE',  ( 68.50000000000000000, 54.00000000000000000, 5.000000000000000000 ) ) ;
#507 = VECTOR ( 'NONE', #493, 1000.000000000000000 ) ;
#508 = EDGE_LOOP ( 'NONE', ( #81, #317 ) ) ;
#509 = EDGE_CURVE ( 'NONE', #313, #943, #85, .T. ) ;
#510 = EDGE_CURVE ( 'NONE', #850, #680, #263, .T. ) ;
#511 = PRODUCT_DEFINITION ( 'æœ', '', #537, #409 ) ;
#512 = DIRECTION ( 'NONE',  ( -0.000000000000000000, -0.000000000000000000, -1.000000000000000000 ) ) ;
#513 = DIRECTION ( 'NONE',  ( 0.000000000000000000, 0.000000000000000000, 1.000000000000000000 ) ) ;
#514 = CARTESIAN_POINT ( 'NONE',  ( 3.499999999999999556, 18.00000000000000000, 5.000000000000000000 ) ) ;
#515 = DIRECTION ( 'NONE',  ( -0.000000000000000000, -0.000000000000000000, -1.000000000000000000 ) ) ;
#516 = ORIENTED_EDGE ( 'NONE', *, *, #724, .F. ) ;
#517 = DIRECTION ( 'NONE',  ( 1.000000000000000000, 0.000000000000000000, 0.000000000000000000 ) ) ;
#518 = CARTESIAN_POINT ( 'NONE',  ( 0.000000000000000000, 0.000000000000000000, 0.000000000000000000 ) ) ;
#519 = EDGE_LOOP ( 'NONE', ( #165, #378 ) ) ;
#520 = AXIS2_PLACEMENT_3D ( 'NONE', #49, #298, #814 ) ;
#521 = CARTESIAN_POINT ( 'NONE',  ( 68.50000000000000000, 54.00000000000000000, 22.00000000000000000 ) ) ;
#522 = PLANE ( 'NONE',  #558 ) ;
#523 = ORIENTED_EDGE ( 'NONE', *, *, #128, .T. ) ;
#524 = CARTESIAN_POINT ( 'NONE',  ( 6.500000000000000000, 18.00000000000000000, 2.000000000000000000 ) ) ;
#525 = VECTOR ( 'NONE', #401, 1000.000000000000000 ) ;
#526 = PLANE ( 'NONE',  #458 ) ;
#527 = CARTESIAN_POINT ( 'NONE',  ( 69.60000000000000853, 54.00000000000000000, 22.00000000000000000 ) ) ;
#528 = FACE_OUTER_BOUND ( 'NONE', #135, .T. ) ;
#529 = CARTESIAN_POINT ( 'NONE',  ( 3.499999999999999556, 18.00000000000000000, 2.000000000000000000 ) ) ;
#530 = ORIENTED_EDGE ( 'NONE', *, *, #970, .F. ) ;
#531 = DIRECTION ( 'NONE',  ( -0.000000000000000000, -0.000000000000000000, -1.000000000000000000 ) ) ;
#532 = ORIENTED_EDGE ( 'NONE', *, *, #788, .T. ) ;
#533 = DIRECTION ( 'NONE',  ( -0.000000000000000000, -0.000000000000000000, -1.000000000000000000 ) ) ;
#534 = VERTEX_POINT ( 'NONE', #944 ) ;
#535 = CARTESIAN_POINT ( 'NONE',  ( 68.50000000000000000, 18.00000000000000000, 5.000000000000000888 ) ) ;
#536 = ORIENTED_EDGE ( 'NONE', *, *, #928, .T. ) ;
#537 = PRODUCT_DEFINITION_FORMATION_WITH_SPECIFIED_SOURCE ( 'ä»', '', #747, .NOT_KNOWN. ) ;
#538 = CARTESIAN_POINT ( 'NONE',  ( 68.50000000000000000, 18.00000000000000000, 0.000000000000000000 ) ) ;
#539 = VECTOR ( 'NONE', #163, 1000.000000000000000 ) ;
#540 = ORIENTED_EDGE ( 'NONE', *, *, #854, .F. ) ;
#541 = CYLINDRICAL_SURFACE ( 'NONE', #619, 1.100000000000000311 ) ;
#542 = AXIS2_PLACEMENT_3D ( 'NONE', #363, #594, #653 ) ;
#543 = ADVANCED_FACE ( 'NONE', ( #254 ), #474, .F. ) ;
#544 = ADVANCED_FACE ( 'NONE', ( #158 ), #787, .T. ) ;
#545 = CYLINDRICAL_SURFACE ( 'NONE', #154, 1.100000000000003642 ) ;
#546 = VERTEX_POINT ( 'NONE', #557 ) ;
#547 = DIRECTION ( 'NONE',  ( -0.000000000000000000, -0.000000000000000000, -1.000000000000000000 ) ) ;
#548 = DIRECTION ( 'NONE',  ( 1.000000000000000000, 0.000000000000000000, 0.000000000000000000 ) ) ;
#549 = ORIENTED_EDGE ( 'NONE', *, *, #834, .T. ) ;
#550 = EDGE_LOOP ( 'NONE', ( #669, #203, #951, #634 ) ) ;
#551 = CARTESIAN_POINT ( 'NONE',  ( 9.500000000000000000, 18.00000000000000000, 5.000000000000000000 ) ) ;
#552 = EDGE_CURVE ( 'NONE', #347, #711, #851, .T. ) ;
#553 = CIRCLE ( 'NONE', #823, 1.100000000000003642 ) ;
#554 = FACE_OUTER_BOUND ( 'NONE', #583, .T. ) ;
#555 = VERTEX_POINT ( 'NONE', #561 ) ;
#556 = ORIENTED_EDGE ( 'NONE', *, *, #161, .T. ) ;
#557 = CARTESIAN_POINT ( 'NONE',  ( 2.000000000000000000, 2.000000000000000000, 22.00000000000000000 ) ) ;
#558 = AXIS2_PLACEMENT_3D ( 'NONE', #132, #827, #736 ) ;
#559 = VECTOR ( 'NONE', #249, 1000.000000000000000 ) ;
#560 = VERTEX_POINT ( 'NONE', #469 ) ;
#561 = CARTESIAN_POINT ( 'NONE',  ( 65.50000000000000000, 54.00000000000000000, 5.000000000000000000 ) ) ;
#562 = ORIENTED_EDGE ( 'NONE', *, *, #258, .F. ) ;
#563 = LINE ( 'NONE', #729, #403 ) ;
#564 = EDGE_CURVE ( 'NONE', #680, #178, #14, .T. ) ;
#565 = APPROVAL_PERSON_ORGANIZATION ( #573, #306, #875 ) ;
#566 = SECURITY_CLASSIFICATION_LEVEL ( 'unclassified' ) ;
#567 = VERTEX_POINT ( 'NONE', #91 ) ;
#568 = FACE_BOUND ( 'NONE', #598, .T. ) ;
#569 = VECTOR ( 'NONE', #608, 1000.000000000000000 ) ;
#570 = CARTESIAN_POINT ( 'NONE',  ( 2.000000000000000000, 2.000000000000000000, 22.00000000000000000 ) ) ;
#571 = EDGE_CURVE ( 'NONE', #755, #707, #391, .T. ) ;
#572 = DIRECTION ( 'NONE',  ( 1.000000000000000000, 0.000000000000000000, -0.000000000000000000 ) ) ;
#573 = PERSON_AND_ORGANIZATION ( #773, #987 ) ;
#574 = DIRECTION ( 'NONE',  ( 1.000000000000000000, 0.000000000000000000, 0.000000000000000000 ) ) ;
#575 = CYLINDRICAL_SURFACE ( 'NONE', #34, 3.000000000000000000 ) ;
#576 = ORIENTED_EDGE ( 'NONE', *, *, #227, .F. ) ;
#577 = DIRECTION ( 'NONE',  ( -1.000000000000000000, -0.000000000000000000, -0.000000000000000000 ) ) ;
#578 = EDGE_CURVE ( 'NONE', #468, #702, #647, .T. ) ;
#579 = VECTOR ( 'NONE', #189, 1000.000000000000000 ) ;
#580 = CARTESIAN_POINT ( 'NONE',  ( 68.50000000000000000, 18.00000000000000000, 2.000000000000000000 ) ) ;
#581 = DIRECTION ( 'NONE',  ( 0.000000000000000000, -0.000000000000000000, -1.000000000000000000 ) ) ;
#582 = AXIS2_PLACEMENT_3D ( 'NONE', #451, #234, #381 ) ;
#583 = EDGE_LOOP ( 'NONE', ( #786, #17, #836, #162 ) ) ;
#584 = EDGE_CURVE ( 'NONE', #567, #178, #991, .T. ) ;
#585 = LINE ( 'NONE', #910, #489 ) ;
#586 = EDGE_CURVE ( 'NONE', #915, #472, #932, .T. ) ;
#587 = AXIS2_PLACEMENT_3D ( 'NONE', #146, #919, #74 ) ;
#588 = CIRCLE ( 'NONE', #891, 3.000000000000000000 ) ;
#589 = FACE_BOUND ( 'NONE', #935, .T. ) ;
#590 = ORIENTED_EDGE ( 'NONE', *, *, #586, .T. ) ;
#591 = DIRECTION ( 'NONE',  ( 0.000000000000000000, 0.000000000000000000, -1.000000000000000000 ) ) ;
#592 = CYLINDRICAL_SURFACE ( 'NONE', #426, 3.000000000000002665 ) ;
#593 = VERTEX_POINT ( 'NONE', #692 ) ;
#594 = DIRECTION ( 'NONE',  ( -0.000000000000000000, -0.000000000000000000, 1.000000000000000000 ) ) ;
#595 = FACE_BOUND ( 'NONE', #508, .T. ) ;
#596 = CARTESIAN_POINT ( 'NONE',  ( 73.00000000000000000, 59.00000000000000000, 2.000000000000001776 ) ) ;
#597 = CARTESIAN_POINT ( 'NONE',  ( 69.60000000000000853, 18.00000000000000000, 5.000000000000000888 ) ) ;
#598 = EDGE_LOOP ( 'NONE', ( #629, #657 ) ) ;
#599 = EDGE_CURVE ( 'NONE', #620, #347, #96, .T. ) ;
#600 = DIRECTION ( 'NONE',  ( -1.000000000000000000, 0.000000000000000000, 0.000000000000000000 ) ) ;
#601 = CARTESIAN_POINT ( 'NONE',  ( 5.400000000000000355, 54.00000000000000000, 5.000000000000000888 ) ) ;
#602 = CC_DESIGN_SECURITY_CLASSIFICATION ( #486, ( #537 ) ) ;
#603 = CARTESIAN_POINT ( 'NONE',  ( 0.000000000000000000, 0.000000000000000000, 22.00000000000000000 ) ) ;
#604 = DIRECTION ( 'NONE',  ( 1.000000000000000000, 0.000000000000000000, 0.000000000000000000 ) ) ;
#605 = VECTOR ( 'NONE', #990, 1000.000000000000000 ) ;
#606 = DIRECTION ( 'NONE',  ( 1.000000000000000000, 0.000000000000000000, 0.000000000000000000 ) ) ;
#607 = EDGE_LOOP ( 'NONE', ( #556, #994 ) ) ;
#608 = DIRECTION ( 'NONE',  ( -0.000000000000000000, -0.000000000000000000, -1.000000000000000000 ) ) ;
#609 = EDGE_CURVE ( 'NONE', #260, #390, #708, .T. ) ;
#610 = ORIENTED_EDGE ( 'NONE', *, *, #335, .F. ) ;
#611 = CARTESIAN_POINT ( 'NONE',  ( 6.500000000000000000, 54.00000000000000000, 0.000000000000000000 ) ) ;
#612 = VERTEX_POINT ( 'NONE', #419 ) ;
#613 = LINE ( 'NONE', #933, #498 ) ;
#614 = EDGE_LOOP ( 'NONE', ( #540, #536, #901, #4 ) ) ;
#615 = DIRECTION ( 'NONE',  ( 0.000000000000000000, 0.000000000000000000, 1.000000000000000000 ) ) ;
#616 = EDGE_CURVE ( 'NONE', #850, #567, #717, .T. ) ;
#617 = AXIS2_PLACEMENT_3D ( 'NONE', #416, #719, #261 ) ;
#618 = CARTESIAN_POINT ( 'NONE',  ( 69.60000000000000853, 54.00000000000000000, 0.000000000000000000 ) ) ;
#619 = AXIS2_PLACEMENT_3D ( 'NONE', #309, #236, #176 ) ;
#620 = VERTEX_POINT ( 'NONE', #654 ) ;
#621 = CARTESIAN_POINT ( 'NONE',  ( 0.000000000000000000, 0.000000000000000000, 22.00000000000000000 ) ) ;
#622 = ORIENTED_EDGE ( 'NONE', *, *, #438, .T. ) ;
#623 = CARTESIAN_POINT ( 'NONE',  ( 0.000000000000000000, 0.000000000000000000, 0.000000000000000000 ) ) ;
#624 = ORIENTED_EDGE ( 'NONE', *, *, #509, .T. ) ;
#625 = EDGE_LOOP ( 'NONE', ( #741, #651, #406, #523 ) ) ;
#626 = DIRECTION ( 'NONE',  ( 1.000000000000000000, 0.000000000000000000, 0.000000000000000000 ) ) ;
#627 = CARTESIAN_POINT ( 'NONE',  ( 2.000000000000000000, 2.000000000000000000, 22.00000000000000000 ) ) ;
#628 = ORIENTED_EDGE ( 'NONE', *, *, #871, .T. ) ;
#629 = ORIENTED_EDGE ( 'NONE', *, *, #210, .T. ) ;
#630 = DIRECTION ( 'NONE',  ( -0.000000000000000000, -0.000000000000000000, 1.000000000000000000 ) ) ;
#631 = AXIS2_PLACEMENT_3D ( 'NONE', #518, #740, #754 ) ;
#632 = PERSON_AND_ORGANIZATION ( #773, #987 ) ;
#633 = ORIENTED_EDGE ( 'NONE', *, *, #863, .T. ) ;
#634 = ORIENTED_EDGE ( 'NONE', *, *, #184, .T. ) ;
#635 = CARTESIAN_POINT ( 'NONE',  ( 68.50000000000000000, 18.00000000000000000, 0.000000000000000000 ) ) ;
#636 = VECTOR ( 'NONE', #220, 1000.000000000000000 ) ;
#637 = PERSON_AND_ORGANIZATION ( #773, #987 ) ;
#638 = ORIENTED_EDGE ( 'NONE', *, *, #883, .F. ) ;
#639 = DIRECTION ( 'NONE',  ( 1.000000000000000000, 0.000000000000000000, 0.000000000000000000 ) ) ;
#640 = APPLICATION_PROTOCOL_DEFINITION ( 'international standard', 'config_control_design', 1994, #856 ) ;
#641 = ORIENTED_EDGE ( 'NONE', *, *, #690, .T. ) ;
#642 = DIRECTION ( 'NONE',  ( 1.000000000000000000, 0.000000000000000000, 0.000000000000000000 ) ) ;
#643 = CC_DESIGN_PERSON_AND_ORGANIZATION_ASSIGNMENT ( #861, #173, ( #747 ) ) ;
#644 = VECTOR ( 'NONE', #102, 1000.000000000000000 ) ;
#645 = DATE_TIME_ROLE ( 'creation_date' ) ;
#646 = PLANE ( 'NONE',  #660 ) ;
#647 = CIRCLE ( 'NONE', #784, 1.100000000000000311 ) ;
#648 = APPROVAL_ROLE ( '' ) ;
#649 = DIRECTION ( 'NONE',  ( 1.000000000000000000, 0.000000000000000000, 0.000000000000000000 ) ) ;
#650 = CARTESIAN_POINT ( 'NONE',  ( 9.500000000000001776, 54.00000000000000000, 5.000000000000000000 ) ) ;
#651 = ORIENTED_EDGE ( 'NONE', *, *, #863, .F. ) ;
#652 = EDGE_CURVE ( 'NONE', #828, #415, #177, .T. ) ;
#653 = DIRECTION ( 'NONE',  ( -1.000000000000000000, 0.000000000000000000, 0.000000000000000000 ) ) ;
#654 = CARTESIAN_POINT ( 'NONE',  ( 0.000000000000000000, 61.00000000000000000, 22.00000000000000000 ) ) ;
#655 = EDGE_CURVE ( 'NONE', #711, #390, #873, .T. ) ;
#656 = DIRECTION ( 'NONE',  ( -1.000000000000000000, 0.000000000000000000, -0.000000000000000000 ) ) ;
#657 = ORIENTED_EDGE ( 'NONE', *, *, #578, .T. ) ;
#658 = FACE_OUTER_BOUND ( 'NONE', #964, .T. ) ;
#659 = PLANE ( 'NONE',  #631 ) ;
#660 = AXIS2_PLACEMENT_3D ( 'NONE', #956, #265, #572 ) ;
#661 = DIRECTION ( 'NONE',  ( -0.000000000000000000, -0.000000000000000000, -1.000000000000000000 ) ) ;
#662 = FACE_OUTER_BOUND ( 'NONE', #505, .T. ) ;
#663 = ORIENTED_EDGE ( 'NONE', *, *, #321, .T. ) ;
#664 = AXIS2_PLACEMENT_3D ( 'NONE', #496, #808, #200 ) ;
#665 = DIRECTION ( 'NONE',  ( -1.000000000000000000, 0.000000000000000000, 0.000000000000000000 ) ) ;
#666 = DIRECTION ( 'NONE',  ( 0.000000000000000000, 1.000000000000000000, 0.000000000000000000 ) ) ;
#667 = DIRECTION ( 'NONE',  ( 0.000000000000000000, 0.000000000000000000, 1.000000000000000000 ) ) ;
#668 = DIRECTION ( 'NONE',  ( 0.000000000000000000, 0.000000000000000000, 1.000000000000000000 ) ) ;
#669 = ORIENTED_EDGE ( 'NONE', *, *, #599, .T. ) ;
#670 = FACE_OUTER_BOUND ( 'NONE', #274, .T. ) ;
#671 = CARTESIAN_POINT ( 'NONE',  ( 9.500000000000001776, 54.00000000000000000, 5.000000000000000000 ) ) ;
#672 = CARTESIAN_POINT ( 'NONE',  ( 0.000000000000000000, 61.00000000000000000, 22.00000000000000000 ) ) ;
#673 = DIRECTION ( 'NONE',  ( 0.000000000000000000, 0.000000000000000000, -1.000000000000000000 ) ) ;
#674 = CC_DESIGN_DATE_AND_TIME_ASSIGNMENT ( #267, #645, ( #511 ) ) ;
#675 = DIRECTION ( 'NONE',  ( 0.000000000000000000, 0.000000000000000000, 1.000000000000000000 ) ) ;
#676 = ORIENTED_EDGE ( 'NONE', *, *, #418, .F. ) ;
#677 = CIRCLE ( 'NONE', #582, 3.000000000000002665 ) ;
#678 = LINE ( 'NONE', #300, #106 ) ;
#679 = CARTESIAN_POINT ( 'NONE',  ( 2.000000000000000000, 59.00000000000000000, 2.000000000000001776 ) ) ;
#680 = VERTEX_POINT ( 'NONE', #33 ) ;
#681 = EDGE_CURVE ( 'NONE', #313, #145, #876, .T. ) ;
#682 = AXIS2_PLACEMENT_3D ( 'NONE', #314, #547, #18 ) ;
#683 = CIRCLE ( 'NONE', #77, 3.000000000000002665 ) ;
#684 = DIRECTION ( 'NONE',  ( -0.000000000000000000, -0.000000000000000000, -1.000000000000000000 ) ) ;
#685 = ORIENTED_EDGE ( 'NONE', *, *, #431, .F. ) ;
#686 = CARTESIAN_POINT ( 'NONE',  ( 0.000000000000000000, 0.000000000000000000, 0.000000000000000000 ) ) ;
#687 = ORIENTED_EDGE ( 'NONE', *, *, #834, .F. ) ;
#688 = EDGE_CURVE ( 'NONE', #239, #712, #422, .T. ) ;
#689 = DIRECTION ( 'NONE',  ( 0.000000000000000000, 0.000000000000000000, -1.000000000000000000 ) ) ;
#690 = EDGE_CURVE ( 'NONE', #153, #560, #28, .T. ) ;
#691 = ORIENTED_EDGE ( 'NONE', *, *, #370, .T. ) ;
#692 = CARTESIAN_POINT ( 'NONE',  ( 3.499999999999999556, 18.00000000000000000, 5.000000000000000000 ) ) ;
#693 = ADVANCED_FACE ( 'NONE', ( #30 ), #575, .T. ) ;
#694 =( NAMED_UNIT ( * ) SI_UNIT ( $, .STERADIAN. ) SOLID_ANGLE_UNIT ( ) );
#695 = ORIENTED_EDGE ( 'NONE', *, *, #788, .F. ) ;
#696 = DIRECTION ( 'NONE',  ( 1.000000000000000000, 0.000000000000000000, 0.000000000000000000 ) ) ;
#697 = VERTEX_POINT ( 'NONE', #497 ) ;
#698 = CIRCLE ( 'NONE', #276, 1.099999999999999423 ) ;
#699 = AXIS2_PLACEMENT_3D ( 'NONE', #196, #349, #795 ) ;
#700 = VECTOR ( 'NONE', #577, 1000.000000000000000 ) ;
#701 = EDGE_LOOP ( 'NONE', ( #94, #248, #308, #726 ) ) ;
#702 = VERTEX_POINT ( 'NONE', #882 ) ;
#703 = CARTESIAN_POINT ( 'NONE',  ( 6.500000000000000000, 18.00000000000000000, 5.000000000000000888 ) ) ;
#704 = VECTOR ( 'NONE', #43, 1000.000000000000000 ) ;
#705 = PLANE ( 'NONE',  #71 ) ;
#706 = ORIENTED_EDGE ( 'NONE', *, *, #749, .T. ) ;
#707 = VERTEX_POINT ( 'NONE', #725 ) ;
#708 = LINE ( 'NONE', #866, #15 ) ;
#709 = ADVANCED_FACE ( 'NONE', ( #809 ), #491, .F. ) ;
#710 = CARTESIAN_POINT ( 'NONE',  ( 9.500000000000000000, 18.00000000000000000, 5.000000000000000000 ) ) ;
#711 = VERTEX_POINT ( 'NONE', #109 ) ;
#712 = VERTEX_POINT ( 'NONE', #123 ) ;
#713 = DIRECTION ( 'NONE',  ( 1.000000000000000000, 0.000000000000000000, 0.000000000000000000 ) ) ;
#714 = APPROVAL_DATE_TIME ( #252, #50 ) ;
#715 = ORIENTED_EDGE ( 'NONE', *, *, #210, .F. ) ;
#716 = ORIENTED_EDGE ( 'NONE', *, *, #105, .T. ) ;
#717 = LINE ( 'NONE', #650, #704 ) ;
#718 = ORIENTED_EDGE ( 'NONE', *, *, #481, .T. ) ;
#719 = DIRECTION ( 'NONE',  ( 0.000000000000000000, 0.000000000000000000, 1.000000000000000000 ) ) ;
#720 = EDGE_CURVE ( 'NONE', #943, #322, #339, .T. ) ;
#721 = FACE_OUTER_BOUND ( 'NONE', #767, .T. ) ;
#722 = AXIS2_PLACEMENT_3D ( 'NONE', #115, #879, #192 ) ;
#723 = CARTESIAN_POINT ( 'NONE',  ( 75.00000000000000000, 0.000000000000000000, 0.000000000000000000 ) ) ;
#724 = EDGE_CURVE ( 'NONE', #270, #546, #563, .T. ) ;
#725 = CARTESIAN_POINT ( 'NONE',  ( 67.40000000000000568, 54.00000000000000000, 0.000000000000000000 ) ) ;
#726 = ORIENTED_EDGE ( 'NONE', *, *, #724, .T. ) ;
#727 = ORIENTED_EDGE ( 'NONE', *, *, #655, .T. ) ;
#728 = CARTESIAN_POINT ( 'NONE',  ( 6.500000000000000000, 18.00000000000000000, 0.000000000000000000 ) ) ;
#729 = CARTESIAN_POINT ( 'NONE',  ( 2.000000000000000000, 2.000000000000000000, 22.00000000000000000 ) ) ;
#730 = DIRECTION ( 'NONE',  ( 1.000000000000000000, 0.000000000000000000, 0.000000000000000000 ) ) ;
#731 = ORIENTED_EDGE ( 'NONE', *, *, #655, .F. ) ;
#732 = CARTESIAN_POINT ( 'NONE',  ( 6.500000000000000000, 54.00000000000000000, 5.000000000000000000 ) ) ;
#733 = FACE_OUTER_BOUND ( 'NONE', #382, .T. ) ;
#734 = ORIENTED_EDGE ( 'NONE', *, *, #609, .F. ) ;
#735 = LINE ( 'NONE', #832, #377 ) ;
#736 = DIRECTION ( 'NONE',  ( 0.000000000000000000, 0.000000000000000000, -1.000000000000000000 ) ) ;
#737 = ORIENTED_EDGE ( 'NONE', *, *, #898, .F. ) ;
#738 = EDGE_CURVE ( 'NONE', #472, #862, #326, .T. ) ;
#739 = DIRECTION ( 'NONE',  ( 0.000000000000000000, -0.000000000000000000, -1.000000000000000000 ) ) ;
#740 = DIRECTION ( 'NONE',  ( 0.000000000000000000, 0.000000000000000000, -1.000000000000000000 ) ) ;
#741 = ORIENTED_EDGE ( 'NONE', *, *, #586, .F. ) ;
#742 = CARTESIAN_POINT ( 'NONE',  ( 5.400000000000000355, 54.00000000000000000, 22.00000000000000000 ) ) ;
#743 = DIRECTION ( 'NONE',  ( 1.000000000000000000, 0.000000000000000000, 0.000000000000000000 ) ) ;
#744 = CIRCLE ( 'NONE', #122, 1.100000000000003642 ) ;
#745 = AXIS2_PLACEMENT_3D ( 'NONE', #975, #211, #46 ) ;
#746 = DIRECTION ( 'NONE',  ( 0.000000000000000000, 0.000000000000000000, -1.000000000000000000 ) ) ;
#747 = PRODUCT ( 'RX_Base', 'RX_Base', '', ( #168 ) ) ;
#748 = DIRECTION ( 'NONE',  ( 0.000000000000000000, 0.000000000000000000, 1.000000000000000000 ) ) ;
#749 = EDGE_CURVE ( 'NONE', #707, #989, #262, .T. ) ;
#750 = DIRECTION ( 'NONE',  ( -1.000000000000000000, 0.000000000000000000, 0.000000000000000000 ) ) ;
#751 = DIRECTION ( 'NONE',  ( 1.000000000000000000, 0.000000000000000000, 0.000000000000000000 ) ) ;
#752 = ORIENTED_EDGE ( 'NONE', *, *, #439, .T. ) ;
#753 = EDGE_CURVE ( 'NONE', #842, #846, #273, .T. ) ;
#754 = DIRECTION ( 'NONE',  ( -1.000000000000000000, 0.000000000000000000, -0.000000000000000000 ) ) ;
#755 = VERTEX_POINT ( 'NONE', #257 ) ;
#756 = FACE_OUTER_BOUND ( 'NONE', #384, .T. ) ;
#757 = LINE ( 'NONE', #679, #939 ) ;
#758 = CARTESIAN_POINT ( 'NONE',  ( 75.00000000000000000, 61.00000000000000000, 22.00000000000000000 ) ) ;
#759 = EDGE_CURVE ( 'NONE', #239, #555, #388, .T. ) ;
#760 = EDGE_LOOP ( 'NONE', ( #706, #473 ) ) ;
#761 = LINE ( 'NONE', #672, #569 ) ;
#762 = ADVANCED_FACE ( 'NONE', ( #568, #721 ), #646, .T. ) ;
#763 = CIRCLE ( 'NONE', #250, 1.100000000000000311 ) ;
#764 = CC_DESIGN_PERSON_AND_ORGANIZATION_ASSIGNMENT ( #337, #107, ( #537 ) ) ;
#765 = AXIS2_PLACEMENT_3D ( 'NONE', #268, #195, #517 ) ;
#766 = LINE ( 'NONE', #164, #471 ) ;
#767 = EDGE_LOOP ( 'NONE', ( #633, #182 ) ) ;
#768 = DIRECTION ( 'NONE',  ( 1.000000000000000000, 0.000000000000000000, 0.000000000000000000 ) ) ;
#769 = VECTOR ( 'NONE', #958, 1000.000000000000000 ) ;
#770 = CARTESIAN_POINT ( 'NONE',  ( 7.599999999999999645, 18.00000000000000000, 0.000000000000000000 ) ) ;
#771 = ORIENTED_EDGE ( 'NONE', *, *, #184, .F. ) ;
#772 = CARTESIAN_POINT ( 'NONE',  ( 7.599999999999999645, 18.00000000000000000, 5.000000000000000888 ) ) ;
#773 = PERSON ( 'æœª', 'æœª', 'æœª', ('æœª'), ('æœª'), ('æœª') ) ;
#774 = EDGE_CURVE ( 'NONE', #57, #612, #342, .T. ) ;
#775 = DIRECTION ( 'NONE',  ( 0.000000000000000000, 1.000000000000000000, 0.000000000000000000 ) ) ;
#776 = VERTEX_POINT ( 'NONE', #212 ) ;
#777 = ORIENTED_EDGE ( 'NONE', *, *, #105, .F. ) ;
#778 = FACE_OUTER_BOUND ( 'NONE', #865, .T. ) ;
#779 = VECTOR ( 'NONE', #949, 1000.000000000000000 ) ;
#780 = EDGE_LOOP ( 'NONE', ( #737, #487 ) ) ;
#781 = VECTOR ( 'NONE', #684, 1000.000000000000000 ) ;
#782 = DIRECTION ( 'NONE',  ( 0.000000000000000000, 0.000000000000000000, -1.000000000000000000 ) ) ;
#783 = VERTEX_POINT ( 'NONE', #369 ) ;
#784 = AXIS2_PLACEMENT_3D ( 'NONE', #703, #461, #768 ) ;
#785 = ORIENTED_EDGE ( 'NONE', *, *, #441, .T. ) ;
#786 = ORIENTED_EDGE ( 'NONE', *, *, #690, .F. ) ;
#787 = CYLINDRICAL_SURFACE ( 'NONE', #682, 3.000000000000002665 ) ;
#788 = EDGE_CURVE ( 'NONE', #908, #842, #983, .T. ) ;
#789 =( LENGTH_UNIT ( ) NAMED_UNIT ( * ) SI_UNIT ( .MILLI., .METRE. ) );
#790 = ORIENTED_EDGE ( 'NONE', *, *, #938, .T. ) ;
#791 = ORIENTED_EDGE ( 'NONE', *, *, #564, .F. ) ;
#792 = CARTESIAN_POINT ( 'NONE',  ( 0.000000000000000000, 0.000000000000000000, 22.00000000000000000 ) ) ;
#793 = CALENDAR_DATE ( 2026, 13, 9 ) ;
#794 = EDGE_LOOP ( 'NONE', ( #365, #29, #771, #532 ) ) ;
#795 = DIRECTION ( 'NONE',  ( -1.000000000000000000, 0.000000000000000000, 0.000000000000000000 ) ) ;
#796 =( GEOMETRIC_REPRESENTATION_CONTEXT ( 3 ) GLOBAL_UNCERTAINTY_ASSIGNED_CONTEXT ( ( #188 ) ) GLOBAL_UNIT_ASSIGNED_CONTEXT ( ( #789, #3, #694 ) ) REPRESENTATION_CONTEXT ( 'NONE', 'WORKASPACE' ) );
#797 = ADVANCED_FACE ( 'NONE', ( #589, #206, #433, #887, #72 ), #659, .T. ) ;
#798 = APPROVAL_ROLE ( '' ) ;
#799 = PRODUCT_RELATED_PRODUCT_CATEGORY ( 'detail', '', ( #747 ) ) ;
#800 = ORIENTED_EDGE ( 'NONE', *, *, #584, .F. ) ;
#801 = DIRECTION ( 'NONE',  ( -1.000000000000000000, 0.000000000000000000, 0.000000000000000000 ) ) ;
#802 = VECTOR ( 'NONE', #42, 1000.000000000000000 ) ;
#803 = CARTESIAN_POINT ( 'NONE',  ( 6.500000000000000000, 18.00000000000000000, 2.000000000000000000 ) ) ;
#804 = FACE_BOUND ( 'NONE', #323, .T. ) ;
#805 = DIRECTION ( 'NONE',  ( -0.000000000000000000, -0.000000000000000000, 1.000000000000000000 ) ) ;
#806 = VECTOR ( 'NONE', #428, 1000.000000000000000 ) ;
#807 = AXIS2_PLACEMENT_3D ( 'NONE', #900, #513, #376 ) ;
#808 = DIRECTION ( 'NONE',  ( -0.000000000000000000, -0.000000000000000000, -1.000000000000000000 ) ) ;
#809 = FACE_OUTER_BOUND ( 'NONE', #452, .T. ) ;
#810 = AXIS2_PLACEMENT_3D ( 'NONE', #373, #53, #499 ) ;
#811 = CARTESIAN_POINT ( 'NONE',  ( 68.50000000000000000, 54.00000000000000000, 5.000000000000000000 ) ) ;
#812 = EDGE_LOOP ( 'NONE', ( #716, #371 ) ) ;
#813 = LINE ( 'NONE', #129, #160 ) ;
#814 = DIRECTION ( 'NONE',  ( 1.000000000000000000, 0.000000000000000000, 0.000000000000000000 ) ) ;
#815 = ORIENTED_EDGE ( 'NONE', *, *, #749, .F. ) ;
#816 = FACE_OUTER_BOUND ( 'NONE', #174, .T. ) ;
#817 = CARTESIAN_POINT ( 'NONE',  ( 5.399999999999999467, 18.00000000000000000, 22.00000000000000000 ) ) ;
#818 = CARTESIAN_POINT ( 'NONE',  ( 73.00000000000000000, 2.000000000000000000, 22.00000000000000000 ) ) ;
#819 = DIRECTION ( 'NONE',  ( 0.000000000000000000, 0.000000000000000000, -1.000000000000000000 ) ) ;
#820 = CARTESIAN_POINT ( 'NONE',  ( 68.50000000000000000, 54.00000000000000000, 5.000000000000000000 ) ) ;
#821 = DIRECTION ( 'NONE',  ( -1.000000000000000000, 0.000000000000000000, 0.000000000000000000 ) ) ;
#822 = ADVANCED_FACE ( 'NONE', ( #67 ), #149, .F. ) ;
#823 = AXIS2_PLACEMENT_3D ( 'NONE', #538, #849, #478 ) ;
#824 = LINE ( 'NONE', #140, #781 ) ;
#825 = ORIENTED_EDGE ( 'NONE', *, *, #329, .F. ) ;
#826 = DIRECTION ( 'NONE',  ( -0.000000000000000000, -0.000000000000000000, 1.000000000000000000 ) ) ;
#827 = DIRECTION ( 'NONE',  ( 1.000000000000000000, 0.000000000000000000, 0.000000000000000000 ) ) ;
#828 = VERTEX_POINT ( 'NONE', #601 ) ;
#829 = CIRCLE ( 'NONE', #877, 3.000000000000000888 ) ;
#830 = CARTESIAN_POINT ( 'NONE',  ( 73.00000000000000000, 2.000000000000000000, 2.000000000000001776 ) ) ;
#831 = CARTESIAN_POINT ( 'NONE',  ( 6.500000000000000000, 54.00000000000000000, 5.000000000000000000 ) ) ;
#832 = CARTESIAN_POINT ( 'NONE',  ( 2.000000000000000000, 2.000000000000000000, 22.00000000000000000 ) ) ;
#833 = DIRECTION ( 'NONE',  ( -0.000000000000000000, -0.000000000000000000, -1.000000000000000000 ) ) ;
#834 = EDGE_CURVE ( 'NONE', #680, #850, #874, .T. ) ;
#835 = DIRECTION ( 'NONE',  ( 0.000000000000000000, -1.000000000000000000, 0.000000000000000000 ) ) ;
#836 = ORIENTED_EDGE ( 'NONE', *, *, #148, .T. ) ;
#837 = CARTESIAN_POINT ( 'NONE',  ( 0.000000000000000000, 0.000000000000000000, 0.000000000000000000 ) ) ;
#838 = EDGE_CURVE ( 'NONE', #776, #166, #824, .T. ) ;
#839 = DIRECTION ( 'NONE',  ( 0.000000000000000000, 0.000000000000000000, -1.000000000000000000 ) ) ;
#840 = EDGE_LOOP ( 'NONE', ( #676, #424, #397, #40 ) ) ;
#841 = LINE ( 'NONE', #282, #843 ) ;
#842 = VERTEX_POINT ( 'NONE', #988 ) ;
#843 = VECTOR ( 'NONE', #661, 1000.000000000000000 ) ;
#844 = AXIS2_PLACEMENT_3D ( 'NONE', #356, #960, #665 ) ;
#845 = DIRECTION ( 'NONE',  ( 1.000000000000000000, 0.000000000000000000, 0.000000000000000000 ) ) ;
#846 = VERTEX_POINT ( 'NONE', #134 ) ;
#847 = CARTESIAN_POINT ( 'NONE',  ( 2.000000000000000000, 59.00000000000000000, 22.00000000000000000 ) ) ;
#848 = ORIENTED_EDGE ( 'NONE', *, *, #290, .T. ) ;
#849 = DIRECTION ( 'NONE',  ( 0.000000000000000000, 0.000000000000000000, 1.000000000000000000 ) ) ;
#850 = VERTEX_POINT ( 'NONE', #671 ) ;
#851 = LINE ( 'NONE', #792, #316 ) ;
#852 = EDGE_LOOP ( 'NONE', ( #84, #464 ) ) ;
#853 = APPLICATION_PROTOCOL_DEFINITION ( 'international standard', 'config_control_design', 1994, #425 ) ;
#854 = EDGE_CURVE ( 'NONE', #962, #776, #423, .T. ) ;
#855 = ORIENTED_EDGE ( 'NONE', *, *, #738, .F. ) ;
#857 = ORIENTED_EDGE ( 'NONE', *, *, #921, .T. ) ;
#856 = APPLICATION_CONTEXT ( 'configuration controlled 3d designs of mechanical parts and assemblies' ) ;
#858 = DIRECTION ( 'NONE',  ( -0.000000000000000000, -0.000000000000000000, 1.000000000000000000 ) ) ;
#859 = CC_DESIGN_APPROVAL ( #306, ( #486 ) ) ;
#860 = AXIS2_PLACEMENT_3D ( 'NONE', #319, #171, #696 ) ;
#861 = PERSON_AND_ORGANIZATION ( #773, #987 ) ;
#862 = VERTEX_POINT ( 'NONE', #529 ) ;
#863 = EDGE_CURVE ( 'NONE', #593, #915, #88, .T. ) ;
#864 = AXIS2_PLACEMENT_3D ( 'NONE', #635, #615, #924 ) ;
#865 = EDGE_LOOP ( 'NONE', ( #918, #296, #777, #131 ) ) ;
#866 = CARTESIAN_POINT ( 'NONE',  ( 0.000000000000000000, 0.000000000000000000, 0.000000000000000000 ) ) ;
#867 = ADVANCED_FACE ( 'NONE', ( #358 ), #455, .T. ) ;
#868 = ORIENTED_EDGE ( 'NONE', *, *, #688, .F. ) ;
#869 = CARTESIAN_POINT ( 'NONE',  ( 75.00000000000000000, 0.000000000000000000, 22.00000000000000000 ) ) ;
#870 = ADVANCED_FACE ( 'NONE', ( #733 ), #907, .T. ) ;
#871 = EDGE_CURVE ( 'NONE', #534, #153, #906, .T. ) ;
#872 = ORIENTED_EDGE ( 'NONE', *, *, #552, .F. ) ;
#873 = LINE ( 'NONE', #869, #507 ) ;
#874 = CIRCLE ( 'NONE', #807, 3.000000000000001776 ) ;
#875 = APPROVAL_ROLE ( '' ) ;
#876 = LINE ( 'NONE', #488, #769 ) ;
#877 = AXIS2_PLACEMENT_3D ( 'NONE', #435, #826, #894 ) ;
#878 = CARTESIAN_POINT ( 'NONE',  ( 69.60000000000000853, 54.00000000000000000, 5.000000000000000888 ) ) ;
#879 = DIRECTION ( 'NONE',  ( 0.000000000000000000, 0.000000000000000000, 1.000000000000000000 ) ) ;
#880 = PERSON_AND_ORGANIZATION ( #773, #987 ) ;
#881 = DIRECTION ( 'NONE',  ( 0.000000000000000000, -1.000000000000000000, 0.000000000000000000 ) ) ;
#882 = CARTESIAN_POINT ( 'NONE',  ( 5.399999999999999467, 18.00000000000000000, 5.000000000000000888 ) ) ;
#883 = EDGE_CURVE ( 'NONE', #711, #908, #993, .T. ) ;
#884 = CARTESIAN_POINT ( 'NONE',  ( 6.500000000000000000, 18.00000000000000000, 5.000000000000000888 ) ) ;
#885 = AXIS2_PLACEMENT_3D ( 'NONE', #352, #835, #581 ) ;
#886 = DIRECTION ( 'NONE',  ( -0.000000000000000000, -0.000000000000000000, 1.000000000000000000 ) ) ;
#887 = FACE_BOUND ( 'NONE', #812, .T. ) ;
#888 = ADVANCED_FACE ( 'NONE', ( #218 ), #224, .T. ) ;
#889 = AXIS2_PLACEMENT_3D ( 'NONE', #820, #515, #137 ) ;
#890 = CARTESIAN_POINT ( 'NONE',  ( 0.000000000000000000, 61.00000000000000000, 22.00000000000000000 ) ) ;
#891 = AXIS2_PLACEMENT_3D ( 'NONE', #524, #905, #600 ) ;
#892 = LINE ( 'NONE', #723, #802 ) ;
#893 = DIRECTION ( 'NONE',  ( -0.000000000000000000, -0.000000000000000000, -1.000000000000000000 ) ) ;
#894 = DIRECTION ( 'NONE',  ( -1.000000000000000000, 0.000000000000000000, 0.000000000000000000 ) ) ;
#895 = CYLINDRICAL_SURFACE ( 'NONE', #889, 3.000000000000002665 ) ;
#896 = ORIENTED_EDGE ( 'NONE', *, *, #510, .T. ) ;
#897 = ADVANCED_FACE ( 'NONE', ( #595, #64 ), #526, .T. ) ;
#898 = EDGE_CURVE ( 'NONE', #79, #712, #677, .T. ) ;
#899 = FACE_OUTER_BOUND ( 'NONE', #550, .T. ) ;
#900 = CARTESIAN_POINT ( 'NONE',  ( 6.500000000000000000, 54.00000000000000000, 5.000000000000000000 ) ) ;
#901 = ORIENTED_EDGE ( 'NONE', *, *, #113, .T. ) ;
#902 = DIRECTION ( 'NONE',  ( -0.000000000000000000, -0.000000000000000000, -1.000000000000000000 ) ) ;
#903 = CARTESIAN_POINT ( 'NONE',  ( 65.50000000000000000, 18.00000000000000000, 2.000000000000000000 ) ) ;
#904 = EDGE_LOOP ( 'NONE', ( #968, #752 ) ) ;
#905 = DIRECTION ( 'NONE',  ( -0.000000000000000000, -0.000000000000000000, 1.000000000000000000 ) ) ;
#906 = CIRCLE ( 'NONE', #937, 1.100000000000003642 ) ;
#907 = CYLINDRICAL_SURFACE ( 'NONE', #117, 3.000000000000000888 ) ;
#908 = VERTEX_POINT ( 'NONE', #238 ) ;
#909 = CARTESIAN_POINT ( 'NONE',  ( 6.500000000000000000, 18.00000000000000000, 22.00000000000000000 ) ) ;
#910 = CARTESIAN_POINT ( 'NONE',  ( 67.40000000000000568, 18.00000000000000000, 22.00000000000000000 ) ) ;
#911 = ADVANCED_FACE ( 'NONE', ( #554 ), #545, .F. ) ;
#912 = AXIS2_PLACEMENT_3D ( 'NONE', #909, #453, #750 ) ;
#913 = MANIFOLD_SOLID_BREP ( 'ÇÐ³ý-À­Éì2', #501 ) ;
#914 = CARTESIAN_POINT ( 'NONE',  ( 75.00000000000000000, 0.000000000000000000, 22.00000000000000000 ) ) ;
#915 = VERTEX_POINT ( 'NONE', #710 ) ;
#916 = LINE ( 'NONE', #514, #10 ) ;
#917 = ORIENTED_EDGE ( 'NONE', *, *, #335, .T. ) ;
#918 = ORIENTED_EDGE ( 'NONE', *, *, #578, .F. ) ;
#919 = DIRECTION ( 'NONE',  ( 0.000000000000000000, 0.000000000000000000, -1.000000000000000000 ) ) ;
#920 = EDGE_LOOP ( 'NONE', ( #400, #641, #126, #247 ) ) ;
#921 = EDGE_CURVE ( 'NONE', #560, #284, #553, .T. ) ;
#922 = VERTEX_POINT ( 'NONE', #97 ) ;
#923 = LOCAL_TIME ( 2, 20, 17.00000000000000000, #485 ) ;
#924 = DIRECTION ( 'NONE',  ( 1.000000000000000000, 0.000000000000000000, 0.000000000000000000 ) ) ;
#925 = VECTOR ( 'NONE', #141, 1000.000000000000000 ) ;
#926 = VERTEX_POINT ( 'NONE', #770 ) ;
#927 = DIRECTION ( 'NONE',  ( 0.000000000000000000, 1.000000000000000000, 0.000000000000000000 ) ) ;
#928 = EDGE_CURVE ( 'NONE', #962, #697, #766, .T. ) ;
#929 = DIRECTION ( 'NONE',  ( 0.000000000000000000, 0.000000000000000000, 1.000000000000000000 ) ) ;
#930 = ORIENTED_EDGE ( 'NONE', *, *, #402, .F. ) ;
#931 = ORIENTED_EDGE ( 'NONE', *, *, #928, .F. ) ;
#932 = LINE ( 'NONE', #551, #362 ) ;
#933 = CARTESIAN_POINT ( 'NONE',  ( 2.000000000000000000, 2.000000000000000000, 2.000000000000001776 ) ) ;
#934 = ORIENTED_EDGE ( 'NONE', *, *, #759, .F. ) ;
#935 = EDGE_LOOP ( 'NONE', ( #241, #857 ) ) ;
#936 = DIRECTION ( 'NONE',  ( -1.000000000000000000, 0.000000000000000000, 0.000000000000000000 ) ) ;
#937 = AXIS2_PLACEMENT_3D ( 'NONE', #447, #58, #606 ) ;
#938 = EDGE_CURVE ( 'NONE', #415, #612, #78, .T. ) ;
#939 = VECTOR ( 'NONE', #743, 1000.000000000000000 ) ;
#940 = PERSON_AND_ORGANIZATION ( #773, #987 ) ;
#941 = CARTESIAN_POINT ( 'NONE',  ( 6.500000000000000000, 18.00000000000000000, 5.000000000000000000 ) ) ;
#942 = CIRCLE ( 'NONE', #745, 1.100000000000000311 ) ;
#943 = VERTEX_POINT ( 'NONE', #385 ) ;
#944 = CARTESIAN_POINT ( 'NONE',  ( 67.40000000000000568, 18.00000000000000000, 5.000000000000000888 ) ) ;
#945 = EDGE_CURVE ( 'NONE', #783, #215, #613, .T. ) ;
#946 = ADVANCED_FACE ( 'NONE', ( #155 ), #705, .T. ) ;
#947 = ADVANCED_FACE ( 'NONE', ( #228 ), #394, .F. ) ;
#948 = ORIENTED_EDGE ( 'NONE', *, *, #20, .F. ) ;
#949 = DIRECTION ( 'NONE',  ( 0.000000000000000000, 0.000000000000000000, -1.000000000000000000 ) ) ;
#950 = PERSON_AND_ORGANIZATION ( #773, #987 ) ;
#951 = ORIENTED_EDGE ( 'NONE', *, *, #883, .T. ) ;
#952 = DIRECTION ( 'NONE',  ( 0.000000000000000000, 0.000000000000000000, 1.000000000000000000 ) ) ;
#953 = AXIS2_PLACEMENT_3D ( 'NONE', #914, #202, #675 ) ;
#954 = COORDINATED_UNIVERSAL_TIME_OFFSET ( 8, 0, .AHEAD. ) ;
#955 = ORIENTED_EDGE ( 'NONE', *, *, #1, .F. ) ;
#956 = CARTESIAN_POINT ( 'NONE',  ( 6.500000000000000000, 18.00000000000000000, 5.000000000000000000 ) ) ;
#957 = CARTESIAN_POINT ( 'NONE',  ( 65.50000000000000000, 54.00000000000000000, 2.000000000000000000 ) ) ;
#958 = DIRECTION ( 'NONE',  ( 0.000000000000000000, 0.000000000000000000, -1.000000000000000000 ) ) ;
#959 = ORIENTED_EDGE ( 'NONE', *, *, #945, .F. ) ;
#960 = DIRECTION ( 'NONE',  ( -0.000000000000000000, -0.000000000000000000, -1.000000000000000000 ) ) ;
#961 = DIRECTION ( 'NONE',  ( -0.000000000000000000, -0.000000000000000000, -1.000000000000000000 ) ) ;
#962 = VERTEX_POINT ( 'NONE', #11 ) ;
#963 = CARTESIAN_POINT ( 'NONE',  ( 68.50000000000000000, 54.00000000000000000, 0.000000000000000000 ) ) ;
#964 = EDGE_LOOP ( 'NONE', ( #101, #150, #685, #281 ) ) ;
#965 = CC_DESIGN_APPROVAL ( #50, ( #511 ) ) ;
#966 = PLANE ( 'NONE',  #187 ) ;
#967 = CARTESIAN_POINT ( 'NONE',  ( 6.500000000000000000, 54.00000000000000000, 5.000000000000000000 ) ) ;
#968 = ORIENTED_EDGE ( 'NONE', *, *, #35, .T. ) ;
#969 = CYLINDRICAL_SURFACE ( 'NONE', #330, 1.100000000000003642 ) ;
#970 = EDGE_CURVE ( 'NONE', #415, #828, #698, .T. ) ;
#971 = AXIS2_PLACEMENT_3D ( 'NONE', #305, #531, #379 ) ;
#972 = DIRECTION ( 'NONE',  ( 0.000000000000000000, 0.000000000000000000, -1.000000000000000000 ) ) ;
#973 = ORIENTED_EDGE ( 'NONE', *, *, #681, .F. ) ;
#974 = CIRCLE ( 'NONE', #765, 1.100000000000003642 ) ;
#975 = CARTESIAN_POINT ( 'NONE',  ( 6.500000000000000000, 18.00000000000000000, 0.000000000000000000 ) ) ;
#976 = DIRECTION ( 'NONE',  ( -1.000000000000000000, 0.000000000000000000, 0.000000000000000000 ) ) ;
#977 = ORIENTED_EDGE ( 'NONE', *, *, #161, .F. ) ;
#978 = DIRECTION ( 'NONE',  ( -1.000000000000000000, 0.000000000000000000, 0.000000000000000000 ) ) ;
#979 = CARTESIAN_POINT ( 'NONE',  ( 0.000000000000000000, 0.000000000000000000, 2.000000000000000000 ) ) ;
#980 = ORIENTED_EDGE ( 'NONE', *, *, #481, .F. ) ;
#981 = ADVANCED_BREP_SHAPE_REPRESENTATION ( 'RX_Base', ( #913, #297 ), #796 ) ;
#982 = CYLINDRICAL_SURFACE ( 'NONE', #844, 3.000000000000002665 ) ;
#983 = LINE ( 'NONE', #758, #104 ) ;
#984 = LINE ( 'NONE', #527, #636 ) ;
#985 = PLANE ( 'NONE',  #810 ) ;
#986 = ORIENTED_EDGE ( 'NONE', *, *, #898, .T. ) ;
#987 = ORGANIZATION ( 'æœª', 'æœª', '' ) ;
#988 = CARTESIAN_POINT ( 'NONE',  ( 75.00000000000000000, 61.00000000000000000, 0.000000000000000000 ) ) ;
#989 = VERTEX_POINT ( 'NONE', #618 ) ;
#990 = DIRECTION ( 'NONE',  ( -0.000000000000000000, -1.000000000000000000, -0.000000000000000000 ) ) ;
#991 = CIRCLE ( 'NONE', #266, 3.000000000000000888 ) ;
#992 = AXIS2_PLACEMENT_3D ( 'NONE', #728, #445, #427 ) ;
#993 = LINE ( 'NONE', #286, #375 ) ;
#994 = ORIENTED_EDGE ( 'NONE', *, *, #854, .T. ) ;
#995 = LINE ( 'NONE', #621, #539 ) ;
ENDSEC;
END-ISO-10303-21;
