ISO-10303-21;
HEADER;
FILE_DESCRIPTION (( 'STEP AP203' ),
    '1' );
FILE_NAME ('RX_Cover.STEP',
    '2026-09-12T18:20:27',
    ( '' ),
    ( '' ),
    'SwSTEP 2.0',
    'SolidWorks 2024',
    '' );
FILE_SCHEMA (( 'CONFIG_CONTROL_DESIGN' ));
ENDSEC;

DATA;
#1 = FACE_BOUND ( 'NONE', #354, .T. ) ;
#2 = AXIS2_PLACEMENT_3D ( 'NONE', #430, #46, #358 ) ;
#3 = ORIENTED_EDGE ( 'NONE', *, *, #500, .T. ) ;
#4 = APPROVAL ( #625, 'æœª' ) ;
#5 = CYLINDRICAL_SURFACE ( 'NONE', #81, 1.349999999999999645 ) ;
#6 = CIRCLE ( 'NONE', #617, 1.350000000000004086 ) ;
#7 = CARTESIAN_POINT ( 'NONE',  ( 68.50000000000000000, 54.00000000000000000, 2.000000000000000000 ) ) ;
#8 = DIRECTION ( 'NONE',  ( -1.000000000000000000, -0.000000000000000000, -0.000000000000000000 ) ) ;
#9 = FACE_OUTER_BOUND ( 'NONE', #398, .T. ) ;
#10 = VERTEX_POINT ( 'NONE', #427 ) ;
#11 = ORIENTED_EDGE ( 'NONE', *, *, #1015, .F. ) ;
#12 = DIRECTION ( 'NONE',  ( 1.000000000000000000, 0.000000000000000000, 0.000000000000000000 ) ) ;
#13 = CARTESIAN_POINT ( 'NONE',  ( 7.849999999999999645, 18.00000000000000000, 2.000000000000000000 ) ) ;
#14 = EDGE_CURVE ( 'NONE', #413, #754, #43, .T. ) ;
#15 = VERTEX_POINT ( 'NONE', #596 ) ;
#16 = LINE ( 'NONE', #566, #997 ) ;
#17 = VERTEX_POINT ( 'NONE', #513 ) ;
#18 = ORIENTED_EDGE ( 'NONE', *, *, #788, .T. ) ;
#19 = LOCAL_TIME ( 2, 20, 27.00000000000000000, #918 ) ;
#20 = VECTOR ( 'NONE', #105, 1000.000000000000000 ) ;
#21 = CARTESIAN_POINT ( 'NONE',  ( 67.50000000000000000, 14.90000000000000036, 2.000000000000000000 ) ) ;
#22 = ADVANCED_FACE ( 'NONE', ( #92 ), #480, .F. ) ;
#23 = ORIENTED_EDGE ( 'NONE', *, *, #353, .T. ) ;
#24 = LINE ( 'NONE', #832, #687 ) ;
#25 = CARTESIAN_POINT ( 'NONE',  ( 56.50000000000000000, 38.00000000000000000, 2.000000000000000000 ) ) ;
#26 = ORIENTED_EDGE ( 'NONE', *, *, #514, .F. ) ;
#27 = DIRECTION ( 'NONE',  ( 1.000000000000000000, 0.000000000000000000, 0.000000000000000000 ) ) ;
#28 = VERTEX_POINT ( 'NONE', #153 ) ;
#29 = EDGE_LOOP ( 'NONE', ( #595, #381, #122, #35 ) ) ;
#30 = CIRCLE ( 'NONE', #612, 1.350000000000004086 ) ;
#31 = ORIENTED_EDGE ( 'NONE', *, *, #62, .F. ) ;
#32 = LOCAL_TIME ( 2, 20, 27.00000000000000000, #302 ) ;
#33 = ORIENTED_EDGE ( 'NONE', *, *, #453, .T. ) ;
#34 = DIRECTION ( 'NONE',  ( 0.000000000000000000, 0.000000000000000000, 1.000000000000000000 ) ) ;
#35 = ORIENTED_EDGE ( 'NONE', *, *, #519, .T. ) ;
#36 = EDGE_CURVE ( 'NONE', #919, #28, #708, .T. ) ;
#37 = VERTEX_POINT ( 'NONE', #308 ) ;
#38 = LINE ( 'NONE', #683, #323 ) ;
#39 = VERTEX_POINT ( 'NONE', #383 ) ;
#40 = DIRECTION ( 'NONE',  ( 0.000000000000000000, 0.000000000000000000, -1.000000000000000000 ) ) ;
#41 = VERTEX_POINT ( 'NONE', #98 ) ;
#42 = APPROVAL_ROLE ( '' ) ;
#43 = LINE ( 'NONE', #989, #260 ) ;
#44 = CARTESIAN_POINT ( 'NONE',  ( 5.150000000000001243, 54.00000000000000000, 0.000000000000000000 ) ) ;
#45 = CARTESIAN_POINT ( 'NONE',  ( 75.00000000000000000, 61.00000000000000000, 0.000000000000000000 ) ) ;
#46 = DIRECTION ( 'NONE',  ( 0.000000000000000000, 0.000000000000000000, 1.000000000000000000 ) ) ;
#47 = VERTEX_POINT ( 'NONE', #632 ) ;
#48 = VECTOR ( 'NONE', #839, 1000.000000000000000 ) ;
#49 = LINE ( 'NONE', #911, #550 ) ;
#50 = DIRECTION ( 'NONE',  ( 1.000000000000000000, 0.000000000000000000, 0.000000000000000000 ) ) ;
#51 = PLANE ( 'NONE',  #470 ) ;
#52 = ADVANCED_FACE ( 'NONE', ( #229 ), #935, .T. ) ;
#53 = AXIS2_PLACEMENT_3D ( 'NONE', #965, #332, #872 ) ;
#54 = ORIENTED_EDGE ( 'NONE', *, *, #616, .T. ) ;
#55 = CARTESIAN_POINT ( 'NONE',  ( 32.50000000000000000, 48.50000000000000000, 2.000000000000000000 ) ) ;
#56 = FACE_OUTER_BOUND ( 'NONE', #367, .T. ) ;
#57 = CARTESIAN_POINT ( 'NONE',  ( 0.000000000000000000, 61.00000000000000000, 2.000000000000000000 ) ) ;
#58 = DATE_AND_TIME ( #208, #32 ) ;
#59 = VERTEX_POINT ( 'NONE', #548 ) ;
#60 = CARTESIAN_POINT ( 'NONE',  ( 39.50000000000000000, 14.90000000000000036, 0.000000000000000000 ) ) ;
#61 = EDGE_CURVE ( 'NONE', #325, #10, #881, .T. ) ;
#62 = EDGE_CURVE ( 'NONE', #815, #228, #223, .T. ) ;
#63 = CARTESIAN_POINT ( 'NONE',  ( 69.85000000000000853, 18.00000000000000000, 2.000000000000000000 ) ) ;
#64 = PERSON_AND_ORGANIZATION_ROLE ( 'design_supplier' ) ;
#65 = VECTOR ( 'NONE', #592, 1000.000000000000000 ) ;
#66 = CARTESIAN_POINT ( 'NONE',  ( 32.50000000000000000, 48.50000000000000000, 0.000000000000000000 ) ) ;
#67 = VECTOR ( 'NONE', #964, 1000.000000000000000 ) ;
#68 = CARTESIAN_POINT ( 'NONE',  ( 32.50000000000000000, 48.50000000000000000, 2.000000000000000000 ) ) ;
#69 = EDGE_LOOP ( 'NONE', ( #331, #678, #300, #898 ) ) ;
#70 = CARTESIAN_POINT ( 'NONE',  ( 32.50000000000000000, 53.50000000000000000, 2.000000000000000000 ) ) ;
#71 = AXIS2_PLACEMENT_3D ( 'NONE', #703, #148, #860 ) ;
#72 = CARTESIAN_POINT ( 'NONE',  ( 75.00000000000000000, 0.000000000000000000, 0.000000000000000000 ) ) ;
#73 = DIRECTION ( 'NONE',  ( 0.000000000000000000, 1.000000000000000000, 0.000000000000000000 ) ) ;
#74 = DIRECTION ( 'NONE',  ( -0.000000000000000000, -1.000000000000000000, -0.000000000000000000 ) ) ;
#75 = FACE_OUTER_BOUND ( 'NONE', #681, .T. ) ;
#76 = ORIENTED_EDGE ( 'NONE', *, *, #695, .F. ) ;
#77 = APPROVAL ( #517, 'æœª' ) ;
#78 = VECTOR ( 'NONE', #752, 1000.000000000000000 ) ;
#79 = DIRECTION ( 'NONE',  ( -0.000000000000000000, -1.000000000000000000, -0.000000000000000000 ) ) ;
#80 = EDGE_CURVE ( 'NONE', #10, #466, #535, .T. ) ;
#81 = AXIS2_PLACEMENT_3D ( 'NONE', #314, #40, #287 ) ;
#82 = MECHANICAL_CONTEXT ( 'NONE', #247, 'mechanical' ) ;
#83 = FACE_OUTER_BOUND ( 'NONE', #666, .T. ) ;
#84 = CARTESIAN_POINT ( 'NONE',  ( 75.00000000000000000, 0.000000000000000000, 2.000000000000000000 ) ) ;
#85 = CIRCLE ( 'NONE', #294, 2.000000000000001776 ) ;
#86 = FACE_OUTER_BOUND ( 'NONE', #1003, .T. ) ;
#87 = ORIENTED_EDGE ( 'NONE', *, *, #1001, .T. ) ;
#88 = DIRECTION ( 'NONE',  ( 0.000000000000000000, -1.000000000000000000, 0.000000000000000000 ) ) ;
#89 = LINE ( 'NONE', #723, #635 ) ;
#90 = DIRECTION ( 'NONE',  ( -1.000000000000000000, 0.000000000000000000, -0.000000000000000000 ) ) ;
#91 = ORIENTED_EDGE ( 'NONE', *, *, #626, .T. ) ;
#92 = FACE_OUTER_BOUND ( 'NONE', #975, .T. ) ;
#93 = EDGE_CURVE ( 'NONE', #471, #132, #402, .T. ) ;
#94 = CARTESIAN_POINT ( 'NONE',  ( 68.50000000000000000, 18.00000000000000000, 2.000000000000000000 ) ) ;
#95 = ORIENTED_EDGE ( 'NONE', *, *, #449, .F. ) ;
#96 = EDGE_CURVE ( 'NONE', #408, #251, #303, .T. ) ;
#97 = FACE_BOUND ( 'NONE', #671, .T. ) ;
#98 = CARTESIAN_POINT ( 'NONE',  ( 32.50000000000000000, 48.50000000000000000, 2.000000000000000000 ) ) ;
#99 = ORIENTED_EDGE ( 'NONE', *, *, #846, .T. ) ;
#100 = VECTOR ( 'NONE', #73, 1000.000000000000000 ) ;
#101 = EDGE_LOOP ( 'NONE', ( #91, #372, #630, #158 ) ) ;
#102 = CARTESIAN_POINT ( 'NONE',  ( 69.85000000000000853, 18.00000000000000000, 2.000000000000000000 ) ) ;
#103 = ORIENTED_EDGE ( 'NONE', *, *, #904, .T. ) ;
#104 = DIRECTION ( 'NONE',  ( 0.000000000000000000, 0.000000000000000000, -1.000000000000000000 ) ) ;
#105 = DIRECTION ( 'NONE',  ( -1.000000000000000000, -0.000000000000000000, -0.000000000000000000 ) ) ;
#106 = EDGE_CURVE ( 'NONE', #186, #251, #511, .T. ) ;
#107 = ORIENTED_EDGE ( 'NONE', *, *, #846, .F. ) ;
#108 = DIRECTION ( 'NONE',  ( 0.000000000000000000, 0.000000000000000000, -1.000000000000000000 ) ) ;
#109 = EDGE_CURVE ( 'NONE', #325, #59, #818, .T. ) ;
#110 = ORIENTED_EDGE ( 'NONE', *, *, #428, .T. ) ;
#111 = FACE_OUTER_BOUND ( 'NONE', #339, .T. ) ;
#112 = ORIENTED_EDGE ( 'NONE', *, *, #177, .T. ) ;
#113 = CARTESIAN_POINT ( 'NONE',  ( 7.849999999999999645, 54.00000000000000000, 0.000000000000000000 ) ) ;
#114 = ORIENTED_EDGE ( 'NONE', *, *, #418, .T. ) ;
#115 = EDGE_CURVE ( 'NONE', #173, #39, #540, .T. ) ;
#116 = ORIENTED_EDGE ( 'NONE', *, *, #115, .F. ) ;
#117 = LOCAL_TIME ( 2, 20, 27.00000000000000000, #202 ) ;
#118 = CARTESIAN_POINT ( 'NONE',  ( 5.150000000000001243, 54.00000000000000000, 2.000000000000000000 ) ) ;
#119 = CIRCLE ( 'NONE', #472, 1.350000000000004086 ) ;
#120 = CARTESIAN_POINT ( 'NONE',  ( 56.50000000000000000, 46.00000000000000000, 2.000000000000000000 ) ) ;
#121 = VERTEX_POINT ( 'NONE', #451 ) ;
#122 = ORIENTED_EDGE ( 'NONE', *, *, #710, .T. ) ;
#123 = ORIENTED_EDGE ( 'NONE', *, *, #382, .T. ) ;
#124 = CIRCLE ( 'NONE', #651, 1.350000000000004086 ) ;
#125 = CC_DESIGN_PERSON_AND_ORGANIZATION_ASSIGNMENT ( #621, #770, ( #454 ) ) ;
#126 = PERSON_AND_ORGANIZATION ( #642, #731 ) ;
#127 = DIRECTION ( 'NONE',  ( 1.000000000000000000, 0.000000000000000000, 0.000000000000000000 ) ) ;
#128 = CARTESIAN_POINT ( 'NONE',  ( 17.50000000000000000, 50.00000000000000000, 2.000000000000000000 ) ) ;
#129 = APPROVAL_DATE_TIME ( #606, #77 ) ;
#130 = LINE ( 'NONE', #523, #669 ) ;
#131 = EDGE_LOOP ( 'NONE', ( #116, #504, #571, #580 ) ) ;
#132 = VERTEX_POINT ( 'NONE', #808 ) ;
#133 = EDGE_CURVE ( 'NONE', #39, #443, #959, .T. ) ;
#134 = CARTESIAN_POINT ( 'NONE',  ( 39.50000000000000000, 3.899999999999999911, 2.000000000000000000 ) ) ;
#135 = CYLINDRICAL_SURFACE ( 'NONE', #230, 1.349999999999998757 ) ;
#136 = PERSON_AND_ORGANIZATION ( #642, #731 ) ;
#137 = AXIS2_PLACEMENT_3D ( 'NONE', #309, #239, #713 ) ;
#138 = VERTEX_POINT ( 'NONE', #785 ) ;
#139 = EDGE_CURVE ( 'NONE', #775, #321, #16, .T. ) ;
#140 = VERTEX_POINT ( 'NONE', #181 ) ;
#141 = DIRECTION ( 'NONE',  ( 0.000000000000000000, 0.000000000000000000, 1.000000000000000000 ) ) ;
#142 = CARTESIAN_POINT ( 'NONE',  ( 75.00000000000000000, 0.000000000000000000, 0.000000000000000000 ) ) ;
#143 = CC_DESIGN_DATE_AND_TIME_ASSIGNMENT ( #777, #999, ( #454 ) ) ;
#144 = ORIENTED_EDGE ( 'NONE', *, *, #514, .T. ) ;
#145 = FACE_OUTER_BOUND ( 'NONE', #69, .T. ) ;
#146 = EDGE_CURVE ( 'NONE', #555, #368, #49, .T. ) ;
#147 = DIRECTION ( 'NONE',  ( 1.000000000000000000, 0.000000000000000000, 0.000000000000000000 ) ) ;
#148 = DIRECTION ( 'NONE',  ( 0.000000000000000000, 0.000000000000000000, 1.000000000000000000 ) ) ;
#149 = FACE_BOUND ( 'NONE', #476, .T. ) ;
#150 = CARTESIAN_POINT ( 'NONE',  ( 56.50000000000000000, 46.00000000000000000, 2.000000000000000000 ) ) ;
#151 = PLANE ( 'NONE',  #597 ) ;
#152 = CC_DESIGN_APPROVAL ( #77, ( #454 ) ) ;
#153 = CARTESIAN_POINT ( 'NONE',  ( 56.50000000000000000, 38.00000000000000000, 0.000000000000000000 ) ) ;
#154 = AXIS2_PLACEMENT_3D ( 'NONE', #84, #698, #445 ) ;
#155 = PLANE ( 'NONE',  #781 ) ;
#156 = EDGE_CURVE ( 'NONE', #140, #408, #589, .T. ) ;
#157 = CYLINDRICAL_SURFACE ( 'NONE', #457, 1.349999999999999645 ) ;
#158 = ORIENTED_EDGE ( 'NONE', *, *, #290, .T. ) ;
#159 = CARTESIAN_POINT ( 'NONE',  ( 39.50000000000000000, 14.90000000000000036, 2.000000000000000000 ) ) ;
#160 = CARTESIAN_POINT ( 'NONE',  ( 6.500000000000000000, 54.00000000000000000, 2.000000000000000000 ) ) ;
#161 = CARTESIAN_POINT ( 'NONE',  ( 17.50000000000000000, 50.00000000000000000, 2.000000000000000000 ) ) ;
#162 = ADVANCED_FACE ( 'NONE', ( #433 ), #982, .F. ) ;
#163 = CARTESIAN_POINT ( 'NONE',  ( 67.50000000000000000, 3.899999999999999911, 2.000000000000000000 ) ) ;
#164 = ORIENTED_EDGE ( 'NONE', *, *, #407, .T. ) ;
#165 = PERSON_AND_ORGANIZATION ( #642, #731 ) ;
#166 = PRODUCT_DEFINITION_SHAPE ( 'NONE', 'NONE',  #422 ) ;
#167 = DIRECTION ( 'NONE',  ( -1.000000000000000000, 0.000000000000000000, 0.000000000000000000 ) ) ;
#168 = ORIENTED_EDGE ( 'NONE', *, *, #947, .F. ) ;
#169 = AXIS2_PLACEMENT_3D ( 'NONE', #586, #903, #559 ) ;
#170 = CARTESIAN_POINT ( 'NONE',  ( 56.50000000000000000, 46.00000000000000000, 2.000000000000000000 ) ) ;
#171 = AXIS2_PLACEMENT_3D ( 'NONE', #94, #188, #329 ) ;
#172 = PLANE ( 'NONE',  #715 ) ;
#173 = VERTEX_POINT ( 'NONE', #894 ) ;
#174 = ORIENTED_EDGE ( 'NONE', *, *, #290, .F. ) ;
#175 = CC_DESIGN_DATE_AND_TIME_ASSIGNMENT ( #58, #431, ( #422 ) ) ;
#176 = CARTESIAN_POINT ( 'NONE',  ( 39.50000000000000000, 3.899999999999999911, 2.000000000000000000 ) ) ;
#177 = EDGE_CURVE ( 'NONE', #471, #754, #348, .T. ) ;
#178 = DIRECTION ( 'NONE',  ( -1.000000000000000000, 0.000000000000000000, 0.000000000000000000 ) ) ;
#179 = CARTESIAN_POINT ( 'NONE',  ( 69.85000000000000853, 54.00000000000000000, 0.000000000000000000 ) ) ;
#180 = ORIENTED_EDGE ( 'NONE', *, *, #773, .T. ) ;
#181 = CARTESIAN_POINT ( 'NONE',  ( 7.849999999999999645, 18.00000000000000000, 2.000000000000000000 ) ) ;
#182 = CARTESIAN_POINT ( 'NONE',  ( 17.50000000000000000, 50.00000000000000000, 2.000000000000000000 ) ) ;
#183 = LINE ( 'NONE', #176, #187 ) ;
#184 = DIRECTION ( 'NONE',  ( 0.000000000000000000, 0.000000000000000000, -1.000000000000000000 ) ) ;
#185 = DIRECTION ( 'NONE',  ( 0.000000000000000000, -0.000000000000000000, 1.000000000000000000 ) ) ;
#186 = VERTEX_POINT ( 'NONE', #745 ) ;
#187 = VECTOR ( 'NONE', #414, 1000.000000000000000 ) ;
#188 = DIRECTION ( 'NONE',  ( 0.000000000000000000, 0.000000000000000000, -1.000000000000000000 ) ) ;
#189 = EDGE_CURVE ( 'NONE', #726, #815, #823, .T. ) ;
#190 = VECTOR ( 'NONE', #234, 1000.000000000000000 ) ;
#191 = FACE_OUTER_BOUND ( 'NONE', #716, .T. ) ;
#192 = AXIS2_PLACEMENT_3D ( 'NONE', #489, #178, #900 ) ;
#193 = CARTESIAN_POINT ( 'NONE',  ( 75.00000000000000000, 0.000000000000000000, 2.000000000000000000 ) ) ;
#194 = CYLINDRICAL_SURFACE ( 'NONE', #328, 2.000000000000003553 ) ;
#195 = FACE_OUTER_BOUND ( 'NONE', #29, .T. ) ;
#196 = CARTESIAN_POINT ( 'NONE',  ( 67.15000000000000568, 54.00000000000000000, 2.000000000000000000 ) ) ;
#197 = CC_DESIGN_PERSON_AND_ORGANIZATION_ASSIGNMENT ( #165, #838, ( #794 ) ) ;
#198 = EDGE_LOOP ( 'NONE', ( #981, #279, #753, #518 ) ) ;
#199 = AXIS2_PLACEMENT_3D ( 'NONE', #990, #847, #854 ) ;
#200 = VECTOR ( 'NONE', #336, 1000.000000000000000 ) ;
#201 = DIRECTION ( 'NONE',  ( 1.000000000000000000, 0.000000000000000000, 0.000000000000000000 ) ) ;
#202 = COORDINATED_UNIVERSAL_TIME_OFFSET ( 8, 0, .AHEAD. ) ;
#203 = EDGE_LOOP ( 'NONE', ( #494, #110, #87, #739 ) ) ;
#204 = VERTEX_POINT ( 'NONE', #120 ) ;
#205 = EDGE_CURVE ( 'NONE', #355, #413, #591, .T. ) ;
#206 = CARTESIAN_POINT ( 'NONE',  ( 39.50000000000000000, 3.899999999999999911, 2.000000000000000000 ) ) ;
#207 = DIRECTION ( 'NONE',  ( -0.000000000000000000, -0.000000000000000000, -1.000000000000000000 ) ) ;
#208 = CALENDAR_DATE ( 2026, 13, 9 ) ;
#209 = VERTEX_POINT ( 'NONE', #113 ) ;
#210 = CARTESIAN_POINT ( 'NONE',  ( 0.000000000000000000, 61.00000000000000000, 2.000000000000000000 ) ) ;
#211 = DIRECTION ( 'NONE',  ( 0.000000000000000000, -0.000000000000000000, -1.000000000000000000 ) ) ;
#212 = AXIS2_PLACEMENT_3D ( 'NONE', #674, #263, #760 ) ;
#213 = EDGE_CURVE ( 'NONE', #750, #815, #740, .T. ) ;
#214 =( GEOMETRIC_REPRESENTATION_CONTEXT ( 3 ) GLOBAL_UNCERTAINTY_ASSIGNED_CONTEXT ( ( #890 ) ) GLOBAL_UNIT_ASSIGNED_CONTEXT ( ( #520, #1002, #604 ) ) REPRESENTATION_CONTEXT ( 'NONE', 'WORKASPACE' ) );
#215 = CARTESIAN_POINT ( 'NONE',  ( 0.000000000000000000, 0.000000000000000000, 2.000000000000000000 ) ) ;
#216 = CIRCLE ( 'NONE', #439, 1.349999999999999645 ) ;
#217 = ADVANCED_FACE ( 'NONE', ( #195 ), #357, .T. ) ;
#218 = ORIENTED_EDGE ( 'NONE', *, *, #756, .T. ) ;
#219 = ORIENTED_EDGE ( 'NONE', *, *, #61, .T. ) ;
#220 = DIRECTION ( 'NONE',  ( 0.000000000000000000, 1.000000000000000000, 0.000000000000000000 ) ) ;
#221 = ORIENTED_EDGE ( 'NONE', *, *, #773, .F. ) ;
#222 = EDGE_CURVE ( 'NONE', #466, #59, #30, .T. ) ;
#223 = LINE ( 'NONE', #72, #1013 ) ;
#224 = CARTESIAN_POINT ( 'NONE',  ( 32.50000000000000000, 48.50000000000000000, 0.000000000000000000 ) ) ;
#225 = DIRECTION ( 'NONE',  ( 1.000000000000000000, 0.000000000000000000, 0.000000000000000000 ) ) ;
#226 = DIRECTION ( 'NONE',  ( 0.000000000000000000, 0.000000000000000000, -1.000000000000000000 ) ) ;
#227 = APPROVAL_PERSON_ORGANIZATION ( #126, #1012, #42 ) ;
#228 = VERTEX_POINT ( 'NONE', #45 ) ;
#229 = FACE_OUTER_BOUND ( 'NONE', #359, .T. ) ;
#230 = AXIS2_PLACEMENT_3D ( 'NONE', #534, #767, #292 ) ;
#231 = EDGE_CURVE ( 'NONE', #939, #843, #38, .T. ) ;
#232 = CARTESIAN_POINT ( 'NONE',  ( 5.150000000000000355, 18.00000000000000000, 2.000000000000000000 ) ) ;
#233 = DIRECTION ( 'NONE',  ( -1.000000000000000000, 0.000000000000000000, -0.000000000000000000 ) ) ;
#234 = DIRECTION ( 'NONE',  ( 0.000000000000000000, 1.000000000000000000, 0.000000000000000000 ) ) ;
#235 = CARTESIAN_POINT ( 'NONE',  ( 6.500000000000000000, 18.00000000000000000, 2.000000000000000000 ) ) ;
#236 = DIRECTION ( 'NONE',  ( -0.000000000000000000, -1.000000000000000000, -0.000000000000000000 ) ) ;
#237 = EDGE_LOOP ( 'NONE', ( #944, #295, #729, #533 ) ) ;
#238 = PLANE ( 'NONE',  #375 ) ;
#239 = DIRECTION ( 'NONE',  ( 0.000000000000000000, 0.000000000000000000, 1.000000000000000000 ) ) ;
#240 = ORIENTED_EDGE ( 'NONE', *, *, #320, .F. ) ;
#241 = ORIENTED_EDGE ( 'NONE', *, *, #875, .F. ) ;
#242 = CARTESIAN_POINT ( 'NONE',  ( 64.50000000000000000, 38.00000000000000000, 2.000000000000000000 ) ) ;
#243 = ORIENTED_EDGE ( 'NONE', *, *, #231, .T. ) ;
#244 = DIRECTION ( 'NONE',  ( 0.000000000000000000, 1.000000000000000000, 0.000000000000000000 ) ) ;
#245 = ORIENTED_EDGE ( 'NONE', *, *, #307, .F. ) ;
#246 = LINE ( 'NONE', #242, #487 ) ;
#247 = APPLICATION_CONTEXT ( 'configuration controlled 3d designs of mechanical parts and assemblies' ) ;
#248 = EDGE_LOOP ( 'NONE', ( #557, #266, #512, #915 ) ) ;
#249 = CARTESIAN_POINT ( 'NONE',  ( 5.150000000000000355, 18.00000000000000000, 2.000000000000000000 ) ) ;
#250 = DIRECTION ( 'NONE',  ( 0.000000000000000000, 0.000000000000000000, -1.000000000000000000 ) ) ;
#251 = VERTEX_POINT ( 'NONE', #501 ) ;
#252 = CARTESIAN_POINT ( 'NONE',  ( 56.50000000000000000, 38.00000000000000000, 0.000000000000000000 ) ) ;
#253 = ORIENTED_EDGE ( 'NONE', *, *, #695, .T. ) ;
#254 = EDGE_CURVE ( 'NONE', #505, #966, #991, .T. ) ;
#255 = FACE_OUTER_BOUND ( 'NONE', #285, .T. ) ;
#256 = CARTESIAN_POINT ( 'NONE',  ( 32.50000000000000000, 53.50000000000000000, 2.000000000000000000 ) ) ;
#257 = EDGE_CURVE ( 'NONE', #59, #466, #124, .T. ) ;
#258 = VECTOR ( 'NONE', #490, 1000.000000000000000 ) ;
#259 = DIRECTION ( 'NONE',  ( 0.000000000000000000, 0.000000000000000000, 1.000000000000000000 ) ) ;
#260 = VECTOR ( 'NONE', #274, 1000.000000000000000 ) ;
#261 = CARTESIAN_POINT ( 'NONE',  ( 75.00000000000000000, 61.00000000000000000, 2.000000000000000000 ) ) ;
#262 = ORIENTED_EDGE ( 'NONE', *, *, #146, .T. ) ;
#263 = DIRECTION ( 'NONE',  ( 0.000000000000000000, 0.000000000000000000, -1.000000000000000000 ) ) ;
#264 = PLANE ( 'NONE',  #169 ) ;
#265 = DIRECTION ( 'NONE',  ( 1.000000000000000000, 0.000000000000000000, 0.000000000000000000 ) ) ;
#266 = ORIENTED_EDGE ( 'NONE', *, *, #693, .F. ) ;
#267 = ADVANCED_FACE ( 'NONE', ( #845 ), #679, .T. ) ;
#268 = CARTESIAN_POINT ( 'NONE',  ( 0.000000000000000000, 0.000000000000000000, 0.000000000000000000 ) ) ;
#269 = ORIENTED_EDGE ( 'NONE', *, *, #804, .T. ) ;
#270 = DIRECTION ( 'NONE',  ( 0.000000000000000000, 0.000000000000000000, 1.000000000000000000 ) ) ;
#271 = LINE ( 'NONE', #440, #525 ) ;
#272 = EDGE_CURVE ( 'NONE', #280, #15, #902, .T. ) ;
#273 = EDGE_LOOP ( 'NONE', ( #996, #631 ) ) ;
#274 = DIRECTION ( 'NONE',  ( 0.000000000000000000, 1.000000000000000000, 0.000000000000000000 ) ) ;
#275 = VECTOR ( 'NONE', #798, 1000.000000000000000 ) ;
#276 = VECTOR ( 'NONE', #609, 1000.000000000000000 ) ;
#277 = DIRECTION ( 'NONE',  ( -1.000000000000000000, 0.000000000000000000, 0.000000000000000000 ) ) ;
#278 = CALENDAR_DATE ( 2026, 13, 9 ) ;
#279 = ORIENTED_EDGE ( 'NONE', *, *, #904, .F. ) ;
#280 = VERTEX_POINT ( 'NONE', #973 ) ;
#281 = LINE ( 'NONE', #551, #909 ) ;
#282 = FACE_OUTER_BOUND ( 'NONE', #101, .T. ) ;
#283 = ADVANCED_FACE ( 'NONE', ( #255 ), #573, .T. ) ;
#284 = EDGE_CURVE ( 'NONE', #954, #355, #305, .T. ) ;
#285 = EDGE_LOOP ( 'NONE', ( #711, #462, #682, #706 ) ) ;
#286 = DIRECTION ( 'NONE',  ( 0.000000000000000000, 0.000000000000000000, 1.000000000000000000 ) ) ;
#287 = DIRECTION ( 'NONE',  ( -1.000000000000000000, 0.000000000000000000, 0.000000000000000000 ) ) ;
#288 = ORIENTED_EDGE ( 'NONE', *, *, #680, .T. ) ;
#289 = AXIS2_PLACEMENT_3D ( 'NONE', #599, #286, #147 ) ;
#290 = EDGE_CURVE ( 'NONE', #662, #228, #365, .T. ) ;
#291 = ORIENTED_EDGE ( 'NONE', *, *, #638, .F. ) ;
#292 = DIRECTION ( 'NONE',  ( -1.000000000000000000, 0.000000000000000000, 0.000000000000000000 ) ) ;
#293 = CYLINDRICAL_SURFACE ( 'NONE', #850, 1.350000000000004086 ) ;
#294 = AXIS2_PLACEMENT_3D ( 'NONE', #161, #792, #12 ) ;
#295 = ORIENTED_EDGE ( 'NONE', *, *, #743, .F. ) ;
#296 = DIRECTION ( 'NONE',  ( -1.000000000000000000, -0.000000000000000000, -0.000000000000000000 ) ) ;
#297 = CARTESIAN_POINT ( 'NONE',  ( 64.50000000000000000, 38.00000000000000000, 2.000000000000000000 ) ) ;
#298 = AXIS2_PLACEMENT_3D ( 'NONE', #25, #458, #337 ) ;
#299 = ORIENTED_EDGE ( 'NONE', *, *, #418, .F. ) ;
#300 = ORIENTED_EDGE ( 'NONE', *, *, #254, .T. ) ;
#301 = CARTESIAN_POINT ( 'NONE',  ( 6.500000000000000000, 18.00000000000000000, 2.000000000000000000 ) ) ;
#302 = COORDINATED_UNIVERSAL_TIME_OFFSET ( 8, 0, .AHEAD. ) ;
#303 = LINE ( 'NONE', #249, #963 ) ;
#304 = CARTESIAN_POINT ( 'NONE',  ( 75.00000000000000000, 0.000000000000000000, 2.000000000000000000 ) ) ;
#305 = LINE ( 'NONE', #848, #733 ) ;
#306 = ORIENTED_EDGE ( 'NONE', *, *, #189, .T. ) ;
#307 = EDGE_CURVE ( 'NONE', #280, #921, #507, .T. ) ;
#308 = CARTESIAN_POINT ( 'NONE',  ( 32.50000000000000000, 53.50000000000000000, 2.000000000000000000 ) ) ;
#309 = CARTESIAN_POINT ( 'NONE',  ( 6.500000000000000000, 54.00000000000000000, 2.000000000000000000 ) ) ;
#310 = AXIS2_PLACEMENT_3D ( 'NONE', #134, #438, #837 ) ;
#311 = CIRCLE ( 'NONE', #2, 1.350000000000004086 ) ;
#312 = VECTOR ( 'NONE', #688, 1000.000000000000000 ) ;
#313 = FACE_BOUND ( 'NONE', #237, .T. ) ;
#314 = CARTESIAN_POINT ( 'NONE',  ( 6.500000000000000000, 18.00000000000000000, 2.000000000000000000 ) ) ;
#315 = FACE_OUTER_BOUND ( 'NONE', #889, .T. ) ;
#316 = ORIENTED_EDGE ( 'NONE', *, *, #804, .F. ) ;
#317 = ADVANCED_FACE ( 'NONE', ( #56 ), #135, .F. ) ;
#318 = EDGE_CURVE ( 'NONE', #488, #15, #119, .T. ) ;
#319 = DIRECTION ( 'NONE',  ( 0.000000000000000000, 0.000000000000000000, -1.000000000000000000 ) ) ;
#320 = EDGE_CURVE ( 'NONE', #408, #140, #216, .T. ) ;
#321 = VERTEX_POINT ( 'NONE', #933 ) ;
#322 = EDGE_LOOP ( 'NONE', ( #54, #896, #461, #364 ) ) ;
#323 = VECTOR ( 'NONE', #207, 1000.000000000000000 ) ;
#324 = DIRECTION ( 'NONE',  ( 0.000000000000000000, 0.000000000000000000, -1.000000000000000000 ) ) ;
#325 = VERTEX_POINT ( 'NONE', #63 ) ;
#326 = DIRECTION ( 'NONE',  ( 1.000000000000000000, 0.000000000000000000, 0.000000000000000000 ) ) ;
#327 = CARTESIAN_POINT ( 'NONE',  ( 56.50000000000000000, 38.00000000000000000, 2.000000000000000000 ) ) ;
#328 = AXIS2_PLACEMENT_3D ( 'NONE', #182, #250, #481 ) ;
#329 = DIRECTION ( 'NONE',  ( -1.000000000000000000, 0.000000000000000000, 0.000000000000000000 ) ) ;
#330 = VECTOR ( 'NONE', #104, 1000.000000000000000 ) ;
#331 = ORIENTED_EDGE ( 'NONE', *, *, #407, .F. ) ;
#332 = DIRECTION ( 'NONE',  ( 0.000000000000000000, -1.000000000000000000, 0.000000000000000000 ) ) ;
#333 = DIRECTION ( 'NONE',  ( 0.000000000000000000, 0.000000000000000000, -1.000000000000000000 ) ) ;
#334 = EDGE_CURVE ( 'NONE', #209, #966, #766, .T. ) ;
#335 = FACE_OUTER_BOUND ( 'NONE', #836, .T. ) ;
#336 = DIRECTION ( 'NONE',  ( -1.000000000000000000, -0.000000000000000000, -0.000000000000000000 ) ) ;
#337 = DIRECTION ( 'NONE',  ( 0.000000000000000000, 0.000000000000000000, -1.000000000000000000 ) ) ;
#338 = DIRECTION ( 'NONE',  ( -0.000000000000000000, 1.000000000000000000, 0.000000000000000000 ) ) ;
#339 = EDGE_LOOP ( 'NONE', ( #979, #971, #546, #869 ) ) ;
#340 = EDGE_CURVE ( 'NONE', #204, #919, #539, .T. ) ;
#341 = ADVANCED_FACE ( 'NONE', ( #434 ), #151, .T. ) ;
#342 = PLANE ( 'NONE',  #154 ) ;
#343 = CARTESIAN_POINT ( 'NONE',  ( 0.000000000000000000, 0.000000000000000000, 0.000000000000000000 ) ) ;
#344 = VECTOR ( 'NONE', #620, 1000.000000000000000 ) ;
#345 = DIRECTION ( 'NONE',  ( -0.000000000000000000, -1.000000000000000000, -0.000000000000000000 ) ) ;
#346 = VECTOR ( 'NONE', #828, 1000.000000000000000 ) ;
#347 = CALENDAR_DATE ( 2026, 13, 9 ) ;
#348 = LINE ( 'NONE', #417, #646 ) ;
#349 = FACE_OUTER_BOUND ( 'NONE', #131, .T. ) ;
#350 = EDGE_CURVE ( 'NONE', #662, #939, #761, .T. ) ;
#351 = ORIENTED_EDGE ( 'NONE', *, *, #133, .T. ) ;
#352 = DIRECTION ( 'NONE',  ( 1.000000000000000000, 0.000000000000000000, 0.000000000000000000 ) ) ;
#353 = EDGE_CURVE ( 'NONE', #783, #726, #281, .T. ) ;
#354 = EDGE_LOOP ( 'NONE', ( #952, #496 ) ) ;
#355 = VERTEX_POINT ( 'NONE', #163 ) ;
#356 = ORIENTED_EDGE ( 'NONE', *, *, #577, .T. ) ;
#357 = PLANE ( 'NONE',  #467 ) ;
#358 = DIRECTION ( 'NONE',  ( 1.000000000000000000, 0.000000000000000000, 0.000000000000000000 ) ) ;
#359 = EDGE_LOOP ( 'NONE', ( #509, #26, #415, #721 ) ) ;
#360 = VECTOR ( 'NONE', #882, 1000.000000000000000 ) ;
#361 = CARTESIAN_POINT ( 'NONE',  ( 0.000000000000000000, 61.00000000000000000, 2.000000000000000000 ) ) ;
#362 = CARTESIAN_POINT ( 'NONE',  ( 0.000000000000000000, 61.00000000000000000, 0.000000000000000000 ) ) ;
#363 = PRODUCT_RELATED_PRODUCT_CATEGORY ( 'detail', '', ( #794 ) ) ;
#364 = ORIENTED_EDGE ( 'NONE', *, *, #80, .F. ) ;
#365 = LINE ( 'NONE', #771, #276 ) ;
#366 = CARTESIAN_POINT ( 'NONE',  ( 32.50000000000000000, 48.50000000000000000, 2.000000000000000000 ) ) ;
#367 = EDGE_LOOP ( 'NONE', ( #180, #164, #241, #426 ) ) ;
#368 = VERTEX_POINT ( 'NONE', #634 ) ;
#369 = CARTESIAN_POINT ( 'NONE',  ( 68.50000000000000000, 54.00000000000000000, 2.000000000000000000 ) ) ;
#370 = CARTESIAN_POINT ( 'NONE',  ( 6.500000000000000000, 54.00000000000000000, 0.000000000000000000 ) ) ;
#371 = SHAPE_DEFINITION_REPRESENTATION ( #166, #831 ) ;
#372 = ORIENTED_EDGE ( 'NONE', *, *, #231, .F. ) ;
#373 = AXIS2_PLACEMENT_3D ( 'NONE', #268, #508, #844 ) ;
#374 = ORIENTED_EDGE ( 'NONE', *, *, #93, .T. ) ;
#375 = AXIS2_PLACEMENT_3D ( 'NONE', #170, #88, #735 ) ;
#376 = PERSON_AND_ORGANIZATION ( #642, #731 ) ;
#377 = CARTESIAN_POINT ( 'NONE',  ( 68.50000000000000000, 18.00000000000000000, 2.000000000000000000 ) ) ;
#378 = FACE_OUTER_BOUND ( 'NONE', #1000, .T. ) ;
#379 = FACE_OUTER_BOUND ( 'NONE', #700, .T. ) ;
#380 = LINE ( 'NONE', #224, #876 ) ;
#381 = ORIENTED_EDGE ( 'NONE', *, *, #453, .F. ) ;
#382 = EDGE_CURVE ( 'NONE', #921, #280, #6, .T. ) ;
#383 = CARTESIAN_POINT ( 'NONE',  ( 42.50000000000000000, 48.50000000000000000, 0.000000000000000000 ) ) ;
#384 = DIRECTION ( 'NONE',  ( -0.000000000000000000, -1.000000000000000000, -0.000000000000000000 ) ) ;
#385 = LINE ( 'NONE', #782, #956 ) ;
#386 = LINE ( 'NONE', #657, #941 ) ;
#387 = AXIS2_PLACEMENT_3D ( 'NONE', #491, #757, #201 ) ;
#388 = PLANE ( 'NONE',  #53 ) ;
#389 = VECTOR ( 'NONE', #493, 1000.000000000000000 ) ;
#390 = ADVANCED_FACE ( 'NONE', ( #9 ), #157, .F. ) ;
#391 = CIRCLE ( 'NONE', #544, 1.350000000000004086 ) ;
#392 = CARTESIAN_POINT ( 'NONE',  ( 67.50000000000000000, 14.90000000000000036, 0.000000000000000000 ) ) ;
#393 = FACE_BOUND ( 'NONE', #203, .T. ) ;
#394 = EDGE_LOOP ( 'NONE', ( #11, #608, #967, #676 ) ) ;
#395 = CARTESIAN_POINT ( 'NONE',  ( 19.50000000000000355, 50.00000000000000000, 2.000000000000000000 ) ) ;
#396 = VERTEX_POINT ( 'NONE', #877 ) ;
#397 = LINE ( 'NONE', #13, #405 ) ;
#398 = EDGE_LOOP ( 'NONE', ( #552, #1007, #399, #802 ) ) ;
#399 = ORIENTED_EDGE ( 'NONE', *, *, #684, .F. ) ;
#400 = CARTESIAN_POINT ( 'NONE',  ( 32.50000000000000000, 53.50000000000000000, 2.000000000000000000 ) ) ;
#401 = CARTESIAN_POINT ( 'NONE',  ( 69.85000000000000853, 54.00000000000000000, 2.000000000000000000 ) ) ;
#402 = LINE ( 'NONE', #159, #840 ) ;
#403 = CC_DESIGN_APPROVAL ( #4, ( #615 ) ) ;
#404 = ORIENTED_EDGE ( 'NONE', *, *, #788, .F. ) ;
#405 = VECTOR ( 'NONE', #479, 1000.000000000000000 ) ;
#406 = LINE ( 'NONE', #980, #67 ) ;
#407 = EDGE_CURVE ( 'NONE', #538, #209, #553, .T. ) ;
#408 = VERTEX_POINT ( 'NONE', #232 ) ;
#409 = CARTESIAN_POINT ( 'NONE',  ( 68.50000000000000000, 18.00000000000000000, 2.000000000000000000 ) ) ;
#410 = EDGE_LOOP ( 'NONE', ( #18, #653 ) ) ;
#411 = CARTESIAN_POINT ( 'NONE',  ( 67.50000000000000000, 3.899999999999999911, 2.000000000000000000 ) ) ;
#412 = PLANE ( 'NONE',  #633 ) ;
#413 = VERTEX_POINT ( 'NONE', #868 ) ;
#414 = DIRECTION ( 'NONE',  ( 0.000000000000000000, 0.000000000000000000, -1.000000000000000000 ) ) ;
#415 = ORIENTED_EDGE ( 'NONE', *, *, #340, .T. ) ;
#416 = EDGE_LOOP ( 'NONE', ( #601, #737, #529, #243 ) ) ;
#417 = CARTESIAN_POINT ( 'NONE',  ( 67.50000000000000000, 14.90000000000000036, 2.000000000000000000 ) ) ;
#418 = EDGE_CURVE ( 'NONE', #132, #17, #465, .T. ) ;
#419 = ORIENTED_EDGE ( 'NONE', *, *, #146, .F. ) ;
#420 = APPROVAL_PERSON_ORGANIZATION ( #1014, #4, #435 ) ;
#421 = ORIENTED_EDGE ( 'NONE', *, *, #205, .F. ) ;
#422 = PRODUCT_DEFINITION ( 'æœ', '', #615, #899 ) ;
#423 = CIRCLE ( 'NONE', #1010, 1.349999999999999645 ) ;
#424 = DIRECTION ( 'NONE',  ( 0.000000000000000000, 0.000000000000000000, -1.000000000000000000 ) ) ;
#425 = AXIS2_PLACEMENT_3D ( 'NONE', #377, #866, #932 ) ;
#426 = ORIENTED_EDGE ( 'NONE', *, *, #254, .F. ) ;
#427 = CARTESIAN_POINT ( 'NONE',  ( 67.15000000000000568, 18.00000000000000000, 2.000000000000000000 ) ) ;
#428 = EDGE_CURVE ( 'NONE', #17, #138, #386, .T. ) ;
#429 = CARTESIAN_POINT ( 'NONE',  ( 68.50000000000000000, 18.00000000000000000, 0.000000000000000000 ) ) ;
#430 = CARTESIAN_POINT ( 'NONE',  ( 68.50000000000000000, 54.00000000000000000, 0.000000000000000000 ) ) ;
#431 = DATE_TIME_ROLE ( 'creation_date' ) ;
#432 = ORIENTED_EDGE ( 'NONE', *, *, #156, .T. ) ;
#433 = FACE_OUTER_BOUND ( 'NONE', #322, .T. ) ;
#434 = FACE_OUTER_BOUND ( 'NONE', #728, .T. ) ;
#435 = APPROVAL_ROLE ( '' ) ;
#436 = VERTEX_POINT ( 'NONE', #709 ) ;
#437 = AXIS2_PLACEMENT_3D ( 'NONE', #160, #870, #536 ) ;
#438 = DIRECTION ( 'NONE',  ( 1.000000000000000000, -0.000000000000000000, 0.000000000000000000 ) ) ;
#439 = AXIS2_PLACEMENT_3D ( 'NONE', #301, #141, #447 ) ;
#440 = CARTESIAN_POINT ( 'NONE',  ( 15.49999999999999822, 50.00000000000000000, 2.000000000000000000 ) ) ;
#441 = ADVANCED_FACE ( 'NONE', ( #75 ), #388, .T. ) ;
#442 = SECURITY_CLASSIFICATION_LEVEL ( 'unclassified' ) ;
#443 = VERTEX_POINT ( 'NONE', #569 ) ;
#444 = LINE ( 'NONE', #852, #344 ) ;
#445 = DIRECTION ( 'NONE',  ( 0.000000000000000000, 0.000000000000000000, 1.000000000000000000 ) ) ;
#446 = ORIENTED_EDGE ( 'NONE', *, *, #36, .F. ) ;
#447 = DIRECTION ( 'NONE',  ( 1.000000000000000000, 0.000000000000000000, 0.000000000000000000 ) ) ;
#448 = DIRECTION ( 'NONE',  ( 0.000000000000000000, 0.000000000000000000, -1.000000000000000000 ) ) ;
#449 = EDGE_CURVE ( 'NONE', #538, #505, #578, .T. ) ;
#450 = VECTOR ( 'NONE', #598, 1000.000000000000000 ) ;
#451 = CARTESIAN_POINT ( 'NONE',  ( 15.49999999999999822, 50.00000000000000000, 2.000000000000000000 ) ) ;
#452 = CARTESIAN_POINT ( 'NONE',  ( 0.000000000000000000, 0.000000000000000000, 0.000000000000000000 ) ) ;
#453 = EDGE_CURVE ( 'NONE', #816, #775, #246, .T. ) ;
#454 = SECURITY_CLASSIFICATION ( '', '', #442 ) ;
#455 = VERTEX_POINT ( 'NONE', #475 ) ;
#456 = DIRECTION ( 'NONE',  ( 0.000000000000000000, 0.000000000000000000, 1.000000000000000000 ) ) ;
#457 = AXIS2_PLACEMENT_3D ( 'NONE', #235, #563, #951 ) ;
#458 = DIRECTION ( 'NONE',  ( 1.000000000000000000, -0.000000000000000000, 0.000000000000000000 ) ) ;
#459 = LINE ( 'NONE', #791, #908 ) ;
#460 = CARTESIAN_POINT ( 'NONE',  ( 67.15000000000000568, 18.00000000000000000, 0.000000000000000000 ) ) ;
#461 = ORIENTED_EDGE ( 'NONE', *, *, #222, .F. ) ;
#462 = ORIENTED_EDGE ( 'NONE', *, *, #564, .F. ) ;
#463 = DIRECTION ( 'NONE',  ( 0.000000000000000000, 0.000000000000000000, -1.000000000000000000 ) ) ;
#464 = ADVANCED_FACE ( 'NONE', ( #315 ), #640, .F. ) ;
#465 = LINE ( 'NONE', #793, #360 ) ;
#466 = VERTEX_POINT ( 'NONE', #460 ) ;
#467 = AXIS2_PLACEMENT_3D ( 'NONE', #668, #277, #270 ) ;
#468 = LINE ( 'NONE', #150, #275 ) ;
#469 = CARTESIAN_POINT ( 'NONE',  ( 7.849999999999999645, 54.00000000000000000, 2.000000000000000000 ) ) ;
#470 = AXIS2_PLACEMENT_3D ( 'NONE', #366, #998, #448 ) ;
#471 = VERTEX_POINT ( 'NONE', #21 ) ;
#472 = AXIS2_PLACEMENT_3D ( 'NONE', #927, #543, #922 ) ;
#473 = DIRECTION ( 'NONE',  ( 0.000000000000000000, 1.000000000000000000, 0.000000000000000000 ) ) ;
#474 = AXIS2_PLACEMENT_3D ( 'NONE', #814, #484, #887 ) ;
#475 = CARTESIAN_POINT ( 'NONE',  ( 56.50000000000000000, 46.00000000000000000, 0.000000000000000000 ) ) ;
#476 = EDGE_LOOP ( 'NONE', ( #221, #95 ) ) ;
#477 = ORIENTED_EDGE ( 'NONE', *, *, #14, .F. ) ;
#478 = DIRECTION ( 'NONE',  ( -0.000000000000000000, -1.000000000000000000, -0.000000000000000000 ) ) ;
#479 = DIRECTION ( 'NONE',  ( 0.000000000000000000, 0.000000000000000000, -1.000000000000000000 ) ) ;
#480 = CYLINDRICAL_SURFACE ( 'NONE', #474, 2.000000000000003553 ) ;
#481 = DIRECTION ( 'NONE',  ( -1.000000000000000000, 0.000000000000000000, 0.000000000000000000 ) ) ;
#482 = ADVANCED_FACE ( 'NONE', ( #97, #800, #789, #556, #1, #86, #393, #718, #643 ), #172, .T. ) ;
#483 = LINE ( 'NONE', #400, #200 ) ;
#484 = DIRECTION ( 'NONE',  ( 0.000000000000000000, 0.000000000000000000, -1.000000000000000000 ) ) ;
#485 = CC_DESIGN_SECURITY_CLASSIFICATION ( #454, ( #615 ) ) ;
#486 = LINE ( 'NONE', #576, #993 ) ;
#487 = VECTOR ( 'NONE', #319, 1000.000000000000000 ) ;
#488 = VERTEX_POINT ( 'NONE', #179 ) ;
#489 = CARTESIAN_POINT ( 'NONE',  ( 67.50000000000000000, 3.899999999999999911, 2.000000000000000000 ) ) ;
#490 = DIRECTION ( 'NONE',  ( 0.000000000000000000, 0.000000000000000000, -1.000000000000000000 ) ) ;
#491 = CARTESIAN_POINT ( 'NONE',  ( 6.500000000000000000, 18.00000000000000000, 2.000000000000000000 ) ) ;
#492 = CLOSED_SHELL ( 'NONE', ( #891, #162, #317, #871, #390, #537, #482, #914, #619, #707, #863, #960, #283, #665, #441, #52, #934, #217, #547, #858, #885, #267, #341, #983, #464, #725, #567, #22 ) ) ;
#493 = DIRECTION ( 'NONE',  ( 0.000000000000000000, 0.000000000000000000, -1.000000000000000000 ) ) ;
#494 = ORIENTED_EDGE ( 'NONE', *, *, #968, .T. ) ;
#495 = DIRECTION ( 'NONE',  ( 1.000000000000000000, 0.000000000000000000, 0.000000000000000000 ) ) ;
#496 = ORIENTED_EDGE ( 'NONE', *, *, #106, .T. ) ;
#497 = EDGE_CURVE ( 'NONE', #140, #186, #397, .T. ) ;
#498 = DIRECTION ( 'NONE',  ( -1.000000000000000000, 0.000000000000000000, 0.000000000000000000 ) ) ;
#499 = CC_DESIGN_PERSON_AND_ORGANIZATION_ASSIGNMENT ( #702, #992, ( #422 ) ) ;
#500 = EDGE_CURVE ( 'NONE', #921, #488, #813, .T. ) ;
#501 = CARTESIAN_POINT ( 'NONE',  ( 5.150000000000000355, 18.00000000000000000, 0.000000000000000000 ) ) ;
#502 = FACE_OUTER_BOUND ( 'NONE', #689, .T. ) ;
#503 = LOCAL_TIME ( 2, 20, 27.00000000000000000, #930 ) ;
#504 = ORIENTED_EDGE ( 'NONE', *, *, #602, .F. ) ;
#505 = VERTEX_POINT ( 'NONE', #118 ) ;
#506 = PLANE ( 'NONE',  #861 ) ;
#507 = CIRCLE ( 'NONE', #895, 1.350000000000004086 ) ;
#508 = DIRECTION ( 'NONE',  ( 0.000000000000000000, 0.000000000000000000, 1.000000000000000000 ) ) ;
#509 = ORIENTED_EDGE ( 'NONE', *, *, #650, .F. ) ;
#510 = PERSON_AND_ORGANIZATION ( #642, #731 ) ;
#511 = CIRCLE ( 'NONE', #71, 1.349999999999999645 ) ;
#512 = ORIENTED_EDGE ( 'NONE', *, *, #577, .F. ) ;
#513 = CARTESIAN_POINT ( 'NONE',  ( 39.50000000000000000, 14.90000000000000036, 0.000000000000000000 ) ) ;
#514 = EDGE_CURVE ( 'NONE', #204, #455, #901, .T. ) ;
#515 = DIRECTION ( 'NONE',  ( 0.000000000000000000, 0.000000000000000000, -1.000000000000000000 ) ) ;
#516 = DIRECTION ( 'NONE',  ( 1.000000000000000000, 0.000000000000000000, 0.000000000000000000 ) ) ;
#517 = APPROVAL_STATUS ( 'not_yet_approved' ) ;
#518 = ORIENTED_EDGE ( 'NONE', *, *, #602, .T. ) ;
#519 = EDGE_CURVE ( 'NONE', #396, #321, #986, .T. ) ;
#520 =( LENGTH_UNIT ( ) NAMED_UNIT ( * ) SI_UNIT ( .MILLI., .METRE. ) );
#521 = FACE_OUTER_BOUND ( 'NONE', #878, .T. ) ;
#522 = DATE_AND_TIME ( #278, #117 ) ;
#523 = CARTESIAN_POINT ( 'NONE',  ( 39.50000000000000000, 3.899999999999999911, 0.000000000000000000 ) ) ;
#524 = ORIENTED_EDGE ( 'NONE', *, *, #579, .F. ) ;
#525 = VECTOR ( 'NONE', #768, 1000.000000000000000 ) ;
#526 = VECTOR ( 'NONE', #495, 1000.000000000000000 ) ;
#527 = DIRECTION ( 'NONE',  ( 1.000000000000000000, 0.000000000000000000, 0.000000000000000000 ) ) ;
#528 = DIRECTION ( 'NONE',  ( -0.000000000000000000, -0.000000000000000000, -1.000000000000000000 ) ) ;
#529 = ORIENTED_EDGE ( 'NONE', *, *, #680, .F. ) ;
#530 = EDGE_LOOP ( 'NONE', ( #245, #995 ) ) ;
#531 = DIRECTION ( 'NONE',  ( 0.000000000000000000, -0.000000000000000000, 1.000000000000000000 ) ) ;
#532 = LINE ( 'NONE', #68, #892 ) ;
#533 = ORIENTED_EDGE ( 'NONE', *, *, #803, .F. ) ;
#534 = CARTESIAN_POINT ( 'NONE',  ( 6.500000000000000000, 54.00000000000000000, 2.000000000000000000 ) ) ;
#535 = LINE ( 'NONE', #732, #562 ) ;
#536 = DIRECTION ( 'NONE',  ( -1.000000000000000000, 0.000000000000000000, 0.000000000000000000 ) ) ;
#537 = ADVANCED_FACE ( 'NONE', ( #736, #628, #149, #936, #780, #313, #378, #541, #862 ), #155, .F. ) ;
#538 = VERTEX_POINT ( 'NONE', #797 ) ;
#539 = LINE ( 'NONE', #859, #699 ) ;
#540 = LINE ( 'NONE', #66, #786 ) ;
#541 = FACE_BOUND ( 'NONE', #394, .T. ) ;
#542 = AXIS2_PLACEMENT_3D ( 'NONE', #923, #690, #772 ) ;
#543 = DIRECTION ( 'NONE',  ( 0.000000000000000000, 0.000000000000000000, 1.000000000000000000 ) ) ;
#544 = AXIS2_PLACEMENT_3D ( 'NONE', #409, #738, #27 ) ;
#545 = ORIENTED_EDGE ( 'NONE', *, *, #743, .T. ) ;
#546 = ORIENTED_EDGE ( 'NONE', *, *, #353, .F. ) ;
#547 = ADVANCED_FACE ( 'NONE', ( #83 ), #238, .T. ) ;
#548 = CARTESIAN_POINT ( 'NONE',  ( 69.85000000000000853, 18.00000000000000000, 0.000000000000000000 ) ) ;
#549 = LINE ( 'NONE', #297, #100 ) ;
#550 = VECTOR ( 'NONE', #515, 1000.000000000000000 ) ;
#551 = CARTESIAN_POINT ( 'NONE',  ( 0.000000000000000000, 0.000000000000000000, 2.000000000000000000 ) ) ;
#552 = ORIENTED_EDGE ( 'NONE', *, *, #320, .T. ) ;
#553 = LINE ( 'NONE', #469, #819 ) ;
#554 = ORIENTED_EDGE ( 'NONE', *, *, #428, .F. ) ;
#555 = VERTEX_POINT ( 'NONE', #395 ) ;
#556 = FACE_BOUND ( 'NONE', #410, .T. ) ;
#557 = ORIENTED_EDGE ( 'NONE', *, *, #769, .F. ) ;
#558 = AXIS2_PLACEMENT_3D ( 'NONE', #957, #324, #167 ) ;
#559 = DIRECTION ( 'NONE',  ( 0.000000000000000000, 0.000000000000000000, -1.000000000000000000 ) ) ;
#560 = ORIENTED_EDGE ( 'NONE', *, *, #96, .T. ) ;
#561 = ORIENTED_EDGE ( 'NONE', *, *, #654, .F. ) ;
#562 = VECTOR ( 'NONE', #184, 1000.000000000000000 ) ;
#563 = DIRECTION ( 'NONE',  ( 0.000000000000000000, 0.000000000000000000, -1.000000000000000000 ) ) ;
#564 = EDGE_CURVE ( 'NONE', #954, #138, #183, .T. ) ;
#565 = ORIENTED_EDGE ( 'NONE', *, *, #650, .T. ) ;
#566 = CARTESIAN_POINT ( 'NONE',  ( 64.50000000000000000, 38.00000000000000000, 0.000000000000000000 ) ) ;
#567 = ADVANCED_FACE ( 'NONE', ( #335 ), #810, .F. ) ;
#568 = EDGE_LOOP ( 'NONE', ( #748, #291 ) ) ;
#569 = CARTESIAN_POINT ( 'NONE',  ( 42.50000000000000000, 53.50000000000000000, 0.000000000000000000 ) ) ;
#570 = ORIENTED_EDGE ( 'NONE', *, *, #307, .T. ) ;
#571 = ORIENTED_EDGE ( 'NONE', *, *, #824, .T. ) ;
#572 = CARTESIAN_POINT ( 'NONE',  ( 32.50000000000000000, 53.50000000000000000, 0.000000000000000000 ) ) ;
#573 = PLANE ( 'NONE',  #670 ) ;
#574 = AXIS2_PLACEMENT_3D ( 'NONE', #57, #917, #211 ) ;
#575 = ORIENTED_EDGE ( 'NONE', *, *, #500, .F. ) ;
#576 = CARTESIAN_POINT ( 'NONE',  ( 42.50000000000000000, 48.50000000000000000, 2.000000000000000000 ) ) ;
#577 = EDGE_CURVE ( 'NONE', #436, #590, #486, .T. ) ;
#578 = CIRCLE ( 'NONE', #137, 1.349999999999999645 ) ;
#579 = EDGE_CURVE ( 'NONE', #436, #39, #661, .T. ) ;
#580 = ORIENTED_EDGE ( 'NONE', *, *, #579, .T. ) ;
#581 = CARTESIAN_POINT ( 'NONE',  ( 42.50000000000000000, 48.50000000000000000, 2.000000000000000000 ) ) ;
#582 = ORIENTED_EDGE ( 'NONE', *, *, #519, .F. ) ;
#583 = EDGE_LOOP ( 'NONE', ( #477, #421, #622, #112 ) ) ;
#584 = FACE_OUTER_BOUND ( 'NONE', #583, .T. ) ;
#585 = CARTESIAN_POINT ( 'NONE',  ( 68.50000000000000000, 18.00000000000000000, 0.000000000000000000 ) ) ;
#586 = CARTESIAN_POINT ( 'NONE',  ( 0.000000000000000000, 0.000000000000000000, 2.000000000000000000 ) ) ;
#587 = CARTESIAN_POINT ( 'NONE',  ( 32.50000000000000000, 53.50000000000000000, 0.000000000000000000 ) ) ;
#588 = ORIENTED_EDGE ( 'NONE', *, *, #756, .F. ) ;
#589 = CIRCLE ( 'NONE', #387, 1.349999999999999645 ) ;
#590 = VERTEX_POINT ( 'NONE', #962 ) ;
#591 = LINE ( 'NONE', #411, #905 ) ;
#592 = DIRECTION ( 'NONE',  ( 1.000000000000000000, 0.000000000000000000, 0.000000000000000000 ) ) ;
#593 = VECTOR ( 'NONE', #296, 1000.000000000000000 ) ;
#594 = EDGE_CURVE ( 'NONE', #28, #775, #950, .T. ) ;
#595 = ORIENTED_EDGE ( 'NONE', *, *, #139, .F. ) ;
#596 = CARTESIAN_POINT ( 'NONE',  ( 67.15000000000000568, 54.00000000000000000, 0.000000000000000000 ) ) ;
#597 = AXIS2_PLACEMENT_3D ( 'NONE', #70, #629, #937 ) ;
#598 = DIRECTION ( 'NONE',  ( 0.000000000000000000, 0.000000000000000000, -1.000000000000000000 ) ) ;
#599 = CARTESIAN_POINT ( 'NONE',  ( 6.500000000000000000, 54.00000000000000000, 2.000000000000000000 ) ) ;
#600 = APPROVAL_DATE_TIME ( #522, #4 ) ;
#601 = ORIENTED_EDGE ( 'NONE', *, *, #970, .T. ) ;
#602 = EDGE_CURVE ( 'NONE', #41, #173, #821, .T. ) ;
#603 = CARTESIAN_POINT ( 'NONE',  ( 69.85000000000000853, 54.00000000000000000, 2.000000000000000000 ) ) ;
#604 =( NAMED_UNIT ( * ) SI_UNIT ( $, .STERADIAN. ) SOLID_ANGLE_UNIT ( ) );
#605 = PLANE ( 'NONE',  #574 ) ;
#606 = DATE_AND_TIME ( #613, #19 ) ;
#607 = COORDINATED_UNIVERSAL_TIME_OFFSET ( 8, 0, .AHEAD. ) ;
#608 = ORIENTED_EDGE ( 'NONE', *, *, #93, .F. ) ;
#609 = DIRECTION ( 'NONE',  ( -0.000000000000000000, -0.000000000000000000, -1.000000000000000000 ) ) ;
#610 = LINE ( 'NONE', #215, #763 ) ;
#611 = MANIFOLD_SOLID_BREP ( 'ÇÐ³ý-À­Éì4', #492 ) ;
#612 = AXIS2_PLACEMENT_3D ( 'NONE', #429, #34, #977 ) ;
#613 = CALENDAR_DATE ( 2026, 13, 9 ) ;
#614 = ORIENTED_EDGE ( 'NONE', *, *, #693, .T. ) ;
#615 = PRODUCT_DEFINITION_FORMATION_WITH_SPECIFIED_SOURCE ( 'ä»', '', #794, .NOT_KNOWN. ) ;
#616 = EDGE_CURVE ( 'NONE', #10, #325, #391, .T. ) ;
#617 = AXIS2_PLACEMENT_3D ( 'NONE', #7, #730, #948 ) ;
#618 = ORIENTED_EDGE ( 'NONE', *, *, #257, .F. ) ;
#619 = ADVANCED_FACE ( 'NONE', ( #111 ), #667, .F. ) ;
#620 = DIRECTION ( 'NONE',  ( 1.000000000000000000, 0.000000000000000000, 0.000000000000000000 ) ) ;
#621 = PERSON_AND_ORGANIZATION ( #642, #731 ) ;
#622 = ORIENTED_EDGE ( 'NONE', *, *, #720, .T. ) ;
#623 = DIRECTION ( 'NONE',  ( 0.000000000000000000, -0.000000000000000000, 1.000000000000000000 ) ) ;
#624 = DATE_AND_TIME ( #347, #685 ) ;
#625 = APPROVAL_STATUS ( 'not_yet_approved' ) ;
#626 = EDGE_CURVE ( 'NONE', #228, #843, #89, .T. ) ;
#627 = CARTESIAN_POINT ( 'NONE',  ( 56.50000000000000000, 38.00000000000000000, 2.000000000000000000 ) ) ;
#628 = FACE_BOUND ( 'NONE', #273, .T. ) ;
#629 = DIRECTION ( 'NONE',  ( 0.000000000000000000, -1.000000000000000000, 0.000000000000000000 ) ) ;
#630 = ORIENTED_EDGE ( 'NONE', *, *, #350, .F. ) ;
#631 = ORIENTED_EDGE ( 'NONE', *, *, #61, .F. ) ;
#632 = CARTESIAN_POINT ( 'NONE',  ( 15.49999999999999822, 50.00000000000000000, 0.000000000000000000 ) ) ;
#633 = AXIS2_PLACEMENT_3D ( 'NONE', #747, #884, #185 ) ;
#634 = CARTESIAN_POINT ( 'NONE',  ( 19.50000000000000355, 50.00000000000000000, 0.000000000000000000 ) ) ;
#635 = VECTOR ( 'NONE', #942, 1000.000000000000000 ) ;
#636 = ORIENTED_EDGE ( 'NONE', *, *, #272, .T. ) ;
#637 = CARTESIAN_POINT ( 'NONE',  ( 0.000000000000000000, 0.000000000000000000, 2.000000000000000000 ) ) ;
#638 = EDGE_CURVE ( 'NONE', #555, #121, #85, .T. ) ;
#639 = EDGE_CURVE ( 'NONE', #1005, #173, #380, .T. ) ;
#640 = CYLINDRICAL_SURFACE ( 'NONE', #558, 1.350000000000004086 ) ;
#641 = ORIENTED_EDGE ( 'NONE', *, *, #109, .F. ) ;
#642 = PERSON ( 'æœª', 'æœª', 'æœª', ('æœª'), ('æœª'), ('æœª') ) ;
#643 = FACE_BOUND ( 'NONE', #811, .T. ) ;
#644 = ORIENTED_EDGE ( 'NONE', *, *, #106, .F. ) ;
#645 = ORIENTED_EDGE ( 'NONE', *, *, #853, .T. ) ;
#646 = VECTOR ( 'NONE', #108, 1000.000000000000000 ) ;
#647 = CARTESIAN_POINT ( 'NONE',  ( 0.000000000000000000, 0.000000000000000000, 0.000000000000000000 ) ) ;
#648 = APPROVAL_PERSON_ORGANIZATION ( #376, #77, #842 ) ;
#649 = ORIENTED_EDGE ( 'NONE', *, *, #62, .T. ) ;
#650 = EDGE_CURVE ( 'NONE', #455, #28, #385, .T. ) ;
#651 = AXIS2_PLACEMENT_3D ( 'NONE', #585, #259, #352 ) ;
#652 = LINE ( 'NONE', #692, #955 ) ;
#653 = ORIENTED_EDGE ( 'NONE', *, *, #318, .T. ) ;
#654 = EDGE_CURVE ( 'NONE', #590, #443, #406, .T. ) ;
#655 = CARTESIAN_POINT ( 'NONE',  ( 42.50000000000000000, 48.50000000000000000, 2.000000000000000000 ) ) ;
#656 = VECTOR ( 'NONE', #463, 1000.000000000000000 ) ;
#657 = CARTESIAN_POINT ( 'NONE',  ( 39.50000000000000000, 3.899999999999999911, 0.000000000000000000 ) ) ;
#658 = EDGE_LOOP ( 'NONE', ( #796, #446, #694, #33 ) ) ;
#659 = DIRECTION ( 'NONE',  ( 0.000000000000000000, 1.000000000000000000, 0.000000000000000000 ) ) ;
#660 = EDGE_LOOP ( 'NONE', ( #218, #565, #827, #976 ) ) ;
#661 = LINE ( 'NONE', #655, #749 ) ;
#662 = VERTEX_POINT ( 'NONE', #261 ) ;
#663 = LINE ( 'NONE', #572, #20 ) ;
#664 = CARTESIAN_POINT ( 'NONE',  ( 5.150000000000001243, 54.00000000000000000, 2.000000000000000000 ) ) ;
#665 = ADVANCED_FACE ( 'NONE', ( #584 ), #822, .T. ) ;
#666 = EDGE_LOOP ( 'NONE', ( #588, #582, #545, #144 ) ) ;
#667 = PLANE ( 'NONE',  #978 ) ;
#668 = CARTESIAN_POINT ( 'NONE',  ( 64.50000000000000000, 38.00000000000000000, 2.000000000000000000 ) ) ;
#669 = VECTOR ( 'NONE', #265, 1000.000000000000000 ) ;
#670 = AXIS2_PLACEMENT_3D ( 'NONE', #987, #338, #623 ) ;
#671 = EDGE_LOOP ( 'NONE', ( #99, #734 ) ) ;
#672 = APPLICATION_PROTOCOL_DEFINITION ( 'international standard', 'config_control_design', 1994, #247 ) ;
#673 = CARTESIAN_POINT ( 'NONE',  ( 56.50000000000000000, 46.00000000000000000, 2.000000000000000000 ) ) ;
#674 = CARTESIAN_POINT ( 'NONE',  ( 68.50000000000000000, 18.00000000000000000, 2.000000000000000000 ) ) ;
#675 = LINE ( 'NONE', #256, #389 ) ;
#676 = ORIENTED_EDGE ( 'NONE', *, *, #284, .F. ) ;
#677 = FACE_OUTER_BOUND ( 'NONE', #759, .T. ) ;
#678 = ORIENTED_EDGE ( 'NONE', *, *, #449, .T. ) ;
#679 = PLANE ( 'NONE',  #801 ) ;
#680 = EDGE_CURVE ( 'NONE', #939, #783, #24, .T. ) ;
#681 = EDGE_LOOP ( 'NONE', ( #744, #897, #374, #114 ) ) ;
#682 = ORIENTED_EDGE ( 'NONE', *, *, #284, .T. ) ;
#683 = CARTESIAN_POINT ( 'NONE',  ( 0.000000000000000000, 61.00000000000000000, 2.000000000000000000 ) ) ;
#684 = EDGE_CURVE ( 'NONE', #251, #186, #423, .T. ) ;
#685 = LOCAL_TIME ( 2, 20, 27.00000000000000000, #607 ) ;
#686 = EDGE_LOOP ( 'NONE', ( #240, #855 ) ) ;
#687 = VECTOR ( 'NONE', #478, 1000.000000000000000 ) ;
#688 = DIRECTION ( 'NONE',  ( -1.000000000000000000, -0.000000000000000000, -0.000000000000000000 ) ) ;
#689 = EDGE_LOOP ( 'NONE', ( #645, #262, #107, #316 ) ) ;
#690 = DIRECTION ( 'NONE',  ( 0.000000000000000000, 0.000000000000000000, 1.000000000000000000 ) ) ;
#691 = ORIENTED_EDGE ( 'NONE', *, *, #920, .T. ) ;
#692 = CARTESIAN_POINT ( 'NONE',  ( 75.00000000000000000, 0.000000000000000000, 2.000000000000000000 ) ) ;
#693 = EDGE_CURVE ( 'NONE', #590, #37, #483, .T. ) ;
#694 = ORIENTED_EDGE ( 'NONE', *, *, #803, .T. ) ;
#695 = EDGE_CURVE ( 'NONE', #443, #1005, #663, .T. ) ;
#696 = DIRECTION ( 'NONE',  ( 0.000000000000000000, 0.000000000000000000, 1.000000000000000000 ) ) ;
#697 = CIRCLE ( 'NONE', #779, 2.000000000000001776 ) ;
#698 = DIRECTION ( 'NONE',  ( -1.000000000000000000, 0.000000000000000000, 0.000000000000000000 ) ) ;
#699 = VECTOR ( 'NONE', #784, 1000.000000000000000 ) ;
#700 = EDGE_LOOP ( 'NONE', ( #825, #432, #560, #644 ) ) ;
#701 = CARTESIAN_POINT ( 'NONE',  ( 6.500000000000000000, 54.00000000000000000, 0.000000000000000000 ) ) ;
#702 = PERSON_AND_ORGANIZATION ( #642, #731 ) ;
#703 = CARTESIAN_POINT ( 'NONE',  ( 6.500000000000000000, 18.00000000000000000, 0.000000000000000000 ) ) ;
#704 = DIRECTION ( 'NONE',  ( -0.000000000000000000, -1.000000000000000000, -0.000000000000000000 ) ) ;
#705 = ORIENTED_EDGE ( 'NONE', *, *, #875, .T. ) ;
#706 = ORIENTED_EDGE ( 'NONE', *, *, #205, .T. ) ;
#707 = ADVANCED_FACE ( 'NONE', ( #191 ), #342, .F. ) ;
#708 = LINE ( 'NONE', #627, #929 ) ;
#709 = CARTESIAN_POINT ( 'NONE',  ( 42.50000000000000000, 48.50000000000000000, 2.000000000000000000 ) ) ;
#710 = EDGE_CURVE ( 'NONE', #816, #396, #549, .T. ) ;
#711 = ORIENTED_EDGE ( 'NONE', *, *, #1001, .F. ) ;
#712 = CIRCLE ( 'NONE', #289, 1.349999999999999645 ) ;
#713 = DIRECTION ( 'NONE',  ( 1.000000000000000000, 0.000000000000000000, 0.000000000000000000 ) ) ;
#714 = LINE ( 'NONE', #958, #746 ) ;
#715 = AXIS2_PLACEMENT_3D ( 'NONE', #647, #806, #90 ) ;
#716 = EDGE_LOOP ( 'NONE', ( #649, #174, #851, #306 ) ) ;
#717 = CARTESIAN_POINT ( 'NONE',  ( 56.50000000000000000, 46.00000000000000000, 0.000000000000000000 ) ) ;
#718 = FACE_BOUND ( 'NONE', #660, .T. ) ;
#719 = ORIENTED_EDGE ( 'NONE', *, *, #626, .F. ) ;
#720 = EDGE_CURVE ( 'NONE', #355, #471, #774, .T. ) ;
#721 = ORIENTED_EDGE ( 'NONE', *, *, #36, .T. ) ;
#722 = CC_DESIGN_PERSON_AND_ORGANIZATION_ASSIGNMENT ( #136, #64, ( #615 ) ) ;
#723 = CARTESIAN_POINT ( 'NONE',  ( 0.000000000000000000, 61.00000000000000000, 0.000000000000000000 ) ) ;
#724 = DIRECTION ( 'NONE',  ( 1.000000000000000000, 0.000000000000000000, 0.000000000000000000 ) ) ;
#725 = ADVANCED_FACE ( 'NONE', ( #145 ), #940, .F. ) ;
#726 = VERTEX_POINT ( 'NONE', #304 ) ;
#727 = DIRECTION ( 'NONE',  ( -1.000000000000000000, -0.000000000000000000, -0.000000000000000000 ) ) ;
#728 = EDGE_LOOP ( 'NONE', ( #76, #561, #614, #103 ) ) ;
#729 = ORIENTED_EDGE ( 'NONE', *, *, #710, .F. ) ;
#730 = DIRECTION ( 'NONE',  ( 0.000000000000000000, 0.000000000000000000, 1.000000000000000000 ) ) ;
#731 = ORGANIZATION ( 'æœª', 'æœª', '' ) ;
#732 = CARTESIAN_POINT ( 'NONE',  ( 67.15000000000000568, 18.00000000000000000, 2.000000000000000000 ) ) ;
#733 = VECTOR ( 'NONE', #527, 1000.000000000000000 ) ;
#734 = ORIENTED_EDGE ( 'NONE', *, *, #947, .T. ) ;
#735 = DIRECTION ( 'NONE',  ( 0.000000000000000000, -0.000000000000000000, -1.000000000000000000 ) ) ;
#736 = FACE_BOUND ( 'NONE', #568, .T. ) ;
#737 = ORIENTED_EDGE ( 'NONE', *, *, #873, .F. ) ;
#738 = DIRECTION ( 'NONE',  ( 0.000000000000000000, 0.000000000000000000, 1.000000000000000000 ) ) ;
#739 = ORIENTED_EDGE ( 'NONE', *, *, #14, .T. ) ;
#740 = LINE ( 'NONE', #343, #795 ) ;
#741 = ORIENTED_EDGE ( 'NONE', *, *, #115, .T. ) ;
#742 = DIRECTION ( 'NONE',  ( 0.000000000000000000, 0.000000000000000000, -1.000000000000000000 ) ) ;
#743 = EDGE_CURVE ( 'NONE', #396, #204, #468, .T. ) ;
#744 = ORIENTED_EDGE ( 'NONE', *, *, #968, .F. ) ;
#745 = CARTESIAN_POINT ( 'NONE',  ( 7.849999999999999645, 18.00000000000000000, 0.000000000000000000 ) ) ;
#746 = VECTOR ( 'NONE', #236, 1000.000000000000000 ) ;
#747 = CARTESIAN_POINT ( 'NONE',  ( 32.50000000000000000, 48.50000000000000000, 2.000000000000000000 ) ) ;
#748 = ORIENTED_EDGE ( 'NONE', *, *, #853, .F. ) ;
#749 = VECTOR ( 'NONE', #742, 1000.000000000000000 ) ;
#750 = VERTEX_POINT ( 'NONE', #452 ) ;
#751 = APPROVAL_STATUS ( 'not_yet_approved' ) ;
#752 = DIRECTION ( 'NONE',  ( -0.000000000000000000, -0.000000000000000000, -1.000000000000000000 ) ) ;
#753 = ORIENTED_EDGE ( 'NONE', *, *, #769, .T. ) ;
#754 = VERTEX_POINT ( 'NONE', #392 ) ;
#755 = DIRECTION ( 'NONE',  ( -0.000000000000000000, 1.000000000000000000, 0.000000000000000000 ) ) ;
#756 = EDGE_CURVE ( 'NONE', #321, #455, #1011, .T. ) ;
#757 = DIRECTION ( 'NONE',  ( 0.000000000000000000, 0.000000000000000000, 1.000000000000000000 ) ) ;
#758 = CARTESIAN_POINT ( 'NONE',  ( 64.50000000000000000, 38.00000000000000000, 0.000000000000000000 ) ) ;
#759 = EDGE_LOOP ( 'NONE', ( #554, #299, #926, #874 ) ) ;
#760 = DIRECTION ( 'NONE',  ( -1.000000000000000000, 0.000000000000000000, 0.000000000000000000 ) ) ;
#761 = LINE ( 'NONE', #361, #312 ) ;
#762 = LINE ( 'NONE', #55, #65 ) ;
#763 = VECTOR ( 'NONE', #528, 1000.000000000000000 ) ;
#764 = VECTOR ( 'NONE', #8, 1000.000000000000000 ) ;
#765 = ORIENTED_EDGE ( 'NONE', *, *, #639, .T. ) ;
#766 = CIRCLE ( 'NONE', #864, 1.349999999999999645 ) ;
#767 = DIRECTION ( 'NONE',  ( 0.000000000000000000, 0.000000000000000000, -1.000000000000000000 ) ) ;
#768 = DIRECTION ( 'NONE',  ( 0.000000000000000000, 0.000000000000000000, -1.000000000000000000 ) ) ;
#769 = EDGE_CURVE ( 'NONE', #37, #41, #532, .T. ) ;
#770 = PERSON_AND_ORGANIZATION_ROLE ( 'classification_officer' ) ;
#771 = CARTESIAN_POINT ( 'NONE',  ( 75.00000000000000000, 61.00000000000000000, 2.000000000000000000 ) ) ;
#772 = DIRECTION ( 'NONE',  ( 1.000000000000000000, 0.000000000000000000, 0.000000000000000000 ) ) ;
#773 = EDGE_CURVE ( 'NONE', #505, #538, #712, .T. ) ;
#774 = LINE ( 'NONE', #946, #190 ) ;
#775 = VERTEX_POINT ( 'NONE', #758 ) ;
#776 = DIRECTION ( 'NONE',  ( 0.000000000000000000, 0.000000000000000000, -1.000000000000000000 ) ) ;
#777 = DATE_AND_TIME ( #849, #503 ) ;
#778 = CARTESIAN_POINT ( 'NONE',  ( 42.50000000000000000, 48.50000000000000000, 0.000000000000000000 ) ) ;
#779 = AXIS2_PLACEMENT_3D ( 'NONE', #128, #912, #516 ) ;
#780 = FACE_BOUND ( 'NONE', #686, .T. ) ;
#781 = AXIS2_PLACEMENT_3D ( 'NONE', #637, #945, #233 ) ;
#782 = CARTESIAN_POINT ( 'NONE',  ( 56.50000000000000000, 38.00000000000000000, 0.000000000000000000 ) ) ;
#783 = VERTEX_POINT ( 'NONE', #1008 ) ;
#784 = DIRECTION ( 'NONE',  ( -0.000000000000000000, -1.000000000000000000, -0.000000000000000000 ) ) ;
#785 = CARTESIAN_POINT ( 'NONE',  ( 39.50000000000000000, 3.899999999999999911, 0.000000000000000000 ) ) ;
#786 = VECTOR ( 'NONE', #326, 1000.000000000000000 ) ;
#787 = CARTESIAN_POINT ( 'NONE',  ( 0.000000000000000000, 0.000000000000000000, 2.000000000000000000 ) ) ;
#788 = EDGE_CURVE ( 'NONE', #15, #488, #311, .T. ) ;
#789 = FACE_BOUND ( 'NONE', #820, .T. ) ;
#790 = ORIENTED_EDGE ( 'NONE', *, *, #272, .F. ) ;
#791 = CARTESIAN_POINT ( 'NONE',  ( 0.000000000000000000, 0.000000000000000000, 0.000000000000000000 ) ) ;
#792 = DIRECTION ( 'NONE',  ( 0.000000000000000000, 0.000000000000000000, 1.000000000000000000 ) ) ;
#793 = CARTESIAN_POINT ( 'NONE',  ( 39.50000000000000000, 14.90000000000000036, 2.000000000000000000 ) ) ;
#794 = PRODUCT ( 'RX_Cover', 'RX_Cover', '', ( #82 ) ) ;
#795 = VECTOR ( 'NONE', #127, 1000.000000000000000 ) ;
#796 = ORIENTED_EDGE ( 'NONE', *, *, #594, .F. ) ;
#797 = CARTESIAN_POINT ( 'NONE',  ( 7.849999999999999645, 54.00000000000000000, 2.000000000000000000 ) ) ;
#798 = DIRECTION ( 'NONE',  ( -1.000000000000000000, -0.000000000000000000, -0.000000000000000000 ) ) ;
#799 = CC_DESIGN_APPROVAL ( #1012, ( #422 ) ) ;
#800 = FACE_BOUND ( 'NONE', #988, .T. ) ;
#801 = AXIS2_PLACEMENT_3D ( 'NONE', #581, #498, #829 ) ;
#802 = ORIENTED_EDGE ( 'NONE', *, *, #96, .F. ) ;
#803 = EDGE_CURVE ( 'NONE', #919, #816, #444, .T. ) ;
#804 = EDGE_CURVE ( 'NONE', #121, #47, #271, .T. ) ;
#805 = DIRECTION ( 'NONE',  ( 0.000000000000000000, -0.000000000000000000, 1.000000000000000000 ) ) ;
#806 = DIRECTION ( 'NONE',  ( 0.000000000000000000, 0.000000000000000000, -1.000000000000000000 ) ) ;
#807 = ORIENTED_EDGE ( 'NONE', *, *, #350, .T. ) ;
#808 = CARTESIAN_POINT ( 'NONE',  ( 39.50000000000000000, 14.90000000000000036, 2.000000000000000000 ) ) ;
#809 = ORIENTED_EDGE ( 'NONE', *, *, #638, .T. ) ;
#810 = CYLINDRICAL_SURFACE ( 'NONE', #171, 1.350000000000004086 ) ;
#811 = EDGE_LOOP ( 'NONE', ( #253, #765, #741, #351 ) ) ;
#812 = DIRECTION ( 'NONE',  ( 0.000000000000000000, 0.000000000000000000, 1.000000000000000000 ) ) ;
#813 = LINE ( 'NONE', #401, #346 ) ;
#814 = CARTESIAN_POINT ( 'NONE',  ( 17.50000000000000000, 50.00000000000000000, 2.000000000000000000 ) ) ;
#815 = VERTEX_POINT ( 'NONE', #142 ) ;
#816 = VERTEX_POINT ( 'NONE', #841 ) ;
#817 = CIRCLE ( 'NONE', #924, 1.349999999999999645 ) ;
#818 = LINE ( 'NONE', #102, #656 ) ;
#819 = VECTOR ( 'NONE', #943, 1000.000000000000000 ) ;
#820 = EDGE_LOOP ( 'NONE', ( #705, #925 ) ) ;
#821 = LINE ( 'NONE', #826, #330 ) ;
#822 = PLANE ( 'NONE',  #192 ) ;
#823 = LINE ( 'NONE', #193, #78 ) ;
#824 = EDGE_CURVE ( 'NONE', #41, #436, #762, .T. ) ;
#825 = ORIENTED_EDGE ( 'NONE', *, *, #497, .F. ) ;
#826 = CARTESIAN_POINT ( 'NONE',  ( 32.50000000000000000, 48.50000000000000000, 2.000000000000000000 ) ) ;
#827 = ORIENTED_EDGE ( 'NONE', *, *, #594, .T. ) ;
#828 = DIRECTION ( 'NONE',  ( 0.000000000000000000, 0.000000000000000000, -1.000000000000000000 ) ) ;
#829 = DIRECTION ( 'NONE',  ( 0.000000000000000000, 0.000000000000000000, 1.000000000000000000 ) ) ;
#830 = FACE_OUTER_BOUND ( 'NONE', #416, .T. ) ;
#831 = ADVANCED_BREP_SHAPE_REPRESENTATION ( 'RX_Cover', ( #611, #373 ), #214 ) ;
#832 = CARTESIAN_POINT ( 'NONE',  ( 0.000000000000000000, 0.000000000000000000, 2.000000000000000000 ) ) ;
#833 = DIRECTION ( 'NONE',  ( 0.000000000000000000, 0.000000000000000000, -1.000000000000000000 ) ) ;
#834 = CIRCLE ( 'NONE', #542, 2.000000000000001776 ) ;
#835 = VECTOR ( 'NONE', #833, 1000.000000000000000 ) ;
#836 = EDGE_LOOP ( 'NONE', ( #641, #219, #961, #618 ) ) ;
#837 = DIRECTION ( 'NONE',  ( 0.000000000000000000, 0.000000000000000000, -1.000000000000000000 ) ) ;
#838 = PERSON_AND_ORGANIZATION_ROLE ( 'design_owner' ) ;
#839 = DIRECTION ( 'NONE',  ( 0.000000000000000000, 0.000000000000000000, -1.000000000000000000 ) ) ;
#840 = VECTOR ( 'NONE', #727, 1000.000000000000000 ) ;
#841 = CARTESIAN_POINT ( 'NONE',  ( 64.50000000000000000, 38.00000000000000000, 2.000000000000000000 ) ) ;
#842 = APPROVAL_ROLE ( '' ) ;
#843 = VERTEX_POINT ( 'NONE', #362 ) ;
#844 = DIRECTION ( 'NONE',  ( 1.000000000000000000, 0.000000000000000000, 0.000000000000000000 ) ) ;
#845 = FACE_OUTER_BOUND ( 'NONE', #938, .T. ) ;
#846 = EDGE_CURVE ( 'NONE', #47, #368, #834, .T. ) ;
#847 = DIRECTION ( 'NONE',  ( 0.000000000000000000, 0.000000000000000000, 1.000000000000000000 ) ) ;
#848 = CARTESIAN_POINT ( 'NONE',  ( 39.50000000000000000, 3.899999999999999911, 2.000000000000000000 ) ) ;
#849 = CALENDAR_DATE ( 2026, 13, 9 ) ;
#850 = AXIS2_PLACEMENT_3D ( 'NONE', #856, #776, #1004 ) ;
#851 = ORIENTED_EDGE ( 'NONE', *, *, #920, .F. ) ;
#852 = CARTESIAN_POINT ( 'NONE',  ( 56.50000000000000000, 38.00000000000000000, 2.000000000000000000 ) ) ;
#853 = EDGE_CURVE ( 'NONE', #121, #555, #697, .T. ) ;
#854 = DIRECTION ( 'NONE',  ( 1.000000000000000000, 0.000000000000000000, 0.000000000000000000 ) ) ;
#855 = ORIENTED_EDGE ( 'NONE', *, *, #156, .F. ) ;
#856 = CARTESIAN_POINT ( 'NONE',  ( 68.50000000000000000, 54.00000000000000000, 2.000000000000000000 ) ) ;
#857 = APPROVAL_DATE_TIME ( #624, #1012 ) ;
#858 = ADVANCED_FACE ( 'NONE', ( #928 ), #51, .T. ) ;
#859 = CARTESIAN_POINT ( 'NONE',  ( 56.50000000000000000, 38.00000000000000000, 2.000000000000000000 ) ) ;
#860 = DIRECTION ( 'NONE',  ( 1.000000000000000000, 0.000000000000000000, 0.000000000000000000 ) ) ;
#861 = AXIS2_PLACEMENT_3D ( 'NONE', #1006, #755, #531 ) ;
#862 = FACE_BOUND ( 'NONE', #248, .T. ) ;
#863 = ADVANCED_FACE ( 'NONE', ( #282 ), #605, .F. ) ;
#864 = AXIS2_PLACEMENT_3D ( 'NONE', #701, #865, #225 ) ;
#865 = DIRECTION ( 'NONE',  ( 0.000000000000000000, 0.000000000000000000, 1.000000000000000000 ) ) ;
#866 = DIRECTION ( 'NONE',  ( 0.000000000000000000, 0.000000000000000000, 1.000000000000000000 ) ) ;
#867 = VECTOR ( 'NONE', #244, 1000.000000000000000 ) ;
#868 = CARTESIAN_POINT ( 'NONE',  ( 67.50000000000000000, 3.899999999999999911, 0.000000000000000000 ) ) ;
#869 = ORIENTED_EDGE ( 'NONE', *, *, #873, .T. ) ;
#870 = DIRECTION ( 'NONE',  ( 0.000000000000000000, 0.000000000000000000, -1.000000000000000000 ) ) ;
#871 = ADVANCED_FACE ( 'NONE', ( #521 ), #293, .F. ) ;
#872 = DIRECTION ( 'NONE',  ( 0.000000000000000000, -0.000000000000000000, -1.000000000000000000 ) ) ;
#873 = EDGE_CURVE ( 'NONE', #783, #750, #610, .T. ) ;
#874 = ORIENTED_EDGE ( 'NONE', *, *, #564, .T. ) ;
#875 = EDGE_CURVE ( 'NONE', #966, #209, #817, .T. ) ;
#876 = VECTOR ( 'NONE', #74, 1000.000000000000000 ) ;
#877 = CARTESIAN_POINT ( 'NONE',  ( 64.50000000000000000, 46.00000000000000000, 2.000000000000000000 ) ) ;
#878 = EDGE_LOOP ( 'NONE', ( #570, #3, #404, #790 ) ) ;
#879 = ORIENTED_EDGE ( 'NONE', *, *, #970, .F. ) ;
#880 = ORIENTED_EDGE ( 'NONE', *, *, #257, .T. ) ;
#881 = CIRCLE ( 'NONE', #425, 1.350000000000004086 ) ;
#882 = DIRECTION ( 'NONE',  ( 0.000000000000000000, 0.000000000000000000, -1.000000000000000000 ) ) ;
#883 = DIRECTION ( 'NONE',  ( 0.000000000000000000, 1.000000000000000000, 0.000000000000000000 ) ) ;
#884 = DIRECTION ( 'NONE',  ( -0.000000000000000000, 1.000000000000000000, 0.000000000000000000 ) ) ;
#885 = ADVANCED_FACE ( 'NONE', ( #349 ), #412, .T. ) ;
#886 = DIRECTION ( 'NONE',  ( 1.000000000000000000, 0.000000000000000000, 0.000000000000000000 ) ) ;
#887 = DIRECTION ( 'NONE',  ( -1.000000000000000000, 0.000000000000000000, 0.000000000000000000 ) ) ;
#888 = ORIENTED_EDGE ( 'NONE', *, *, #318, .F. ) ;
#889 = EDGE_LOOP ( 'NONE', ( #575, #123, #636, #888 ) ) ;
#890 = UNCERTAINTY_MEASURE_WITH_UNIT (LENGTH_MEASURE( 1.000000000000000082E-05 ), #520, 'distance_accuracy_value', 'NONE');
#891 = ADVANCED_FACE ( 'NONE', ( #502 ), #194, .F. ) ;
#892 = VECTOR ( 'NONE', #704, 1000.000000000000000 ) ;
#893 = CARTESIAN_POINT ( 'NONE',  ( 6.500000000000000000, 18.00000000000000000, 0.000000000000000000 ) ) ;
#894 = CARTESIAN_POINT ( 'NONE',  ( 32.50000000000000000, 48.50000000000000000, 0.000000000000000000 ) ) ;
#895 = AXIS2_PLACEMENT_3D ( 'NONE', #369, #456, #50 ) ;
#896 = ORIENTED_EDGE ( 'NONE', *, *, #109, .T. ) ;
#897 = ORIENTED_EDGE ( 'NONE', *, *, #177, .F. ) ;
#898 = ORIENTED_EDGE ( 'NONE', *, *, #334, .F. ) ;
#899 = DESIGN_CONTEXT ( 'detailed design', #949, 'design' ) ;
#900 = DIRECTION ( 'NONE',  ( 0.000000000000000000, 0.000000000000000000, 1.000000000000000000 ) ) ;
#901 = LINE ( 'NONE', #673, #258 ) ;
#902 = LINE ( 'NONE', #196, #835 ) ;
#903 = DIRECTION ( 'NONE',  ( 1.000000000000000000, 0.000000000000000000, 0.000000000000000000 ) ) ;
#904 = EDGE_CURVE ( 'NONE', #37, #1005, #675, .T. ) ;
#905 = VECTOR ( 'NONE', #424, 1000.000000000000000 ) ;
#906 = APPLICATION_PROTOCOL_DEFINITION ( 'international standard', 'config_control_design', 1994, #949 ) ;
#907 = CARTESIAN_POINT ( 'NONE',  ( 64.50000000000000000, 46.00000000000000000, 2.000000000000000000 ) ) ;
#908 = VECTOR ( 'NONE', #384, 1000.000000000000000 ) ;
#909 = VECTOR ( 'NONE', #724, 1000.000000000000000 ) ;
#910 = LINE ( 'NONE', #60, #593 ) ;
#911 = CARTESIAN_POINT ( 'NONE',  ( 19.50000000000000355, 50.00000000000000000, 2.000000000000000000 ) ) ;
#912 = DIRECTION ( 'NONE',  ( 0.000000000000000000, 0.000000000000000000, 1.000000000000000000 ) ) ;
#913 = PERSON_AND_ORGANIZATION_ROLE ( 'creator' ) ;
#914 = ADVANCED_FACE ( 'NONE', ( #830 ), #264, .F. ) ;
#915 = ORIENTED_EDGE ( 'NONE', *, *, #824, .F. ) ;
#916 = FACE_OUTER_BOUND ( 'NONE', #658, .T. ) ;
#917 = DIRECTION ( 'NONE',  ( 0.000000000000000000, -1.000000000000000000, 0.000000000000000000 ) ) ;
#918 = COORDINATED_UNIVERSAL_TIME_OFFSET ( 8, 0, .AHEAD. ) ;
#919 = VERTEX_POINT ( 'NONE', #327 ) ;
#920 = EDGE_CURVE ( 'NONE', #726, #662, #652, .T. ) ;
#921 = VERTEX_POINT ( 'NONE', #603 ) ;
#922 = DIRECTION ( 'NONE',  ( 1.000000000000000000, 0.000000000000000000, 0.000000000000000000 ) ) ;
#923 = CARTESIAN_POINT ( 'NONE',  ( 17.50000000000000000, 50.00000000000000000, 0.000000000000000000 ) ) ;
#924 = AXIS2_PLACEMENT_3D ( 'NONE', #370, #696, #974 ) ;
#925 = ORIENTED_EDGE ( 'NONE', *, *, #334, .T. ) ;
#926 = ORIENTED_EDGE ( 'NONE', *, *, #1015, .T. ) ;
#927 = CARTESIAN_POINT ( 'NONE',  ( 68.50000000000000000, 54.00000000000000000, 0.000000000000000000 ) ) ;
#928 = FACE_OUTER_BOUND ( 'NONE', #198, .T. ) ;
#929 = VECTOR ( 'NONE', #333, 1000.000000000000000 ) ;
#930 = COORDINATED_UNIVERSAL_TIME_OFFSET ( 8, 0, .AHEAD. ) ;
#931 = ORIENTED_EDGE ( 'NONE', *, *, #213, .F. ) ;
#932 = DIRECTION ( 'NONE',  ( 1.000000000000000000, 0.000000000000000000, 0.000000000000000000 ) ) ;
#933 = CARTESIAN_POINT ( 'NONE',  ( 64.50000000000000000, 46.00000000000000000, 0.000000000000000000 ) ) ;
#934 = ADVANCED_FACE ( 'NONE', ( #916 ), #506, .T. ) ;
#935 = PLANE ( 'NONE',  #298 ) ;
#936 = FACE_BOUND ( 'NONE', #530, .T. ) ;
#937 = DIRECTION ( 'NONE',  ( 0.000000000000000000, -0.000000000000000000, -1.000000000000000000 ) ) ;
#938 = EDGE_LOOP ( 'NONE', ( #984, #524, #356, #953 ) ) ;
#939 = VERTEX_POINT ( 'NONE', #210 ) ;
#940 = CYLINDRICAL_SURFACE ( 'NONE', #437, 1.349999999999998757 ) ;
#941 = VECTOR ( 'NONE', #79, 1000.000000000000000 ) ;
#942 = DIRECTION ( 'NONE',  ( -1.000000000000000000, -0.000000000000000000, -0.000000000000000000 ) ) ;
#943 = DIRECTION ( 'NONE',  ( 0.000000000000000000, 0.000000000000000000, -1.000000000000000000 ) ) ;
#944 = ORIENTED_EDGE ( 'NONE', *, *, #340, .F. ) ;
#945 = DIRECTION ( 'NONE',  ( 0.000000000000000000, 0.000000000000000000, -1.000000000000000000 ) ) ;
#946 = CARTESIAN_POINT ( 'NONE',  ( 67.50000000000000000, 3.899999999999999911, 2.000000000000000000 ) ) ;
#947 = EDGE_CURVE ( 'NONE', #368, #47, #1009, .T. ) ;
#948 = DIRECTION ( 'NONE',  ( 1.000000000000000000, 0.000000000000000000, 0.000000000000000000 ) ) ;
#949 = APPLICATION_CONTEXT ( 'configuration controlled 3d designs of mechanical parts and assemblies' ) ;
#950 = LINE ( 'NONE', #252, #526 ) ;
#951 = DIRECTION ( 'NONE',  ( -1.000000000000000000, 0.000000000000000000, 0.000000000000000000 ) ) ;
#952 = ORIENTED_EDGE ( 'NONE', *, *, #684, .T. ) ;
#953 = ORIENTED_EDGE ( 'NONE', *, *, #654, .T. ) ;
#954 = VERTEX_POINT ( 'NONE', #206 ) ;
#955 = VECTOR ( 'NONE', #220, 1000.000000000000000 ) ;
#956 = VECTOR ( 'NONE', #345, 1000.000000000000000 ) ;
#957 = CARTESIAN_POINT ( 'NONE',  ( 68.50000000000000000, 54.00000000000000000, 2.000000000000000000 ) ) ;
#958 = CARTESIAN_POINT ( 'NONE',  ( 39.50000000000000000, 3.899999999999999911, 2.000000000000000000 ) ) ;
#959 = LINE ( 'NONE', #778, #867 ) ;
#960 = ADVANCED_FACE ( 'NONE', ( #677 ), #985, .T. ) ;
#961 = ORIENTED_EDGE ( 'NONE', *, *, #80, .T. ) ;
#962 = CARTESIAN_POINT ( 'NONE',  ( 42.50000000000000000, 53.50000000000000000, 2.000000000000000000 ) ) ;
#963 = VECTOR ( 'NONE', #226, 1000.000000000000000 ) ;
#964 = DIRECTION ( 'NONE',  ( 0.000000000000000000, 0.000000000000000000, -1.000000000000000000 ) ) ;
#965 = CARTESIAN_POINT ( 'NONE',  ( 39.50000000000000000, 14.90000000000000036, 2.000000000000000000 ) ) ;
#966 = VERTEX_POINT ( 'NONE', #44 ) ;
#967 = ORIENTED_EDGE ( 'NONE', *, *, #720, .F. ) ;
#968 = EDGE_CURVE ( 'NONE', #754, #17, #910, .T. ) ;
#969 = DIRECTION ( 'NONE',  ( 0.000000000000000000, 1.000000000000000000, 0.000000000000000000 ) ) ;
#970 = EDGE_CURVE ( 'NONE', #843, #750, #459, .T. ) ;
#971 = ORIENTED_EDGE ( 'NONE', *, *, #189, .F. ) ;
#972 = ORIENTED_EDGE ( 'NONE', *, *, #222, .T. ) ;
#973 = CARTESIAN_POINT ( 'NONE',  ( 67.15000000000000568, 54.00000000000000000, 2.000000000000000000 ) ) ;
#974 = DIRECTION ( 'NONE',  ( 1.000000000000000000, 0.000000000000000000, 0.000000000000000000 ) ) ;
#975 = EDGE_LOOP ( 'NONE', ( #419, #809, #269, #168 ) ) ;
#976 = ORIENTED_EDGE ( 'NONE', *, *, #139, .T. ) ;
#977 = DIRECTION ( 'NONE',  ( 1.000000000000000000, 0.000000000000000000, 0.000000000000000000 ) ) ;
#978 = AXIS2_PLACEMENT_3D ( 'NONE', #787, #473, #805 ) ;
#979 = ORIENTED_EDGE ( 'NONE', *, *, #213, .T. ) ;
#980 = CARTESIAN_POINT ( 'NONE',  ( 42.50000000000000000, 53.50000000000000000, 2.000000000000000000 ) ) ;
#981 = ORIENTED_EDGE ( 'NONE', *, *, #639, .F. ) ;
#982 = CYLINDRICAL_SURFACE ( 'NONE', #212, 1.350000000000004086 ) ;
#983 = ADVANCED_FACE ( 'NONE', ( #379 ), #5, .F. ) ;
#984 = ORIENTED_EDGE ( 'NONE', *, *, #133, .F. ) ;
#985 = PLANE ( 'NONE',  #310 ) ;
#986 = LINE ( 'NONE', #907, #48 ) ;
#987 = CARTESIAN_POINT ( 'NONE',  ( 39.50000000000000000, 3.899999999999999911, 2.000000000000000000 ) ) ;
#988 = EDGE_LOOP ( 'NONE', ( #972, #880 ) ) ;
#989 = CARTESIAN_POINT ( 'NONE',  ( 67.50000000000000000, 3.899999999999999911, 0.000000000000000000 ) ) ;
#990 = CARTESIAN_POINT ( 'NONE',  ( 17.50000000000000000, 50.00000000000000000, 0.000000000000000000 ) ) ;
#991 = LINE ( 'NONE', #664, #450 ) ;
#992 = PERSON_AND_ORGANIZATION_ROLE ( 'creator' ) ;
#993 = VECTOR ( 'NONE', #969, 1000.000000000000000 ) ;
#994 = CC_DESIGN_PERSON_AND_ORGANIZATION_ASSIGNMENT ( #510, #913, ( #615 ) ) ;
#995 = ORIENTED_EDGE ( 'NONE', *, *, #382, .F. ) ;
#996 = ORIENTED_EDGE ( 'NONE', *, *, #616, .F. ) ;
#997 = VECTOR ( 'NONE', #883, 1000.000000000000000 ) ;
#998 = DIRECTION ( 'NONE',  ( 1.000000000000000000, -0.000000000000000000, 0.000000000000000000 ) ) ;
#999 = DATE_TIME_ROLE ( 'classification_date' ) ;
#1000 = EDGE_LOOP ( 'NONE', ( #288, #23, #691, #807 ) ) ;
#1001 = EDGE_CURVE ( 'NONE', #138, #413, #130, .T. ) ;
#1002 =( NAMED_UNIT ( * ) PLANE_ANGLE_UNIT ( ) SI_UNIT ( $, .RADIAN. ) );
#1003 = EDGE_LOOP ( 'NONE', ( #879, #719, #31, #931 ) ) ;
#1004 = DIRECTION ( 'NONE',  ( -1.000000000000000000, 0.000000000000000000, 0.000000000000000000 ) ) ;
#1005 = VERTEX_POINT ( 'NONE', #587 ) ;
#1006 = CARTESIAN_POINT ( 'NONE',  ( 56.50000000000000000, 38.00000000000000000, 2.000000000000000000 ) ) ;
#1007 = ORIENTED_EDGE ( 'NONE', *, *, #497, .T. ) ;
#1008 = CARTESIAN_POINT ( 'NONE',  ( 0.000000000000000000, 0.000000000000000000, 2.000000000000000000 ) ) ;
#1009 = CIRCLE ( 'NONE', #199, 2.000000000000001776 ) ;
#1010 = AXIS2_PLACEMENT_3D ( 'NONE', #893, #812, #886 ) ;
#1011 = LINE ( 'NONE', #717, #764 ) ;
#1012 = APPROVAL ( #751, 'æœª' ) ;
#1013 = VECTOR ( 'NONE', #659, 1000.000000000000000 ) ;
#1014 = PERSON_AND_ORGANIZATION ( #642, #731 ) ;
#1015 = EDGE_CURVE ( 'NONE', #132, #954, #714, .T. ) ;
ENDSEC;
END-ISO-10303-21;
