%TF.GenerationSoftware,KiCad,Pcbnew,10.0.6*%
%TF.CreationDate,2026-09-12T20:41:56+08:00*%
%TF.ProjectId,DormRadar_RX,446f726d-5261-4646-9172-5f52582e6b69,rev?*%
%TF.SameCoordinates,Original*%
%TF.FileFunction,Copper,L2,Bot*%
%TF.FilePolarity,Positive*%
%FSLAX46Y46*%
G04 Gerber Fmt 4.6, Leading zero omitted, Abs format (unit mm)*
G04 Created by KiCad (PCBNEW 10.0.6) date 2026-09-12 20:41:56*
%MOMM*%
%LPD*%
G01*
G04 APERTURE LIST*
G04 Aperture macros list*
%AMRoundRect*
0 Rectangle with rounded corners*
0 $1 Rounding radius*
0 $2 $3 $4 $5 $6 $7 $8 $9 X,Y pos of 4 corners*
0 Add a 4 corners polygon primitive as box body*
4,1,4,$2,$3,$4,$5,$6,$7,$8,$9,$2,$3,0*
0 Add four circle primitives for the rounded corners*
1,1,$1+$1,$2,$3*
1,1,$1+$1,$4,$5*
1,1,$1+$1,$6,$7*
1,1,$1+$1,$8,$9*
0 Add four rect primitives between the rounded corners*
20,1,$1+$1,$2,$3,$4,$5,0*
20,1,$1+$1,$4,$5,$6,$7,0*
20,1,$1+$1,$6,$7,$8,$9,0*
20,1,$1+$1,$8,$9,$2,$3,0*%
G04 Aperture macros list end*
%TA.AperFunction,ComponentPad*%
%ADD10R,1.700000X1.700000*%
%TD*%
%TA.AperFunction,ComponentPad*%
%ADD11C,1.700000*%
%TD*%
%TA.AperFunction,ComponentPad*%
%ADD12RoundRect,0.250001X-1.099999X-1.099999X1.099999X-1.099999X1.099999X1.099999X-1.099999X1.099999X0*%
%TD*%
%TA.AperFunction,ComponentPad*%
%ADD13C,2.700000*%
%TD*%
%TA.AperFunction,HeatsinkPad*%
%ADD14C,0.600000*%
%TD*%
%TA.AperFunction,ViaPad*%
%ADD15C,0.600000*%
%TD*%
%TA.AperFunction,Conductor*%
%ADD16C,0.200000*%
%TD*%
G04 APERTURE END LIST*
D10*
%TO.P,J3,1*%
%TO.N,GND*%
X57000000Y-27000000D03*
D11*
%TO.P,J3,2*%
%TO.N,EN*%
X57000000Y-29540000D03*
%TO.P,J3,3*%
%TO.N,BOOT*%
X57000000Y-32080000D03*
%TO.P,J3,4*%
%TO.N,UART_RX*%
X57000000Y-34620000D03*
%TO.P,J3,5*%
%TO.N,UART_TX*%
X57000000Y-37160000D03*
%TD*%
D12*
%TO.P,J1,1*%
%TO.N,VBAT*%
X34000000Y-36000000D03*
D13*
%TO.P,J1,2*%
%TO.N,GND*%
X37960000Y-36000000D03*
%TD*%
D14*
%TO.P,U1,19*%
%TO.N,GND*%
X49860000Y-6650000D03*
X49860000Y-7750000D03*
X50410000Y-6100000D03*
X50410000Y-7200000D03*
X50410000Y-8300000D03*
X50960000Y-6650000D03*
X50960000Y-7750000D03*
X51510000Y-6100000D03*
X51510000Y-7200000D03*
X51510000Y-8300000D03*
X52060000Y-6650000D03*
X52060000Y-7750000D03*
%TD*%
D15*
%TO.N,GND*%
X19696100Y-14000000D03*
X12184500Y-30423700D03*
X25972000Y-25919900D03*
X28891200Y-21492100D03*
X48974500Y-27021000D03*
X25105100Y-32330400D03*
%TO.N,EN*%
X43239800Y-4119100D03*
%TO.N,UART_RX*%
X57412200Y-18186100D03*
%TO.N,UART_TX*%
X60885700Y-10105300D03*
%TO.N,LED_CTRL*%
X22139800Y-9744300D03*
X15805400Y-32253100D03*
%TO.N,FB*%
X19407300Y-32779700D03*
X19554700Y-15073800D03*
%TD*%
%TO.N,EN*%
D16*
X43239800Y-4119100D02*
X43239800Y-15779800D01*
X43239800Y-15779800D02*
X57000000Y-29540000D01*
%TO.N,UART_RX*%
X58160100Y-33459900D02*
X57000000Y-34620000D01*
X57412200Y-18186100D02*
X58160100Y-18934000D01*
X58160100Y-18934000D02*
X58160100Y-33459900D01*
%TO.N,UART_TX*%
X60885700Y-33274300D02*
X57000000Y-37160000D01*
X60885700Y-10105300D02*
X60885700Y-33274300D01*
%TO.N,LED_CTRL*%
X22139800Y-9744300D02*
X15805400Y-16078700D01*
X15805400Y-16078700D02*
X15805400Y-32253100D01*
%TO.N,FB*%
X19554700Y-15073800D02*
X19554700Y-32632300D01*
X19554700Y-32632300D02*
X19407300Y-32779700D01*
%TD*%
%TA.AperFunction,Conductor*%
%TO.N,GND*%
G36*
X66943039Y-1019685D02*
G01*
X66988794Y-1072489D01*
X67000000Y-1124000D01*
X67000000Y-40876000D01*
X66980315Y-40943039D01*
X66927511Y-40988794D01*
X66876000Y-41000000D01*
X1124000Y-41000000D01*
X1056961Y-40980315D01*
X1011206Y-40927511D01*
X1000000Y-40876000D01*
X1000000Y-38874038D01*
X1399500Y-38874038D01*
X1399500Y-39125961D01*
X1438910Y-39374785D01*
X1516760Y-39614383D01*
X1631132Y-39838848D01*
X1779201Y-40042649D01*
X1779205Y-40042654D01*
X1957345Y-40220794D01*
X1957350Y-40220798D01*
X2135117Y-40349952D01*
X2161155Y-40368870D01*
X2304184Y-40441747D01*
X2385616Y-40483239D01*
X2385618Y-40483239D01*
X2385621Y-40483241D01*
X2625215Y-40561090D01*
X2874038Y-40600500D01*
X2874039Y-40600500D01*
X3125961Y-40600500D01*
X3125962Y-40600500D01*
X3374785Y-40561090D01*
X3614379Y-40483241D01*
X3838845Y-40368870D01*
X4042656Y-40220793D01*
X4220793Y-40042656D01*
X4368870Y-39838845D01*
X4483241Y-39614379D01*
X4561090Y-39374785D01*
X4600500Y-39125962D01*
X4600500Y-38874038D01*
X63399500Y-38874038D01*
X63399500Y-39125961D01*
X63438910Y-39374785D01*
X63516760Y-39614383D01*
X63631132Y-39838848D01*
X63779201Y-40042649D01*
X63779205Y-40042654D01*
X63957345Y-40220794D01*
X63957350Y-40220798D01*
X64135117Y-40349952D01*
X64161155Y-40368870D01*
X64304184Y-40441747D01*
X64385616Y-40483239D01*
X64385618Y-40483239D01*
X64385621Y-40483241D01*
X64625215Y-40561090D01*
X64874038Y-40600500D01*
X64874039Y-40600500D01*
X65125961Y-40600500D01*
X65125962Y-40600500D01*
X65374785Y-40561090D01*
X65614379Y-40483241D01*
X65838845Y-40368870D01*
X66042656Y-40220793D01*
X66220793Y-40042656D01*
X66368870Y-39838845D01*
X66483241Y-39614379D01*
X66561090Y-39374785D01*
X66600500Y-39125962D01*
X66600500Y-38874038D01*
X66561090Y-38625215D01*
X66483241Y-38385621D01*
X66483239Y-38385618D01*
X66483239Y-38385616D01*
X66402018Y-38226212D01*
X66368870Y-38161155D01*
X66279068Y-38037553D01*
X66220798Y-37957350D01*
X66220794Y-37957345D01*
X66042654Y-37779205D01*
X66042649Y-37779201D01*
X65838848Y-37631132D01*
X65838847Y-37631131D01*
X65838845Y-37631130D01*
X65747052Y-37584359D01*
X65614383Y-37516760D01*
X65374785Y-37438910D01*
X65314805Y-37429410D01*
X65125962Y-37399500D01*
X64874038Y-37399500D01*
X64749626Y-37419205D01*
X64625214Y-37438910D01*
X64385616Y-37516760D01*
X64161151Y-37631132D01*
X63957350Y-37779201D01*
X63957345Y-37779205D01*
X63779205Y-37957345D01*
X63779201Y-37957350D01*
X63631132Y-38161151D01*
X63516760Y-38385616D01*
X63438910Y-38625214D01*
X63399500Y-38874038D01*
X4600500Y-38874038D01*
X4561090Y-38625215D01*
X4483241Y-38385621D01*
X4483239Y-38385618D01*
X4483239Y-38385616D01*
X4402018Y-38226212D01*
X4368870Y-38161155D01*
X4279068Y-38037553D01*
X4220798Y-37957350D01*
X4220794Y-37957345D01*
X4042654Y-37779205D01*
X4042649Y-37779201D01*
X3838848Y-37631132D01*
X3838847Y-37631131D01*
X3838845Y-37631130D01*
X3747052Y-37584359D01*
X3614383Y-37516760D01*
X3374785Y-37438910D01*
X3314805Y-37429410D01*
X3125962Y-37399500D01*
X2874038Y-37399500D01*
X2749626Y-37419205D01*
X2625214Y-37438910D01*
X2385616Y-37516760D01*
X2161151Y-37631132D01*
X1957350Y-37779201D01*
X1957345Y-37779205D01*
X1779205Y-37957345D01*
X1779201Y-37957350D01*
X1631132Y-38161151D01*
X1516760Y-38385616D01*
X1438910Y-38625214D01*
X1399500Y-38874038D01*
X1000000Y-38874038D01*
X1000000Y-34856900D01*
X32349500Y-34856900D01*
X32349500Y-37143091D01*
X32360123Y-37231562D01*
X32415639Y-37372342D01*
X32415640Y-37372344D01*
X32507077Y-37492922D01*
X32571166Y-37541522D01*
X32627658Y-37584361D01*
X32768436Y-37639876D01*
X32856901Y-37650500D01*
X35143098Y-37650499D01*
X35231564Y-37639876D01*
X35372342Y-37584361D01*
X35492922Y-37492922D01*
X35584361Y-37372342D01*
X35639876Y-37231564D01*
X35650500Y-37143099D01*
X35650499Y-35878751D01*
X36110000Y-35878751D01*
X36110000Y-36121248D01*
X36110001Y-36121264D01*
X36141653Y-36361687D01*
X36204421Y-36595939D01*
X36297220Y-36819978D01*
X36297227Y-36819992D01*
X36418481Y-37030010D01*
X36487061Y-37119384D01*
X37205884Y-36400560D01*
X37206740Y-36402626D01*
X37299762Y-36541844D01*
X37418156Y-36660238D01*
X37557374Y-36753260D01*
X37559437Y-36754114D01*
X36840614Y-37472936D01*
X36840614Y-37472937D01*
X36929989Y-37541517D01*
X36929996Y-37541522D01*
X37140007Y-37662772D01*
X37140021Y-37662779D01*
X37364060Y-37755578D01*
X37598312Y-37818346D01*
X37838735Y-37849998D01*
X37838752Y-37850000D01*
X38081248Y-37850000D01*
X38081264Y-37849998D01*
X38321687Y-37818346D01*
X38555939Y-37755578D01*
X38779978Y-37662779D01*
X38779992Y-37662772D01*
X38990016Y-37541515D01*
X39079384Y-37472939D01*
X39079384Y-37472936D01*
X38360562Y-36754114D01*
X38362626Y-36753260D01*
X38501844Y-36660238D01*
X38620238Y-36541844D01*
X38713260Y-36402626D01*
X38714114Y-36400562D01*
X39432936Y-37119384D01*
X39432939Y-37119384D01*
X39501515Y-37030016D01*
X39622772Y-36819992D01*
X39622779Y-36819978D01*
X39715578Y-36595939D01*
X39778346Y-36361687D01*
X39809998Y-36121264D01*
X39810000Y-36121248D01*
X39810000Y-35878751D01*
X39809998Y-35878735D01*
X39778346Y-35638312D01*
X39715578Y-35404060D01*
X39622779Y-35180021D01*
X39622772Y-35180007D01*
X39501522Y-34969996D01*
X39501517Y-34969989D01*
X39432937Y-34880614D01*
X39432936Y-34880614D01*
X38714114Y-35599436D01*
X38713260Y-35597374D01*
X38620238Y-35458156D01*
X38501844Y-35339762D01*
X38362626Y-35246740D01*
X38360560Y-35245884D01*
X39079384Y-34527061D01*
X38990010Y-34458481D01*
X38779992Y-34337227D01*
X38779978Y-34337220D01*
X38555939Y-34244421D01*
X38321687Y-34181653D01*
X38081264Y-34150001D01*
X38081248Y-34150000D01*
X37838752Y-34150000D01*
X37838735Y-34150001D01*
X37598312Y-34181653D01*
X37364060Y-34244421D01*
X37140021Y-34337220D01*
X37140006Y-34337227D01*
X36929990Y-34458480D01*
X36840614Y-34527060D01*
X36840614Y-34527061D01*
X37559438Y-35245885D01*
X37557374Y-35246740D01*
X37418156Y-35339762D01*
X37299762Y-35458156D01*
X37206740Y-35597374D01*
X37205885Y-35599438D01*
X36487061Y-34880614D01*
X36487060Y-34880614D01*
X36418480Y-34969990D01*
X36297227Y-35180006D01*
X36297220Y-35180021D01*
X36204421Y-35404060D01*
X36141653Y-35638312D01*
X36110001Y-35878735D01*
X36110000Y-35878751D01*
X35650499Y-35878751D01*
X35650499Y-34856902D01*
X35639876Y-34768436D01*
X35584361Y-34627658D01*
X35584359Y-34627655D01*
X35492922Y-34507077D01*
X35372344Y-34415640D01*
X35372342Y-34415639D01*
X35231564Y-34360124D01*
X35231561Y-34360123D01*
X35143099Y-34349500D01*
X32856908Y-34349500D01*
X32768437Y-34360123D01*
X32627657Y-34415639D01*
X32627655Y-34415640D01*
X32507077Y-34507077D01*
X32415640Y-34627655D01*
X32360124Y-34768437D01*
X32360123Y-34768438D01*
X32349500Y-34856900D01*
X1000000Y-34856900D01*
X1000000Y-32174043D01*
X15204900Y-32174043D01*
X15204900Y-32332156D01*
X15245823Y-32484883D01*
X15245826Y-32484890D01*
X15324875Y-32621809D01*
X15324878Y-32621813D01*
X15324880Y-32621816D01*
X15436684Y-32733620D01*
X15436686Y-32733621D01*
X15436690Y-32733624D01*
X15573609Y-32812673D01*
X15573616Y-32812677D01*
X15726343Y-32853600D01*
X15726345Y-32853600D01*
X15884455Y-32853600D01*
X15884457Y-32853600D01*
X16037184Y-32812677D01*
X16174116Y-32733620D01*
X16207093Y-32700643D01*
X18806800Y-32700643D01*
X18806800Y-32858757D01*
X18833273Y-32957553D01*
X18847723Y-33011483D01*
X18847726Y-33011490D01*
X18926775Y-33148409D01*
X18926779Y-33148414D01*
X18926780Y-33148416D01*
X19038584Y-33260220D01*
X19038586Y-33260221D01*
X19038590Y-33260224D01*
X19175509Y-33339273D01*
X19175516Y-33339277D01*
X19328243Y-33380200D01*
X19328245Y-33380200D01*
X19486355Y-33380200D01*
X19486357Y-33380200D01*
X19639084Y-33339277D01*
X19776016Y-33260220D01*
X19887820Y-33148416D01*
X19966877Y-33011484D01*
X20007800Y-32858757D01*
X20007800Y-32700643D01*
X19966877Y-32547916D01*
X19966875Y-32547912D01*
X19964635Y-32542503D01*
X19955200Y-32495059D01*
X19955200Y-15573898D01*
X19974885Y-15506859D01*
X19991519Y-15486217D01*
X20035220Y-15442516D01*
X20114277Y-15305584D01*
X20155200Y-15152857D01*
X20155200Y-14994743D01*
X20114277Y-14842016D01*
X20114273Y-14842009D01*
X20035224Y-14705090D01*
X20035218Y-14705082D01*
X19923417Y-14593281D01*
X19923409Y-14593275D01*
X19786490Y-14514226D01*
X19786486Y-14514224D01*
X19786484Y-14514223D01*
X19633757Y-14473300D01*
X19475643Y-14473300D01*
X19322916Y-14514223D01*
X19322909Y-14514226D01*
X19185990Y-14593275D01*
X19185982Y-14593281D01*
X19074181Y-14705082D01*
X19074175Y-14705090D01*
X18995126Y-14842009D01*
X18995123Y-14842016D01*
X18954200Y-14994743D01*
X18954200Y-15152856D01*
X18995123Y-15305583D01*
X18995126Y-15305590D01*
X19074175Y-15442509D01*
X19074181Y-15442517D01*
X19117881Y-15486217D01*
X19151366Y-15547540D01*
X19154200Y-15573898D01*
X19154200Y-32160837D01*
X19134515Y-32227876D01*
X19092201Y-32268224D01*
X19038584Y-32299180D01*
X19038581Y-32299182D01*
X18926781Y-32410982D01*
X18926775Y-32410990D01*
X18847726Y-32547909D01*
X18847725Y-32547912D01*
X18847723Y-32547916D01*
X18806800Y-32700643D01*
X16207093Y-32700643D01*
X16285920Y-32621816D01*
X16364977Y-32484884D01*
X16405900Y-32332157D01*
X16405900Y-32174043D01*
X16364977Y-32021316D01*
X16346578Y-31989448D01*
X16285924Y-31884390D01*
X16285918Y-31884382D01*
X16242219Y-31840683D01*
X16208734Y-31779360D01*
X16205900Y-31753002D01*
X16205900Y-16295955D01*
X16225585Y-16228916D01*
X16242219Y-16208274D01*
X22069374Y-10381119D01*
X22130697Y-10347634D01*
X22157055Y-10344800D01*
X22218855Y-10344800D01*
X22218857Y-10344800D01*
X22371584Y-10303877D01*
X22508516Y-10224820D01*
X22620320Y-10113016D01*
X22699377Y-9976084D01*
X22740300Y-9823357D01*
X22740300Y-9665243D01*
X22699377Y-9512516D01*
X22694922Y-9504800D01*
X22620324Y-9375590D01*
X22620318Y-9375582D01*
X22508517Y-9263781D01*
X22508509Y-9263775D01*
X22371590Y-9184726D01*
X22371586Y-9184724D01*
X22371584Y-9184723D01*
X22218857Y-9143800D01*
X22060743Y-9143800D01*
X21908016Y-9184723D01*
X21908009Y-9184726D01*
X21771090Y-9263775D01*
X21771082Y-9263781D01*
X21659281Y-9375582D01*
X21659275Y-9375590D01*
X21580226Y-9512509D01*
X21580223Y-9512516D01*
X21539300Y-9665243D01*
X21539300Y-9727045D01*
X21519615Y-9794084D01*
X21502981Y-9814726D01*
X15484922Y-15832784D01*
X15484918Y-15832790D01*
X15432192Y-15924112D01*
X15432193Y-15924113D01*
X15404900Y-16025973D01*
X15404900Y-31753002D01*
X15385215Y-31820041D01*
X15368581Y-31840683D01*
X15324881Y-31884382D01*
X15324875Y-31884390D01*
X15245826Y-32021309D01*
X15245823Y-32021316D01*
X15204900Y-32174043D01*
X1000000Y-32174043D01*
X1000000Y-2874038D01*
X1399500Y-2874038D01*
X1399500Y-3125961D01*
X1438910Y-3374785D01*
X1516760Y-3614383D01*
X1631132Y-3838848D01*
X1779201Y-4042649D01*
X1779205Y-4042654D01*
X1957345Y-4220794D01*
X1957350Y-4220798D01*
X2135117Y-4349952D01*
X2161155Y-4368870D01*
X2304184Y-4441747D01*
X2385616Y-4483239D01*
X2385618Y-4483239D01*
X2385621Y-4483241D01*
X2625215Y-4561090D01*
X2874038Y-4600500D01*
X2874039Y-4600500D01*
X3125961Y-4600500D01*
X3125962Y-4600500D01*
X3374785Y-4561090D01*
X3614379Y-4483241D01*
X3838845Y-4368870D01*
X4042656Y-4220793D01*
X4220793Y-4042656D01*
X4222691Y-4040043D01*
X42639300Y-4040043D01*
X42639300Y-4198157D01*
X42645366Y-4220793D01*
X42680223Y-4350883D01*
X42680226Y-4350890D01*
X42759275Y-4487809D01*
X42759281Y-4487817D01*
X42802981Y-4531517D01*
X42836466Y-4592840D01*
X42839300Y-4619198D01*
X42839300Y-15727073D01*
X42839300Y-15832527D01*
X42852946Y-15883457D01*
X42866593Y-15934389D01*
X42892956Y-15980050D01*
X42919320Y-16025713D01*
X42919322Y-16025715D01*
X55894325Y-29000718D01*
X55927810Y-29062041D01*
X55924575Y-29126716D01*
X55877829Y-29270587D01*
X55849500Y-29449448D01*
X55849500Y-29630551D01*
X55877829Y-29809410D01*
X55933787Y-29981636D01*
X55933788Y-29981639D01*
X56016006Y-30142997D01*
X56122441Y-30289494D01*
X56122445Y-30289499D01*
X56250500Y-30417554D01*
X56250505Y-30417558D01*
X56378287Y-30510396D01*
X56397006Y-30523996D01*
X56502484Y-30577740D01*
X56558360Y-30606211D01*
X56558363Y-30606212D01*
X56644476Y-30634191D01*
X56730591Y-30662171D01*
X56803639Y-30673740D01*
X56890678Y-30687527D01*
X56953813Y-30717456D01*
X56990744Y-30776768D01*
X56989746Y-30846631D01*
X56951136Y-30904863D01*
X56890678Y-30932473D01*
X56730589Y-30957829D01*
X56558363Y-31013787D01*
X56558360Y-31013788D01*
X56397002Y-31096006D01*
X56250505Y-31202441D01*
X56250500Y-31202445D01*
X56122445Y-31330500D01*
X56122441Y-31330505D01*
X56016006Y-31477002D01*
X55933788Y-31638360D01*
X55933787Y-31638363D01*
X55877829Y-31810589D01*
X55849500Y-31989448D01*
X55849500Y-32170551D01*
X55877829Y-32349410D01*
X55933787Y-32521636D01*
X55933788Y-32521639D01*
X56016006Y-32682997D01*
X56122441Y-32829494D01*
X56122445Y-32829499D01*
X56250500Y-32957554D01*
X56250505Y-32957558D01*
X56324729Y-33011484D01*
X56397006Y-33063996D01*
X56484167Y-33108407D01*
X56558360Y-33146211D01*
X56558363Y-33146212D01*
X56644476Y-33174191D01*
X56730591Y-33202171D01*
X56803639Y-33213740D01*
X56890678Y-33227527D01*
X56953813Y-33257456D01*
X56990744Y-33316768D01*
X56989746Y-33386631D01*
X56951136Y-33444863D01*
X56890678Y-33472473D01*
X56730589Y-33497829D01*
X56558363Y-33553787D01*
X56558360Y-33553788D01*
X56397002Y-33636006D01*
X56250505Y-33742441D01*
X56250500Y-33742445D01*
X56122445Y-33870500D01*
X56122441Y-33870505D01*
X56016006Y-34017002D01*
X55933788Y-34178360D01*
X55933787Y-34178363D01*
X55877829Y-34350589D01*
X55849500Y-34529448D01*
X55849500Y-34710551D01*
X55877829Y-34889410D01*
X55933787Y-35061636D01*
X55933788Y-35061639D01*
X56016006Y-35222997D01*
X56122441Y-35369494D01*
X56122445Y-35369499D01*
X56250500Y-35497554D01*
X56250505Y-35497558D01*
X56378287Y-35590396D01*
X56397006Y-35603996D01*
X56502484Y-35657740D01*
X56558360Y-35686211D01*
X56558363Y-35686212D01*
X56644476Y-35714191D01*
X56730591Y-35742171D01*
X56803639Y-35753740D01*
X56890678Y-35767527D01*
X56953813Y-35797456D01*
X56990744Y-35856768D01*
X56989746Y-35926631D01*
X56951136Y-35984863D01*
X56890678Y-36012473D01*
X56730589Y-36037829D01*
X56558363Y-36093787D01*
X56558360Y-36093788D01*
X56397002Y-36176006D01*
X56250505Y-36282441D01*
X56250500Y-36282445D01*
X56122445Y-36410500D01*
X56122441Y-36410505D01*
X56016006Y-36557002D01*
X55933788Y-36718360D01*
X55933787Y-36718363D01*
X55877829Y-36890589D01*
X55849500Y-37069448D01*
X55849500Y-37250551D01*
X55877829Y-37429410D01*
X55933787Y-37601636D01*
X55933788Y-37601639D01*
X55989664Y-37711300D01*
X56012225Y-37755578D01*
X56016006Y-37762997D01*
X56122441Y-37909494D01*
X56122445Y-37909499D01*
X56250500Y-38037554D01*
X56250505Y-38037558D01*
X56378287Y-38130396D01*
X56397006Y-38143996D01*
X56502484Y-38197740D01*
X56558360Y-38226211D01*
X56558363Y-38226212D01*
X56644476Y-38254191D01*
X56730591Y-38282171D01*
X56813429Y-38295291D01*
X56909449Y-38310500D01*
X56909454Y-38310500D01*
X57090551Y-38310500D01*
X57177259Y-38296765D01*
X57269409Y-38282171D01*
X57441639Y-38226211D01*
X57602994Y-38143996D01*
X57749501Y-38037553D01*
X57877553Y-37909501D01*
X57983996Y-37762994D01*
X58066211Y-37601639D01*
X58122171Y-37429409D01*
X58136765Y-37337259D01*
X58150500Y-37250551D01*
X58150500Y-37069448D01*
X58134019Y-36965397D01*
X58122171Y-36890591D01*
X58075424Y-36746716D01*
X58073429Y-36676875D01*
X58105672Y-36620719D01*
X61121403Y-33604987D01*
X61121408Y-33604984D01*
X61131611Y-33594780D01*
X61131613Y-33594780D01*
X61206180Y-33520213D01*
X61258907Y-33428887D01*
X61264725Y-33407173D01*
X61286201Y-33327027D01*
X61286201Y-33221573D01*
X61286201Y-33213978D01*
X61286200Y-33213960D01*
X61286200Y-10605398D01*
X61305885Y-10538359D01*
X61322519Y-10517717D01*
X61366220Y-10474016D01*
X61445277Y-10337084D01*
X61486200Y-10184357D01*
X61486200Y-10026243D01*
X61445277Y-9873516D01*
X61416318Y-9823357D01*
X61366224Y-9736590D01*
X61366218Y-9736582D01*
X61254417Y-9624781D01*
X61254409Y-9624775D01*
X61117490Y-9545726D01*
X61117486Y-9545724D01*
X61117484Y-9545723D01*
X60964757Y-9504800D01*
X60806643Y-9504800D01*
X60653916Y-9545723D01*
X60653909Y-9545726D01*
X60516990Y-9624775D01*
X60516982Y-9624781D01*
X60405181Y-9736582D01*
X60405175Y-9736590D01*
X60326126Y-9873509D01*
X60326123Y-9873516D01*
X60285200Y-10026243D01*
X60285200Y-10184357D01*
X60296042Y-10224818D01*
X60326123Y-10337083D01*
X60326126Y-10337090D01*
X60405175Y-10474009D01*
X60405181Y-10474017D01*
X60448881Y-10517717D01*
X60482366Y-10579040D01*
X60485200Y-10605398D01*
X60485200Y-33057044D01*
X60465515Y-33124083D01*
X60448881Y-33144725D01*
X58070903Y-35522702D01*
X57539280Y-36054325D01*
X57477957Y-36087810D01*
X57413281Y-36084575D01*
X57269410Y-36037829D01*
X57109321Y-36012473D01*
X57046186Y-35982544D01*
X57009255Y-35923232D01*
X57010253Y-35853370D01*
X57048863Y-35795137D01*
X57109321Y-35767527D01*
X57179425Y-35756422D01*
X57269409Y-35742171D01*
X57441639Y-35686211D01*
X57602994Y-35603996D01*
X57749501Y-35497553D01*
X57877553Y-35369501D01*
X57983996Y-35222994D01*
X58066211Y-35061639D01*
X58122171Y-34889409D01*
X58141331Y-34768436D01*
X58150500Y-34710551D01*
X58150500Y-34529448D01*
X58132474Y-34415640D01*
X58122171Y-34350591D01*
X58075424Y-34206716D01*
X58073429Y-34136875D01*
X58105672Y-34080719D01*
X58480580Y-33705813D01*
X58533307Y-33614488D01*
X58560600Y-33512627D01*
X58560600Y-33407173D01*
X58560600Y-18881273D01*
X58533307Y-18779413D01*
X58480580Y-18688087D01*
X58406013Y-18613520D01*
X58049019Y-18256526D01*
X58015534Y-18195203D01*
X58012700Y-18168845D01*
X58012700Y-18107045D01*
X58012700Y-18107043D01*
X57971777Y-17954316D01*
X57971773Y-17954309D01*
X57892724Y-17817390D01*
X57892718Y-17817382D01*
X57780917Y-17705581D01*
X57780909Y-17705575D01*
X57643990Y-17626526D01*
X57643986Y-17626524D01*
X57643984Y-17626523D01*
X57491257Y-17585600D01*
X57333143Y-17585600D01*
X57180416Y-17626523D01*
X57180409Y-17626526D01*
X57043490Y-17705575D01*
X57043482Y-17705581D01*
X56931681Y-17817382D01*
X56931675Y-17817390D01*
X56852626Y-17954309D01*
X56852623Y-17954316D01*
X56811700Y-18107043D01*
X56811700Y-18265156D01*
X56852623Y-18417883D01*
X56852626Y-18417890D01*
X56931675Y-18554809D01*
X56931679Y-18554814D01*
X56931680Y-18554816D01*
X57043484Y-18666620D01*
X57043486Y-18666621D01*
X57043490Y-18666624D01*
X57080666Y-18688087D01*
X57180416Y-18745677D01*
X57333143Y-18786600D01*
X57394945Y-18786600D01*
X57461984Y-18806285D01*
X57482626Y-18822919D01*
X57723281Y-19063574D01*
X57756766Y-19124897D01*
X57759600Y-19151255D01*
X57759600Y-25526000D01*
X57739915Y-25593039D01*
X57687111Y-25638794D01*
X57635600Y-25650000D01*
X57250000Y-25650000D01*
X57250000Y-26566988D01*
X57192993Y-26534075D01*
X57065826Y-26500000D01*
X56934174Y-26500000D01*
X56807007Y-26534075D01*
X56750000Y-26566988D01*
X56750000Y-25650000D01*
X56102155Y-25650000D01*
X56042627Y-25656401D01*
X56042620Y-25656403D01*
X55907913Y-25706645D01*
X55907906Y-25706649D01*
X55792812Y-25792809D01*
X55792809Y-25792812D01*
X55706649Y-25907906D01*
X55706645Y-25907913D01*
X55656403Y-26042620D01*
X55656401Y-26042627D01*
X55650000Y-26102155D01*
X55650000Y-26750000D01*
X56566988Y-26750000D01*
X56534075Y-26807007D01*
X56500000Y-26934174D01*
X56500000Y-27065826D01*
X56534075Y-27192993D01*
X56566988Y-27250000D01*
X55650000Y-27250000D01*
X55650000Y-27324245D01*
X55630315Y-27391284D01*
X55577511Y-27437039D01*
X55508353Y-27446983D01*
X55444797Y-27417958D01*
X55438319Y-27411926D01*
X43676619Y-15650226D01*
X43643134Y-15588903D01*
X43640300Y-15562545D01*
X43640300Y-4619198D01*
X43659985Y-4552159D01*
X43676619Y-4531517D01*
X43720320Y-4487816D01*
X43799377Y-4350884D01*
X43840300Y-4198157D01*
X43840300Y-4040043D01*
X43799377Y-3887316D01*
X43771393Y-3838845D01*
X43720324Y-3750390D01*
X43720318Y-3750382D01*
X43608517Y-3638581D01*
X43608509Y-3638575D01*
X43471590Y-3559526D01*
X43471586Y-3559524D01*
X43471584Y-3559523D01*
X43318857Y-3518600D01*
X43160743Y-3518600D01*
X43008016Y-3559523D01*
X43008009Y-3559526D01*
X42871090Y-3638575D01*
X42871082Y-3638581D01*
X42759281Y-3750382D01*
X42759275Y-3750390D01*
X42680226Y-3887309D01*
X42680223Y-3887316D01*
X42639300Y-4040043D01*
X4222691Y-4040043D01*
X4225475Y-4036211D01*
X4281551Y-3959031D01*
X4333659Y-3887309D01*
X4368870Y-3838845D01*
X4483241Y-3614379D01*
X4561090Y-3374785D01*
X4600500Y-3125962D01*
X4600500Y-2874038D01*
X63399500Y-2874038D01*
X63399500Y-3125961D01*
X63438910Y-3374785D01*
X63516760Y-3614383D01*
X63631132Y-3838848D01*
X63779201Y-4042649D01*
X63779205Y-4042654D01*
X63957345Y-4220794D01*
X63957350Y-4220798D01*
X64135117Y-4349952D01*
X64161155Y-4368870D01*
X64304184Y-4441747D01*
X64385616Y-4483239D01*
X64385618Y-4483239D01*
X64385621Y-4483241D01*
X64625215Y-4561090D01*
X64874038Y-4600500D01*
X64874039Y-4600500D01*
X65125961Y-4600500D01*
X65125962Y-4600500D01*
X65374785Y-4561090D01*
X65614379Y-4483241D01*
X65838845Y-4368870D01*
X66042656Y-4220793D01*
X66220793Y-4042656D01*
X66368870Y-3838845D01*
X66483241Y-3614379D01*
X66561090Y-3374785D01*
X66600500Y-3125962D01*
X66600500Y-2874038D01*
X66561090Y-2625215D01*
X66483241Y-2385621D01*
X66483239Y-2385618D01*
X66483239Y-2385616D01*
X66441747Y-2304184D01*
X66368870Y-2161155D01*
X66349952Y-2135117D01*
X66220798Y-1957350D01*
X66220794Y-1957345D01*
X66042654Y-1779205D01*
X66042649Y-1779201D01*
X65838848Y-1631132D01*
X65838847Y-1631131D01*
X65838845Y-1631130D01*
X65768747Y-1595413D01*
X65614383Y-1516760D01*
X65374785Y-1438910D01*
X65125962Y-1399500D01*
X64874038Y-1399500D01*
X64749626Y-1419205D01*
X64625214Y-1438910D01*
X64385616Y-1516760D01*
X64161151Y-1631132D01*
X63957350Y-1779201D01*
X63957345Y-1779205D01*
X63779205Y-1957345D01*
X63779201Y-1957350D01*
X63631132Y-2161151D01*
X63516760Y-2385616D01*
X63438910Y-2625214D01*
X63399500Y-2874038D01*
X4600500Y-2874038D01*
X4561090Y-2625215D01*
X4483241Y-2385621D01*
X4483239Y-2385618D01*
X4483239Y-2385616D01*
X4441747Y-2304184D01*
X4368870Y-2161155D01*
X4349952Y-2135117D01*
X4220798Y-1957350D01*
X4220794Y-1957345D01*
X4042654Y-1779205D01*
X4042649Y-1779201D01*
X3838848Y-1631132D01*
X3838847Y-1631131D01*
X3838845Y-1631130D01*
X3768747Y-1595413D01*
X3614383Y-1516760D01*
X3374785Y-1438910D01*
X3125962Y-1399500D01*
X2874038Y-1399500D01*
X2749626Y-1419205D01*
X2625214Y-1438910D01*
X2385616Y-1516760D01*
X2161151Y-1631132D01*
X1957350Y-1779201D01*
X1957345Y-1779205D01*
X1779205Y-1957345D01*
X1779201Y-1957350D01*
X1631132Y-2161151D01*
X1516760Y-2385616D01*
X1438910Y-2625214D01*
X1399500Y-2874038D01*
X1000000Y-2874038D01*
X1000000Y-1124000D01*
X1019685Y-1056961D01*
X1072489Y-1011206D01*
X1124000Y-1000000D01*
X66876000Y-1000000D01*
X66943039Y-1019685D01*
G37*
%TD.AperFunction*%
%TD*%
M02*
