ISO-10303-21;
HEADER;
FILE_DESCRIPTION (( 'STEP AP203' ),
    '1' );
FILE_NAME ('TX_Base.STEP',
    '2026-09-12T18:19:54',
    ( '' ),
    ( '' ),
    'SwSTEP 2.0',
    'SolidWorks 2024',
    '' );
FILE_SCHEMA (( 'CONFIG_CONTROL_DESIGN' ));
ENDSEC;

DATA;
#1 = EDGE_CURVE ( 'NONE', #77, #631, #484, .T. ) ;
#2 = ORIENTED_EDGE ( 'NONE', *, *, #46, .F. ) ;
#3 = CIRCLE ( 'NONE', #359, 3.000000000000002665 ) ;
#4 = AXIS2_PLACEMENT_3D ( 'NONE', #496, #867, #122 ) ;
#5 = LINE ( 'NONE', #255, #810 ) ;
#6 = DIRECTION ( 'NONE',  ( 1.000000000000000000, 0.000000000000000000, 0.000000000000000000 ) ) ;
#7 = EDGE_LOOP ( 'NONE', ( #788, #93, #257, #884 ) ) ;
#8 = APPROVAL ( #430, 'æœª' ) ;
#9 = VECTOR ( 'NONE', #936, 1000.000000000000000 ) ;
#10 = DIRECTION ( 'NONE',  ( 0.000000000000000000, 0.000000000000000000, 1.000000000000000000 ) ) ;
#11 = DIRECTION ( 'NONE',  ( -1.000000000000000000, 0.000000000000000000, 0.000000000000000000 ) ) ;
#12 = VERTEX_POINT ( 'NONE', #207 ) ;
#13 = ORIENTED_EDGE ( 'NONE', *, *, #610, .T. ) ;
#14 = DIRECTION ( 'NONE',  ( 0.000000000000000000, 0.000000000000000000, -1.000000000000000000 ) ) ;
#15 = EDGE_CURVE ( 'NONE', #391, #499, #968, .T. ) ;
#16 = DIRECTION ( 'NONE',  ( 0.000000000000000000, 0.000000000000000000, -1.000000000000000000 ) ) ;
#17 = EDGE_LOOP ( 'NONE', ( #974, #817 ) ) ;
#18 = ORIENTED_EDGE ( 'NONE', *, *, #818, .F. ) ;
#19 = CIRCLE ( 'NONE', #838, 3.000000000000002665 ) ;
#20 = CARTESIAN_POINT ( 'NONE',  ( 75.00000000000000000, 59.00000000000000000, 22.00000000000000000 ) ) ;
#21 = AXIS2_PLACEMENT_3D ( 'NONE', #490, #801, #880 ) ;
#22 = AXIS2_PLACEMENT_3D ( 'NONE', #383, #933, #397 ) ;
#23 = FACE_OUTER_BOUND ( 'NONE', #639, .T. ) ;
#24 = ORIENTED_EDGE ( 'NONE', *, *, #814, .F. ) ;
#25 = EDGE_LOOP ( 'NONE', ( #527, #989, #378, #481 ) ) ;
#26 = DIRECTION ( 'NONE',  ( -0.000000000000000000, -1.000000000000000000, -0.000000000000000000 ) ) ;
#27 = DIRECTION ( 'NONE',  ( -1.000000000000000000, 0.000000000000000000, 0.000000000000000000 ) ) ;
#28 = LINE ( 'NONE', #131, #951 ) ;
#29 = ADVANCED_FACE ( 'NONE', ( #652 ), #277, .T. ) ;
#30 = EDGE_LOOP ( 'NONE', ( #661, #701 ) ) ;
#31 = PLANE ( 'NONE',  #699 ) ;
#32 = DIRECTION ( 'NONE',  ( -1.000000000000000000, 0.000000000000000000, 0.000000000000000000 ) ) ;
#33 = ORIENTED_EDGE ( 'NONE', *, *, #728, .F. ) ;
#34 = EDGE_CURVE ( 'NONE', #267, #657, #222, .T. ) ;
#35 = FACE_BOUND ( 'NONE', #62, .T. ) ;
#36 = AXIS2_PLACEMENT_3D ( 'NONE', #673, #219, #63 ) ;
#37 = LINE ( 'NONE', #352, #666 ) ;
#38 = CIRCLE ( 'NONE', #601, 3.000000000000000000 ) ;
#39 = CC_DESIGN_SECURITY_CLASSIFICATION ( #748, ( #55 ) ) ;
#40 = EDGE_LOOP ( 'NONE', ( #487, #747, #551, #344 ) ) ;
#41 = DIRECTION ( 'NONE',  ( -1.000000000000000000, 0.000000000000000000, 0.000000000000000000 ) ) ;
#42 = EDGE_CURVE ( 'NONE', #717, #939, #388, .T. ) ;
#43 = FACE_OUTER_BOUND ( 'NONE', #48, .T. ) ;
#44 = DIRECTION ( 'NONE',  ( -0.000000000000000000, -0.000000000000000000, 1.000000000000000000 ) ) ;
#45 = COORDINATED_UNIVERSAL_TIME_OFFSET ( 8, 0, .AHEAD. ) ;
#46 = EDGE_CURVE ( 'NONE', #77, #861, #28, .T. ) ;
#47 = DIRECTION ( 'NONE',  ( -1.000000000000000000, 0.000000000000000000, -0.000000000000000000 ) ) ;
#48 = EDGE_LOOP ( 'NONE', ( #474, #649, #232, #24 ) ) ;
#49 = ORIENTED_EDGE ( 'NONE', *, *, #15, .T. ) ;
#50 = APPROVAL_ROLE ( '' ) ;
#51 = DIRECTION ( 'NONE',  ( -0.000000000000000000, -0.000000000000000000, -1.000000000000000000 ) ) ;
#52 = AXIS2_PLACEMENT_3D ( 'NONE', #473, #708, #240 ) ;
#53 = CARTESIAN_POINT ( 'NONE',  ( 0.000000000000000000, 61.00000000000000000, 22.00000000000000000 ) ) ;
#54 = VECTOR ( 'NONE', #512, 1000.000000000000000 ) ;
#55 = PRODUCT_DEFINITION_FORMATION_WITH_SPECIFIED_SOURCE ( 'ä»', '', #303, .NOT_KNOWN. ) ;
#56 = VECTOR ( 'NONE', #280, 1000.000000000000000 ) ;
#57 = ORIENTED_EDGE ( 'NONE', *, *, #121, .T. ) ;
#58 = DIRECTION ( 'NONE',  ( -1.000000000000000000, 0.000000000000000000, -0.000000000000000000 ) ) ;
#59 = LINE ( 'NONE', #980, #872 ) ;
#60 = VECTOR ( 'NONE', #863, 1000.000000000000000 ) ;
#61 = CARTESIAN_POINT ( 'NONE',  ( 77.00000000000000000, 0.000000000000000000, 22.00000000000000000 ) ) ;
#62 = EDGE_LOOP ( 'NONE', ( #672, #201 ) ) ;
#63 = DIRECTION ( 'NONE',  ( -1.000000000000000000, 0.000000000000000000, 0.000000000000000000 ) ) ;
#64 = CARTESIAN_POINT ( 'NONE',  ( 6.500000000000000000, 18.00000000000000000, 5.000000000000000000 ) ) ;
#65 = ORIENTED_EDGE ( 'NONE', *, *, #846, .F. ) ;
#66 = EDGE_CURVE ( 'NONE', #898, #621, #205, .T. ) ;
#67 = APPROVAL_STATUS ( 'not_yet_approved' ) ;
#68 = DIRECTION ( 'NONE',  ( 1.000000000000000000, 0.000000000000000000, 0.000000000000000000 ) ) ;
#69 = DIRECTION ( 'NONE',  ( 0.000000000000000000, 1.000000000000000000, 0.000000000000000000 ) ) ;
#70 = AXIS2_PLACEMENT_3D ( 'NONE', #713, #119, #719 ) ;
#71 = ORIENTED_EDGE ( 'NONE', *, *, #115, .F. ) ;
#72 = CIRCLE ( 'NONE', #952, 3.000000000000002665 ) ;
#73 = PERSON_AND_ORGANIZATION ( #629, #889 ) ;
#74 = DIRECTION ( 'NONE',  ( -0.000000000000000000, -0.000000000000000000, -1.000000000000000000 ) ) ;
#75 = ADVANCED_FACE ( 'NONE', ( #198 ), #440, .F. ) ;
#76 = LINE ( 'NONE', #912, #934 ) ;
#77 = VERTEX_POINT ( 'NONE', #362 ) ;
#78 = APPROVAL_STATUS ( 'not_yet_approved' ) ;
#79 = DIRECTION ( 'NONE',  ( -1.000000000000000000, 0.000000000000000000, 0.000000000000000000 ) ) ;
#80 = ADVANCED_FACE ( 'NONE', ( #153, #137 ), #306, .T. ) ;
#81 = DIRECTION ( 'NONE',  ( 1.000000000000000000, 0.000000000000000000, 0.000000000000000000 ) ) ;
#82 = ORIENTED_EDGE ( 'NONE', *, *, #15, .F. ) ;
#83 = CARTESIAN_POINT ( 'NONE',  ( 3.499999999999999556, 18.00000000000000000, 5.000000000000000000 ) ) ;
#84 = CARTESIAN_POINT ( 'NONE',  ( 73.50000000000000000, 54.00000000000000000, 2.000000000000000000 ) ) ;
#85 = VECTOR ( 'NONE', #703, 1000.000000000000000 ) ;
#86 = ORIENTED_EDGE ( 'NONE', *, *, #955, .F. ) ;
#87 = AXIS2_PLACEMENT_3D ( 'NONE', #97, #772, #318 ) ;
#88 = PERSON_AND_ORGANIZATION_ROLE ( 'design_supplier' ) ;
#89 = VECTOR ( 'NONE', #650, 1000.000000000000000 ) ;
#90 = FACE_OUTER_BOUND ( 'NONE', #316, .T. ) ;
#91 = AXIS2_PLACEMENT_3D ( 'NONE', #700, #916, #6 ) ;
#92 = DIRECTION ( 'NONE',  ( -0.000000000000000000, -0.000000000000000000, 1.000000000000000000 ) ) ;
#93 = ORIENTED_EDGE ( 'NONE', *, *, #213, .T. ) ;
#94 = EDGE_CURVE ( 'NONE', #135, #625, #581, .T. ) ;
#95 = ORIENTED_EDGE ( 'NONE', *, *, #736, .F. ) ;
#96 = DIRECTION ( 'NONE',  ( 0.000000000000000000, -1.000000000000000000, 0.000000000000000000 ) ) ;
#97 = CARTESIAN_POINT ( 'NONE',  ( 0.000000000000000000, 0.000000000000000000, 22.00000000000000000 ) ) ;
#98 = ORIENTED_EDGE ( 'NONE', *, *, #369, .T. ) ;
#99 = VERTEX_POINT ( 'NONE', #585 ) ;
#100 = DIRECTION ( 'NONE',  ( 0.000000000000000000, 0.000000000000000000, 1.000000000000000000 ) ) ;
#101 = APPLICATION_CONTEXT ( 'configuration controlled 3d designs of mechanical parts and assemblies' ) ;
#102 = FACE_OUTER_BOUND ( 'NONE', #866, .T. ) ;
#103 = ORIENTED_EDGE ( 'NONE', *, *, #179, .T. ) ;
#104 = VECTOR ( 'NONE', #209, 1000.000000000000000 ) ;
#105 = VERTEX_POINT ( 'NONE', #760 ) ;
#106 = VECTOR ( 'NONE', #976, 1000.000000000000000 ) ;
#107 = FACE_BOUND ( 'NONE', #983, .T. ) ;
#108 = AXIS2_PLACEMENT_3D ( 'NONE', #495, #44, #962 ) ;
#109 = EDGE_CURVE ( 'NONE', #407, #329, #76, .T. ) ;
#110 = CARTESIAN_POINT ( 'NONE',  ( 6.500000000000000000, 54.00000000000000000, 5.000000000000000888 ) ) ;
#111 = CARTESIAN_POINT ( 'NONE',  ( 70.50000000000000000, 54.00000000000000000, 5.000000000000000000 ) ) ;
#112 = VERTEX_POINT ( 'NONE', #230 ) ;
#113 = CARTESIAN_POINT ( 'NONE',  ( 70.50000000000000000, 18.00000000000000000, 5.000000000000000000 ) ) ;
#114 = DIRECTION ( 'NONE',  ( 1.000000000000000000, 0.000000000000000000, 0.000000000000000000 ) ) ;
#115 = EDGE_CURVE ( 'NONE', #802, #291, #38, .T. ) ;
#116 = VERTEX_POINT ( 'NONE', #674 ) ;
#117 = ORIENTED_EDGE ( 'NONE', *, *, #305, .T. ) ;
#118 = CARTESIAN_POINT ( 'NONE',  ( 75.00000000000000000, 59.00000000000000000, 2.000000000000001776 ) ) ;
#119 = DIRECTION ( 'NONE',  ( 0.000000000000000000, 0.000000000000000000, 1.000000000000000000 ) ) ;
#120 = ORIENTED_EDGE ( 'NONE', *, *, #363, .F. ) ;
#121 = EDGE_CURVE ( 'NONE', #241, #99, #156, .T. ) ;
#122 = DIRECTION ( 'NONE',  ( 1.000000000000000000, 0.000000000000000000, -0.000000000000000000 ) ) ;
#123 = AXIS2_PLACEMENT_3D ( 'NONE', #256, #868, #276 ) ;
#124 = DIRECTION ( 'NONE',  ( 1.000000000000000000, 0.000000000000000000, 0.000000000000000000 ) ) ;
#125 = AXIS2_PLACEMENT_3D ( 'NONE', #367, #371, #765 ) ;
#126 = VECTOR ( 'NONE', #948, 1000.000000000000000 ) ;
#127 = VERTEX_POINT ( 'NONE', #977 ) ;
#128 = EDGE_CURVE ( 'NONE', #589, #418, #452, .T. ) ;
#129 = DIRECTION ( 'NONE',  ( 0.000000000000000000, 0.000000000000000000, 1.000000000000000000 ) ) ;
#130 = CARTESIAN_POINT ( 'NONE',  ( 70.50000000000000000, 18.00000000000000000, 2.000000000000000000 ) ) ;
#131 = CARTESIAN_POINT ( 'NONE',  ( 75.00000000000000000, 2.000000000000000000, 22.00000000000000000 ) ) ;
#132 = DIRECTION ( 'NONE',  ( -0.000000000000000000, -1.000000000000000000, -0.000000000000000000 ) ) ;
#133 = CARTESIAN_POINT ( 'NONE',  ( 2.000000000000000000, 59.00000000000000000, 22.00000000000000000 ) ) ;
#134 = DIRECTION ( 'NONE',  ( 0.000000000000000000, 0.000000000000000000, 1.000000000000000000 ) ) ;
#135 = VERTEX_POINT ( 'NONE', #973 ) ;
#136 = FACE_OUTER_BOUND ( 'NONE', #25, .T. ) ;
#137 = FACE_OUTER_BOUND ( 'NONE', #938, .T. ) ;
#138 = VECTOR ( 'NONE', #698, 1000.000000000000000 ) ;
#139 = EDGE_LOOP ( 'NONE', ( #513, #356, #667, #65 ) ) ;
#140 = ORIENTED_EDGE ( 'NONE', *, *, #791, .F. ) ;
#141 = CYLINDRICAL_SURFACE ( 'NONE', #236, 3.000000000000002665 ) ;
#142 = DIRECTION ( 'NONE',  ( -0.000000000000000000, -0.000000000000000000, 1.000000000000000000 ) ) ;
#143 = DIRECTION ( 'NONE',  ( -1.000000000000000000, 0.000000000000000000, 0.000000000000000000 ) ) ;
#144 = ADVANCED_FACE ( 'NONE', ( #290 ), #226, .F. ) ;
#145 = ORIENTED_EDGE ( 'NONE', *, *, #374, .T. ) ;
#146 = DIRECTION ( 'NONE',  ( -0.000000000000000000, -0.000000000000000000, -1.000000000000000000 ) ) ;
#147 = FACE_BOUND ( 'NONE', #588, .T. ) ;
#148 = CARTESIAN_POINT ( 'NONE',  ( 70.50000000000000000, 54.00000000000000000, 2.000000000000000000 ) ) ;
#149 = ORIENTED_EDGE ( 'NONE', *, *, #263, .T. ) ;
#150 = ADVANCED_FACE ( 'NONE', ( #300 ), #746, .T. ) ;
#151 = DATE_TIME_ROLE ( 'classification_date' ) ;
#152 = CARTESIAN_POINT ( 'NONE',  ( 71.59999999999999432, 18.00000000000000000, 5.000000000000000888 ) ) ;
#153 = FACE_BOUND ( 'NONE', #254, .T. ) ;
#154 = CIRCLE ( 'NONE', #809, 3.000000000000000000 ) ;
#155 = ORIENTED_EDGE ( 'NONE', *, *, #846, .T. ) ;
#156 = CIRCLE ( 'NONE', #486, 3.000000000000002665 ) ;
#157 = COORDINATED_UNIVERSAL_TIME_OFFSET ( 8, 0, .AHEAD. ) ;
#158 = EDGE_CURVE ( 'NONE', #105, #898, #215, .T. ) ;
#159 = CARTESIAN_POINT ( 'NONE',  ( 9.500000000000000000, 18.00000000000000000, 5.000000000000000000 ) ) ;
#160 = CARTESIAN_POINT ( 'NONE',  ( 77.00000000000000000, 61.00000000000000000, 22.00000000000000000 ) ) ;
#161 = VERTEX_POINT ( 'NONE', #824 ) ;
#162 = CYLINDRICAL_SURFACE ( 'NONE', #549, 3.000000000000002665 ) ;
#163 = CARTESIAN_POINT ( 'NONE',  ( 6.500000000000000000, 18.00000000000000000, 5.000000000000000888 ) ) ;
#164 = ORIENTED_EDGE ( 'NONE', *, *, #603, .F. ) ;
#165 = CYLINDRICAL_SURFACE ( 'NONE', #565, 3.000000000000000888 ) ;
#166 = PLANE ( 'NONE',  #434 ) ;
#167 = EDGE_CURVE ( 'NONE', #391, #368, #892, .T. ) ;
#168 = ORIENTED_EDGE ( 'NONE', *, *, #559, .F. ) ;
#169 = AXIS2_PLACEMENT_3D ( 'NONE', #964, #283, #321 ) ;
#170 = DIRECTION ( 'NONE',  ( -1.000000000000000000, 0.000000000000000000, 0.000000000000000000 ) ) ;
#171 = DIRECTION ( 'NONE',  ( -0.000000000000000000, -0.000000000000000000, -1.000000000000000000 ) ) ;
#172 = EDGE_CURVE ( 'NONE', #105, #785, #856, .T. ) ;
#173 = ORIENTED_EDGE ( 'NONE', *, *, #305, .F. ) ;
#174 = VECTOR ( 'NONE', #143, 1000.000000000000000 ) ;
#175 = ORIENTED_EDGE ( 'NONE', *, *, #919, .T. ) ;
#176 = DIRECTION ( 'NONE',  ( 0.000000000000000000, 0.000000000000000000, -1.000000000000000000 ) ) ;
#177 = CARTESIAN_POINT ( 'NONE',  ( 75.00000000000000000, 59.00000000000000000, 22.00000000000000000 ) ) ;
#178 = ORIENTED_EDGE ( 'NONE', *, *, #345, .F. ) ;
#179 = EDGE_CURVE ( 'NONE', #913, #127, #984, .T. ) ;
#180 = ORIENTED_EDGE ( 'NONE', *, *, #476, .T. ) ;
#181 = LINE ( 'NONE', #482, #654 ) ;
#182 = CARTESIAN_POINT ( 'NONE',  ( 7.599999999999998757, 54.00000000000000000, 0.000000000000000000 ) ) ;
#183 = LINE ( 'NONE', #518, #174 ) ;
#184 = CIRCLE ( 'NONE', #792, 3.000000000000000000 ) ;
#185 = ORIENTED_EDGE ( 'NONE', *, *, #369, .F. ) ;
#186 = LOCAL_TIME ( 2, 19, 54.00000000000000000, #157 ) ;
#187 = FACE_OUTER_BOUND ( 'NONE', #836, .T. ) ;
#188 = CC_DESIGN_PERSON_AND_ORGANIZATION_ASSIGNMENT ( #749, #828, ( #303 ) ) ;
#189 = DIRECTION ( 'NONE',  ( -0.000000000000000000, -0.000000000000000000, -1.000000000000000000 ) ) ;
#190 = ADVANCED_BREP_SHAPE_REPRESENTATION ( 'TX_Base', ( #607, #406 ), #840 ) ;
#191 = VERTEX_POINT ( 'NONE', #679 ) ;
#192 = AXIS2_PLACEMENT_3D ( 'NONE', #163, #243, #81 ) ;
#193 = ORIENTED_EDGE ( 'NONE', *, *, #167, .T. ) ;
#194 = CARTESIAN_POINT ( 'NONE',  ( 2.000000000000000000, 2.000000000000000000, 2.000000000000001776 ) ) ;
#195 = CC_DESIGN_PERSON_AND_ORGANIZATION_ASSIGNMENT ( #354, #662, ( #498 ) ) ;
#196 = DIRECTION ( 'NONE',  ( 0.000000000000000000, 0.000000000000000000, 1.000000000000000000 ) ) ;
#197 = EDGE_CURVE ( 'NONE', #861, #632, #981, .T. ) ;
#198 = FACE_OUTER_BOUND ( 'NONE', #40, .T. ) ;
#199 = CARTESIAN_POINT ( 'NONE',  ( 3.499999999999998668, 54.00000000000000000, 5.000000000000000000 ) ) ;
#200 = DIRECTION ( 'NONE',  ( -0.000000000000000000, -0.000000000000000000, -1.000000000000000000 ) ) ;
#201 = ORIENTED_EDGE ( 'NONE', *, *, #121, .F. ) ;
#202 = EDGE_CURVE ( 'NONE', #939, #717, #587, .T. ) ;
#203 = AXIS2_PLACEMENT_3D ( 'NONE', #651, #950, #204 ) ;
#204 = DIRECTION ( 'NONE',  ( -1.000000000000000000, 0.000000000000000000, 0.000000000000000000 ) ) ;
#205 = CIRCLE ( 'NONE', #21, 1.100000000000003642 ) ;
#206 = AXIS2_PLACEMENT_3D ( 'NONE', #590, #129, #358 ) ;
#207 = CARTESIAN_POINT ( 'NONE',  ( 0.000000000000000000, 0.000000000000000000, 22.00000000000000000 ) ) ;
#208 = CARTESIAN_POINT ( 'NONE',  ( 70.50000000000000000, 18.00000000000000000, 5.000000000000000000 ) ) ;
#209 = DIRECTION ( 'NONE',  ( 0.000000000000000000, 0.000000000000000000, -1.000000000000000000 ) ) ;
#210 = CARTESIAN_POINT ( 'NONE',  ( 70.50000000000000000, 54.00000000000000000, 0.000000000000000000 ) ) ;
#211 = ORIENTED_EDGE ( 'NONE', *, *, #627, .F. ) ;
#212 = FACE_OUTER_BOUND ( 'NONE', #505, .T. ) ;
#213 = EDGE_CURVE ( 'NONE', #631, #877, #183, .T. ) ;
#214 = DIRECTION ( 'NONE',  ( -1.000000000000000000, 0.000000000000000000, 0.000000000000000000 ) ) ;
#215 = LINE ( 'NONE', #686, #54 ) ;
#216 = EDGE_LOOP ( 'NONE', ( #716, #145, #721, #173 ) ) ;
#217 = APPROVAL_DATE_TIME ( #278, #586 ) ;
#218 = EDGE_CURVE ( 'NONE', #112, #821, #844, .T. ) ;
#219 = DIRECTION ( 'NONE',  ( 0.000000000000000000, 0.000000000000000000, -1.000000000000000000 ) ) ;
#220 = CIRCLE ( 'NONE', #982, 1.100000000000003642 ) ;
#221 = CARTESIAN_POINT ( 'NONE',  ( 6.500000000000000000, 54.00000000000000000, 2.000000000000000000 ) ) ;
#222 = CIRCLE ( 'NONE', #108, 3.000000000000002665 ) ;
#223 = VECTOR ( 'NONE', #455, 1000.000000000000000 ) ;
#224 = ORIENTED_EDGE ( 'NONE', *, *, #42, .T. ) ;
#225 = CARTESIAN_POINT ( 'NONE',  ( 69.39999999999999147, 54.00000000000000000, 22.00000000000000000 ) ) ;
#226 = CYLINDRICAL_SURFACE ( 'NONE', #533, 1.099999999999999423 ) ;
#227 = EDGE_CURVE ( 'NONE', #499, #606, #543, .T. ) ;
#228 = ORIENTED_EDGE ( 'NONE', *, *, #476, .F. ) ;
#229 = DIRECTION ( 'NONE',  ( 1.000000000000000000, 0.000000000000000000, 0.000000000000000000 ) ) ;
#230 = CARTESIAN_POINT ( 'NONE',  ( 7.599999999999999645, 18.00000000000000000, 5.000000000000000888 ) ) ;
#231 = EDGE_CURVE ( 'NONE', #418, #407, #532, .T. ) ;
#232 = ORIENTED_EDGE ( 'NONE', *, *, #992, .F. ) ;
#233 = LINE ( 'NONE', #464, #969 ) ;
#234 = CARTESIAN_POINT ( 'NONE',  ( 0.000000000000000000, 61.00000000000000000, 0.000000000000000000 ) ) ;
#235 = AXIS2_PLACEMENT_3D ( 'NONE', #628, #922, #11 ) ;
#236 = AXIS2_PLACEMENT_3D ( 'NONE', #208, #514, #520 ) ;
#237 = EDGE_LOOP ( 'NONE', ( #510, #49 ) ) ;
#238 = PERSON_AND_ORGANIZATION ( #629, #889 ) ;
#239 = CARTESIAN_POINT ( 'NONE',  ( 77.00000000000000000, 0.000000000000000000, 0.000000000000000000 ) ) ;
#240 = DIRECTION ( 'NONE',  ( 1.000000000000000000, 0.000000000000000000, 0.000000000000000000 ) ) ;
#241 = VERTEX_POINT ( 'NONE', #84 ) ;
#242 = DIRECTION ( 'NONE',  ( 1.000000000000000000, 0.000000000000000000, 0.000000000000000000 ) ) ;
#243 = DIRECTION ( 'NONE',  ( -0.000000000000000000, -0.000000000000000000, -1.000000000000000000 ) ) ;
#244 = EDGE_LOOP ( 'NONE', ( #185, #325, #57, #805 ) ) ;
#245 = ORIENTED_EDGE ( 'NONE', *, *, #535, .F. ) ;
#246 = DATE_AND_TIME ( #853, #735 ) ;
#247 = DIRECTION ( 'NONE',  ( -1.000000000000000000, 0.000000000000000000, 0.000000000000000000 ) ) ;
#248 = EDGE_CURVE ( 'NONE', #861, #852, #851, .T. ) ;
#249 = FACE_OUTER_BOUND ( 'NONE', #7, .T. ) ;
#250 = ORIENTED_EDGE ( 'NONE', *, *, #937, .F. ) ;
#251 = AXIS2_PLACEMENT_3D ( 'NONE', #413, #417, #879 ) ;
#252 = AXIS2_PLACEMENT_3D ( 'NONE', #563, #957, #796 ) ;
#253 = AXIS2_PLACEMENT_3D ( 'NONE', #915, #10, #689 ) ;
#254 = EDGE_LOOP ( 'NONE', ( #616, #558 ) ) ;
#255 = CARTESIAN_POINT ( 'NONE',  ( 2.000000000000000000, 59.00000000000000000, 2.000000000000001776 ) ) ;
#256 = CARTESIAN_POINT ( 'NONE',  ( 77.00000000000000000, 0.000000000000000000, 22.00000000000000000 ) ) ;
#257 = ORIENTED_EDGE ( 'NONE', *, *, #690, .F. ) ;
#258 = ADVANCED_FACE ( 'NONE', ( #249 ), #166, .T. ) ;
#259 = ORIENTED_EDGE ( 'NONE', *, *, #568, .T. ) ;
#260 = CARTESIAN_POINT ( 'NONE',  ( 70.50000000000000000, 54.00000000000000000, 0.000000000000000000 ) ) ;
#261 = DIRECTION ( 'NONE',  ( 0.000000000000000000, 0.000000000000000000, 1.000000000000000000 ) ) ;
#262 = ORIENTED_EDGE ( 'NONE', *, *, #213, .F. ) ;
#263 = EDGE_CURVE ( 'NONE', #454, #329, #322, .T. ) ;
#264 = ORIENTED_EDGE ( 'NONE', *, *, #757, .F. ) ;
#265 = CARTESIAN_POINT ( 'NONE',  ( 0.000000000000000000, 0.000000000000000000, 0.000000000000000000 ) ) ;
#266 = DIRECTION ( 'NONE',  ( 1.000000000000000000, 0.000000000000000000, 0.000000000000000000 ) ) ;
#267 = VERTEX_POINT ( 'NONE', #387 ) ;
#268 = AXIS2_PLACEMENT_3D ( 'NONE', #941, #200, #27 ) ;
#269 = ORIENTED_EDGE ( 'NONE', *, *, #374, .F. ) ;
#270 = AXIS2_PLACEMENT_3D ( 'NONE', #113, #806, #737 ) ;
#271 = CARTESIAN_POINT ( 'NONE',  ( 9.500000000000001776, 54.00000000000000000, 2.000000000000000000 ) ) ;
#272 = CARTESIAN_POINT ( 'NONE',  ( 70.50000000000000000, 18.00000000000000000, 5.000000000000000000 ) ) ;
#273 = DIRECTION ( 'NONE',  ( -0.000000000000000000, -0.000000000000000000, 1.000000000000000000 ) ) ;
#274 = CARTESIAN_POINT ( 'NONE',  ( 2.000000000000000000, 2.000000000000000000, 2.000000000000001776 ) ) ;
#275 = EDGE_CURVE ( 'NONE', #821, #112, #460, .T. ) ;
#276 = DIRECTION ( 'NONE',  ( 0.000000000000000000, 0.000000000000000000, 1.000000000000000000 ) ) ;
#277 = CYLINDRICAL_SURFACE ( 'NONE', #795, 3.000000000000002665 ) ;
#278 = DATE_AND_TIME ( #899, #360 ) ;
#279 = CARTESIAN_POINT ( 'NONE',  ( 6.500000000000000000, 18.00000000000000000, 22.00000000000000000 ) ) ;
#280 = DIRECTION ( 'NONE',  ( 0.000000000000000000, 0.000000000000000000, -1.000000000000000000 ) ) ;
#281 = DATE_TIME_ROLE ( 'creation_date' ) ;
#282 = CIRCLE ( 'NONE', #70, 1.099999999999999423 ) ;
#283 = DIRECTION ( 'NONE',  ( 0.000000000000000000, 0.000000000000000000, 1.000000000000000000 ) ) ;
#284 = VECTOR ( 'NONE', #132, 1000.000000000000000 ) ;
#285 = DIRECTION ( 'NONE',  ( -0.000000000000000000, -0.000000000000000000, -1.000000000000000000 ) ) ;
#286 = ADVANCED_FACE ( 'NONE', ( #384 ), #783, .F. ) ;
#287 = ORIENTED_EDGE ( 'NONE', *, *, #919, .F. ) ;
#288 = CARTESIAN_POINT ( 'NONE',  ( 0.000000000000000000, 0.000000000000000000, 22.00000000000000000 ) ) ;
#289 = DIRECTION ( 'NONE',  ( 0.000000000000000000, 0.000000000000000000, -1.000000000000000000 ) ) ;
#290 = FACE_OUTER_BOUND ( 'NONE', #404, .T. ) ;
#291 = VERTEX_POINT ( 'NONE', #465 ) ;
#292 = ADVANCED_FACE ( 'NONE', ( #613 ), #778, .F. ) ;
#293 = CARTESIAN_POINT ( 'NONE',  ( 0.000000000000000000, 0.000000000000000000, 0.000000000000000000 ) ) ;
#294 = FACE_BOUND ( 'NONE', #17, .T. ) ;
#295 = CARTESIAN_POINT ( 'NONE',  ( 2.000000000000000000, 59.00000000000000000, 22.00000000000000000 ) ) ;
#296 = ORIENTED_EDGE ( 'NONE', *, *, #298, .F. ) ;
#297 = CARTESIAN_POINT ( 'NONE',  ( 71.59999999999999432, 18.00000000000000000, 0.000000000000000000 ) ) ;
#298 = EDGE_CURVE ( 'NONE', #593, #946, #154, .T. ) ;
#299 = AXIS2_PLACEMENT_3D ( 'NONE', #724, #261, #489 ) ;
#300 = FACE_OUTER_BOUND ( 'NONE', #491, .T. ) ;
#301 = VECTOR ( 'NONE', #509, 1000.000000000000000 ) ;
#302 = EDGE_LOOP ( 'NONE', ( #364, #310 ) ) ;
#303 = PRODUCT ( 'TX_Base', 'TX_Base', '', ( #979 ) ) ;
#304 = CARTESIAN_POINT ( 'NONE',  ( 75.00000000000000000, 2.000000000000000000, 2.000000000000001776 ) ) ;
#305 = EDGE_CURVE ( 'NONE', #560, #267, #624, .T. ) ;
#306 = PLANE ( 'NONE',  #548 ) ;
#307 = ORIENTED_EDGE ( 'NONE', *, *, #275, .T. ) ;
#308 = CARTESIAN_POINT ( 'NONE',  ( 6.500000000000000000, 54.00000000000000000, 22.00000000000000000 ) ) ;
#309 = DIRECTION ( 'NONE',  ( -1.000000000000000000, 0.000000000000000000, 0.000000000000000000 ) ) ;
#310 = ORIENTED_EDGE ( 'NONE', *, *, #335, .T. ) ;
#311 = CALENDAR_DATE ( 2026, 13, 9 ) ;
#312 = PLANE ( 'NONE',  #253 ) ;
#313 = DIRECTION ( 'NONE',  ( -0.000000000000000000, -0.000000000000000000, -1.000000000000000000 ) ) ;
#314 = CIRCLE ( 'NONE', #330, 1.099999999999999423 ) ;
#315 = LOCAL_TIME ( 2, 19, 54.00000000000000000, #767 ) ;
#316 = EDGE_LOOP ( 'NONE', ( #864, #341, #709, #524 ) ) ;
#317 = CARTESIAN_POINT ( 'NONE',  ( 70.50000000000000000, 54.00000000000000000, 5.000000000000000888 ) ) ;
#318 = DIRECTION ( 'NONE',  ( 0.000000000000000000, -0.000000000000000000, 1.000000000000000000 ) ) ;
#319 = ORIENTED_EDGE ( 'NONE', *, *, #728, .T. ) ;
#320 = ADVANCED_FACE ( 'NONE', ( #858 ), #926, .F. ) ;
#321 = DIRECTION ( 'NONE',  ( 1.000000000000000000, 0.000000000000000000, 0.000000000000000000 ) ) ;
#322 = LINE ( 'NONE', #546, #85 ) ;
#323 = VERTEX_POINT ( 'NONE', #634 ) ;
#324 = CC_DESIGN_PERSON_AND_ORGANIZATION_ASSIGNMENT ( #392, #88, ( #55 ) ) ;
#325 = ORIENTED_EDGE ( 'NONE', *, *, #390, .T. ) ;
#326 = PLANE ( 'NONE',  #715 ) ;
#327 = ADVANCED_FACE ( 'NONE', ( #930 ), #381, .F. ) ;
#328 = PLANE ( 'NONE',  #123 ) ;
#329 = VERTEX_POINT ( 'NONE', #234 ) ;
#330 = AXIS2_PLACEMENT_3D ( 'NONE', #370, #446, #68 ) ;
#331 = CIRCLE ( 'NONE', #22, 3.000000000000000000 ) ;
#332 = ORIENTED_EDGE ( 'NONE', *, *, #34, .F. ) ;
#333 = CARTESIAN_POINT ( 'NONE',  ( 69.39999999999999147, 18.00000000000000000, 0.000000000000000000 ) ) ;
#334 = CYLINDRICAL_SURFACE ( 'NONE', #251, 3.000000000000002665 ) ;
#335 = EDGE_CURVE ( 'NONE', #785, #105, #220, .T. ) ;
#336 = VERTEX_POINT ( 'NONE', #769 ) ;
#337 = ORIENTED_EDGE ( 'NONE', *, *, #128, .T. ) ;
#338 = DIRECTION ( 'NONE',  ( 1.000000000000000000, -0.000000000000000000, 0.000000000000000000 ) ) ;
#339 = CYLINDRICAL_SURFACE ( 'NONE', #405, 3.000000000000000000 ) ;
#340 = EDGE_LOOP ( 'NONE', ( #729, #319, #337, #753 ) ) ;
#341 = ORIENTED_EDGE ( 'NONE', *, *, #419, .F. ) ;
#342 = LINE ( 'NONE', #274, #126 ) ;
#343 = CYLINDRICAL_SURFACE ( 'NONE', #203, 1.100000000000003642 ) ;
#344 = ORIENTED_EDGE ( 'NONE', *, *, #231, .T. ) ;
#345 = EDGE_CURVE ( 'NONE', #621, #898, #580, .T. ) ;
#346 = CIRCLE ( 'NONE', #206, 1.100000000000000311 ) ;
#347 = FACE_BOUND ( 'NONE', #710, .T. ) ;
#348 = CARTESIAN_POINT ( 'NONE',  ( 77.00000000000000000, 61.00000000000000000, 0.000000000000000000 ) ) ;
#349 = ORIENTED_EDGE ( 'NONE', *, *, #66, .F. ) ;
#350 = PLANE ( 'NONE',  #985 ) ;
#351 = ADVANCED_FACE ( 'NONE', ( #398 ), #328, .F. ) ;
#352 = CARTESIAN_POINT ( 'NONE',  ( 73.50000000000000000, 54.00000000000000000, 5.000000000000000000 ) ) ;
#353 = EDGE_LOOP ( 'NONE', ( #372, #739, #13, #400 ) ) ;
#354 = PERSON_AND_ORGANIZATION ( #629, #889 ) ;
#355 = CARTESIAN_POINT ( 'NONE',  ( 9.500000000000000000, 18.00000000000000000, 2.000000000000000000 ) ) ;
#356 = ORIENTED_EDGE ( 'NONE', *, *, #967, .T. ) ;
#357 = ORIENTED_EDGE ( 'NONE', *, *, #894, .F. ) ;
#358 = DIRECTION ( 'NONE',  ( 1.000000000000000000, 0.000000000000000000, 0.000000000000000000 ) ) ;
#359 = AXIS2_PLACEMENT_3D ( 'NONE', #521, #911, #229 ) ;
#360 = LOCAL_TIME ( 2, 19, 54.00000000000000000, #45 ) ;
#361 = FACE_OUTER_BOUND ( 'NONE', #538, .T. ) ;
#362 = CARTESIAN_POINT ( 'NONE',  ( 75.00000000000000000, 2.000000000000000000, 22.00000000000000000 ) ) ;
#363 = EDGE_CURVE ( 'NONE', #441, #722, #738, .T. ) ;
#364 = ORIENTED_EDGE ( 'NONE', *, *, #172, .T. ) ;
#365 = DIRECTION ( 'NONE',  ( 0.000000000000000000, 0.000000000000000000, -1.000000000000000000 ) ) ;
#366 = CARTESIAN_POINT ( 'NONE',  ( 2.000000000000000000, 2.000000000000000000, 22.00000000000000000 ) ) ;
#367 = CARTESIAN_POINT ( 'NONE',  ( 6.500000000000000000, 54.00000000000000000, 5.000000000000000000 ) ) ;
#368 = VERTEX_POINT ( 'NONE', #182 ) ;
#369 = EDGE_CURVE ( 'NONE', #780, #978, #949, .T. ) ;
#370 = CARTESIAN_POINT ( 'NONE',  ( 6.500000000000000000, 54.00000000000000000, 0.000000000000000000 ) ) ;
#371 = DIRECTION ( 'NONE',  ( 0.000000000000000000, 0.000000000000000000, 1.000000000000000000 ) ) ;
#372 = ORIENTED_EDGE ( 'NONE', *, *, #390, .F. ) ;
#373 = APPROVAL_ROLE ( '' ) ;
#374 = EDGE_CURVE ( 'NONE', #727, #657, #562, .T. ) ;
#375 = LINE ( 'NONE', #669, #902 ) ;
#376 = DIRECTION ( 'NONE',  ( -1.000000000000000000, 0.000000000000000000, 0.000000000000000000 ) ) ;
#377 = VECTOR ( 'NONE', #855, 1000.000000000000000 ) ;
#378 = ORIENTED_EDGE ( 'NONE', *, *, #814, .T. ) ;
#379 = PERSON_AND_ORGANIZATION_ROLE ( 'creator' ) ;
#380 = CARTESIAN_POINT ( 'NONE',  ( 0.000000000000000000, 0.000000000000000000, 22.00000000000000000 ) ) ;
#381 = CYLINDRICAL_SURFACE ( 'NONE', #775, 1.100000000000003642 ) ;
#382 = EDGE_LOOP ( 'NONE', ( #848, #917, #570, #827 ) ) ;
#383 = CARTESIAN_POINT ( 'NONE',  ( 6.500000000000000000, 18.00000000000000000, 5.000000000000000000 ) ) ;
#384 = FACE_OUTER_BOUND ( 'NONE', #429, .T. ) ;
#385 = ORIENTED_EDGE ( 'NONE', *, *, #614, .F. ) ;
#386 = CARTESIAN_POINT ( 'NONE',  ( 5.399999999999999467, 18.00000000000000000, 22.00000000000000000 ) ) ;
#387 = CARTESIAN_POINT ( 'NONE',  ( 67.49999999999998579, 18.00000000000000000, 2.000000000000000000 ) ) ;
#388 = CIRCLE ( 'NONE', #904, 3.000000000000000888 ) ;
#389 = APPROVAL_PERSON_ORGANIZATION ( #890, #8, #50 ) ;
#390 = EDGE_CURVE ( 'NONE', #780, #241, #37, .T. ) ;
#391 = VERTEX_POINT ( 'NONE', #804 ) ;
#392 = PERSON_AND_ORGANIZATION ( #629, #889 ) ;
#393 = DIRECTION ( 'NONE',  ( 0.000000000000000000, 0.000000000000000000, -1.000000000000000000 ) ) ;
#394 = CARTESIAN_POINT ( 'NONE',  ( 67.49999999999998579, 18.00000000000000000, 5.000000000000000000 ) ) ;
#395 = ORIENTED_EDGE ( 'NONE', *, *, #402, .F. ) ;
#396 = ORIENTED_EDGE ( 'NONE', *, *, #227, .F. ) ;
#397 = DIRECTION ( 'NONE',  ( 1.000000000000000000, 0.000000000000000000, 0.000000000000000000 ) ) ;
#398 = FACE_OUTER_BOUND ( 'NONE', #931, .T. ) ;
#399 = ORIENTED_EDGE ( 'NONE', *, *, #34, .T. ) ;
#400 = ORIENTED_EDGE ( 'NONE', *, *, #826, .T. ) ;
#401 = PLANE ( 'NONE',  #270 ) ;
#402 = EDGE_CURVE ( 'NONE', #555, #116, #617, .T. ) ;
#403 = CARTESIAN_POINT ( 'NONE',  ( 75.00000000000000000, 2.000000000000000000, 22.00000000000000000 ) ) ;
#404 = EDGE_LOOP ( 'NONE', ( #82, #193, #228, #396 ) ) ;
#405 = AXIS2_PLACEMENT_3D ( 'NONE', #945, #987, #759 ) ;
#406 = AXIS2_PLACEMENT_3D ( 'NONE', #293, #594, #677 ) ;
#407 = VERTEX_POINT ( 'NONE', #348 ) ;
#408 = FACE_OUTER_BOUND ( 'NONE', #770, .T. ) ;
#409 = DIRECTION ( 'NONE',  ( 0.000000000000000000, 0.000000000000000000, 1.000000000000000000 ) ) ;
#410 = ORIENTED_EDGE ( 'NONE', *, *, #967, .F. ) ;
#411 = ORIENTED_EDGE ( 'NONE', *, *, #128, .F. ) ;
#412 = DIRECTION ( 'NONE',  ( 1.000000000000000000, 0.000000000000000000, 0.000000000000000000 ) ) ;
#413 = CARTESIAN_POINT ( 'NONE',  ( 70.50000000000000000, 18.00000000000000000, 5.000000000000000000 ) ) ;
#414 = ORIENTED_EDGE ( 'NONE', *, *, #860, .T. ) ;
#415 = EDGE_LOOP ( 'NONE', ( #410, #869, #155, #224 ) ) ;
#416 = PLANE ( 'NONE',  #4 ) ;
#417 = DIRECTION ( 'NONE',  ( -0.000000000000000000, -0.000000000000000000, -1.000000000000000000 ) ) ;
#418 = VERTEX_POINT ( 'NONE', #656 ) ;
#419 = EDGE_CURVE ( 'NONE', #499, #391, #854, .T. ) ;
#420 = VECTOR ( 'NONE', #171, 1000.000000000000000 ) ;
#421 = AXIS2_PLACEMENT_3D ( 'NONE', #526, #820, #447 ) ;
#422 = CIRCLE ( 'NONE', #469, 1.100000000000003642 ) ;
#423 = FACE_BOUND ( 'NONE', #302, .T. ) ;
#424 = DIRECTION ( 'NONE',  ( -0.000000000000000000, -0.000000000000000000, -1.000000000000000000 ) ) ;
#425 = ORIENTED_EDGE ( 'NONE', *, *, #231, .F. ) ;
#426 =( NAMED_UNIT ( * ) SI_UNIT ( $, .STERADIAN. ) SOLID_ANGLE_UNIT ( ) );
#427 = ADVANCED_FACE ( 'NONE', ( #557 ), #334, .T. ) ;
#428 = CARTESIAN_POINT ( 'NONE',  ( 6.500000000000000000, 18.00000000000000000, 2.000000000000000000 ) ) ;
#429 = EDGE_LOOP ( 'NONE', ( #519, #287, #33, #761 ) ) ;
#430 = APPROVAL_STATUS ( 'not_yet_approved' ) ;
#431 = ADVANCED_FACE ( 'NONE', ( #43 ), #660, .F. ) ;
#432 = FACE_BOUND ( 'NONE', #30, .T. ) ;
#433 = DIRECTION ( 'NONE',  ( -0.000000000000000000, -0.000000000000000000, 1.000000000000000000 ) ) ;
#434 = AXIS2_PLACEMENT_3D ( 'NONE', #847, #537, #462 ) ;
#435 = ORIENTED_EDGE ( 'NONE', *, *, #248, .T. ) ;
#436 = CARTESIAN_POINT ( 'NONE',  ( 0.000000000000000000, 0.000000000000000000, 22.00000000000000000 ) ) ;
#437 = VECTOR ( 'NONE', #815, 1000.000000000000000 ) ;
#438 = APPROVAL_PERSON_ORGANIZATION ( #73, #466, #539 ) ;
#439 = CARTESIAN_POINT ( 'NONE',  ( 69.39999999999999147, 54.00000000000000000, 5.000000000000000888 ) ) ;
#440 = PLANE ( 'NONE',  #636 ) ;
#441 = VERTEX_POINT ( 'NONE', #577 ) ;
#442 = PLANE ( 'NONE',  #467 ) ;
#443 = CARTESIAN_POINT ( 'NONE',  ( 6.500000000000000000, 18.00000000000000000, 5.000000000000000000 ) ) ;
#444 = ORIENTED_EDGE ( 'NONE', *, *, #745, .T. ) ;
#445 = CARTESIAN_POINT ( 'NONE',  ( 9.500000000000001776, 54.00000000000000000, 5.000000000000000000 ) ) ;
#446 = DIRECTION ( 'NONE',  ( 0.000000000000000000, 0.000000000000000000, 1.000000000000000000 ) ) ;
#447 = DIRECTION ( 'NONE',  ( 1.000000000000000000, 0.000000000000000000, 0.000000000000000000 ) ) ;
#448 = EDGE_LOOP ( 'NONE', ( #893, #395, #544, #993 ) ) ;
#449 = CC_DESIGN_DATE_AND_TIME_ASSIGNMENT ( #622, #151, ( #748 ) ) ;
#450 = LINE ( 'NONE', #386, #138 ) ;
#451 = VECTOR ( 'NONE', #873, 1000.000000000000000 ) ;
#452 = LINE ( 'NONE', #61, #839 ) ;
#453 = AXIS2_PLACEMENT_3D ( 'NONE', #655, #723, #41 ) ;
#454 = VERTEX_POINT ( 'NONE', #956 ) ;
#455 = DIRECTION ( 'NONE',  ( -0.000000000000000000, -0.000000000000000000, -1.000000000000000000 ) ) ;
#456 = DIRECTION ( 'NONE',  ( -1.000000000000000000, 0.000000000000000000, 0.000000000000000000 ) ) ;
#457 = EDGE_LOOP ( 'NONE', ( #385, #463, #2, #211 ) ) ;
#458 = DATE_AND_TIME ( #311, #186 ) ;
#459 = CARTESIAN_POINT ( 'NONE',  ( 3.499999999999998668, 54.00000000000000000, 2.000000000000000000 ) ) ;
#460 = CIRCLE ( 'NONE', #91, 1.100000000000000311 ) ;
#461 = ADVANCED_FACE ( 'NONE', ( #23 ), #343, .F. ) ;
#462 = DIRECTION ( 'NONE',  ( 0.000000000000000000, -0.000000000000000000, 1.000000000000000000 ) ) ;
#463 = ORIENTED_EDGE ( 'NONE', *, *, #197, .F. ) ;
#464 = CARTESIAN_POINT ( 'NONE',  ( 2.000000000000000000, 2.000000000000000000, 22.00000000000000000 ) ) ;
#465 = CARTESIAN_POINT ( 'NONE',  ( 9.500000000000000000, 18.00000000000000000, 5.000000000000000000 ) ) ;
#466 = APPROVAL ( #78, 'æœª' ) ;
#467 = AXIS2_PLACEMENT_3D ( 'NONE', #750, #596, #47 ) ;
#468 = AXIS2_PLACEMENT_3D ( 'NONE', #210, #605, #665 ) ;
#469 = AXIS2_PLACEMENT_3D ( 'NONE', #317, #771, #242 ) ;
#470 = ORIENTED_EDGE ( 'NONE', *, *, #791, .T. ) ;
#471 = ADVANCED_FACE ( 'NONE', ( #483 ), #646, .T. ) ;
#472 = DIRECTION ( 'NONE',  ( 0.000000000000000000, 0.000000000000000000, 1.000000000000000000 ) ) ;
#473 = CARTESIAN_POINT ( 'NONE',  ( 70.50000000000000000, 18.00000000000000000, 0.000000000000000000 ) ) ;
#474 = ORIENTED_EDGE ( 'NONE', *, *, #218, .F. ) ;
#475 = ORIENTED_EDGE ( 'NONE', *, *, #218, .T. ) ;
#476 = EDGE_CURVE ( 'NONE', #606, #368, #282, .T. ) ;
#477 = ORIENTED_EDGE ( 'NONE', *, *, #202, .F. ) ;
#478 = CARTESIAN_POINT ( 'NONE',  ( 5.399999999999999467, 18.00000000000000000, 5.000000000000000888 ) ) ;
#479 = DIRECTION ( 'NONE',  ( 0.000000000000000000, 0.000000000000000000, -1.000000000000000000 ) ) ;
#480 = ORIENTED_EDGE ( 'NONE', *, *, #1, .F. ) ;
#481 = ORIENTED_EDGE ( 'NONE', *, *, #671, .F. ) ;
#482 = CARTESIAN_POINT ( 'NONE',  ( 71.59999999999999432, 18.00000000000000000, 22.00000000000000000 ) ) ;
#483 = FACE_OUTER_BOUND ( 'NONE', #647, .T. ) ;
#484 = LINE ( 'NONE', #887, #56 ) ;
#485 = LOCAL_TIME ( 2, 19, 54.00000000000000000, #576 ) ;
#486 = AXIS2_PLACEMENT_3D ( 'NONE', #148, #433, #965 ) ;
#487 = ORIENTED_EDGE ( 'NONE', *, *, #109, .T. ) ;
#488 = DIRECTION ( 'NONE',  ( 0.000000000000000000, 0.000000000000000000, -1.000000000000000000 ) ) ;
#489 = DIRECTION ( 'NONE',  ( 1.000000000000000000, 0.000000000000000000, 0.000000000000000000 ) ) ;
#490 = CARTESIAN_POINT ( 'NONE',  ( 70.50000000000000000, 18.00000000000000000, 0.000000000000000000 ) ) ;
#491 = EDGE_LOOP ( 'NONE', ( #784, #687, #756, #245 ) ) ;
#492 = CARTESIAN_POINT ( 'NONE',  ( 77.00000000000000000, 0.000000000000000000, 22.00000000000000000 ) ) ;
#493 = DIRECTION ( 'NONE',  ( -1.000000000000000000, 0.000000000000000000, 0.000000000000000000 ) ) ;
#494 = EDGE_CURVE ( 'NONE', #727, #560, #19, .T. ) ;
#495 = CARTESIAN_POINT ( 'NONE',  ( 70.50000000000000000, 18.00000000000000000, 2.000000000000000000 ) ) ;
#496 = CARTESIAN_POINT ( 'NONE',  ( 6.500000000000000000, 18.00000000000000000, 5.000000000000000000 ) ) ;
#497 = CARTESIAN_POINT ( 'NONE',  ( 6.500000000000000000, 54.00000000000000000, 5.000000000000000000 ) ) ;
#498 = PRODUCT_DEFINITION ( 'æœ', '', #55, #960 ) ;
#499 = VERTEX_POINT ( 'NONE', #573 ) ;
#500 = ADVANCED_FACE ( 'NONE', ( #886 ), #882, .T. ) ;
#501 = AXIS2_PLACEMENT_3D ( 'NONE', #279, #959, #32 ) ;
#502 = CIRCLE ( 'NONE', #453, 3.000000000000002665 ) ;
#503 = CALENDAR_DATE ( 2026, 13, 9 ) ;
#504 = DIRECTION ( 'NONE',  ( 1.000000000000000000, 0.000000000000000000, 0.000000000000000000 ) ) ;
#505 = EDGE_LOOP ( 'NONE', ( #269, #766, #117, #399 ) ) ;
#506 = EDGE_CURVE ( 'NONE', #127, #913, #531, .T. ) ;
#507 = FACE_BOUND ( 'NONE', #457, .T. ) ;
#508 = LINE ( 'NONE', #829, #888 ) ;
#509 = DIRECTION ( 'NONE',  ( 0.000000000000000000, 0.000000000000000000, -1.000000000000000000 ) ) ;
#510 = ORIENTED_EDGE ( 'NONE', *, *, #419, .T. ) ;
#511 = CARTESIAN_POINT ( 'NONE',  ( 67.49999999999998579, 18.00000000000000000, 5.000000000000000000 ) ) ;
#512 = DIRECTION ( 'NONE',  ( 0.000000000000000000, 0.000000000000000000, -1.000000000000000000 ) ) ;
#513 = ORIENTED_EDGE ( 'NONE', *, *, #506, .F. ) ;
#514 = DIRECTION ( 'NONE',  ( -0.000000000000000000, -0.000000000000000000, -1.000000000000000000 ) ) ;
#515 = AXIS2_PLACEMENT_3D ( 'NONE', #497, #641, #504 ) ;
#516 = VECTOR ( 'NONE', #658, 1000.000000000000000 ) ;
#517 = LINE ( 'NONE', #366, #106 ) ;
#518 = CARTESIAN_POINT ( 'NONE',  ( 2.000000000000000000, 2.000000000000000000, 2.000000000000001776 ) ) ;
#519 = ORIENTED_EDGE ( 'NONE', *, *, #363, .T. ) ;
#520 = DIRECTION ( 'NONE',  ( -1.000000000000000000, 0.000000000000000000, 0.000000000000000000 ) ) ;
#521 = CARTESIAN_POINT ( 'NONE',  ( 70.50000000000000000, 18.00000000000000000, 5.000000000000000000 ) ) ;
#522 = DIRECTION ( 'NONE',  ( -0.000000000000000000, -0.000000000000000000, 1.000000000000000000 ) ) ;
#523 = ADVANCED_FACE ( 'NONE', ( #102 ), #339, .T. ) ;
#524 = ORIENTED_EDGE ( 'NONE', *, *, #568, .F. ) ;
#525 = CARTESIAN_POINT ( 'NONE',  ( 73.50000000000000000, 54.00000000000000000, 5.000000000000000000 ) ) ;
#526 = CARTESIAN_POINT ( 'NONE',  ( 70.50000000000000000, 18.00000000000000000, 5.000000000000000888 ) ) ;
#527 = ORIENTED_EDGE ( 'NONE', *, *, #685, .F. ) ;
#528 = SECURITY_CLASSIFICATION_LEVEL ( 'unclassified' ) ;
#529 = VECTOR ( 'NONE', #51, 1000.000000000000000 ) ;
#530 = CARTESIAN_POINT ( 'NONE',  ( 73.50000000000000000, 18.00000000000000000, 5.000000000000000000 ) ) ;
#531 = CIRCLE ( 'NONE', #515, 3.000000000000001776 ) ;
#532 = LINE ( 'NONE', #160, #9 ) ;
#533 = AXIS2_PLACEMENT_3D ( 'NONE', #897, #592, #376 ) ;
#534 = ORIENTED_EDGE ( 'NONE', *, *, #547, .F. ) ;
#535 = EDGE_CURVE ( 'NONE', #802, #946, #375, .T. ) ;
#536 = DIRECTION ( 'NONE',  ( 0.000000000000000000, 1.000000000000000000, 0.000000000000000000 ) ) ;
#537 = DIRECTION ( 'NONE',  ( -0.000000000000000000, 1.000000000000000000, 0.000000000000000000 ) ) ;
#538 = EDGE_LOOP ( 'NONE', ( #357, #942, #140, #120 ) ) ;
#539 = APPROVAL_ROLE ( '' ) ;
#540 = CC_DESIGN_DATE_AND_TIME_ASSIGNMENT ( #811, #281, ( #498 ) ) ;
#541 = CARTESIAN_POINT ( 'NONE',  ( 70.50000000000000000, 54.00000000000000000, 5.000000000000000000 ) ) ;
#542 = ADVANCED_FACE ( 'NONE', ( #136 ), #819, .F. ) ;
#543 = LINE ( 'NONE', #553, #60 ) ;
#544 = ORIENTED_EDGE ( 'NONE', *, *, #643, .T. ) ;
#545 = DIRECTION ( 'NONE',  ( 0.000000000000000000, 0.000000000000000000, -1.000000000000000000 ) ) ;
#546 = CARTESIAN_POINT ( 'NONE',  ( 0.000000000000000000, 61.00000000000000000, 22.00000000000000000 ) ) ;
#547 = EDGE_CURVE ( 'NONE', #12, #441, #584, .T. ) ;
#548 = AXIS2_PLACEMENT_3D ( 'NONE', #609, #134, #988 ) ;
#549 = AXIS2_PLACEMENT_3D ( 'NONE', #768, #921, #79 ) ;
#550 = ORIENTED_EDGE ( 'NONE', *, *, #172, .F. ) ;
#551 = ORIENTED_EDGE ( 'NONE', *, *, #574, .F. ) ;
#552 = DIRECTION ( 'NONE',  ( 0.000000000000000000, -1.000000000000000000, 0.000000000000000000 ) ) ;
#553 = CARTESIAN_POINT ( 'NONE',  ( 5.400000000000000355, 54.00000000000000000, 22.00000000000000000 ) ) ;
#554 = EDGE_LOOP ( 'NONE', ( #95, #843, #615, #789 ) ) ;
#555 = VERTEX_POINT ( 'NONE', #439 ) ;
#556 = LINE ( 'NONE', #492, #89 ) ;
#557 = FACE_OUTER_BOUND ( 'NONE', #216, .T. ) ;
#558 = ORIENTED_EDGE ( 'NONE', *, *, #736, .T. ) ;
#559 = EDGE_CURVE ( 'NONE', #946, #593, #184, .T. ) ;
#560 = VERTEX_POINT ( 'NONE', #511 ) ;
#561 = FACE_OUTER_BOUND ( 'NONE', #644, .T. ) ;
#562 = LINE ( 'NONE', #800, #451 ) ;
#563 = CARTESIAN_POINT ( 'NONE',  ( 6.500000000000000000, 54.00000000000000000, 5.000000000000000888 ) ) ;
#564 = AXIS2_PLACEMENT_3D ( 'NONE', #130, #741, #663 ) ;
#565 = AXIS2_PLACEMENT_3D ( 'NONE', #633, #74, #247 ) ;
#566 = ORIENTED_EDGE ( 'NONE', *, *, #850, .T. ) ;
#567 = DIRECTION ( 'NONE',  ( 0.000000000000000000, 0.000000000000000000, -1.000000000000000000 ) ) ;
#568 = EDGE_CURVE ( 'NONE', #368, #606, #314, .T. ) ;
#569 = CARTESIAN_POINT ( 'NONE',  ( 0.000000000000000000, 0.000000000000000000, 0.000000000000000000 ) ) ;
#570 = ORIENTED_EDGE ( 'NONE', *, *, #248, .F. ) ;
#571 = VECTOR ( 'NONE', #479, 1000.000000000000000 ) ;
#572 = DIRECTION ( 'NONE',  ( 1.000000000000000000, 0.000000000000000000, 0.000000000000000000 ) ) ;
#573 = CARTESIAN_POINT ( 'NONE',  ( 5.400000000000000355, 54.00000000000000000, 5.000000000000000888 ) ) ;
#574 = EDGE_CURVE ( 'NONE', #418, #454, #508, .T. ) ;
#575 = CARTESIAN_POINT ( 'NONE',  ( 6.500000000000000000, 54.00000000000000000, 2.000000000000000000 ) ) ;
#576 = COORDINATED_UNIVERSAL_TIME_OFFSET ( 8, 0, .AHEAD. ) ;
#577 = CARTESIAN_POINT ( 'NONE',  ( 0.000000000000000000, 0.000000000000000000, 0.000000000000000000 ) ) ;
#578 = DIRECTION ( 'NONE',  ( -1.000000000000000000, 0.000000000000000000, 0.000000000000000000 ) ) ;
#579 = ADVANCED_FACE ( 'NONE', ( #432, #147, #591, #294, #361 ), #442, .T. ) ;
#580 = CIRCLE ( 'NONE', #52, 1.100000000000003642 ) ;
#581 = CIRCLE ( 'NONE', #468, 1.100000000000003642 ) ;
#582 = VECTOR ( 'NONE', #26, 1000.000000000000000 ) ;
#583 = APPLICATION_PROTOCOL_DEFINITION ( 'international standard', 'config_control_design', 1994, #740 ) ;
#584 = LINE ( 'NONE', #754, #529 ) ;
#585 = CARTESIAN_POINT ( 'NONE',  ( 67.49999999999998579, 54.00000000000000000, 2.000000000000000000 ) ) ;
#586 = APPROVAL ( #67, 'æœª' ) ;
#587 = CIRCLE ( 'NONE', #825, 3.000000000000000888 ) ;
#588 = EDGE_LOOP ( 'NONE', ( #180, #259 ) ) ;
#589 = VERTEX_POINT ( 'NONE', #891 ) ;
#590 = CARTESIAN_POINT ( 'NONE',  ( 6.500000000000000000, 18.00000000000000000, 0.000000000000000000 ) ) ;
#591 = FACE_BOUND ( 'NONE', #781, .T. ) ;
#592 = DIRECTION ( 'NONE',  ( 0.000000000000000000, 0.000000000000000000, -1.000000000000000000 ) ) ;
#593 = VERTEX_POINT ( 'NONE', #355 ) ;
#594 = DIRECTION ( 'NONE',  ( 0.000000000000000000, 0.000000000000000000, 1.000000000000000000 ) ) ;
#595 = PRODUCT_DEFINITION_SHAPE ( 'NONE', 'NONE',  #498 ) ;
#596 = DIRECTION ( 'NONE',  ( 0.000000000000000000, 0.000000000000000000, -1.000000000000000000 ) ) ;
#597 = DIRECTION ( 'NONE',  ( -1.000000000000000000, 0.000000000000000000, 0.000000000000000000 ) ) ;
#598 = EDGE_LOOP ( 'NONE', ( #943, #903 ) ) ;
#599 = LINE ( 'NONE', #436, #284 ) ;
#600 = CIRCLE ( 'NONE', #169, 1.100000000000000311 ) ;
#601 = AXIS2_PLACEMENT_3D ( 'NONE', #443, #755, #901 ) ;
#602 = CC_DESIGN_APPROVAL ( #8, ( #55 ) ) ;
#603 = EDGE_CURVE ( 'NONE', #632, #191, #900, .T. ) ;
#604 = LINE ( 'NONE', #907, #437 ) ;
#605 = DIRECTION ( 'NONE',  ( 0.000000000000000000, 0.000000000000000000, 1.000000000000000000 ) ) ;
#606 = VERTEX_POINT ( 'NONE', #896 ) ;
#607 = MANIFOLD_SOLID_BREP ( 'ÇÐ³ý-À­Éì2', #874 ) ;
#608 = DIRECTION ( 'NONE',  ( -0.000000000000000000, -0.000000000000000000, -1.000000000000000000 ) ) ;
#609 = CARTESIAN_POINT ( 'NONE',  ( 70.50000000000000000, 54.00000000000000000, 5.000000000000000000 ) ) ;
#610 = EDGE_CURVE ( 'NONE', #978, #99, #59, .T. ) ;
#611 = ORIENTED_EDGE ( 'NONE', *, *, #894, .T. ) ;
#612 = FACE_OUTER_BOUND ( 'NONE', #706, .T. ) ;
#613 = FACE_OUTER_BOUND ( 'NONE', #554, .T. ) ;
#614 = EDGE_CURVE ( 'NONE', #632, #336, #517, .T. ) ;
#615 = ORIENTED_EDGE ( 'NONE', *, *, #94, .F. ) ;
#616 = ORIENTED_EDGE ( 'NONE', *, *, #402, .T. ) ;
#617 = CIRCLE ( 'NONE', #635, 1.100000000000003642 ) ;
#618 = CARTESIAN_POINT ( 'NONE',  ( 77.00000000000000000, 0.000000000000000000, 0.000000000000000000 ) ) ;
#619 = AXIS2_PLACEMENT_3D ( 'NONE', #308, #393, #170 ) ;
#620 = DIRECTION ( 'NONE',  ( 1.000000000000000000, 0.000000000000000000, 0.000000000000000000 ) ) ;
#621 = VERTEX_POINT ( 'NONE', #297 ) ;
#622 = DATE_AND_TIME ( #688, #315 ) ;
#623 = DIRECTION ( 'NONE',  ( 0.000000000000000000, -0.000000000000000000, -1.000000000000000000 ) ) ;
#624 = LINE ( 'NONE', #394, #420 ) ;
#625 = VERTEX_POINT ( 'NONE', #822 ) ;
#626 = CARTESIAN_POINT ( 'NONE',  ( 71.59999999999999432, 54.00000000000000000, 22.00000000000000000 ) ) ;
#627 = EDGE_CURVE ( 'NONE', #336, #77, #604, .T. ) ;
#628 = CARTESIAN_POINT ( 'NONE',  ( 70.50000000000000000, 18.00000000000000000, 22.00000000000000000 ) ) ;
#629 = PERSON ( 'æœª', 'æœª', 'æœª', ('æœª'), ('æœª'), ('æœª') ) ;
#630 = ORIENTED_EDGE ( 'NONE', *, *, #158, .T. ) ;
#631 = VERTEX_POINT ( 'NONE', #304 ) ;
#632 = VERTEX_POINT ( 'NONE', #133 ) ;
#633 = CARTESIAN_POINT ( 'NONE',  ( 6.500000000000000000, 54.00000000000000000, 5.000000000000000000 ) ) ;
#634 = CARTESIAN_POINT ( 'NONE',  ( 7.599999999999999645, 18.00000000000000000, 0.000000000000000000 ) ) ;
#635 = AXIS2_PLACEMENT_3D ( 'NONE', #731, #424, #114 ) ;
#636 = AXIS2_PLACEMENT_3D ( 'NONE', #53, #830, #816 ) ;
#637 = AXIS2_PLACEMENT_3D ( 'NONE', #288, #365, #58 ) ;
#638 = EDGE_LOOP ( 'NONE', ( #732, #932, #164, #675 ) ) ;
#639 = EDGE_LOOP ( 'NONE', ( #695, #550, #630, #178 ) ) ;
#640 = FACE_BOUND ( 'NONE', #773, .T. ) ;
#641 = DIRECTION ( 'NONE',  ( 0.000000000000000000, 0.000000000000000000, 1.000000000000000000 ) ) ;
#642 = ORIENTED_EDGE ( 'NONE', *, *, #335, .F. ) ;
#643 = EDGE_CURVE ( 'NONE', #555, #135, #744, .T. ) ;
#644 = EDGE_LOOP ( 'NONE', ( #859, #923 ) ) ;
#645 = LINE ( 'NONE', #944, #857 ) ;
#646 = PLANE ( 'NONE',  #733 ) ;
#647 = EDGE_LOOP ( 'NONE', ( #435, #566, #480, #797 ) ) ;
#648 = EDGE_CURVE ( 'NONE', #560, #727, #3, .T. ) ;
#649 = ORIENTED_EDGE ( 'NONE', *, *, #685, .T. ) ;
#650 = DIRECTION ( 'NONE',  ( -0.000000000000000000, -0.000000000000000000, -1.000000000000000000 ) ) ;
#651 = CARTESIAN_POINT ( 'NONE',  ( 70.50000000000000000, 18.00000000000000000, 22.00000000000000000 ) ) ;
#652 = FACE_OUTER_BOUND ( 'NONE', #353, .T. ) ;
#653 = AXIS2_PLACEMENT_3D ( 'NONE', #842, #16, #787 ) ;
#654 = VECTOR ( 'NONE', #567, 1000.000000000000000 ) ;
#655 = CARTESIAN_POINT ( 'NONE',  ( 70.50000000000000000, 54.00000000000000000, 2.000000000000000000 ) ) ;
#656 = CARTESIAN_POINT ( 'NONE',  ( 77.00000000000000000, 61.00000000000000000, 22.00000000000000000 ) ) ;
#657 = VERTEX_POINT ( 'NONE', #812 ) ;
#658 = DIRECTION ( 'NONE',  ( -0.000000000000000000, -0.000000000000000000, -1.000000000000000000 ) ) ;
#659 = EDGE_CURVE ( 'NONE', #657, #267, #918, .T. ) ;
#660 = CYLINDRICAL_SURFACE ( 'NONE', #501, 1.100000000000000311 ) ;
#661 = ORIENTED_EDGE ( 'NONE', *, *, #66, .T. ) ;
#662 = PERSON_AND_ORGANIZATION_ROLE ( 'creator' ) ;
#663 = DIRECTION ( 'NONE',  ( -1.000000000000000000, 0.000000000000000000, 0.000000000000000000 ) ) ;
#664 = PRODUCT_RELATED_PRODUCT_CATEGORY ( 'detail', '', ( #303 ) ) ;
#665 = DIRECTION ( 'NONE',  ( 1.000000000000000000, 0.000000000000000000, 0.000000000000000000 ) ) ;
#666 = VECTOR ( 'NONE', #189, 1000.000000000000000 ) ;
#667 = ORIENTED_EDGE ( 'NONE', *, *, #202, .T. ) ;
#668 = CIRCLE ( 'NONE', #935, 1.100000000000003642 ) ;
#669 = CARTESIAN_POINT ( 'NONE',  ( 3.499999999999999556, 18.00000000000000000, 5.000000000000000000 ) ) ;
#670 = DIRECTION ( 'NONE',  ( -1.000000000000000000, -0.000000000000000000, -0.000000000000000000 ) ) ;
#671 = EDGE_CURVE ( 'NONE', #323, #161, #600, .T. ) ;
#672 = ORIENTED_EDGE ( 'NONE', *, *, #826, .F. ) ;
#673 = CARTESIAN_POINT ( 'NONE',  ( 6.500000000000000000, 18.00000000000000000, 22.00000000000000000 ) ) ;
#674 = CARTESIAN_POINT ( 'NONE',  ( 71.59999999999999432, 54.00000000000000000, 5.000000000000000888 ) ) ;
#675 = ORIENTED_EDGE ( 'NONE', *, *, #614, .T. ) ;
#676 = ADVANCED_FACE ( 'NONE', ( #90 ), #990, .F. ) ;
#677 = DIRECTION ( 'NONE',  ( 1.000000000000000000, 0.000000000000000000, 0.000000000000000000 ) ) ;
#678 = DIRECTION ( 'NONE',  ( -1.000000000000000000, -0.000000000000000000, -0.000000000000000000 ) ) ;
#679 = CARTESIAN_POINT ( 'NONE',  ( 2.000000000000000000, 59.00000000000000000, 2.000000000000001776 ) ) ;
#680 = ORIENTED_EDGE ( 'NONE', *, *, #535, .T. ) ;
#681 = PERSON_AND_ORGANIZATION_ROLE ( 'classification_officer' ) ;
#682 = AXIS2_PLACEMENT_3D ( 'NONE', #110, #793, #807 ) ;
#683 = VECTOR ( 'NONE', #146, 1000.000000000000000 ) ;
#684 = CARTESIAN_POINT ( 'NONE',  ( 2.000000000000000000, 59.00000000000000000, 22.00000000000000000 ) ) ;
#685 = EDGE_CURVE ( 'NONE', #112, #323, #764, .T. ) ;
#686 = CARTESIAN_POINT ( 'NONE',  ( 69.39999999999999147, 18.00000000000000000, 22.00000000000000000 ) ) ;
#687 = ORIENTED_EDGE ( 'NONE', *, *, #757, .T. ) ;
#688 = CALENDAR_DATE ( 2026, 13, 9 ) ;
#689 = DIRECTION ( 'NONE',  ( 1.000000000000000000, 0.000000000000000000, -0.000000000000000000 ) ) ;
#690 = EDGE_CURVE ( 'NONE', #336, #877, #233, .T. ) ;
#691 = DIRECTION ( 'NONE',  ( 0.000000000000000000, 0.000000000000000000, -1.000000000000000000 ) ) ;
#692 = ORIENTED_EDGE ( 'NONE', *, *, #506, .T. ) ;
#693 = CARTESIAN_POINT ( 'NONE',  ( 2.000000000000000000, 59.00000000000000000, 22.00000000000000000 ) ) ;
#694 = CARTESIAN_POINT ( 'NONE',  ( 70.50000000000000000, 54.00000000000000000, 22.00000000000000000 ) ) ;
#695 = ORIENTED_EDGE ( 'NONE', *, *, #924, .F. ) ;
#696 = SHAPE_DEFINITION_REPRESENTATION ( #595, #190 ) ;
#697 = VECTOR ( 'NONE', #849, 1000.000000000000000 ) ;
#698 = DIRECTION ( 'NONE',  ( 0.000000000000000000, 0.000000000000000000, -1.000000000000000000 ) ) ;
#699 = AXIS2_PLACEMENT_3D ( 'NONE', #954, #488, #798 ) ;
#700 = CARTESIAN_POINT ( 'NONE',  ( 6.500000000000000000, 18.00000000000000000, 5.000000000000000888 ) ) ;
#701 = ORIENTED_EDGE ( 'NONE', *, *, #345, .T. ) ;
#702 = LINE ( 'NONE', #626, #763 ) ;
#703 = DIRECTION ( 'NONE',  ( -0.000000000000000000, -0.000000000000000000, -1.000000000000000000 ) ) ;
#704 = ORIENTED_EDGE ( 'NONE', *, *, #158, .F. ) ;
#705 = EDGE_CURVE ( 'NONE', #116, #625, #702, .T. ) ;
#706 = EDGE_LOOP ( 'NONE', ( #103, #692 ) ) ;
#707 = FACE_OUTER_BOUND ( 'NONE', #415, .T. ) ;
#708 = DIRECTION ( 'NONE',  ( 0.000000000000000000, 0.000000000000000000, 1.000000000000000000 ) ) ;
#709 = ORIENTED_EDGE ( 'NONE', *, *, #227, .T. ) ;
#710 = EDGE_LOOP ( 'NONE', ( #332, #742 ) ) ;
#711 = CARTESIAN_POINT ( 'NONE',  ( 0.000000000000000000, 0.000000000000000000, 22.00000000000000000 ) ) ;
#712 = ADVANCED_FACE ( 'NONE', ( #928, #612 ), #312, .T. ) ;
#713 = CARTESIAN_POINT ( 'NONE',  ( 6.500000000000000000, 54.00000000000000000, 0.000000000000000000 ) ) ;
#714 = VECTOR ( 'NONE', #266, 1000.000000000000000 ) ;
#715 = AXIS2_PLACEMENT_3D ( 'NONE', #693, #96, #623 ) ;
#716 = ORIENTED_EDGE ( 'NONE', *, *, #494, .F. ) ;
#717 = VERTEX_POINT ( 'NONE', #459 ) ;
#718 = LINE ( 'NONE', #265, #582 ) ;
#719 = DIRECTION ( 'NONE',  ( 1.000000000000000000, 0.000000000000000000, 0.000000000000000000 ) ) ;
#720 = ADVANCED_FACE ( 'NONE', ( #707 ), #165, .T. ) ;
#721 = ORIENTED_EDGE ( 'NONE', *, *, #659, .T. ) ;
#722 = VERTEX_POINT ( 'NONE', #239 ) ;
#723 = DIRECTION ( 'NONE',  ( -0.000000000000000000, -0.000000000000000000, 1.000000000000000000 ) ) ;
#724 = CARTESIAN_POINT ( 'NONE',  ( 70.50000000000000000, 54.00000000000000000, 5.000000000000000000 ) ) ;
#725 = UNCERTAINTY_MEASURE_WITH_UNIT (LENGTH_MEASURE( 1.000000000000000082E-05 ), #906, 'distance_accuracy_value', 'NONE');
#726 = CC_DESIGN_PERSON_AND_ORGANIZATION_ASSIGNMENT ( #774, #379, ( #55 ) ) ;
#727 = VERTEX_POINT ( 'NONE', #530 ) ;
#728 = EDGE_CURVE ( 'NONE', #12, #589, #841, .T. ) ;
#729 = ORIENTED_EDGE ( 'NONE', *, *, #955, .T. ) ;
#730 = LINE ( 'NONE', #199, #516 ) ;
#731 = CARTESIAN_POINT ( 'NONE',  ( 70.50000000000000000, 54.00000000000000000, 5.000000000000000888 ) ) ;
#732 = ORIENTED_EDGE ( 'NONE', *, *, #690, .T. ) ;
#733 = AXIS2_PLACEMENT_3D ( 'NONE', #403, #493, #409 ) ;
#734 = AXIS2_PLACEMENT_3D ( 'NONE', #64, #285, #751 ) ;
#735 = LOCAL_TIME ( 2, 19, 54.00000000000000000, #914 ) ;
#736 = EDGE_CURVE ( 'NONE', #116, #555, #422, .T. ) ;
#737 = DIRECTION ( 'NONE',  ( 1.000000000000000000, 0.000000000000000000, -0.000000000000000000 ) ) ;
#738 = LINE ( 'NONE', #569, #714 ) ;
#739 = ORIENTED_EDGE ( 'NONE', *, *, #745, .F. ) ;
#740 = APPLICATION_CONTEXT ( 'configuration controlled 3d designs of mechanical parts and assemblies' ) ;
#741 = DIRECTION ( 'NONE',  ( -0.000000000000000000, -0.000000000000000000, 1.000000000000000000 ) ) ;
#742 = ORIENTED_EDGE ( 'NONE', *, *, #659, .F. ) ;
#743 = FACE_OUTER_BOUND ( 'NONE', #340, .T. ) ;
#744 = LINE ( 'NONE', #225, #104 ) ;
#745 = EDGE_CURVE ( 'NONE', #978, #780, #72, .T. ) ;
#746 = CYLINDRICAL_SURFACE ( 'NONE', #734, 3.000000000000000000 ) ;
#747 = ORIENTED_EDGE ( 'NONE', *, *, #263, .F. ) ;
#748 = SECURITY_CLASSIFICATION ( '', '', #528 ) ;
#749 = PERSON_AND_ORGANIZATION ( #629, #889 ) ;
#750 = CARTESIAN_POINT ( 'NONE',  ( 0.000000000000000000, 0.000000000000000000, 0.000000000000000000 ) ) ;
#751 = DIRECTION ( 'NONE',  ( -1.000000000000000000, 0.000000000000000000, 0.000000000000000000 ) ) ;
#752 = ADVANCED_FACE ( 'NONE', ( #782 ), #326, .T. ) ;
#753 = ORIENTED_EDGE ( 'NONE', *, *, #574, .T. ) ;
#754 = CARTESIAN_POINT ( 'NONE',  ( 0.000000000000000000, 0.000000000000000000, 22.00000000000000000 ) ) ;
#755 = DIRECTION ( 'NONE',  ( 0.000000000000000000, 0.000000000000000000, 1.000000000000000000 ) ) ;
#756 = ORIENTED_EDGE ( 'NONE', *, *, #298, .T. ) ;
#757 = EDGE_CURVE ( 'NONE', #291, #593, #834, .T. ) ;
#758 = PLANE ( 'NONE',  #637 ) ;
#759 = DIRECTION ( 'NONE',  ( -1.000000000000000000, 0.000000000000000000, 0.000000000000000000 ) ) ;
#760 = CARTESIAN_POINT ( 'NONE',  ( 69.39999999999999147, 18.00000000000000000, 5.000000000000000888 ) ) ;
#761 = ORIENTED_EDGE ( 'NONE', *, *, #547, .T. ) ;
#762 = ADVANCED_FACE ( 'NONE', ( #776 ), #162, .T. ) ;
#763 = VECTOR ( 'NONE', #545, 1000.000000000000000 ) ;
#764 = LINE ( 'NONE', #925, #697 ) ;
#765 = DIRECTION ( 'NONE',  ( 1.000000000000000000, 0.000000000000000000, 0.000000000000000000 ) ) ;
#766 = ORIENTED_EDGE ( 'NONE', *, *, #648, .F. ) ;
#767 = COORDINATED_UNIVERSAL_TIME_OFFSET ( 8, 0, .AHEAD. ) ;
#768 = CARTESIAN_POINT ( 'NONE',  ( 70.50000000000000000, 54.00000000000000000, 5.000000000000000000 ) ) ;
#769 = CARTESIAN_POINT ( 'NONE',  ( 2.000000000000000000, 2.000000000000000000, 22.00000000000000000 ) ) ;
#770 = EDGE_LOOP ( 'NONE', ( #611, #534, #86, #149 ) ) ;
#771 = DIRECTION ( 'NONE',  ( -0.000000000000000000, -0.000000000000000000, -1.000000000000000000 ) ) ;
#772 = DIRECTION ( 'NONE',  ( 0.000000000000000000, 1.000000000000000000, 0.000000000000000000 ) ) ;
#773 = EDGE_LOOP ( 'NONE', ( #307, #475 ) ) ;
#774 = PERSON_AND_ORGANIZATION ( #629, #889 ) ;
#775 = AXIS2_PLACEMENT_3D ( 'NONE', #694, #691, #309 ) ;
#776 = FACE_OUTER_BOUND ( 'NONE', #244, .T. ) ;
#777 = AXIS2_PLACEMENT_3D ( 'NONE', #711, #572, #878 ) ;
#778 = CYLINDRICAL_SURFACE ( 'NONE', #653, 1.100000000000003642 ) ;
#779 = EDGE_CURVE ( 'NONE', #291, #802, #331, .T. ) ;
#780 = VERTEX_POINT ( 'NONE', #525 ) ;
#781 = EDGE_LOOP ( 'NONE', ( #808, #414 ) ) ;
#782 = FACE_OUTER_BOUND ( 'NONE', #382, .T. ) ;
#783 = PLANE ( 'NONE',  #87 ) ;
#784 = ORIENTED_EDGE ( 'NONE', *, *, #779, .F. ) ;
#785 = VERTEX_POINT ( 'NONE', #152 ) ;
#786 = FACE_OUTER_BOUND ( 'NONE', #598, .T. ) ;
#787 = DIRECTION ( 'NONE',  ( -1.000000000000000000, 0.000000000000000000, 0.000000000000000000 ) ) ;
#788 = ORIENTED_EDGE ( 'NONE', *, *, #1, .T. ) ;
#789 = ORIENTED_EDGE ( 'NONE', *, *, #643, .F. ) ;
#790 = FACE_BOUND ( 'NONE', #870, .T. ) ;
#791 = EDGE_CURVE ( 'NONE', #722, #407, #994, .T. ) ;
#792 = AXIS2_PLACEMENT_3D ( 'NONE', #428, #142, #214 ) ;
#793 = DIRECTION ( 'NONE',  ( -0.000000000000000000, -0.000000000000000000, -1.000000000000000000 ) ) ;
#794 = APPROVAL_PERSON_ORGANIZATION ( #958, #586, #373 ) ;
#795 = AXIS2_PLACEMENT_3D ( 'NONE', #111, #953, #578 ) ;
#796 = DIRECTION ( 'NONE',  ( 1.000000000000000000, 0.000000000000000000, 0.000000000000000000 ) ) ;
#797 = ORIENTED_EDGE ( 'NONE', *, *, #46, .T. ) ;
#798 = DIRECTION ( 'NONE',  ( -1.000000000000000000, 0.000000000000000000, -0.000000000000000000 ) ) ;
#799 = VECTOR ( 'NONE', #835, 1000.000000000000000 ) ;
#800 = CARTESIAN_POINT ( 'NONE',  ( 73.50000000000000000, 18.00000000000000000, 5.000000000000000000 ) ) ;
#801 = DIRECTION ( 'NONE',  ( 0.000000000000000000, 0.000000000000000000, 1.000000000000000000 ) ) ;
#802 = VERTEX_POINT ( 'NONE', #83 ) ;
#803 = DIRECTION ( 'NONE',  ( 1.000000000000000000, 0.000000000000000000, 0.000000000000000000 ) ) ;
#804 = CARTESIAN_POINT ( 'NONE',  ( 7.599999999999998757, 54.00000000000000000, 5.000000000000000888 ) ) ;
#805 = ORIENTED_EDGE ( 'NONE', *, *, #610, .F. ) ;
#806 = DIRECTION ( 'NONE',  ( 0.000000000000000000, 0.000000000000000000, 1.000000000000000000 ) ) ;
#807 = DIRECTION ( 'NONE',  ( 1.000000000000000000, 0.000000000000000000, 0.000000000000000000 ) ) ;
#808 = ORIENTED_EDGE ( 'NONE', *, *, #94, .T. ) ;
#809 = AXIS2_PLACEMENT_3D ( 'NONE', #991, #92, #456 ) ;
#810 = VECTOR ( 'NONE', #803, 1000.000000000000000 ) ;
#811 = DATE_AND_TIME ( #503, #485 ) ;
#812 = CARTESIAN_POINT ( 'NONE',  ( 73.50000000000000000, 18.00000000000000000, 2.000000000000000000 ) ) ;
#813 = DIRECTION ( 'NONE',  ( -1.000000000000000000, 0.000000000000000000, 0.000000000000000000 ) ) ;
#814 = EDGE_CURVE ( 'NONE', #821, #161, #450, .T. ) ;
#815 = DIRECTION ( 'NONE',  ( 1.000000000000000000, 0.000000000000000000, 0.000000000000000000 ) ) ;
#816 = DIRECTION ( 'NONE',  ( 0.000000000000000000, -0.000000000000000000, -1.000000000000000000 ) ) ;
#817 = ORIENTED_EDGE ( 'NONE', *, *, #671, .T. ) ;
#818 = EDGE_CURVE ( 'NONE', #191, #852, #5, .T. ) ;
#819 = CYLINDRICAL_SURFACE ( 'NONE', #36, 1.100000000000000311 ) ;
#820 = DIRECTION ( 'NONE',  ( -0.000000000000000000, -0.000000000000000000, -1.000000000000000000 ) ) ;
#821 = VERTEX_POINT ( 'NONE', #478 ) ;
#822 = CARTESIAN_POINT ( 'NONE',  ( 71.59999999999999432, 54.00000000000000000, 0.000000000000000000 ) ) ;
#823 = CC_DESIGN_PERSON_AND_ORGANIZATION_ASSIGNMENT ( #238, #681, ( #748 ) ) ;
#824 = CARTESIAN_POINT ( 'NONE',  ( 5.399999999999999467, 18.00000000000000000, 0.000000000000000000 ) ) ;
#825 = AXIS2_PLACEMENT_3D ( 'NONE', #221, #522, #597 ) ;
#826 = EDGE_CURVE ( 'NONE', #99, #241, #502, .T. ) ;
#827 = ORIENTED_EDGE ( 'NONE', *, *, #197, .T. ) ;
#828 = PERSON_AND_ORGANIZATION_ROLE ( 'design_owner' ) ;
#829 = CARTESIAN_POINT ( 'NONE',  ( 0.000000000000000000, 61.00000000000000000, 22.00000000000000000 ) ) ;
#830 = DIRECTION ( 'NONE',  ( 0.000000000000000000, -1.000000000000000000, 0.000000000000000000 ) ) ;
#831 = ADVANCED_FACE ( 'NONE', ( #423, #561 ), #401, .T. ) ;
#832 = ORIENTED_EDGE ( 'NONE', *, *, #559, .T. ) ;
#833 = APPROVAL_DATE_TIME ( #458, #8 ) ;
#834 = LINE ( 'NONE', #159, #223 ) ;
#835 = DIRECTION ( 'NONE',  ( -1.000000000000000000, -0.000000000000000000, -0.000000000000000000 ) ) ;
#836 = EDGE_LOOP ( 'NONE', ( #250, #262, #947, #18 ) ) ;
#837 = APPROVAL_DATE_TIME ( #246, #466 ) ;
#838 = AXIS2_PLACEMENT_3D ( 'NONE', #272, #196, #124 ) ;
#839 = VECTOR ( 'NONE', #69, 1000.000000000000000 ) ;
#840 =( GEOMETRIC_REPRESENTATION_CONTEXT ( 3 ) GLOBAL_UNCERTAINTY_ASSIGNED_CONTEXT ( ( #725 ) ) GLOBAL_UNIT_ASSIGNED_CONTEXT ( ( #906, #975, #426 ) ) REPRESENTATION_CONTEXT ( 'NONE', 'WORKASPACE' ) );
#841 = LINE ( 'NONE', #380, #377 ) ;
#842 = CARTESIAN_POINT ( 'NONE',  ( 70.50000000000000000, 54.00000000000000000, 22.00000000000000000 ) ) ;
#843 = ORIENTED_EDGE ( 'NONE', *, *, #705, .T. ) ;
#844 = CIRCLE ( 'NONE', #192, 1.100000000000000311 ) ;
#845 = DIRECTION ( 'NONE',  ( 1.000000000000000000, 0.000000000000000000, 0.000000000000000000 ) ) ;
#846 = EDGE_CURVE ( 'NONE', #913, #717, #730, .T. ) ;
#847 = CARTESIAN_POINT ( 'NONE',  ( 2.000000000000000000, 2.000000000000000000, 22.00000000000000000 ) ) ;
#848 = ORIENTED_EDGE ( 'NONE', *, *, #603, .T. ) ;
#849 = DIRECTION ( 'NONE',  ( 0.000000000000000000, 0.000000000000000000, -1.000000000000000000 ) ) ;
#850 = EDGE_CURVE ( 'NONE', #852, #631, #645, .T. ) ;
#851 = LINE ( 'NONE', #177, #571 ) ;
#852 = VERTEX_POINT ( 'NONE', #118 ) ;
#853 = CALENDAR_DATE ( 2026, 13, 9 ) ;
#854 = CIRCLE ( 'NONE', #682, 1.099999999999999423 ) ;
#855 = DIRECTION ( 'NONE',  ( 1.000000000000000000, 0.000000000000000000, 0.000000000000000000 ) ) ;
#856 = CIRCLE ( 'NONE', #421, 1.100000000000003642 ) ;
#857 = VECTOR ( 'NONE', #552, 1000.000000000000000 ) ;
#858 = FACE_OUTER_BOUND ( 'NONE', #910, .T. ) ;
#859 = ORIENTED_EDGE ( 'NONE', *, *, #648, .T. ) ;
#860 = EDGE_CURVE ( 'NONE', #625, #135, #668, .T. ) ;
#861 = VERTEX_POINT ( 'NONE', #20 ) ;
#862 = CARTESIAN_POINT ( 'NONE',  ( 2.000000000000000000, 2.000000000000000000, 22.00000000000000000 ) ) ;
#863 = DIRECTION ( 'NONE',  ( 0.000000000000000000, 0.000000000000000000, -1.000000000000000000 ) ) ;
#864 = ORIENTED_EDGE ( 'NONE', *, *, #167, .F. ) ;
#865 = ADVANCED_FACE ( 'NONE', ( #408 ), #881, .F. ) ;
#866 = EDGE_LOOP ( 'NONE', ( #264, #71, #680, #832 ) ) ;
#867 = DIRECTION ( 'NONE',  ( 0.000000000000000000, 0.000000000000000000, 1.000000000000000000 ) ) ;
#868 = DIRECTION ( 'NONE',  ( -1.000000000000000000, 0.000000000000000000, 0.000000000000000000 ) ) ;
#869 = ORIENTED_EDGE ( 'NONE', *, *, #179, .F. ) ;
#870 = EDGE_LOOP ( 'NONE', ( #970, #477 ) ) ;
#871 = FACE_OUTER_BOUND ( 'NONE', #638, .T. ) ;
#872 = VECTOR ( 'NONE', #972, 1000.000000000000000 ) ;
#873 = DIRECTION ( 'NONE',  ( -0.000000000000000000, -0.000000000000000000, -1.000000000000000000 ) ) ;
#874 = CLOSED_SHELL ( 'NONE', ( #431, #320, #144, #292, #762, #500, #427, #150, #908, #258, #471, #752, #986, #579, #865, #286, #351, #75, #929, #523, #883, #961, #831, #720, #712, #29, #80, #327, #676, #461, #542 ) ) ;
#875 = VECTOR ( 'NONE', #536, 1000.000000000000000 ) ;
#876 = DIRECTION ( 'NONE',  ( 0.000000000000000000, 1.000000000000000000, 0.000000000000000000 ) ) ;
#877 = VERTEX_POINT ( 'NONE', #194 ) ;
#878 = DIRECTION ( 'NONE',  ( 0.000000000000000000, 0.000000000000000000, -1.000000000000000000 ) ) ;
#879 = DIRECTION ( 'NONE',  ( -1.000000000000000000, 0.000000000000000000, 0.000000000000000000 ) ) ;
#880 = DIRECTION ( 'NONE',  ( 1.000000000000000000, 0.000000000000000000, 0.000000000000000000 ) ) ;
#881 = PLANE ( 'NONE',  #777 ) ;
#882 = CYLINDRICAL_SURFACE ( 'NONE', #268, 3.000000000000000888 ) ;
#883 = ADVANCED_FACE ( 'NONE', ( #640, #786 ), #416, .T. ) ;
#884 = ORIENTED_EDGE ( 'NONE', *, *, #627, .T. ) ;
#885 = CARTESIAN_POINT ( 'NONE',  ( 67.49999999999998579, 54.00000000000000000, 5.000000000000000000 ) ) ;
#886 = FACE_OUTER_BOUND ( 'NONE', #139, .T. ) ;
#887 = CARTESIAN_POINT ( 'NONE',  ( 75.00000000000000000, 2.000000000000000000, 22.00000000000000000 ) ) ;
#888 = VECTOR ( 'NONE', #678, 1000.000000000000000 ) ;
#889 = ORGANIZATION ( 'æœª', 'æœª', '' ) ;
#890 = PERSON_AND_ORGANIZATION ( #629, #889 ) ;
#891 = CARTESIAN_POINT ( 'NONE',  ( 77.00000000000000000, 0.000000000000000000, 22.00000000000000000 ) ) ;
#892 = LINE ( 'NONE', #909, #301 ) ;
#893 = ORIENTED_EDGE ( 'NONE', *, *, #705, .F. ) ;
#894 = EDGE_CURVE ( 'NONE', #329, #441, #718, .T. ) ;
#895 = CARTESIAN_POINT ( 'NONE',  ( 3.499999999999999556, 18.00000000000000000, 2.000000000000000000 ) ) ;
#896 = CARTESIAN_POINT ( 'NONE',  ( 5.400000000000000355, 54.00000000000000000, 0.000000000000000000 ) ) ;
#897 = CARTESIAN_POINT ( 'NONE',  ( 6.500000000000000000, 54.00000000000000000, 22.00000000000000000 ) ) ;
#898 = VERTEX_POINT ( 'NONE', #333 ) ;
#899 = CALENDAR_DATE ( 2026, 13, 9 ) ;
#900 = LINE ( 'NONE', #684, #966 ) ;
#901 = DIRECTION ( 'NONE',  ( 1.000000000000000000, 0.000000000000000000, 0.000000000000000000 ) ) ;
#902 = VECTOR ( 'NONE', #608, 1000.000000000000000 ) ;
#903 = ORIENTED_EDGE ( 'NONE', *, *, #779, .T. ) ;
#904 = AXIS2_PLACEMENT_3D ( 'NONE', #575, #273, #813 ) ;
#905 = CC_DESIGN_APPROVAL ( #466, ( #748 ) ) ;
#906 =( LENGTH_UNIT ( ) NAMED_UNIT ( * ) SI_UNIT ( .MILLI., .METRE. ) );
#907 = CARTESIAN_POINT ( 'NONE',  ( 2.000000000000000000, 2.000000000000000000, 22.00000000000000000 ) ) ;
#908 = ADVANCED_FACE ( 'NONE', ( #871 ), #350, .T. ) ;
#909 = CARTESIAN_POINT ( 'NONE',  ( 7.599999999999998757, 54.00000000000000000, 22.00000000000000000 ) ) ;
#910 = EDGE_LOOP ( 'NONE', ( #642, #927, #349, #704 ) ) ;
#911 = DIRECTION ( 'NONE',  ( 0.000000000000000000, 0.000000000000000000, 1.000000000000000000 ) ) ;
#912 = CARTESIAN_POINT ( 'NONE',  ( 0.000000000000000000, 61.00000000000000000, 0.000000000000000000 ) ) ;
#913 = VERTEX_POINT ( 'NONE', #940 ) ;
#914 = COORDINATED_UNIVERSAL_TIME_OFFSET ( 8, 0, .AHEAD. ) ;
#915 = CARTESIAN_POINT ( 'NONE',  ( 6.500000000000000000, 54.00000000000000000, 5.000000000000000000 ) ) ;
#916 = DIRECTION ( 'NONE',  ( -0.000000000000000000, -0.000000000000000000, -1.000000000000000000 ) ) ;
#917 = ORIENTED_EDGE ( 'NONE', *, *, #818, .T. ) ;
#918 = CIRCLE ( 'NONE', #564, 3.000000000000002665 ) ;
#919 = EDGE_CURVE ( 'NONE', #589, #722, #556, .T. ) ;
#920 = CC_DESIGN_APPROVAL ( #586, ( #498 ) ) ;
#921 = DIRECTION ( 'NONE',  ( -0.000000000000000000, -0.000000000000000000, -1.000000000000000000 ) ) ;
#922 = DIRECTION ( 'NONE',  ( 0.000000000000000000, 0.000000000000000000, -1.000000000000000000 ) ) ;
#923 = ORIENTED_EDGE ( 'NONE', *, *, #494, .T. ) ;
#924 = EDGE_CURVE ( 'NONE', #785, #621, #181, .T. ) ;
#925 = CARTESIAN_POINT ( 'NONE',  ( 7.599999999999999645, 18.00000000000000000, 22.00000000000000000 ) ) ;
#926 = CYLINDRICAL_SURFACE ( 'NONE', #235, 1.100000000000003642 ) ;
#927 = ORIENTED_EDGE ( 'NONE', *, *, #924, .T. ) ;
#928 = FACE_BOUND ( 'NONE', #237, .T. ) ;
#929 = ADVANCED_FACE ( 'NONE', ( #35, #790, #347, #107, #187 ), #31, .F. ) ;
#930 = FACE_OUTER_BOUND ( 'NONE', #448, .T. ) ;
#931 = EDGE_LOOP ( 'NONE', ( #470, #425, #411, #175 ) ) ;
#932 = ORIENTED_EDGE ( 'NONE', *, *, #937, .T. ) ;
#933 = DIRECTION ( 'NONE',  ( 0.000000000000000000, 0.000000000000000000, 1.000000000000000000 ) ) ;
#934 = VECTOR ( 'NONE', #670, 1000.000000000000000 ) ;
#935 = AXIS2_PLACEMENT_3D ( 'NONE', #260, #100, #412 ) ;
#936 = DIRECTION ( 'NONE',  ( -0.000000000000000000, -0.000000000000000000, -1.000000000000000000 ) ) ;
#937 = EDGE_CURVE ( 'NONE', #877, #191, #342, .T. ) ;
#938 = EDGE_LOOP ( 'NONE', ( #444, #98 ) ) ;
#939 = VERTEX_POINT ( 'NONE', #271 ) ;
#940 = CARTESIAN_POINT ( 'NONE',  ( 3.499999999999998668, 54.00000000000000000, 5.000000000000000000 ) ) ;
#941 = CARTESIAN_POINT ( 'NONE',  ( 6.500000000000000000, 54.00000000000000000, 5.000000000000000000 ) ) ;
#942 = ORIENTED_EDGE ( 'NONE', *, *, #109, .F. ) ;
#943 = ORIENTED_EDGE ( 'NONE', *, *, #115, .T. ) ;
#944 = CARTESIAN_POINT ( 'NONE',  ( 75.00000000000000000, 2.000000000000000000, 2.000000000000001776 ) ) ;
#945 = CARTESIAN_POINT ( 'NONE',  ( 6.500000000000000000, 18.00000000000000000, 5.000000000000000000 ) ) ;
#946 = VERTEX_POINT ( 'NONE', #895 ) ;
#947 = ORIENTED_EDGE ( 'NONE', *, *, #850, .F. ) ;
#948 = DIRECTION ( 'NONE',  ( 0.000000000000000000, 1.000000000000000000, 0.000000000000000000 ) ) ;
#949 = CIRCLE ( 'NONE', #299, 3.000000000000002665 ) ;
#950 = DIRECTION ( 'NONE',  ( 0.000000000000000000, 0.000000000000000000, -1.000000000000000000 ) ) ;
#951 = VECTOR ( 'NONE', #876, 1000.000000000000000 ) ;
#952 = AXIS2_PLACEMENT_3D ( 'NONE', #541, #472, #845 ) ;
#953 = DIRECTION ( 'NONE',  ( -0.000000000000000000, -0.000000000000000000, -1.000000000000000000 ) ) ;
#954 = CARTESIAN_POINT ( 'NONE',  ( 0.000000000000000000, 0.000000000000000000, 2.000000000000000000 ) ) ;
#955 = EDGE_CURVE ( 'NONE', #454, #12, #599, .T. ) ;
#956 = CARTESIAN_POINT ( 'NONE',  ( 0.000000000000000000, 61.00000000000000000, 22.00000000000000000 ) ) ;
#957 = DIRECTION ( 'NONE',  ( -0.000000000000000000, -0.000000000000000000, -1.000000000000000000 ) ) ;
#958 = PERSON_AND_ORGANIZATION ( #629, #889 ) ;
#959 = DIRECTION ( 'NONE',  ( 0.000000000000000000, 0.000000000000000000, -1.000000000000000000 ) ) ;
#960 = DESIGN_CONTEXT ( 'detailed design', #740, 'design' ) ;
#961 = ADVANCED_FACE ( 'NONE', ( #212 ), #141, .T. ) ;
#962 = DIRECTION ( 'NONE',  ( -1.000000000000000000, 0.000000000000000000, 0.000000000000000000 ) ) ;
#963 = APPLICATION_PROTOCOL_DEFINITION ( 'international standard', 'config_control_design', 1994, #101 ) ;
#964 = CARTESIAN_POINT ( 'NONE',  ( 6.500000000000000000, 18.00000000000000000, 0.000000000000000000 ) ) ;
#965 = DIRECTION ( 'NONE',  ( -1.000000000000000000, 0.000000000000000000, 0.000000000000000000 ) ) ;
#966 = VECTOR ( 'NONE', #289, 1000.000000000000000 ) ;
#967 = EDGE_CURVE ( 'NONE', #127, #939, #971, .T. ) ;
#968 = CIRCLE ( 'NONE', #252, 1.099999999999999423 ) ;
#969 = VECTOR ( 'NONE', #14, 1000.000000000000000 ) ;
#970 = ORIENTED_EDGE ( 'NONE', *, *, #42, .F. ) ;
#971 = LINE ( 'NONE', #445, #683 ) ;
#972 = DIRECTION ( 'NONE',  ( -0.000000000000000000, -0.000000000000000000, -1.000000000000000000 ) ) ;
#973 = CARTESIAN_POINT ( 'NONE',  ( 69.39999999999999147, 54.00000000000000000, 0.000000000000000000 ) ) ;
#974 = ORIENTED_EDGE ( 'NONE', *, *, #992, .T. ) ;
#975 =( NAMED_UNIT ( * ) PLANE_ANGLE_UNIT ( ) SI_UNIT ( $, .RADIAN. ) );
#976 = DIRECTION ( 'NONE',  ( -0.000000000000000000, -1.000000000000000000, -0.000000000000000000 ) ) ;
#977 = CARTESIAN_POINT ( 'NONE',  ( 9.500000000000001776, 54.00000000000000000, 5.000000000000000000 ) ) ;
#978 = VERTEX_POINT ( 'NONE', #885 ) ;
#979 = MECHANICAL_CONTEXT ( 'NONE', #101, 'mechanical' ) ;
#980 = CARTESIAN_POINT ( 'NONE',  ( 67.49999999999998579, 54.00000000000000000, 5.000000000000000000 ) ) ;
#981 = LINE ( 'NONE', #295, #799 ) ;
#982 = AXIS2_PLACEMENT_3D ( 'NONE', #995, #313, #620 ) ;
#983 = EDGE_LOOP ( 'NONE', ( #168, #296 ) ) ;
#984 = CIRCLE ( 'NONE', #125, 3.000000000000001776 ) ;
#985 = AXIS2_PLACEMENT_3D ( 'NONE', #862, #338, #176 ) ;
#986 = ADVANCED_FACE ( 'NONE', ( #743, #507 ), #758, .F. ) ;
#987 = DIRECTION ( 'NONE',  ( -0.000000000000000000, -0.000000000000000000, -1.000000000000000000 ) ) ;
#988 = DIRECTION ( 'NONE',  ( 1.000000000000000000, 0.000000000000000000, -0.000000000000000000 ) ) ;
#989 = ORIENTED_EDGE ( 'NONE', *, *, #275, .F. ) ;
#990 = CYLINDRICAL_SURFACE ( 'NONE', #619, 1.099999999999999423 ) ;
#991 = CARTESIAN_POINT ( 'NONE',  ( 6.500000000000000000, 18.00000000000000000, 2.000000000000000000 ) ) ;
#992 = EDGE_CURVE ( 'NONE', #161, #323, #346, .T. ) ;
#993 = ORIENTED_EDGE ( 'NONE', *, *, #860, .F. ) ;
#994 = LINE ( 'NONE', #618, #875 ) ;
#995 = CARTESIAN_POINT ( 'NONE',  ( 70.50000000000000000, 18.00000000000000000, 5.000000000000000888 ) ) ;
ENDSEC;
END-ISO-10303-21;
