ISO-10303-21;
HEADER;
FILE_DESCRIPTION (( 'STEP AP203' ),
    '1' );
FILE_NAME ('TX_Cover.STEP',
    '2026-09-12T18:20:03',
    ( '' ),
    ( '' ),
    'SwSTEP 2.0',
    'SolidWorks 2024',
    '' );
FILE_SCHEMA (( 'CONFIG_CONTROL_DESIGN' ));
ENDSEC;

DATA;
#1 = LINE ( 'NONE', #410, #342 ) ;
#2 = DIRECTION ( 'NONE',  ( 0.000000000000000000, -0.000000000000000000, -1.000000000000000000 ) ) ;
#3 = CARTESIAN_POINT ( 'NONE',  ( 67.50000000000000000, 15.90000000000000036, 2.000000000000000000 ) ) ;
#4 = LINE ( 'NONE', #659, #910 ) ;
#5 = DIRECTION ( 'NONE',  ( 0.000000000000000000, 1.000000000000000000, 0.000000000000000000 ) ) ;
#6 = ADVANCED_FACE ( 'NONE', ( #709 ), #294, .F. ) ;
#7 = AXIS2_PLACEMENT_3D ( 'NONE', #424, #660, #995 ) ;
#8 = CARTESIAN_POINT ( 'NONE',  ( 70.50000000000000000, 54.00000000000000000, 2.000000000000000000 ) ) ;
#9 = DIRECTION ( 'NONE',  ( 0.000000000000000000, 0.000000000000000000, 1.000000000000000000 ) ) ;
#10 = CARTESIAN_POINT ( 'NONE',  ( 14.50000000000000000, 50.50000000000000000, 0.000000000000000000 ) ) ;
#11 = EDGE_CURVE ( 'NONE', #276, #66, #895, .T. ) ;
#12 = CARTESIAN_POINT ( 'NONE',  ( 58.50000000000000000, 50.50000000000000000, 0.000000000000000000 ) ) ;
#13 = DIRECTION ( 'NONE',  ( 0.000000000000000000, 0.000000000000000000, 1.000000000000000000 ) ) ;
#14 = DIRECTION ( 'NONE',  ( 1.000000000000000000, 0.000000000000000000, 0.000000000000000000 ) ) ;
#15 = ORIENTED_EDGE ( 'NONE', *, *, #736, .T. ) ;
#16 = DIRECTION ( 'NONE',  ( 0.000000000000000000, 0.000000000000000000, 1.000000000000000000 ) ) ;
#17 = VERTEX_POINT ( 'NONE', #573 ) ;
#18 = CARTESIAN_POINT ( 'NONE',  ( 7.849999999999999645, 18.00000000000000000, 2.000000000000000000 ) ) ;
#19 = VECTOR ( 'NONE', #747, 1000.000000000000000 ) ;
#20 = VERTEX_POINT ( 'NONE', #561 ) ;
#21 = CARTESIAN_POINT ( 'NONE',  ( 70.50000000000000000, 35.00000000000000000, 2.000000000000000000 ) ) ;
#22 = ORIENTED_EDGE ( 'NONE', *, *, #587, .T. ) ;
#23 = PERSON_AND_ORGANIZATION ( #996, #716 ) ;
#24 = ORIENTED_EDGE ( 'NONE', *, *, #581, .F. ) ;
#25 = AXIS2_PLACEMENT_3D ( 'NONE', #97, #422, #100 ) ;
#26 = PRODUCT_DEFINITION ( 'æœ', '', #434, #802 ) ;
#27 = DIRECTION ( 'NONE',  ( 0.000000000000000000, 0.000000000000000000, -1.000000000000000000 ) ) ;
#28 = VERTEX_POINT ( 'NONE', #744 ) ;
#29 = ORIENTED_EDGE ( 'NONE', *, *, #537, .F. ) ;
#30 = ORIENTED_EDGE ( 'NONE', *, *, #488, .F. ) ;
#31 = VECTOR ( 'NONE', #898, 1000.000000000000000 ) ;
#32 = VECTOR ( 'NONE', #172, 1000.000000000000000 ) ;
#33 = CARTESIAN_POINT ( 'NONE',  ( 62.50000000000000000, 43.00000000000000000, 0.000000000000000000 ) ) ;
#34 = ORIENTED_EDGE ( 'NONE', *, *, #155, .T. ) ;
#35 = COORDINATED_UNIVERSAL_TIME_OFFSET ( 8, 0, .AHEAD. ) ;
#36 = ORIENTED_EDGE ( 'NONE', *, *, #570, .F. ) ;
#37 = VERTEX_POINT ( 'NONE', #479 ) ;
#38 = VERTEX_POINT ( 'NONE', #900 ) ;
#39 = VECTOR ( 'NONE', #671, 1000.000000000000000 ) ;
#40 = CARTESIAN_POINT ( 'NONE',  ( 71.84999999999999432, 54.00000000000000000, 2.000000000000000000 ) ) ;
#41 = VERTEX_POINT ( 'NONE', #325 ) ;
#42 = DATE_AND_TIME ( #850, #830 ) ;
#43 = EDGE_CURVE ( 'NONE', #66, #368, #407, .T. ) ;
#44 = ORIENTED_EDGE ( 'NONE', *, *, #919, .T. ) ;
#45 = EDGE_CURVE ( 'NONE', #275, #280, #484, .T. ) ;
#46 = AXIS2_PLACEMENT_3D ( 'NONE', #793, #131, #940 ) ;
#47 = LINE ( 'NONE', #635, #354 ) ;
#48 = ORIENTED_EDGE ( 'NONE', *, *, #976, .F. ) ;
#49 = EDGE_CURVE ( 'NONE', #926, #791, #714, .T. ) ;
#50 =( NAMED_UNIT ( * ) SI_UNIT ( $, .STERADIAN. ) SOLID_ANGLE_UNIT ( ) );
#51 = ORIENTED_EDGE ( 'NONE', *, *, #543, .F. ) ;
#52 = LINE ( 'NONE', #1032, #460 ) ;
#53 = VERTEX_POINT ( 'NONE', #156 ) ;
#54 = VERTEX_POINT ( 'NONE', #813 ) ;
#55 = CARTESIAN_POINT ( 'NONE',  ( 62.50000000000000000, 35.00000000000000000, 2.000000000000000000 ) ) ;
#56 = VERTEX_POINT ( 'NONE', #737 ) ;
#57 = PERSON_AND_ORGANIZATION_ROLE ( 'creator' ) ;
#58 = AXIS2_PLACEMENT_3D ( 'NONE', #751, #918, #165 ) ;
#59 = PLANE ( 'NONE',  #943 ) ;
#60 = VERTEX_POINT ( 'NONE', #657 ) ;
#61 = EDGE_CURVE ( 'NONE', #627, #28, #1064, .T. ) ;
#62 = DIRECTION ( 'NONE',  ( 0.000000000000000000, 0.000000000000000000, 1.000000000000000000 ) ) ;
#63 = ORIENTED_EDGE ( 'NONE', *, *, #88, .F. ) ;
#64 = DIRECTION ( 'NONE',  ( 0.000000000000000000, 1.000000000000000000, 0.000000000000000000 ) ) ;
#65 = FACE_OUTER_BOUND ( 'NONE', #1047, .T. ) ;
#66 = VERTEX_POINT ( 'NONE', #240 ) ;
#67 = CALENDAR_DATE ( 2026, 13, 9 ) ;
#68 = DIRECTION ( 'NONE',  ( 0.000000000000000000, 0.000000000000000000, -1.000000000000000000 ) ) ;
#69 = DIRECTION ( 'NONE',  ( -0.000000000000000000, -1.000000000000000000, -0.000000000000000000 ) ) ;
#70 = VECTOR ( 'NONE', #876, 1000.000000000000000 ) ;
#71 = VECTOR ( 'NONE', #563, 1000.000000000000000 ) ;
#72 = DIRECTION ( 'NONE',  ( 0.000000000000000000, 0.000000000000000000, -1.000000000000000000 ) ) ;
#73 = DIRECTION ( 'NONE',  ( 1.000000000000000000, 0.000000000000000000, 0.000000000000000000 ) ) ;
#74 = AXIS2_PLACEMENT_3D ( 'NONE', #153, #414, #750 ) ;
#75 = DIRECTION ( 'NONE',  ( 0.000000000000000000, 0.000000000000000000, -1.000000000000000000 ) ) ;
#76 = DIRECTION ( 'NONE',  ( -1.000000000000000000, 0.000000000000000000, 0.000000000000000000 ) ) ;
#77 = CARTESIAN_POINT ( 'NONE',  ( 67.50000000000000000, 15.90000000000000036, 2.000000000000000000 ) ) ;
#78 = VECTOR ( 'NONE', #683, 1000.000000000000000 ) ;
#79 = EDGE_CURVE ( 'NONE', #757, #54, #244, .T. ) ;
#80 = CC_DESIGN_PERSON_AND_ORGANIZATION_ASSIGNMENT ( #979, #647, ( #434 ) ) ;
#81 = EDGE_CURVE ( 'NONE', #801, #273, #978, .T. ) ;
#82 = DIRECTION ( 'NONE',  ( -0.000000000000000000, -1.000000000000000000, -0.000000000000000000 ) ) ;
#83 = DIRECTION ( 'NONE',  ( -1.000000000000000000, 0.000000000000000000, 0.000000000000000000 ) ) ;
#84 = DIRECTION ( 'NONE',  ( 0.000000000000000000, 0.000000000000000000, 1.000000000000000000 ) ) ;
#85 = CARTESIAN_POINT ( 'NONE',  ( 62.50000000000000000, 43.00000000000000000, 2.000000000000000000 ) ) ;
#86 = AXIS2_PLACEMENT_3D ( 'NONE', #1051, #708, #302 ) ;
#87 = DIRECTION ( 'NONE',  ( -0.000000000000000000, 1.000000000000000000, 0.000000000000000000 ) ) ;
#88 = EDGE_CURVE ( 'NONE', #60, #838, #652, .T. ) ;
#89 = CARTESIAN_POINT ( 'NONE',  ( 6.500000000000000000, 54.00000000000000000, 0.000000000000000000 ) ) ;
#90 = PLANE ( 'NONE',  #210 ) ;
#91 = FACE_OUTER_BOUND ( 'NONE', #523, .T. ) ;
#92 = CARTESIAN_POINT ( 'NONE',  ( 58.50000000000000000, 57.00000000000000000, 2.000000000000000000 ) ) ;
#93 = DIRECTION ( 'NONE',  ( 0.000000000000000000, 0.000000000000000000, -1.000000000000000000 ) ) ;
#94 = AXIS2_PLACEMENT_3D ( 'NONE', #194, #509, #513 ) ;
#95 = VECTOR ( 'NONE', #773, 1000.000000000000000 ) ;
#96 = EDGE_CURVE ( 'NONE', #28, #604, #741, .T. ) ;
#97 = CARTESIAN_POINT ( 'NONE',  ( 70.50000000000000000, 18.00000000000000000, 2.000000000000000000 ) ) ;
#98 = PLANE ( 'NONE',  #170 ) ;
#99 = DIRECTION ( 'NONE',  ( 1.000000000000000000, 0.000000000000000000, 0.000000000000000000 ) ) ;
#100 = DIRECTION ( 'NONE',  ( -1.000000000000000000, 0.000000000000000000, 0.000000000000000000 ) ) ;
#101 = ORIENTED_EDGE ( 'NONE', *, *, #774, .F. ) ;
#102 = CARTESIAN_POINT ( 'NONE',  ( 39.50000000000000000, 4.900000000000000355, 2.000000000000000000 ) ) ;
#103 = DIRECTION ( 'NONE',  ( -1.000000000000000000, 0.000000000000000000, 0.000000000000000000 ) ) ;
#104 = ORIENTED_EDGE ( 'NONE', *, *, #155, .F. ) ;
#105 = CARTESIAN_POINT ( 'NONE',  ( 70.50000000000000000, 35.00000000000000000, 2.000000000000000000 ) ) ;
#106 = AXIS2_PLACEMENT_3D ( 'NONE', #235, #403, #73 ) ;
#107 = EDGE_CURVE ( 'NONE', #613, #545, #1009, .T. ) ;
#108 = AXIS2_PLACEMENT_3D ( 'NONE', #419, #833, #99 ) ;
#109 = LINE ( 'NONE', #771, #408 ) ;
#110 = VERTEX_POINT ( 'NONE', #335 ) ;
#111 = APPROVAL_DATE_TIME ( #42, #904 ) ;
#112 = ORIENTED_EDGE ( 'NONE', *, *, #811, .F. ) ;
#113 = EDGE_LOOP ( 'NONE', ( #862, #454, #1043, #611 ) ) ;
#114 = DIRECTION ( 'NONE',  ( 0.000000000000000000, 0.000000000000000000, -1.000000000000000000 ) ) ;
#115 = ORIENTED_EDGE ( 'NONE', *, *, #997, .T. ) ;
#116 = APPROVAL_ROLE ( '' ) ;
#117 = EDGE_CURVE ( 'NONE', #794, #268, #675, .T. ) ;
#118 = ORIENTED_EDGE ( 'NONE', *, *, #535, .T. ) ;
#119 = ORIENTED_EDGE ( 'NONE', *, *, #274, .F. ) ;
#120 = ADVANCED_FACE ( 'NONE', ( #423 ), #98, .T. ) ;
#121 = LINE ( 'NONE', #291, #256 ) ;
#122 = ORIENTED_EDGE ( 'NONE', *, *, #425, .T. ) ;
#123 =( LENGTH_UNIT ( ) NAMED_UNIT ( * ) SI_UNIT ( .MILLI., .METRE. ) );
#124 = EDGE_CURVE ( 'NONE', #17, #715, #4, .T. ) ;
#125 = VECTOR ( 'NONE', #745, 1000.000000000000000 ) ;
#126 = CARTESIAN_POINT ( 'NONE',  ( 67.50000000000000000, 4.900000000000000355, 2.000000000000000000 ) ) ;
#127 = ORIENTED_EDGE ( 'NONE', *, *, #808, .F. ) ;
#128 = COORDINATED_UNIVERSAL_TIME_OFFSET ( 8, 0, .AHEAD. ) ;
#129 = ORIENTED_EDGE ( 'NONE', *, *, #766, .F. ) ;
#130 = VECTOR ( 'NONE', #831, 1000.000000000000000 ) ;
#131 = DIRECTION ( 'NONE',  ( 0.000000000000000000, 0.000000000000000000, 1.000000000000000000 ) ) ;
#132 = DIRECTION ( 'NONE',  ( 0.000000000000000000, 0.000000000000000000, -1.000000000000000000 ) ) ;
#133 = ORIENTED_EDGE ( 'NONE', *, *, #1050, .T. ) ;
#134 = CARTESIAN_POINT ( 'NONE',  ( 71.84999999999999432, 54.00000000000000000, 2.000000000000000000 ) ) ;
#135 = ORIENTED_EDGE ( 'NONE', *, *, #764, .T. ) ;
#136 = CARTESIAN_POINT ( 'NONE',  ( 24.50000000000000000, 50.50000000000000000, 2.000000000000000000 ) ) ;
#137 = ORIENTED_EDGE ( 'NONE', *, *, #426, .T. ) ;
#138 = PLANE ( 'NONE',  #1002 ) ;
#139 = EDGE_LOOP ( 'NONE', ( #455, #777, #600, #202 ) ) ;
#140 = VECTOR ( 'NONE', #345, 1000.000000000000000 ) ;
#141 = AXIS2_PLACEMENT_3D ( 'NONE', #390, #638, #300 ) ;
#142 = FACE_BOUND ( 'NONE', #556, .T. ) ;
#143 = EDGE_CURVE ( 'NONE', #280, #440, #330, .T. ) ;
#144 = CARTESIAN_POINT ( 'NONE',  ( 77.00000000000000000, 0.000000000000000000, 2.000000000000000000 ) ) ;
#145 = EDGE_LOOP ( 'NONE', ( #687, #36, #298, #309 ) ) ;
#146 = LINE ( 'NONE', #1066, #125 ) ;
#147 = CARTESIAN_POINT ( 'NONE',  ( 0.000000000000000000, 0.000000000000000000, 2.000000000000000000 ) ) ;
#148 = CARTESIAN_POINT ( 'NONE',  ( 58.50000000000000000, 50.50000000000000000, 0.000000000000000000 ) ) ;
#149 = DIRECTION ( 'NONE',  ( -1.000000000000000000, -0.000000000000000000, -0.000000000000000000 ) ) ;
#150 = SECURITY_CLASSIFICATION_LEVEL ( 'unclassified' ) ;
#151 = EDGE_CURVE ( 'NONE', #791, #926, #205, .T. ) ;
#152 = FACE_BOUND ( 'NONE', #182, .T. ) ;
#153 = CARTESIAN_POINT ( 'NONE',  ( 70.50000000000000000, 18.00000000000000000, 2.000000000000000000 ) ) ;
#154 = FACE_OUTER_BOUND ( 'NONE', #588, .T. ) ;
#155 = EDGE_CURVE ( 'NONE', #630, #514, #860, .T. ) ;
#156 = CARTESIAN_POINT ( 'NONE',  ( 39.50000000000000000, 4.900000000000000355, 0.000000000000000000 ) ) ;
#157 = CLOSED_SHELL ( 'NONE', ( #501, #6, #661, #623, #266, #877, #749, #805, #740, #846, #393, #379, #193, #953, #120, #781, #972, #703, #839, #344, #198, #233, #621, #800, #306, #989, #319, #262, #449, #239 ) ) ;
#158 = LINE ( 'NONE', #1057, #914 ) ;
#159 = DIRECTION ( 'NONE',  ( 0.000000000000000000, 0.000000000000000000, 1.000000000000000000 ) ) ;
#160 = LINE ( 'NONE', #243, #31 ) ;
#161 = AXIS2_PLACEMENT_3D ( 'NONE', #586, #259, #674 ) ;
#162 = EDGE_CURVE ( 'NONE', #1013, #373, #988, .T. ) ;
#163 = DIRECTION ( 'NONE',  ( -1.000000000000000000, 0.000000000000000000, -0.000000000000000000 ) ) ;
#164 = CARTESIAN_POINT ( 'NONE',  ( 14.50000000000000000, 50.50000000000000000, 2.000000000000000000 ) ) ;
#165 = DIRECTION ( 'NONE',  ( -1.000000000000000000, 0.000000000000000000, -0.000000000000000000 ) ) ;
#166 = DIRECTION ( 'NONE',  ( -1.000000000000000000, -0.000000000000000000, -0.000000000000000000 ) ) ;
#167 = CARTESIAN_POINT ( 'NONE',  ( 70.50000000000000000, 18.00000000000000000, 2.000000000000000000 ) ) ;
#168 = FACE_OUTER_BOUND ( 'NONE', #113, .T. ) ;
#169 = AXIS2_PLACEMENT_3D ( 'NONE', #790, #114, #442 ) ;
#170 = AXIS2_PLACEMENT_3D ( 'NONE', #897, #759, #667 ) ;
#171 = FACE_OUTER_BOUND ( 'NONE', #924, .T. ) ;
#172 = DIRECTION ( 'NONE',  ( 0.000000000000000000, 0.000000000000000000, -1.000000000000000000 ) ) ;
#173 = LINE ( 'NONE', #824, #1010 ) ;
#174 = VECTOR ( 'NONE', #911, 1000.000000000000000 ) ;
#175 = CARTESIAN_POINT ( 'NONE',  ( 71.84999999999999432, 18.00000000000000000, 0.000000000000000000 ) ) ;
#176 = ORIENTED_EDGE ( 'NONE', *, *, #375, .F. ) ;
#177 = APPLICATION_CONTEXT ( 'configuration controlled 3d designs of mechanical parts and assemblies' ) ;
#178 = DIRECTION ( 'NONE',  ( 0.000000000000000000, 0.000000000000000000, -1.000000000000000000 ) ) ;
#179 = VECTOR ( 'NONE', #693, 1000.000000000000000 ) ;
#180 = ORIENTED_EDGE ( 'NONE', *, *, #679, .F. ) ;
#181 = DIRECTION ( 'NONE',  ( 0.000000000000000000, 0.000000000000000000, -1.000000000000000000 ) ) ;
#182 = EDGE_LOOP ( 'NONE', ( #288, #112, #718, #421 ) ) ;
#183 = CARTESIAN_POINT ( 'NONE',  ( 50.50000000000000000, 57.00000000000000000, 0.000000000000000000 ) ) ;
#184 = APPLICATION_CONTEXT ( 'configuration controlled 3d designs of mechanical parts and assemblies' ) ;
#185 = CC_DESIGN_DATE_AND_TIME_ASSIGNMENT ( #1070, #398, ( #931 ) ) ;
#186 = EDGE_CURVE ( 'NONE', #791, #1022, #906, .T. ) ;
#187 = EDGE_LOOP ( 'NONE', ( #506, #532 ) ) ;
#188 = FACE_OUTER_BOUND ( 'NONE', #702, .T. ) ;
#189 = VERTEX_POINT ( 'NONE', #999 ) ;
#190 = DATE_AND_TIME ( #601, #767 ) ;
#191 = ORIENTED_EDGE ( 'NONE', *, *, #587, .F. ) ;
#192 = CIRCLE ( 'NONE', #608, 1.350000000000004086 ) ;
#193 = ADVANCED_FACE ( 'NONE', ( #247 ), #664, .T. ) ;
#194 = CARTESIAN_POINT ( 'NONE',  ( 6.500000000000000000, 18.00000000000000000, 0.000000000000000000 ) ) ;
#195 = ORIENTED_EDGE ( 'NONE', *, *, #49, .F. ) ;
#196 = ORIENTED_EDGE ( 'NONE', *, *, #570, .T. ) ;
#197 = ORIENTED_EDGE ( 'NONE', *, *, #143, .T. ) ;
#198 = ADVANCED_FACE ( 'NONE', ( #254 ), #893, .T. ) ;
#199 = CARTESIAN_POINT ( 'NONE',  ( 7.849999999999999645, 54.00000000000000000, 2.000000000000000000 ) ) ;
#200 = ORIENTED_EDGE ( 'NONE', *, *, #49, .T. ) ;
#201 = EDGE_LOOP ( 'NONE', ( #935, #691, #101, #438 ) ) ;
#202 = ORIENTED_EDGE ( 'NONE', *, *, #488, .T. ) ;
#203 = EDGE_CURVE ( 'NONE', #273, #440, #323, .T. ) ;
#204 = CIRCLE ( 'NONE', #809, 1.350000000000004086 ) ;
#205 = CIRCLE ( 'NONE', #780, 1.349999999999999645 ) ;
#206 = DIRECTION ( 'NONE',  ( -0.000000000000000000, -0.000000000000000000, -1.000000000000000000 ) ) ;
#207 = ORIENTED_EDGE ( 'NONE', *, *, #494, .T. ) ;
#208 = PERSON_AND_ORGANIZATION_ROLE ( 'design_owner' ) ;
#209 = AXIS2_PLACEMENT_3D ( 'NONE', #89, #13, #568 ) ;
#210 = AXIS2_PLACEMENT_3D ( 'NONE', #105, #430, #252 ) ;
#211 = CARTESIAN_POINT ( 'NONE',  ( 77.00000000000000000, 0.000000000000000000, 2.000000000000000000 ) ) ;
#212 = ORIENTED_EDGE ( 'NONE', *, *, #1003, .F. ) ;
#213 = APPROVAL_ROLE ( '' ) ;
#214 = ORIENTED_EDGE ( 'NONE', *, *, #45, .T. ) ;
#215 = VECTOR ( 'NONE', #612, 1000.000000000000000 ) ;
#216 = DIRECTION ( 'NONE',  ( 0.000000000000000000, 0.000000000000000000, -1.000000000000000000 ) ) ;
#217 = EDGE_LOOP ( 'NONE', ( #1026, #541, #861, #706 ) ) ;
#218 = PERSON_AND_ORGANIZATION ( #996, #716 ) ;
#219 = FACE_BOUND ( 'NONE', #446, .T. ) ;
#220 = EDGE_LOOP ( 'NONE', ( #129, #606, #226, #591 ) ) ;
#221 = ORIENTED_EDGE ( 'NONE', *, *, #1034, .F. ) ;
#222 = APPROVAL ( #853, 'æœª' ) ;
#223 = CYLINDRICAL_SURFACE ( 'NONE', #169, 1.349999999999999645 ) ;
#224 = ORIENTED_EDGE ( 'NONE', *, *, #426, .F. ) ;
#225 = DIRECTION ( 'NONE',  ( 0.000000000000000000, -0.000000000000000000, 1.000000000000000000 ) ) ;
#226 = ORIENTED_EDGE ( 'NONE', *, *, #11, .T. ) ;
#227 = EDGE_CURVE ( 'NONE', #54, #1038, #912, .T. ) ;
#228 = LINE ( 'NONE', #1063, #341 ) ;
#229 = VERTEX_POINT ( 'NONE', #490 ) ;
#230 = AXIS2_PLACEMENT_3D ( 'NONE', #322, #231, #725 ) ;
#231 = DIRECTION ( 'NONE',  ( 0.000000000000000000, 0.000000000000000000, -1.000000000000000000 ) ) ;
#232 = CARTESIAN_POINT ( 'NONE',  ( 5.150000000000001243, 54.00000000000000000, 0.000000000000000000 ) ) ;
#233 = ADVANCED_FACE ( 'NONE', ( #502 ), #832, .T. ) ;
#234 = LINE ( 'NONE', #148, #395 ) ;
#235 = CARTESIAN_POINT ( 'NONE',  ( 6.500000000000000000, 18.00000000000000000, 2.000000000000000000 ) ) ;
#236 = FACE_OUTER_BOUND ( 'NONE', #1019, .T. ) ;
#237 = EDGE_CURVE ( 'NONE', #276, #966, #1, .T. ) ;
#238 = CARTESIAN_POINT ( 'NONE',  ( 77.00000000000000000, 61.00000000000000000, 0.000000000000000000 ) ) ;
#239 = ADVANCED_FACE ( 'NONE', ( #327 ), #579, .F. ) ;
#240 = CARTESIAN_POINT ( 'NONE',  ( 50.50000000000000000, 50.50000000000000000, 2.000000000000000000 ) ) ;
#241 = DIRECTION ( 'NONE',  ( 0.000000000000000000, 0.000000000000000000, -1.000000000000000000 ) ) ;
#242 = CARTESIAN_POINT ( 'NONE',  ( 50.50000000000000000, 57.00000000000000000, 2.000000000000000000 ) ) ;
#243 = CARTESIAN_POINT ( 'NONE',  ( 77.00000000000000000, 0.000000000000000000, 0.000000000000000000 ) ) ;
#244 = LINE ( 'NONE', #315, #245 ) ;
#245 = VECTOR ( 'NONE', #646, 1000.000000000000000 ) ;
#246 = FACE_BOUND ( 'NONE', #920, .T. ) ;
#247 = FACE_OUTER_BOUND ( 'NONE', #948, .T. ) ;
#248 = CARTESIAN_POINT ( 'NONE',  ( 14.50000000000000000, 55.50000000000000000, 2.000000000000000000 ) ) ;
#249 = VECTOR ( 'NONE', #255, 1000.000000000000000 ) ;
#250 = CARTESIAN_POINT ( 'NONE',  ( 0.000000000000000000, 61.00000000000000000, 0.000000000000000000 ) ) ;
#251 = CARTESIAN_POINT ( 'NONE',  ( 6.500000000000000000, 18.00000000000000000, 2.000000000000000000 ) ) ;
#252 = DIRECTION ( 'NONE',  ( 0.000000000000000000, 0.000000000000000000, 1.000000000000000000 ) ) ;
#253 = LINE ( 'NONE', #416, #130 ) ;
#254 = FACE_OUTER_BOUND ( 'NONE', #1029, .T. ) ;
#255 = DIRECTION ( 'NONE',  ( -1.000000000000000000, -0.000000000000000000, -0.000000000000000000 ) ) ;
#256 = VECTOR ( 'NONE', #206, 1000.000000000000000 ) ;
#257 = DIRECTION ( 'NONE',  ( -0.000000000000000000, -1.000000000000000000, -0.000000000000000000 ) ) ;
#258 = VERTEX_POINT ( 'NONE', #887 ) ;
#259 = DIRECTION ( 'NONE',  ( 0.000000000000000000, 0.000000000000000000, 1.000000000000000000 ) ) ;
#260 = APPROVAL_PERSON_ORGANIZATION ( #295, #222, #116 ) ;
#261 = ORIENTED_EDGE ( 'NONE', *, *, #837, .T. ) ;
#262 = ADVANCED_FACE ( 'NONE', ( #578 ), #731, .F. ) ;
#263 = CARTESIAN_POINT ( 'NONE',  ( 39.50000000000000000, 4.900000000000000355, 2.000000000000000000 ) ) ;
#264 = ORIENTED_EDGE ( 'NONE', *, *, #700, .T. ) ;
#265 = PLANE ( 'NONE',  #58 ) ;
#266 = ADVANCED_FACE ( 'NONE', ( #389, #558, #822, #413, #246, #485, #825, #152, #574 ), #399, .F. ) ;
#267 = VECTOR ( 'NONE', #450, 1000.000000000000000 ) ;
#268 = VERTEX_POINT ( 'NONE', #567 ) ;
#269 = ORIENTED_EDGE ( 'NONE', *, *, #577, .T. ) ;
#270 = CARTESIAN_POINT ( 'NONE',  ( 67.50000000000000000, 4.900000000000000355, 2.000000000000000000 ) ) ;
#271 = VERTEX_POINT ( 'NONE', #480 ) ;
#272 = LINE ( 'NONE', #444, #753 ) ;
#273 = VERTEX_POINT ( 'NONE', #250 ) ;
#274 = EDGE_CURVE ( 'NONE', #53, #110, #146, .T. ) ;
#275 = VERTEX_POINT ( 'NONE', #318 ) ;
#276 = VERTEX_POINT ( 'NONE', #896 ) ;
#277 = CARTESIAN_POINT ( 'NONE',  ( 6.500000000000000000, 18.00000000000000000, 0.000000000000000000 ) ) ;
#278 = ORIENTED_EDGE ( 'NONE', *, *, #1007, .F. ) ;
#279 = VERTEX_POINT ( 'NONE', #814 ) ;
#280 = VERTEX_POINT ( 'NONE', #476 ) ;
#281 = EDGE_LOOP ( 'NONE', ( #29, #264, #625, #212 ) ) ;
#282 = AXIS2_PLACEMENT_3D ( 'NONE', #748, #643, #653 ) ;
#283 = AXIS2_PLACEMENT_3D ( 'NONE', #248, #907, #2 ) ;
#284 = DIRECTION ( 'NONE',  ( 0.000000000000000000, 0.000000000000000000, -1.000000000000000000 ) ) ;
#285 = ORIENTED_EDGE ( 'NONE', *, *, #43, .T. ) ;
#286 = EDGE_CURVE ( 'NONE', #60, #276, #404, .T. ) ;
#287 = DIRECTION ( 'NONE',  ( 0.000000000000000000, 1.000000000000000000, 0.000000000000000000 ) ) ;
#288 = ORIENTED_EDGE ( 'NONE', *, *, #602, .F. ) ;
#289 = ORIENTED_EDGE ( 'NONE', *, *, #427, .F. ) ;
#290 = EDGE_CURVE ( 'NONE', #54, #17, #901, .T. ) ;
#291 = CARTESIAN_POINT ( 'NONE',  ( 0.000000000000000000, 61.00000000000000000, 2.000000000000000000 ) ) ;
#292 = ORIENTED_EDGE ( 'NONE', *, *, #829, .T. ) ;
#293 = CARTESIAN_POINT ( 'NONE',  ( 69.14999999999999147, 18.00000000000000000, 2.000000000000000000 ) ) ;
#294 = CYLINDRICAL_SURFACE ( 'NONE', #348, 1.349999999999998757 ) ;
#295 = PERSON_AND_ORGANIZATION ( #996, #716 ) ;
#296 = CIRCLE ( 'NONE', #161, 1.349999999999999645 ) ;
#297 = LINE ( 'NONE', #199, #789 ) ;
#298 = ORIENTED_EDGE ( 'NONE', *, *, #1044, .T. ) ;
#299 = EDGE_CURVE ( 'NONE', #41, #627, #905, .T. ) ;
#300 = DIRECTION ( 'NONE',  ( 0.000000000000000000, 0.000000000000000000, -1.000000000000000000 ) ) ;
#301 = ORIENTED_EDGE ( 'NONE', *, *, #961, .F. ) ;
#302 = DIRECTION ( 'NONE',  ( 1.000000000000000000, 0.000000000000000000, 0.000000000000000000 ) ) ;
#303 = ORIENTED_EDGE ( 'NONE', *, *, #1007, .T. ) ;
#304 = DIRECTION ( 'NONE',  ( 0.000000000000000000, 0.000000000000000000, -1.000000000000000000 ) ) ;
#305 = ORIENTED_EDGE ( 'NONE', *, *, #655, .F. ) ;
#306 = ADVANCED_FACE ( 'NONE', ( #236 ), #806, .T. ) ;
#307 = FACE_OUTER_BOUND ( 'NONE', #396, .T. ) ;
#308 = VECTOR ( 'NONE', #487, 1000.000000000000000 ) ;
#309 = ORIENTED_EDGE ( 'NONE', *, *, #375, .T. ) ;
#310 = VECTOR ( 'NONE', #984, 1000.000000000000000 ) ;
#311 = CARTESIAN_POINT ( 'NONE',  ( 14.50000000000000000, 50.50000000000000000, 2.000000000000000000 ) ) ;
#312 = PLANE ( 'NONE',  #141 ) ;
#313 = ORIENTED_EDGE ( 'NONE', *, *, #1050, .F. ) ;
#314 = DIRECTION ( 'NONE',  ( 0.000000000000000000, -0.000000000000000000, -1.000000000000000000 ) ) ;
#315 = CARTESIAN_POINT ( 'NONE',  ( 14.50000000000000000, 50.50000000000000000, 2.000000000000000000 ) ) ;
#316 = AXIS2_PLACEMENT_3D ( 'NONE', #493, #75, #163 ) ;
#317 = SHAPE_DEFINITION_REPRESENTATION ( #1028, #453 ) ;
#318 = CARTESIAN_POINT ( 'NONE',  ( 0.000000000000000000, 61.00000000000000000, 2.000000000000000000 ) ) ;
#319 = ADVANCED_FACE ( 'NONE', ( #993 ), #983, .F. ) ;
#320 = DIRECTION ( 'NONE',  ( 0.000000000000000000, -1.000000000000000000, 0.000000000000000000 ) ) ;
#321 = DIRECTION ( 'NONE',  ( -0.000000000000000000, -1.000000000000000000, -0.000000000000000000 ) ) ;
#322 = CARTESIAN_POINT ( 'NONE',  ( 70.50000000000000000, 54.00000000000000000, 2.000000000000000000 ) ) ;
#323 = LINE ( 'NONE', #654, #310 ) ;
#324 = FACE_BOUND ( 'NONE', #471, .T. ) ;
#325 = CARTESIAN_POINT ( 'NONE',  ( 70.50000000000000000, 43.00000000000000000, 0.000000000000000000 ) ) ;
#326 = CARTESIAN_POINT ( 'NONE',  ( 50.50000000000000000, 50.50000000000000000, 2.000000000000000000 ) ) ;
#327 = FACE_OUTER_BOUND ( 'NONE', #281, .T. ) ;
#328 = CARTESIAN_POINT ( 'NONE',  ( 39.50000000000000000, 4.900000000000000355, 2.000000000000000000 ) ) ;
#329 = DIRECTION ( 'NONE',  ( 0.000000000000000000, 0.000000000000000000, -1.000000000000000000 ) ) ;
#330 = LINE ( 'NONE', #1005, #495 ) ;
#331 = EDGE_CURVE ( 'NONE', #926, #534, #158, .T. ) ;
#332 = CARTESIAN_POINT ( 'NONE',  ( 58.50000000000000000, 50.50000000000000000, 2.000000000000000000 ) ) ;
#333 = VECTOR ( 'NONE', #597, 1000.000000000000000 ) ;
#334 = CARTESIAN_POINT ( 'NONE',  ( 62.50000000000000000, 35.00000000000000000, 2.000000000000000000 ) ) ;
#335 = CARTESIAN_POINT ( 'NONE',  ( 67.50000000000000000, 4.900000000000000355, 0.000000000000000000 ) ) ;
#336 = DIRECTION ( 'NONE',  ( 0.000000000000000000, 0.000000000000000000, -1.000000000000000000 ) ) ;
#337 = ORIENTED_EDGE ( 'NONE', *, *, #1058, .T. ) ;
#338 = CARTESIAN_POINT ( 'NONE',  ( 39.50000000000000000, 4.900000000000000355, 2.000000000000000000 ) ) ;
#339 = CARTESIAN_POINT ( 'NONE',  ( 70.50000000000000000, 54.00000000000000000, 2.000000000000000000 ) ) ;
#340 = LINE ( 'NONE', #507, #697 ) ;
#341 = VECTOR ( 'NONE', #401, 1000.000000000000000 ) ;
#342 = VECTOR ( 'NONE', #746, 1000.000000000000000 ) ;
#343 = EDGE_CURVE ( 'NONE', #440, #436, #562, .T. ) ;
#344 = ADVANCED_FACE ( 'NONE', ( #971 ), #1077, .T. ) ;
#345 = DIRECTION ( 'NONE',  ( 0.000000000000000000, 0.000000000000000000, -1.000000000000000000 ) ) ;
#346 = ORIENTED_EDGE ( 'NONE', *, *, #459, .F. ) ;
#347 = CARTESIAN_POINT ( 'NONE',  ( 39.50000000000000000, 15.90000000000000036, 2.000000000000000000 ) ) ;
#348 = AXIS2_PLACEMENT_3D ( 'NONE', #539, #132, #1069 ) ;
#349 = ORIENTED_EDGE ( 'NONE', *, *, #543, .T. ) ;
#350 = PLANE ( 'NONE',  #881 ) ;
#351 = ORIENTED_EDGE ( 'NONE', *, *, #461, .F. ) ;
#352 = APPLICATION_PROTOCOL_DEFINITION ( 'international standard', 'config_control_design', 1994, #177 ) ;
#353 = EDGE_CURVE ( 'NONE', #855, #56, #987, .T. ) ;
#354 = VECTOR ( 'NONE', #712, 1000.000000000000000 ) ;
#355 = ORIENTED_EDGE ( 'NONE', *, *, #11, .F. ) ;
#356 = ORIENTED_EDGE ( 'NONE', *, *, #700, .F. ) ;
#357 = CARTESIAN_POINT ( 'NONE',  ( 70.50000000000000000, 43.00000000000000000, 2.000000000000000000 ) ) ;
#358 = ORIENTED_EDGE ( 'NONE', *, *, #617, .F. ) ;
#359 = LINE ( 'NONE', #690, #78 ) ;
#360 = ORIENTED_EDGE ( 'NONE', *, *, #537, .T. ) ;
#361 = AXIS2_PLACEMENT_3D ( 'NONE', #555, #973, #807 ) ;
#362 = CARTESIAN_POINT ( 'NONE',  ( 14.50000000000000000, 50.50000000000000000, 2.000000000000000000 ) ) ;
#363 = ORIENTED_EDGE ( 'NONE', *, *, #227, .F. ) ;
#364 = APPROVAL_DATE_TIME ( #949, #222 ) ;
#365 = PRODUCT ( 'TX_Cover', 'TX_Cover', '', ( #704 ) ) ;
#366 = VECTOR ( 'NONE', #925, 1000.000000000000000 ) ;
#367 = LINE ( 'NONE', #126, #542 ) ;
#368 = VERTEX_POINT ( 'NONE', #583 ) ;
#369 = CARTESIAN_POINT ( 'NONE',  ( 14.50000000000000000, 50.50000000000000000, 0.000000000000000000 ) ) ;
#370 = ORIENTED_EDGE ( 'NONE', *, *, #494, .F. ) ;
#371 = EDGE_LOOP ( 'NONE', ( #878, #363, #684, #685 ) ) ;
#372 = LINE ( 'NONE', #867, #681 ) ;
#373 = VERTEX_POINT ( 'NONE', #270 ) ;
#374 = VERTEX_POINT ( 'NONE', #12 ) ;
#375 = EDGE_CURVE ( 'NONE', #37, #41, #431, .T. ) ;
#376 = CARTESIAN_POINT ( 'NONE',  ( 71.84999999999999432, 18.00000000000000000, 2.000000000000000000 ) ) ;
#377 = ORIENTED_EDGE ( 'NONE', *, *, #45, .F. ) ;
#378 = COORDINATED_UNIVERSAL_TIME_OFFSET ( 8, 0, .AHEAD. ) ;
#379 = ADVANCED_FACE ( 'NONE', ( #91 ), #350, .T. ) ;
#380 = VECTOR ( 'NONE', #149, 1000.000000000000000 ) ;
#381 = CIRCLE ( 'NONE', #975, 1.349999999999999645 ) ;
#382 = CARTESIAN_POINT ( 'NONE',  ( 69.14999999999999147, 54.00000000000000000, 2.000000000000000000 ) ) ;
#383 = ORIENTED_EDGE ( 'NONE', *, *, #921, .T. ) ;
#384 = DIRECTION ( 'NONE',  ( 1.000000000000000000, 0.000000000000000000, 0.000000000000000000 ) ) ;
#385 = EDGE_CURVE ( 'NONE', #1017, #1013, #761, .T. ) ;
#386 = ORIENTED_EDGE ( 'NONE', *, *, #766, .T. ) ;
#387 = DIRECTION ( 'NONE',  ( 0.000000000000000000, 1.000000000000000000, 0.000000000000000000 ) ) ;
#388 = ORIENTED_EDGE ( 'NONE', *, *, #651, .F. ) ;
#389 = FACE_BOUND ( 'NONE', #868, .T. ) ;
#390 = CARTESIAN_POINT ( 'NONE',  ( 50.50000000000000000, 50.50000000000000000, 2.000000000000000000 ) ) ;
#391 = EDGE_LOOP ( 'NONE', ( #607, #346, #765, #1021 ) ) ;
#392 = EDGE_CURVE ( 'NONE', #1022, #534, #752, .T. ) ;
#393 = ADVANCED_FACE ( 'NONE', ( #188 ), #1012, .T. ) ;
#394 = CARTESIAN_POINT ( 'NONE',  ( 14.50000000000000000, 55.50000000000000000, 0.000000000000000000 ) ) ;
#395 = VECTOR ( 'NONE', #387, 1000.000000000000000 ) ;
#396 = EDGE_LOOP ( 'NONE', ( #547, #176, #475, #689 ) ) ;
#397 = AXIS2_PLACEMENT_3D ( 'NONE', #242, #823, #994 ) ;
#398 = DATE_TIME_ROLE ( 'classification_date' ) ;
#399 = PLANE ( 'NONE',  #316 ) ;
#400 = CARTESIAN_POINT ( 'NONE',  ( 14.50000000000000000, 50.50000000000000000, 2.000000000000000000 ) ) ;
#401 = DIRECTION ( 'NONE',  ( 0.000000000000000000, 1.000000000000000000, 0.000000000000000000 ) ) ;
#402 = LOCAL_TIME ( 2, 20, 3.000000000000000000, #378 ) ;
#403 = DIRECTION ( 'NONE',  ( 0.000000000000000000, 0.000000000000000000, 1.000000000000000000 ) ) ;
#404 = LINE ( 'NONE', #648, #828 ) ;
#405 = CARTESIAN_POINT ( 'NONE',  ( 62.50000000000000000, 35.00000000000000000, 0.000000000000000000 ) ) ;
#406 = LINE ( 'NONE', #136, #965 ) ;
#407 = LINE ( 'NONE', #982, #1045 ) ;
#408 = VECTOR ( 'NONE', #27, 1000.000000000000000 ) ;
#409 = DIRECTION ( 'NONE',  ( 1.000000000000000000, 0.000000000000000000, 0.000000000000000000 ) ) ;
#410 = CARTESIAN_POINT ( 'NONE',  ( 50.50000000000000000, 57.00000000000000000, 2.000000000000000000 ) ) ;
#411 = DIRECTION ( 'NONE',  ( -1.000000000000000000, -0.000000000000000000, -0.000000000000000000 ) ) ;
#412 = CC_DESIGN_PERSON_AND_ORGANIZATION_ASSIGNMENT ( #23, #208, ( #365 ) ) ;
#413 = FACE_BOUND ( 'NONE', #1015, .T. ) ;
#414 = DIRECTION ( 'NONE',  ( 0.000000000000000000, 0.000000000000000000, 1.000000000000000000 ) ) ;
#415 = LINE ( 'NONE', #990, #333 ) ;
#416 = CARTESIAN_POINT ( 'NONE',  ( 14.50000000000000000, 55.50000000000000000, 2.000000000000000000 ) ) ;
#417 = VECTOR ( 'NONE', #998, 1000.000000000000000 ) ;
#418 = DIRECTION ( 'NONE',  ( 0.000000000000000000, 0.000000000000000000, 1.000000000000000000 ) ) ;
#419 = CARTESIAN_POINT ( 'NONE',  ( 70.50000000000000000, 54.00000000000000000, 0.000000000000000000 ) ) ;
#420 = LOCAL_TIME ( 2, 20, 3.000000000000000000, #35 ) ;
#421 = ORIENTED_EDGE ( 'NONE', *, *, #764, .F. ) ;
#422 = DIRECTION ( 'NONE',  ( 0.000000000000000000, 0.000000000000000000, -1.000000000000000000 ) ) ;
#423 = FACE_OUTER_BOUND ( 'NONE', #139, .T. ) ;
#424 = CARTESIAN_POINT ( 'NONE',  ( 39.50000000000000000, 15.90000000000000036, 2.000000000000000000 ) ) ;
#425 = EDGE_CURVE ( 'NONE', #534, #1022, #553, .T. ) ;
#426 = EDGE_CURVE ( 'NONE', #1036, #374, #594, .T. ) ;
#427 = EDGE_CURVE ( 'NONE', #280, #508, #923, .T. ) ;
#428 = CARTESIAN_POINT ( 'NONE',  ( 77.00000000000000000, 0.000000000000000000, 2.000000000000000000 ) ) ;
#429 = ORIENTED_EDGE ( 'NONE', *, *, #299, .T. ) ;
#430 = DIRECTION ( 'NONE',  ( -1.000000000000000000, 0.000000000000000000, 0.000000000000000000 ) ) ;
#431 = LINE ( 'NONE', #357, #140 ) ;
#432 = ORIENTED_EDGE ( 'NONE', *, *, #151, .F. ) ;
#433 = LINE ( 'NONE', #620, #95 ) ;
#434 = PRODUCT_DEFINITION_FORMATION_WITH_SPECIFIED_SOURCE ( 'ä»', '', #365, .NOT_KNOWN. ) ;
#435 = ORIENTED_EDGE ( 'NONE', *, *, #331, .F. ) ;
#436 = VERTEX_POINT ( 'NONE', #505 ) ;
#437 = CARTESIAN_POINT ( 'NONE',  ( 6.500000000000000000, 54.00000000000000000, 2.000000000000000000 ) ) ;
#438 = ORIENTED_EDGE ( 'NONE', *, *, #290, .F. ) ;
#439 =( NAMED_UNIT ( * ) PLANE_ANGLE_UNIT ( ) SI_UNIT ( $, .RADIAN. ) );
#440 = VERTEX_POINT ( 'NONE', #916 ) ;
#441 = EDGE_LOOP ( 'NONE', ( #224, #301, #285, #133 ) ) ;
#442 = DIRECTION ( 'NONE',  ( -1.000000000000000000, 0.000000000000000000, 0.000000000000000000 ) ) ;
#443 = ORIENTED_EDGE ( 'NONE', *, *, #96, .F. ) ;
#444 = CARTESIAN_POINT ( 'NONE',  ( 77.00000000000000000, 0.000000000000000000, 2.000000000000000000 ) ) ;
#445 = ORIENTED_EDGE ( 'NONE', *, *, #736, .F. ) ;
#446 = EDGE_LOOP ( 'NONE', ( #939, #698 ) ) ;
#447 = AXIS2_PLACEMENT_3D ( 'NONE', #1053, #482, #384 ) ;
#448 = UNCERTAINTY_MEASURE_WITH_UNIT (LENGTH_MEASURE( 1.000000000000000082E-05 ), #123, 'distance_accuracy_value', 'NONE');
#449 = ADVANCED_FACE ( 'NONE', ( #848 ), #519, .F. ) ;
#450 = DIRECTION ( 'NONE',  ( 0.000000000000000000, 0.000000000000000000, -1.000000000000000000 ) ) ;
#451 = ORIENTED_EDGE ( 'NONE', *, *, #921, .F. ) ;
#452 = APPROVAL_STATUS ( 'not_yet_approved' ) ;
#453 = ADVANCED_BREP_SHAPE_REPRESENTATION ( 'TX_Cover', ( #882, #883 ), #483 ) ;
#454 = ORIENTED_EDGE ( 'NONE', *, *, #967, .F. ) ;
#455 = ORIENTED_EDGE ( 'NONE', *, *, #61, .F. ) ;
#456 = VECTOR ( 'NONE', #409, 1000.000000000000000 ) ;
#457 = FACE_OUTER_BOUND ( 'NONE', #840, .T. ) ;
#458 = VERTEX_POINT ( 'NONE', #21 ) ;
#459 = EDGE_CURVE ( 'NONE', #757, #699, #1018, .T. ) ;
#460 = VECTOR ( 'NONE', #629, 1000.000000000000000 ) ;
#461 = EDGE_CURVE ( 'NONE', #1017, #550, #109, .T. ) ;
#462 = DIRECTION ( 'NONE',  ( -1.000000000000000000, -0.000000000000000000, -0.000000000000000000 ) ) ;
#463 = VERTEX_POINT ( 'NONE', #175 ) ;
#464 = LINE ( 'NONE', #40, #821 ) ;
#465 = EDGE_CURVE ( 'NONE', #842, #757, #253, .T. ) ;
#466 = ORIENTED_EDGE ( 'NONE', *, *, #343, .T. ) ;
#467 = CARTESIAN_POINT ( 'NONE',  ( 14.50000000000000000, 55.50000000000000000, 2.000000000000000000 ) ) ;
#468 = ORIENTED_EDGE ( 'NONE', *, *, #530, .F. ) ;
#469 = VECTOR ( 'NONE', #178, 1000.000000000000000 ) ;
#470 = DIRECTION ( 'NONE',  ( -1.000000000000000000, 0.000000000000000000, 0.000000000000000000 ) ) ;
#471 = EDGE_LOOP ( 'NONE', ( #772, #386, #137, #15 ) ) ;
#472 = FACE_BOUND ( 'NONE', #1055, .T. ) ;
#473 = ORIENTED_EDGE ( 'NONE', *, *, #504, .F. ) ;
#474 = DIRECTION ( 'NONE',  ( 0.000000000000000000, 0.000000000000000000, 1.000000000000000000 ) ) ;
#475 = ORIENTED_EDGE ( 'NONE', *, *, #811, .T. ) ;
#476 = CARTESIAN_POINT ( 'NONE',  ( 0.000000000000000000, 0.000000000000000000, 2.000000000000000000 ) ) ;
#477 = CARTESIAN_POINT ( 'NONE',  ( 69.14999999999999147, 54.00000000000000000, 2.000000000000000000 ) ) ;
#478 = CARTESIAN_POINT ( 'NONE',  ( 70.50000000000000000, 18.00000000000000000, 2.000000000000000000 ) ) ;
#479 = CARTESIAN_POINT ( 'NONE',  ( 70.50000000000000000, 43.00000000000000000, 2.000000000000000000 ) ) ;
#480 = CARTESIAN_POINT ( 'NONE',  ( 5.150000000000001243, 54.00000000000000000, 2.000000000000000000 ) ) ;
#481 = CARTESIAN_POINT ( 'NONE',  ( 58.50000000000000000, 50.50000000000000000, 2.000000000000000000 ) ) ;
#482 = DIRECTION ( 'NONE',  ( 0.000000000000000000, 0.000000000000000000, 1.000000000000000000 ) ) ;
#483 =( GEOMETRIC_REPRESENTATION_CONTEXT ( 3 ) GLOBAL_UNCERTAINTY_ASSIGNED_CONTEXT ( ( #448 ) ) GLOBAL_UNIT_ASSIGNED_CONTEXT ( ( #123, #439, #50 ) ) REPRESENTATION_CONTEXT ( 'NONE', 'WORKASPACE' ) );
#484 = LINE ( 'NONE', #729, #571 ) ;
#485 = FACE_BOUND ( 'NONE', #520, .T. ) ;
#486 = CARTESIAN_POINT ( 'NONE',  ( 5.150000000000000355, 18.00000000000000000, 2.000000000000000000 ) ) ;
#487 = DIRECTION ( 'NONE',  ( 1.000000000000000000, 0.000000000000000000, 0.000000000000000000 ) ) ;
#488 = EDGE_CURVE ( 'NONE', #38, #28, #754, .T. ) ;
#489 = CARTESIAN_POINT ( 'NONE',  ( 62.50000000000000000, 43.00000000000000000, 0.000000000000000000 ) ) ;
#490 = CARTESIAN_POINT ( 'NONE',  ( 24.50000000000000000, 55.50000000000000000, 0.000000000000000000 ) ) ;
#491 = CARTESIAN_POINT ( 'NONE',  ( 69.14999999999999147, 18.00000000000000000, 2.000000000000000000 ) ) ;
#492 = AXIS2_PLACEMENT_3D ( 'NONE', #147, #64, #225 ) ;
#493 = CARTESIAN_POINT ( 'NONE',  ( 0.000000000000000000, 0.000000000000000000, 2.000000000000000000 ) ) ;
#494 = EDGE_CURVE ( 'NONE', #514, #630, #1016, .T. ) ;
#495 = VECTOR ( 'NONE', #826, 1000.000000000000000 ) ;
#496 = DIRECTION ( 'NONE',  ( 0.000000000000000000, 0.000000000000000000, -1.000000000000000000 ) ) ;
#497 = DIRECTION ( 'NONE',  ( 0.000000000000000000, 0.000000000000000000, -1.000000000000000000 ) ) ;
#498 = ORIENTED_EDGE ( 'NONE', *, *, #203, .T. ) ;
#499 = CYLINDRICAL_SURFACE ( 'NONE', #25, 1.350000000000004086 ) ;
#500 = VECTOR ( 'NONE', #329, 1000.000000000000000 ) ;
#501 = ADVANCED_FACE ( 'NONE', ( #171 ), #499, .F. ) ;
#502 = FACE_OUTER_BOUND ( 'NONE', #596, .T. ) ;
#503 = LINE ( 'NONE', #328, #1031 ) ;
#504 = EDGE_CURVE ( 'NONE', #550, #53, #758, .T. ) ;
#505 = CARTESIAN_POINT ( 'NONE',  ( 77.00000000000000000, 0.000000000000000000, 0.000000000000000000 ) ) ;
#506 = ORIENTED_EDGE ( 'NONE', *, *, #1041, .F. ) ;
#507 = CARTESIAN_POINT ( 'NONE',  ( 39.50000000000000000, 15.90000000000000036, 0.000000000000000000 ) ) ;
#508 = VERTEX_POINT ( 'NONE', #428 ) ;
#509 = DIRECTION ( 'NONE',  ( 0.000000000000000000, 0.000000000000000000, 1.000000000000000000 ) ) ;
#510 = ORIENTED_EDGE ( 'NONE', *, *, #81, .T. ) ;
#511 = FACE_OUTER_BOUND ( 'NONE', #145, .T. ) ;
#512 = ORIENTED_EDGE ( 'NONE', *, *, #1034, .T. ) ;
#513 = DIRECTION ( 'NONE',  ( 1.000000000000000000, 0.000000000000000000, 0.000000000000000000 ) ) ;
#514 = VERTEX_POINT ( 'NONE', #382 ) ;
#515 = DATE_TIME_ROLE ( 'creation_date' ) ;
#516 = VECTOR ( 'NONE', #986, 1000.000000000000000 ) ;
#517 = CC_DESIGN_APPROVAL ( #871, ( #931 ) ) ;
#518 = CC_DESIGN_PERSON_AND_ORGANIZATION_ASSIGNMENT ( #970, #57, ( #434 ) ) ;
#519 = CYLINDRICAL_SURFACE ( 'NONE', #908, 1.349999999999998757 ) ;
#520 = EDGE_LOOP ( 'NONE', ( #1033, #51, #854, #928 ) ) ;
#521 = ORIENTED_EDGE ( 'NONE', *, *, #504, .T. ) ;
#522 = ORIENTED_EDGE ( 'NONE', *, *, #581, .T. ) ;
#523 = EDGE_LOOP ( 'NONE', ( #119, #769, #969, #269 ) ) ;
#524 = EDGE_CURVE ( 'NONE', #630, #279, #464, .T. ) ;
#525 = LINE ( 'NONE', #211, #529 ) ;
#526 = EDGE_LOOP ( 'NONE', ( #443, #30, #135, #196 ) ) ;
#527 = ORIENTED_EDGE ( 'NONE', *, *, #107, .T. ) ;
#528 = ORIENTED_EDGE ( 'NONE', *, *, #385, .T. ) ;
#529 = VECTOR ( 'NONE', #856, 1000.000000000000000 ) ;
#530 = EDGE_CURVE ( 'NONE', #1040, #801, #52, .T. ) ;
#531 = PLANE ( 'NONE',  #595 ) ;
#532 = ORIENTED_EDGE ( 'NONE', *, *, #837, .F. ) ;
#533 = CALENDAR_DATE ( 2026, 13, 9 ) ;
#534 = VERTEX_POINT ( 'NONE', #717 ) ;
#535 = EDGE_CURVE ( 'NONE', #20, #463, #634, .T. ) ;
#536 = VECTOR ( 'NONE', #778, 1000.000000000000000 ) ;
#537 = EDGE_CURVE ( 'NONE', #545, #463, #782, .T. ) ;
#538 = CARTESIAN_POINT ( 'NONE',  ( 39.50000000000000000, 15.90000000000000036, 2.000000000000000000 ) ) ;
#539 = CARTESIAN_POINT ( 'NONE',  ( 6.500000000000000000, 54.00000000000000000, 2.000000000000000000 ) ) ;
#540 = DIRECTION ( 'NONE',  ( 0.000000000000000000, 0.000000000000000000, 1.000000000000000000 ) ) ;
#541 = ORIENTED_EDGE ( 'NONE', *, *, #331, .T. ) ;
#542 = VECTOR ( 'NONE', #284, 1000.000000000000000 ) ;
#543 = EDGE_CURVE ( 'NONE', #855, #1017, #776, .T. ) ;
#544 = CARTESIAN_POINT ( 'NONE',  ( 71.84999999999999432, 18.00000000000000000, 2.000000000000000000 ) ) ;
#545 = VERTEX_POINT ( 'NONE', #544 ) ;
#546 = FACE_OUTER_BOUND ( 'NONE', #875, .T. ) ;
#547 = ORIENTED_EDGE ( 'NONE', *, *, #299, .F. ) ;
#548 = EDGE_CURVE ( 'NONE', #258, #279, #1074, .T. ) ;
#549 = CARTESIAN_POINT ( 'NONE',  ( 62.50000000000000000, 43.00000000000000000, 2.000000000000000000 ) ) ;
#550 = VERTEX_POINT ( 'NONE', #786 ) ;
#551 = PLANE ( 'NONE',  #554 ) ;
#552 = EDGE_LOOP ( 'NONE', ( #835, #639, #852, #593 ) ) ;
#553 = CIRCLE ( 'NONE', #94, 1.349999999999999645 ) ;
#554 = AXIS2_PLACEMENT_3D ( 'NONE', #631, #320, #958 ) ;
#555 = CARTESIAN_POINT ( 'NONE',  ( 0.000000000000000000, 0.000000000000000000, 2.000000000000000000 ) ) ;
#556 = EDGE_LOOP ( 'NONE', ( #849, #122 ) ) ;
#557 = APPROVAL_STATUS ( 'not_yet_approved' ) ;
#558 = FACE_BOUND ( 'NONE', #187, .T. ) ;
#559 = CARTESIAN_POINT ( 'NONE',  ( 50.50000000000000000, 50.50000000000000000, 0.000000000000000000 ) ) ;
#560 = PLANE ( 'NONE',  #670 ) ;
#561 = CARTESIAN_POINT ( 'NONE',  ( 69.14999999999999147, 18.00000000000000000, 0.000000000000000000 ) ) ;
#562 = LINE ( 'NONE', #818, #456 ) ;
#563 = DIRECTION ( 'NONE',  ( 1.000000000000000000, 0.000000000000000000, 0.000000000000000000 ) ) ;
#564 = LINE ( 'NONE', #477, #779 ) ;
#565 = CARTESIAN_POINT ( 'NONE',  ( 50.50000000000000000, 50.50000000000000000, 2.000000000000000000 ) ) ;
#566 = EDGE_CURVE ( 'NONE', #604, #41, #954, .T. ) ;
#567 = CARTESIAN_POINT ( 'NONE',  ( 7.849999999999999645, 54.00000000000000000, 0.000000000000000000 ) ) ;
#568 = DIRECTION ( 'NONE',  ( 1.000000000000000000, 0.000000000000000000, 0.000000000000000000 ) ) ;
#569 = CARTESIAN_POINT ( 'NONE',  ( 62.50000000000000000, 35.00000000000000000, 2.000000000000000000 ) ) ;
#570 = EDGE_CURVE ( 'NONE', #458, #604, #47, .T. ) ;
#571 = VECTOR ( 'NONE', #321, 1000.000000000000000 ) ;
#572 = APPROVAL_PERSON_ORGANIZATION ( #218, #871, #1065 ) ;
#573 = CARTESIAN_POINT ( 'NONE',  ( 24.50000000000000000, 50.50000000000000000, 2.000000000000000000 ) ) ;
#574 = FACE_BOUND ( 'NONE', #201, .T. ) ;
#575 = DIRECTION ( 'NONE',  ( -1.000000000000000000, 0.000000000000000000, 0.000000000000000000 ) ) ;
#576 = CARTESIAN_POINT ( 'NONE',  ( 14.50000000000000000, 50.50000000000000000, 0.000000000000000000 ) ) ;
#577 = EDGE_CURVE ( 'NONE', #373, #110, #367, .T. ) ;
#578 = FACE_OUTER_BOUND ( 'NONE', #783, .T. ) ;
#579 = CYLINDRICAL_SURFACE ( 'NONE', #944, 1.350000000000004086 ) ;
#580 = PLANE ( 'NONE',  #283 ) ;
#581 = EDGE_CURVE ( 'NONE', #1040, #275, #372, .T. ) ;
#582 = VECTOR ( 'NONE', #411, 1000.000000000000000 ) ;
#583 = CARTESIAN_POINT ( 'NONE',  ( 58.50000000000000000, 50.50000000000000000, 2.000000000000000000 ) ) ;
#584 = VECTOR ( 'NONE', #585, 1000.000000000000000 ) ;
#585 = DIRECTION ( 'NONE',  ( 0.000000000000000000, 0.000000000000000000, -1.000000000000000000 ) ) ;
#586 = CARTESIAN_POINT ( 'NONE',  ( 6.500000000000000000, 54.00000000000000000, 0.000000000000000000 ) ) ;
#587 = EDGE_CURVE ( 'NONE', #110, #56, #701, .T. ) ;
#588 = EDGE_LOOP ( 'NONE', ( #466, #388, #289, #197 ) ) ;
#589 = CARTESIAN_POINT ( 'NONE',  ( 39.50000000000000000, 4.900000000000000355, 2.000000000000000000 ) ) ;
#590 = AXIS2_PLACEMENT_3D ( 'NONE', #277, #1024, #932 ) ;
#591 = ORIENTED_EDGE ( 'NONE', *, *, #961, .T. ) ;
#592 = CARTESIAN_POINT ( 'NONE',  ( 24.50000000000000000, 55.50000000000000000, 2.000000000000000000 ) ) ;
#593 = ORIENTED_EDGE ( 'NONE', *, *, #1058, .F. ) ;
#594 = LINE ( 'NONE', #605, #696 ) ;
#595 = AXIS2_PLACEMENT_3D ( 'NONE', #362, #624, #872 ) ;
#596 = EDGE_LOOP ( 'NONE', ( #48, #63, #632, #1011 ) ) ;
#597 = DIRECTION ( 'NONE',  ( -1.000000000000000000, -0.000000000000000000, -0.000000000000000000 ) ) ;
#598 = EDGE_LOOP ( 'NONE', ( #429, #636, #762, #930 ) ) ;
#599 = CARTESIAN_POINT ( 'NONE',  ( 14.50000000000000000, 55.50000000000000000, 2.000000000000000000 ) ) ;
#600 = ORIENTED_EDGE ( 'NONE', *, *, #602, .T. ) ;
#601 = CALENDAR_DATE ( 2026, 13, 9 ) ;
#602 = EDGE_CURVE ( 'NONE', #189, #38, #1042, .T. ) ;
#603 = ORIENTED_EDGE ( 'NONE', *, *, #343, .F. ) ;
#604 = VERTEX_POINT ( 'NONE', #1037 ) ;
#605 = CARTESIAN_POINT ( 'NONE',  ( 50.50000000000000000, 50.50000000000000000, 0.000000000000000000 ) ) ;
#606 = ORIENTED_EDGE ( 'NONE', *, *, #237, .F. ) ;
#607 = ORIENTED_EDGE ( 'NONE', *, *, #945, .F. ) ;
#608 = AXIS2_PLACEMENT_3D ( 'NONE', #1006, #760, #14 ) ;
#609 = EDGE_LOOP ( 'NONE', ( #370, #104 ) ) ;
#610 = ORIENTED_EDGE ( 'NONE', *, *, #651, .T. ) ;
#611 = ORIENTED_EDGE ( 'NONE', *, *, #459, .T. ) ;
#612 = DIRECTION ( 'NONE',  ( 0.000000000000000000, 1.000000000000000000, 0.000000000000000000 ) ) ;
#613 = VERTEX_POINT ( 'NONE', #293 ) ;
#614 = LINE ( 'NONE', #1039, #536 ) ;
#615 = ORIENTED_EDGE ( 'NONE', *, *, #524, .T. ) ;
#616 = ORIENTED_EDGE ( 'NONE', *, *, #186, .T. ) ;
#617 = EDGE_CURVE ( 'NONE', #798, #268, #297, .T. ) ;
#618 = DIRECTION ( 'NONE',  ( 0.000000000000000000, 0.000000000000000000, -1.000000000000000000 ) ) ;
#619 = EDGE_LOOP ( 'NONE', ( #358, #261, #337, #451 ) ) ;
#620 = CARTESIAN_POINT ( 'NONE',  ( 5.150000000000001243, 54.00000000000000000, 2.000000000000000000 ) ) ;
#621 = ADVANCED_FACE ( 'NONE', ( #962 ), #531, .T. ) ;
#622 = ORIENTED_EDGE ( 'NONE', *, *, #143, .F. ) ;
#623 = ADVANCED_FACE ( 'NONE', ( #947 ), #223, .F. ) ;
#624 = DIRECTION ( 'NONE',  ( 1.000000000000000000, -0.000000000000000000, 0.000000000000000000 ) ) ;
#625 = ORIENTED_EDGE ( 'NONE', *, *, #889, .T. ) ;
#626 = CARTESIAN_POINT ( 'NONE',  ( 6.500000000000000000, 54.00000000000000000, 2.000000000000000000 ) ) ;
#627 = VERTEX_POINT ( 'NONE', #33 ) ;
#628 = CC_DESIGN_APPROVAL ( #222, ( #26 ) ) ;
#629 = DIRECTION ( 'NONE',  ( -0.000000000000000000, -0.000000000000000000, -1.000000000000000000 ) ) ;
#630 = VERTEX_POINT ( 'NONE', #134 ) ;
#631 = CARTESIAN_POINT ( 'NONE',  ( 0.000000000000000000, 61.00000000000000000, 2.000000000000000000 ) ) ;
#632 = ORIENTED_EDGE ( 'NONE', *, *, #286, .T. ) ;
#633 = EDGE_LOOP ( 'NONE', ( #498, #622, #377, #865 ) ) ;
#634 = CIRCLE ( 'NONE', #46, 1.350000000000004086 ) ;
#635 = CARTESIAN_POINT ( 'NONE',  ( 70.50000000000000000, 35.00000000000000000, 2.000000000000000000 ) ) ;
#636 = ORIENTED_EDGE ( 'NONE', *, *, #61, .T. ) ;
#637 = COORDINATED_UNIVERSAL_TIME_OFFSET ( 8, 0, .AHEAD. ) ;
#638 = DIRECTION ( 'NONE',  ( 1.000000000000000000, -0.000000000000000000, 0.000000000000000000 ) ) ;
#639 = ORIENTED_EDGE ( 'NONE', *, *, #617, .T. ) ;
#640 = AXIS2_PLACEMENT_3D ( 'NONE', #569, #656, #1049 ) ;
#641 = PLANE ( 'NONE',  #361 ) ;
#642 = ORIENTED_EDGE ( 'NONE', *, *, #808, .T. ) ;
#643 = DIRECTION ( 'NONE',  ( -1.000000000000000000, 0.000000000000000000, 0.000000000000000000 ) ) ;
#644 = FACE_BOUND ( 'NONE', #705, .T. ) ;
#645 = LINE ( 'NONE', #968, #1060 ) ;
#646 = DIRECTION ( 'NONE',  ( -0.000000000000000000, -1.000000000000000000, -0.000000000000000000 ) ) ;
#647 = PERSON_AND_ORGANIZATION_ROLE ( 'design_supplier' ) ;
#648 = CARTESIAN_POINT ( 'NONE',  ( 50.50000000000000000, 57.00000000000000000, 2.000000000000000000 ) ) ;
#649 = PLANE ( 'NONE',  #492 ) ;
#650 = VECTOR ( 'NONE', #257, 1000.000000000000000 ) ;
#651 = EDGE_CURVE ( 'NONE', #508, #436, #525, .T. ) ;
#652 = LINE ( 'NONE', #92, #844 ) ;
#653 = DIRECTION ( 'NONE',  ( 0.000000000000000000, 0.000000000000000000, 1.000000000000000000 ) ) ;
#654 = CARTESIAN_POINT ( 'NONE',  ( 0.000000000000000000, 0.000000000000000000, 0.000000000000000000 ) ) ;
#655 = EDGE_CURVE ( 'NONE', #275, #273, #121, .T. ) ;
#656 = DIRECTION ( 'NONE',  ( -0.000000000000000000, 1.000000000000000000, 0.000000000000000000 ) ) ;
#657 = CARTESIAN_POINT ( 'NONE',  ( 58.50000000000000000, 57.00000000000000000, 2.000000000000000000 ) ) ;
#658 = DIRECTION ( 'NONE',  ( 0.000000000000000000, -0.000000000000000000, 1.000000000000000000 ) ) ;
#659 = CARTESIAN_POINT ( 'NONE',  ( 24.50000000000000000, 50.50000000000000000, 2.000000000000000000 ) ) ;
#660 = DIRECTION ( 'NONE',  ( 0.000000000000000000, -1.000000000000000000, 0.000000000000000000 ) ) ;
#661 = ADVANCED_FACE ( 'NONE', ( #457 ), #797, .F. ) ;
#662 = APPROVAL_PERSON_ORGANIZATION ( #858, #904, #213 ) ;
#663 = DIRECTION ( 'NONE',  ( -1.000000000000000000, -0.000000000000000000, -0.000000000000000000 ) ) ;
#664 = PLANE ( 'NONE',  #672 ) ;
#665 = FACE_OUTER_BOUND ( 'NONE', #1008, .T. ) ;
#666 = DIRECTION ( 'NONE',  ( 1.000000000000000000, 0.000000000000000000, 0.000000000000000000 ) ) ;
#667 = DIRECTION ( 'NONE',  ( 0.000000000000000000, 0.000000000000000000, -1.000000000000000000 ) ) ;
#668 = CARTESIAN_POINT ( 'NONE',  ( 14.50000000000000000, 55.50000000000000000, 0.000000000000000000 ) ) ;
#669 = ORIENTED_EDGE ( 'NONE', *, *, #427, .T. ) ;
#670 = AXIS2_PLACEMENT_3D ( 'NONE', #144, #890, #62 ) ;
#671 = DIRECTION ( 'NONE',  ( 1.000000000000000000, 0.000000000000000000, 0.000000000000000000 ) ) ;
#672 = AXIS2_PLACEMENT_3D ( 'NONE', #1072, #575, #9 ) ;
#673 = DIRECTION ( 'NONE',  ( 1.000000000000000000, 0.000000000000000000, 0.000000000000000000 ) ) ;
#674 = DIRECTION ( 'NONE',  ( 1.000000000000000000, 0.000000000000000000, 0.000000000000000000 ) ) ;
#675 = CIRCLE ( 'NONE', #209, 1.349999999999999645 ) ;
#676 = DIRECTION ( 'NONE',  ( 1.000000000000000000, 0.000000000000000000, 0.000000000000000000 ) ) ;
#677 = ORIENTED_EDGE ( 'NONE', *, *, #124, .F. ) ;
#678 = LINE ( 'NONE', #576, #366 ) ;
#679 = EDGE_CURVE ( 'NONE', #715, #229, #228, .T. ) ;
#680 = CARTESIAN_POINT ( 'NONE',  ( 0.000000000000000000, 0.000000000000000000, 2.000000000000000000 ) ) ;
#681 = VECTOR ( 'NONE', #462, 1000.000000000000000 ) ;
#682 = ORIENTED_EDGE ( 'NONE', *, *, #203, .F. ) ;
#683 = DIRECTION ( 'NONE',  ( 0.000000000000000000, 0.000000000000000000, -1.000000000000000000 ) ) ;
#684 = ORIENTED_EDGE ( 'NONE', *, *, #290, .T. ) ;
#685 = ORIENTED_EDGE ( 'NONE', *, *, #124, .T. ) ;
#686 = ORIENTED_EDGE ( 'NONE', *, *, #43, .F. ) ;
#687 = ORIENTED_EDGE ( 'NONE', *, *, #566, .F. ) ;
#688 = DIRECTION ( 'NONE',  ( 0.000000000000000000, -0.000000000000000000, 1.000000000000000000 ) ) ;
#689 = ORIENTED_EDGE ( 'NONE', *, *, #692, .T. ) ;
#690 = CARTESIAN_POINT ( 'NONE',  ( 58.50000000000000000, 50.50000000000000000, 2.000000000000000000 ) ) ;
#691 = ORIENTED_EDGE ( 'NONE', *, *, #465, .F. ) ;
#692 = EDGE_CURVE ( 'NONE', #189, #627, #645, .T. ) ;
#693 = DIRECTION ( 'NONE',  ( -0.000000000000000000, -1.000000000000000000, -0.000000000000000000 ) ) ;
#694 = ORIENTED_EDGE ( 'NONE', *, *, #353, .T. ) ;
#695 = PERSON_AND_ORGANIZATION_ROLE ( 'creator' ) ;
#696 = VECTOR ( 'NONE', #676, 1000.000000000000000 ) ;
#697 = VECTOR ( 'NONE', #836, 1000.000000000000000 ) ;
#698 = ORIENTED_EDGE ( 'NONE', *, *, #1001, .T. ) ;
#699 = VERTEX_POINT ( 'NONE', #394 ) ;
#700 = EDGE_CURVE ( 'NONE', #545, #613, #204, .T. ) ;
#701 = LINE ( 'NONE', #851, #215 ) ;
#702 = EDGE_LOOP ( 'NONE', ( #473, #351, #528, #115 ) ) ;
#703 = ADVANCED_FACE ( 'NONE', ( #307 ), #138, .T. ) ;
#704 = MECHANICAL_CONTEXT ( 'NONE', #184, 'mechanical' ) ;
#705 = EDGE_LOOP ( 'NONE', ( #963, #383 ) ) ;
#706 = ORIENTED_EDGE ( 'NONE', *, *, #186, .F. ) ;
#707 = ORIENTED_EDGE ( 'NONE', *, *, #886, .T. ) ;
#708 = DIRECTION ( 'NONE',  ( 0.000000000000000000, 0.000000000000000000, 1.000000000000000000 ) ) ;
#709 = FACE_OUTER_BOUND ( 'NONE', #552, .T. ) ;
#710 = DIRECTION ( 'NONE',  ( 1.000000000000000000, 0.000000000000000000, 0.000000000000000000 ) ) ;
#711 = ORIENTED_EDGE ( 'NONE', *, *, #1003, .T. ) ;
#712 = DIRECTION ( 'NONE',  ( 0.000000000000000000, 0.000000000000000000, -1.000000000000000000 ) ) ;
#713 = ORIENTED_EDGE ( 'NONE', *, *, #530, .T. ) ;
#714 = CIRCLE ( 'NONE', #106, 1.349999999999999645 ) ;
#715 = VERTEX_POINT ( 'NONE', #722 ) ;
#716 = ORGANIZATION ( 'æœª', 'æœª', '' ) ;
#717 = CARTESIAN_POINT ( 'NONE',  ( 7.849999999999999645, 18.00000000000000000, 0.000000000000000000 ) ) ;
#718 = ORIENTED_EDGE ( 'NONE', *, *, #1044, .F. ) ;
#719 = CC_DESIGN_DATE_AND_TIME_ASSIGNMENT ( #190, #515, ( #26 ) ) ;
#720 = CARTESIAN_POINT ( 'NONE',  ( 58.50000000000000000, 57.00000000000000000, 0.000000000000000000 ) ) ;
#721 = ORIENTED_EDGE ( 'NONE', *, *, #548, .F. ) ;
#722 = CARTESIAN_POINT ( 'NONE',  ( 24.50000000000000000, 50.50000000000000000, 0.000000000000000000 ) ) ;
#723 = ORIENTED_EDGE ( 'NONE', *, *, #577, .F. ) ;
#724 = DATE_AND_TIME ( #1056, #992 ) ;
#725 = DIRECTION ( 'NONE',  ( -1.000000000000000000, 0.000000000000000000, 0.000000000000000000 ) ) ;
#726 = FACE_OUTER_BOUND ( 'NONE', #371, .T. ) ;
#727 = VECTOR ( 'NONE', #69, 1000.000000000000000 ) ;
#728 = CARTESIAN_POINT ( 'NONE',  ( 70.50000000000000000, 54.00000000000000000, 2.000000000000000000 ) ) ;
#729 = CARTESIAN_POINT ( 'NONE',  ( 0.000000000000000000, 0.000000000000000000, 2.000000000000000000 ) ) ;
#730 = APPROVAL_DATE_TIME ( #724, #871 ) ;
#731 = CYLINDRICAL_SURFACE ( 'NONE', #230, 1.350000000000004086 ) ;
#732 = DIRECTION ( 'NONE',  ( -0.000000000000000000, 1.000000000000000000, 0.000000000000000000 ) ) ;
#733 = EDGE_CURVE ( 'NONE', #373, #855, #803, .T. ) ;
#734 = VECTOR ( 'NONE', #980, 1000.000000000000000 ) ;
#735 = DIRECTION ( 'NONE',  ( 1.000000000000000000, 0.000000000000000000, 0.000000000000000000 ) ) ;
#736 = EDGE_CURVE ( 'NONE', #374, #838, #234, .T. ) ;
#737 = CARTESIAN_POINT ( 'NONE',  ( 67.50000000000000000, 15.90000000000000036, 0.000000000000000000 ) ) ;
#738 = PERSON_AND_ORGANIZATION ( #996, #716 ) ;
#739 = CARTESIAN_POINT ( 'NONE',  ( 6.500000000000000000, 18.00000000000000000, 2.000000000000000000 ) ) ;
#740 = ADVANCED_FACE ( 'NONE', ( #65 ), #560, .F. ) ;
#741 = LINE ( 'NONE', #405, #991 ) ;
#742 = FACE_BOUND ( 'NONE', #1023, .T. ) ;
#743 = AXIS2_PLACEMENT_3D ( 'NONE', #8, #16, #666 ) ;
#744 = CARTESIAN_POINT ( 'NONE',  ( 62.50000000000000000, 35.00000000000000000, 0.000000000000000000 ) ) ;
#745 = DIRECTION ( 'NONE',  ( 1.000000000000000000, 0.000000000000000000, 0.000000000000000000 ) ) ;
#746 = DIRECTION ( 'NONE',  ( 0.000000000000000000, 0.000000000000000000, -1.000000000000000000 ) ) ;
#747 = DIRECTION ( 'NONE',  ( 1.000000000000000000, 0.000000000000000000, 0.000000000000000000 ) ) ;
#748 = CARTESIAN_POINT ( 'NONE',  ( 24.50000000000000000, 50.50000000000000000, 2.000000000000000000 ) ) ;
#749 = ADVANCED_FACE ( 'NONE', ( #1054 ), #641, .F. ) ;
#750 = DIRECTION ( 'NONE',  ( 1.000000000000000000, 0.000000000000000000, 0.000000000000000000 ) ) ;
#751 = CARTESIAN_POINT ( 'NONE',  ( 0.000000000000000000, 0.000000000000000000, 0.000000000000000000 ) ) ;
#752 = CIRCLE ( 'NONE', #590, 1.349999999999999645 ) ;
#753 = VECTOR ( 'NONE', #287, 1000.000000000000000 ) ;
#754 = LINE ( 'NONE', #334, #957 ) ;
#755 = DIRECTION ( 'NONE',  ( 1.000000000000000000, 0.000000000000000000, 0.000000000000000000 ) ) ;
#756 = LINE ( 'NONE', #10, #19 ) ;
#757 = VERTEX_POINT ( 'NONE', #467 ) ;
#758 = LINE ( 'NONE', #1004, #650 ) ;
#759 = DIRECTION ( 'NONE',  ( 1.000000000000000000, -0.000000000000000000, 0.000000000000000000 ) ) ;
#760 = DIRECTION ( 'NONE',  ( 0.000000000000000000, 0.000000000000000000, 1.000000000000000000 ) ) ;
#761 = LINE ( 'NONE', #263, #417 ) ;
#762 = ORIENTED_EDGE ( 'NONE', *, *, #96, .T. ) ;
#763 = CARTESIAN_POINT ( 'NONE',  ( 5.150000000000000355, 18.00000000000000000, 0.000000000000000000 ) ) ;
#764 = EDGE_CURVE ( 'NONE', #38, #458, #964, .T. ) ;
#765 = ORIENTED_EDGE ( 'NONE', *, *, #79, .T. ) ;
#766 = EDGE_CURVE ( 'NONE', #966, #1036, #985, .T. ) ;
#767 = LOCAL_TIME ( 2, 20, 3.000000000000000000, #128 ) ;
#768 = DIRECTION ( 'NONE',  ( 1.000000000000000000, -0.000000000000000000, 0.000000000000000000 ) ) ;
#769 = ORIENTED_EDGE ( 'NONE', *, *, #997, .F. ) ;
#770 = ORIENTED_EDGE ( 'NONE', *, *, #1001, .F. ) ;
#771 = CARTESIAN_POINT ( 'NONE',  ( 39.50000000000000000, 15.90000000000000036, 2.000000000000000000 ) ) ;
#772 = ORIENTED_EDGE ( 'NONE', *, *, #976, .T. ) ;
#773 = DIRECTION ( 'NONE',  ( 0.000000000000000000, 0.000000000000000000, -1.000000000000000000 ) ) ;
#774 = EDGE_CURVE ( 'NONE', #17, #842, #406, .T. ) ;
#775 = ORIENTED_EDGE ( 'NONE', *, *, #945, .T. ) ;
#776 = LINE ( 'NONE', #538, #870 ) ;
#777 = ORIENTED_EDGE ( 'NONE', *, *, #692, .F. ) ;
#778 = DIRECTION ( 'NONE',  ( 0.000000000000000000, 1.000000000000000000, 0.000000000000000000 ) ) ;
#779 = VECTOR ( 'NONE', #304, 1000.000000000000000 ) ;
#780 = AXIS2_PLACEMENT_3D ( 'NONE', #251, #84, #902 ) ;
#781 = ADVANCED_FACE ( 'NONE', ( #795 ), #874, .T. ) ;
#782 = LINE ( 'NONE', #376, #267 ) ;
#783 = EDGE_LOOP ( 'NONE', ( #1061, #34, #292, #770 ) ) ;
#784 = COORDINATED_UNIVERSAL_TIME_OFFSET ( 8, 0, .AHEAD. ) ;
#785 = VECTOR ( 'NONE', #166, 1000.000000000000000 ) ;
#786 = CARTESIAN_POINT ( 'NONE',  ( 39.50000000000000000, 15.90000000000000036, 0.000000000000000000 ) ) ;
#787 = ORIENTED_EDGE ( 'NONE', *, *, #107, .F. ) ;
#788 = CARTESIAN_POINT ( 'NONE',  ( 50.50000000000000000, 50.50000000000000000, 0.000000000000000000 ) ) ;
#789 = VECTOR ( 'NONE', #216, 1000.000000000000000 ) ;
#790 = CARTESIAN_POINT ( 'NONE',  ( 6.500000000000000000, 18.00000000000000000, 2.000000000000000000 ) ) ;
#791 = VERTEX_POINT ( 'NONE', #1059 ) ;
#792 = CC_DESIGN_PERSON_AND_ORGANIZATION_ASSIGNMENT ( #1020, #695, ( #26 ) ) ;
#793 = CARTESIAN_POINT ( 'NONE',  ( 70.50000000000000000, 18.00000000000000000, 0.000000000000000000 ) ) ;
#794 = VERTEX_POINT ( 'NONE', #232 ) ;
#795 = FACE_OUTER_BOUND ( 'NONE', #526, .T. ) ;
#796 = CC_DESIGN_SECURITY_CLASSIFICATION ( #931, ( #434 ) ) ;
#797 = CYLINDRICAL_SURFACE ( 'NONE', #859, 1.350000000000004086 ) ;
#798 = VERTEX_POINT ( 'NONE', #799 ) ;
#799 = CARTESIAN_POINT ( 'NONE',  ( 7.849999999999999645, 54.00000000000000000, 2.000000000000000000 ) ) ;
#800 = ADVANCED_FACE ( 'NONE', ( #726 ), #59, .T. ) ;
#801 = VERTEX_POINT ( 'NONE', #238 ) ;
#802 = DESIGN_CONTEXT ( 'detailed design', #177, 'design' ) ;
#803 = LINE ( 'NONE', #977, #70 ) ;
#804 = ORIENTED_EDGE ( 'NONE', *, *, #425, .F. ) ;
#805 = ADVANCED_FACE ( 'NONE', ( #154 ), #649, .F. ) ;
#806 = PLANE ( 'NONE',  #282 ) ;
#807 = DIRECTION ( 'NONE',  ( 0.000000000000000000, 0.000000000000000000, -1.000000000000000000 ) ) ;
#808 = EDGE_CURVE ( 'NONE', #436, #801, #160, .T. ) ;
#809 = AXIS2_PLACEMENT_3D ( 'NONE', #478, #474, #735 ) ;
#810 = AXIS2_PLACEMENT_3D ( 'NONE', #481, #76, #418 ) ;
#811 = EDGE_CURVE ( 'NONE', #37, #189, #820, .T. ) ;
#812 = DIRECTION ( 'NONE',  ( 0.000000000000000000, 0.000000000000000000, -1.000000000000000000 ) ) ;
#813 = CARTESIAN_POINT ( 'NONE',  ( 14.50000000000000000, 50.50000000000000000, 2.000000000000000000 ) ) ;
#814 = CARTESIAN_POINT ( 'NONE',  ( 71.84999999999999432, 54.00000000000000000, 0.000000000000000000 ) ) ;
#815 = CARTESIAN_POINT ( 'NONE',  ( 39.50000000000000000, 4.900000000000000355, 2.000000000000000000 ) ) ;
#816 = FACE_OUTER_BOUND ( 'NONE', #952, .T. ) ;
#817 = CARTESIAN_POINT ( 'NONE',  ( 62.50000000000000000, 35.00000000000000000, 0.000000000000000000 ) ) ;
#818 = CARTESIAN_POINT ( 'NONE',  ( 0.000000000000000000, 0.000000000000000000, 0.000000000000000000 ) ) ;
#819 = DIRECTION ( 'NONE',  ( 0.000000000000000000, 0.000000000000000000, -1.000000000000000000 ) ) ;
#820 = LINE ( 'NONE', #85, #582 ) ;
#821 = VECTOR ( 'NONE', #618, 1000.000000000000000 ) ;
#822 = FACE_BOUND ( 'NONE', #609, .T. ) ;
#823 = DIRECTION ( 'NONE',  ( 0.000000000000000000, -1.000000000000000000, 0.000000000000000000 ) ) ;
#824 = CARTESIAN_POINT ( 'NONE',  ( 50.50000000000000000, 50.50000000000000000, 2.000000000000000000 ) ) ;
#825 = FACE_OUTER_BOUND ( 'NONE', #873, .T. ) ;
#826 = DIRECTION ( 'NONE',  ( -0.000000000000000000, -0.000000000000000000, -1.000000000000000000 ) ) ;
#827 = LINE ( 'NONE', #668, #249 ) ;
#828 = VECTOR ( 'NONE', #663, 1000.000000000000000 ) ;
#829 = EDGE_CURVE ( 'NONE', #514, #258, #564, .T. ) ;
#830 = LOCAL_TIME ( 2, 20, 3.000000000000000000, #784 ) ;
#831 = DIRECTION ( 'NONE',  ( -1.000000000000000000, -0.000000000000000000, -0.000000000000000000 ) ) ;
#832 = PLANE ( 'NONE',  #397 ) ;
#833 = DIRECTION ( 'NONE',  ( 0.000000000000000000, 0.000000000000000000, 1.000000000000000000 ) ) ;
#834 = DIRECTION ( 'NONE',  ( 0.000000000000000000, 0.000000000000000000, -1.000000000000000000 ) ) ;
#835 = ORIENTED_EDGE ( 'NONE', *, *, #1041, .T. ) ;
#836 = DIRECTION ( 'NONE',  ( -1.000000000000000000, -0.000000000000000000, -0.000000000000000000 ) ) ;
#837 = EDGE_CURVE ( 'NONE', #798, #271, #909, .T. ) ;
#838 = VERTEX_POINT ( 'NONE', #720 ) ;
#839 = ADVANCED_FACE ( 'NONE', ( #879 ), #312, .T. ) ;
#840 = EDGE_LOOP ( 'NONE', ( #207, #615, #721, #1025 ) ) ;
#841 = DIRECTION ( 'NONE',  ( 0.000000000000000000, 0.000000000000000000, -1.000000000000000000 ) ) ;
#842 = VERTEX_POINT ( 'NONE', #1067 ) ;
#843 = LINE ( 'NONE', #332, #899 ) ;
#844 = VECTOR ( 'NONE', #819, 1000.000000000000000 ) ;
#845 = ORIENTED_EDGE ( 'NONE', *, *, #461, .T. ) ;
#846 = ADVANCED_FACE ( 'NONE', ( #816 ), #551, .F. ) ;
#847 = VECTOR ( 'NONE', #93, 1000.000000000000000 ) ;
#848 = FACE_OUTER_BOUND ( 'NONE', #619, .T. ) ;
#849 = ORIENTED_EDGE ( 'NONE', *, *, #392, .T. ) ;
#850 = CALENDAR_DATE ( 2026, 13, 9 ) ;
#851 = CARTESIAN_POINT ( 'NONE',  ( 67.50000000000000000, 4.900000000000000355, 0.000000000000000000 ) ) ;
#852 = ORIENTED_EDGE ( 'NONE', *, *, #117, .F. ) ;
#853 = APPROVAL_STATUS ( 'not_yet_approved' ) ;
#854 = ORIENTED_EDGE ( 'NONE', *, *, #733, .F. ) ;
#855 = VERTEX_POINT ( 'NONE', #77 ) ;
#856 = DIRECTION ( 'NONE',  ( -0.000000000000000000, -0.000000000000000000, -1.000000000000000000 ) ) ;
#857 = EDGE_LOOP ( 'NONE', ( #435, #200, #616, #804 ) ) ;
#858 = PERSON_AND_ORGANIZATION ( #996, #716 ) ;
#859 = AXIS2_PLACEMENT_3D ( 'NONE', #728, #72, #470 ) ;
#860 = CIRCLE ( 'NONE', #1062, 1.350000000000004086 ) ;
#861 = ORIENTED_EDGE ( 'NONE', *, *, #392, .F. ) ;
#862 = ORIENTED_EDGE ( 'NONE', *, *, #919, .F. ) ;
#863 = ORIENTED_EDGE ( 'NONE', *, *, #286, .F. ) ;
#864 = DIRECTION ( 'NONE',  ( -1.000000000000000000, -0.000000000000000000, -0.000000000000000000 ) ) ;
#865 = ORIENTED_EDGE ( 'NONE', *, *, #655, .T. ) ;
#866 = CARTESIAN_POINT ( 'NONE',  ( 77.00000000000000000, 61.00000000000000000, 2.000000000000000000 ) ) ;
#867 = CARTESIAN_POINT ( 'NONE',  ( 0.000000000000000000, 61.00000000000000000, 2.000000000000000000 ) ) ;
#868 = EDGE_LOOP ( 'NONE', ( #787, #356 ) ) ;
#869 = DIRECTION ( 'NONE',  ( 1.000000000000000000, 0.000000000000000000, 0.000000000000000000 ) ) ;
#870 = VECTOR ( 'NONE', #864, 1000.000000000000000 ) ;
#871 = APPROVAL ( #557, 'æœª' ) ;
#872 = DIRECTION ( 'NONE',  ( 0.000000000000000000, 0.000000000000000000, -1.000000000000000000 ) ) ;
#873 = EDGE_LOOP ( 'NONE', ( #214, #669, #512, #522 ) ) ;
#874 = PLANE ( 'NONE',  #640 ) ;
#875 = EDGE_LOOP ( 'NONE', ( #682, #917, #127, #603 ) ) ;
#876 = DIRECTION ( 'NONE',  ( 0.000000000000000000, 1.000000000000000000, 0.000000000000000000 ) ) ;
#877 = ADVANCED_FACE ( 'NONE', ( #742, #644, #219, #142, #546, #472, #1073, #324, #903 ), #265, .T. ) ;
#878 = ORIENTED_EDGE ( 'NONE', *, *, #886, .F. ) ;
#879 = FACE_OUTER_BOUND ( 'NONE', #220, .T. ) ;
#880 = ORIENTED_EDGE ( 'NONE', *, *, #274, .T. ) ;
#881 = AXIS2_PLACEMENT_3D ( 'NONE', #589, #927, #688 ) ;
#882 = MANIFOLD_SOLID_BREP ( 'ÇÐ³ý-À­Éì3', #157 ) ;
#883 = AXIS2_PLACEMENT_3D ( 'NONE', #942, #929, #869 ) ;
#884 = DIRECTION ( 'NONE',  ( 0.000000000000000000, -1.000000000000000000, 0.000000000000000000 ) ) ;
#885 = ORIENTED_EDGE ( 'NONE', *, *, #679, .T. ) ;
#886 = EDGE_CURVE ( 'NONE', #1038, #715, #756, .T. ) ;
#887 = CARTESIAN_POINT ( 'NONE',  ( 69.14999999999999147, 54.00000000000000000, 0.000000000000000000 ) ) ;
#888 = CARTESIAN_POINT ( 'NONE',  ( 62.50000000000000000, 35.00000000000000000, 2.000000000000000000 ) ) ;
#889 = EDGE_CURVE ( 'NONE', #613, #20, #1000, .T. ) ;
#890 = DIRECTION ( 'NONE',  ( -1.000000000000000000, 0.000000000000000000, 0.000000000000000000 ) ) ;
#891 = CARTESIAN_POINT ( 'NONE',  ( 0.000000000000000000, 61.00000000000000000, 0.000000000000000000 ) ) ;
#892 = DIRECTION ( 'NONE',  ( 0.000000000000000000, 0.000000000000000000, -1.000000000000000000 ) ) ;
#893 = PLANE ( 'NONE',  #810 ) ;
#894 = DIRECTION ( 'NONE',  ( 0.000000000000000000, -0.000000000000000000, 1.000000000000000000 ) ) ;
#895 = LINE ( 'NONE', #565, #946 ) ;
#896 = CARTESIAN_POINT ( 'NONE',  ( 50.50000000000000000, 57.00000000000000000, 2.000000000000000000 ) ) ;
#897 = CARTESIAN_POINT ( 'NONE',  ( 62.50000000000000000, 35.00000000000000000, 2.000000000000000000 ) ) ;
#898 = DIRECTION ( 'NONE',  ( 0.000000000000000000, 1.000000000000000000, 0.000000000000000000 ) ) ;
#899 = VECTOR ( 'NONE', #5, 1000.000000000000000 ) ;
#900 = CARTESIAN_POINT ( 'NONE',  ( 62.50000000000000000, 35.00000000000000000, 2.000000000000000000 ) ) ;
#901 = LINE ( 'NONE', #311, #734 ) ;
#902 = DIRECTION ( 'NONE',  ( 1.000000000000000000, 0.000000000000000000, 0.000000000000000000 ) ) ;
#903 = FACE_BOUND ( 'NONE', #959, .T. ) ;
#904 = APPROVAL ( #452, 'æœª' ) ;
#905 = LINE ( 'NONE', #489, #785 ) ;
#906 = LINE ( 'NONE', #486, #584 ) ;
#907 = DIRECTION ( 'NONE',  ( 0.000000000000000000, -1.000000000000000000, 0.000000000000000000 ) ) ;
#908 = AXIS2_PLACEMENT_3D ( 'NONE', #437, #841, #103 ) ;
#909 = CIRCLE ( 'NONE', #447, 1.349999999999999645 ) ;
#910 = VECTOR ( 'NONE', #496, 1000.000000000000000 ) ;
#911 = DIRECTION ( 'NONE',  ( 0.000000000000000000, 0.000000000000000000, -1.000000000000000000 ) ) ;
#912 = LINE ( 'NONE', #164, #32 ) ;
#913 = PLANE ( 'NONE',  #7 ) ;
#914 = VECTOR ( 'NONE', #241, 1000.000000000000000 ) ;
#915 = EDGE_CURVE ( 'NONE', #368, #60, #843, .T. ) ;
#916 = CARTESIAN_POINT ( 'NONE',  ( 0.000000000000000000, 0.000000000000000000, 0.000000000000000000 ) ) ;
#917 = ORIENTED_EDGE ( 'NONE', *, *, #81, .F. ) ;
#918 = DIRECTION ( 'NONE',  ( 0.000000000000000000, 0.000000000000000000, -1.000000000000000000 ) ) ;
#919 = EDGE_CURVE ( 'NONE', #229, #699, #827, .T. ) ;
#920 = EDGE_LOOP ( 'NONE', ( #355, #863, #941, #686 ) ) ;
#921 = EDGE_CURVE ( 'NONE', #268, #794, #296, .T. ) ;
#922 = VECTOR ( 'NONE', #936, 1000.000000000000000 ) ;
#923 = LINE ( 'NONE', #680, #39 ) ;
#924 = EDGE_LOOP ( 'NONE', ( #527, #360, #934, #1052 ) ) ;
#925 = DIRECTION ( 'NONE',  ( -0.000000000000000000, -1.000000000000000000, -0.000000000000000000 ) ) ;
#926 = VERTEX_POINT ( 'NONE', #18 ) ;
#927 = DIRECTION ( 'NONE',  ( -0.000000000000000000, 1.000000000000000000, 0.000000000000000000 ) ) ;
#928 = ORIENTED_EDGE ( 'NONE', *, *, #162, .F. ) ;
#929 = DIRECTION ( 'NONE',  ( 0.000000000000000000, 0.000000000000000000, 1.000000000000000000 ) ) ;
#930 = ORIENTED_EDGE ( 'NONE', *, *, #566, .T. ) ;
#931 = SECURITY_CLASSIFICATION ( '', '', #150 ) ;
#932 = DIRECTION ( 'NONE',  ( 1.000000000000000000, 0.000000000000000000, 0.000000000000000000 ) ) ;
#933 = ORIENTED_EDGE ( 'NONE', *, *, #774, .T. ) ;
#934 = ORIENTED_EDGE ( 'NONE', *, *, #535, .F. ) ;
#935 = ORIENTED_EDGE ( 'NONE', *, *, #79, .F. ) ;
#936 = DIRECTION ( 'NONE',  ( 0.000000000000000000, 1.000000000000000000, 0.000000000000000000 ) ) ;
#937 = ORIENTED_EDGE ( 'NONE', *, *, #915, .T. ) ;
#938 = APPLICATION_PROTOCOL_DEFINITION ( 'international standard', 'config_control_design', 1994, #184 ) ;
#939 = ORIENTED_EDGE ( 'NONE', *, *, #548, .T. ) ;
#940 = DIRECTION ( 'NONE',  ( 1.000000000000000000, 0.000000000000000000, 0.000000000000000000 ) ) ;
#941 = ORIENTED_EDGE ( 'NONE', *, *, #915, .F. ) ;
#942 = CARTESIAN_POINT ( 'NONE',  ( 0.000000000000000000, 0.000000000000000000, 0.000000000000000000 ) ) ;
#943 = AXIS2_PLACEMENT_3D ( 'NONE', #400, #732, #894 ) ;
#944 = AXIS2_PLACEMENT_3D ( 'NONE', #167, #892, #1071 ) ;
#945 = EDGE_CURVE ( 'NONE', #699, #1038, #678, .T. ) ;
#946 = VECTOR ( 'NONE', #82, 1000.000000000000000 ) ;
#947 = FACE_OUTER_BOUND ( 'NONE', #217, .T. ) ;
#948 = EDGE_LOOP ( 'NONE', ( #191, #723, #1035, #694 ) ) ;
#949 = DATE_AND_TIME ( #533, #420 ) ;
#950 = PRODUCT_RELATED_PRODUCT_CATEGORY ( 'detail', '', ( #365 ) ) ;
#951 = CIRCLE ( 'NONE', #108, 1.350000000000004086 ) ;
#952 = EDGE_LOOP ( 'NONE', ( #510, #305, #24, #713 ) ) ;
#953 = ADVANCED_FACE ( 'NONE', ( #665 ), #913, .T. ) ;
#954 = LINE ( 'NONE', #1046, #922 ) ;
#955 = ORIENTED_EDGE ( 'NONE', *, *, #967, .T. ) ;
#956 = PERSON_AND_ORGANIZATION_ROLE ( 'classification_officer' ) ;
#957 = VECTOR ( 'NONE', #834, 1000.000000000000000 ) ;
#958 = DIRECTION ( 'NONE',  ( 0.000000000000000000, -0.000000000000000000, -1.000000000000000000 ) ) ;
#959 = EDGE_LOOP ( 'NONE', ( #44, #775, #707, #885 ) ) ;
#960 = ORIENTED_EDGE ( 'NONE', *, *, #88, .T. ) ;
#961 = EDGE_CURVE ( 'NONE', #66, #1036, #173, .T. ) ;
#962 = FACE_OUTER_BOUND ( 'NONE', #391, .T. ) ;
#963 = ORIENTED_EDGE ( 'NONE', *, *, #117, .T. ) ;
#964 = LINE ( 'NONE', #888, #308 ) ;
#965 = VECTOR ( 'NONE', #981, 1000.000000000000000 ) ;
#966 = VERTEX_POINT ( 'NONE', #183 ) ;
#967 = EDGE_CURVE ( 'NONE', #842, #229, #1014, .T. ) ;
#968 = CARTESIAN_POINT ( 'NONE',  ( 62.50000000000000000, 43.00000000000000000, 2.000000000000000000 ) ) ;
#969 = ORIENTED_EDGE ( 'NONE', *, *, #162, .T. ) ;
#970 = PERSON_AND_ORGANIZATION ( #996, #716 ) ;
#971 = FACE_OUTER_BOUND ( 'NONE', #441, .T. ) ;
#972 = ADVANCED_FACE ( 'NONE', ( #511 ), #90, .T. ) ;
#973 = DIRECTION ( 'NONE',  ( 1.000000000000000000, 0.000000000000000000, 0.000000000000000000 ) ) ;
#974 = AXIS2_PLACEMENT_3D ( 'NONE', #739, #68, #83 ) ;
#975 = AXIS2_PLACEMENT_3D ( 'NONE', #626, #540, #710 ) ;
#976 = EDGE_CURVE ( 'NONE', #838, #966, #415, .T. ) ;
#977 = CARTESIAN_POINT ( 'NONE',  ( 67.50000000000000000, 4.900000000000000355, 2.000000000000000000 ) ) ;
#978 = LINE ( 'NONE', #891, #380 ) ;
#979 = PERSON_AND_ORGANIZATION ( #996, #716 ) ;
#980 = DIRECTION ( 'NONE',  ( 1.000000000000000000, 0.000000000000000000, 0.000000000000000000 ) ) ;
#981 = DIRECTION ( 'NONE',  ( 0.000000000000000000, 1.000000000000000000, 0.000000000000000000 ) ) ;
#982 = CARTESIAN_POINT ( 'NONE',  ( 50.50000000000000000, 50.50000000000000000, 2.000000000000000000 ) ) ;
#983 = CYLINDRICAL_SURFACE ( 'NONE', #974, 1.349999999999999645 ) ;
#984 = DIRECTION ( 'NONE',  ( -0.000000000000000000, -1.000000000000000000, -0.000000000000000000 ) ) ;
#985 = LINE ( 'NONE', #559, #727 ) ;
#986 = DIRECTION ( 'NONE',  ( -0.000000000000000000, -1.000000000000000000, -0.000000000000000000 ) ) ;
#987 = LINE ( 'NONE', #3, #500 ) ;
#988 = LINE ( 'NONE', #815, #71 ) ;
#989 = ADVANCED_FACE ( 'NONE', ( #168 ), #580, .T. ) ;
#990 = CARTESIAN_POINT ( 'NONE',  ( 50.50000000000000000, 57.00000000000000000, 0.000000000000000000 ) ) ;
#991 = VECTOR ( 'NONE', #755, 1000.000000000000000 ) ;
#992 = LOCAL_TIME ( 2, 20, 3.000000000000000000, #637 ) ;
#993 = FACE_OUTER_BOUND ( 'NONE', #857, .T. ) ;
#994 = DIRECTION ( 'NONE',  ( 0.000000000000000000, -0.000000000000000000, -1.000000000000000000 ) ) ;
#995 = DIRECTION ( 'NONE',  ( 0.000000000000000000, -0.000000000000000000, -1.000000000000000000 ) ) ;
#996 = PERSON ( 'æœª', 'æœª', 'æœª', ('æœª'), ('æœª'), ('æœª') ) ;
#997 = EDGE_CURVE ( 'NONE', #1013, #53, #503, .T. ) ;
#998 = DIRECTION ( 'NONE',  ( -0.000000000000000000, -1.000000000000000000, -0.000000000000000000 ) ) ;
#999 = CARTESIAN_POINT ( 'NONE',  ( 62.50000000000000000, 43.00000000000000000, 2.000000000000000000 ) ) ;
#1000 = LINE ( 'NONE', #491, #469 ) ;
#1001 = EDGE_CURVE ( 'NONE', #279, #258, #951, .T. ) ;
#1002 = AXIS2_PLACEMENT_3D ( 'NONE', #549, #884, #314 ) ;
#1003 = EDGE_CURVE ( 'NONE', #463, #20, #192, .T. ) ;
#1004 = CARTESIAN_POINT ( 'NONE',  ( 39.50000000000000000, 4.900000000000000355, 0.000000000000000000 ) ) ;
#1005 = CARTESIAN_POINT ( 'NONE',  ( 0.000000000000000000, 0.000000000000000000, 2.000000000000000000 ) ) ;
#1006 = CARTESIAN_POINT ( 'NONE',  ( 70.50000000000000000, 18.00000000000000000, 0.000000000000000000 ) ) ;
#1007 = EDGE_CURVE ( 'NONE', #56, #550, #340, .T. ) ;
#1008 = EDGE_LOOP ( 'NONE', ( #278, #1027, #349, #845 ) ) ;
#1009 = CIRCLE ( 'NONE', #74, 1.350000000000004086 ) ;
#1010 = VECTOR ( 'NONE', #336, 1000.000000000000000 ) ;
#1011 = ORIENTED_EDGE ( 'NONE', *, *, #237, .T. ) ;
#1012 = PLANE ( 'NONE',  #1030 ) ;
#1013 = VERTEX_POINT ( 'NONE', #102 ) ;
#1014 = LINE ( 'NONE', #592, #847 ) ;
#1015 = EDGE_LOOP ( 'NONE', ( #432, #195 ) ) ;
#1016 = CIRCLE ( 'NONE', #743, 1.350000000000004086 ) ;
#1017 = VERTEX_POINT ( 'NONE', #347 ) ;
#1018 = LINE ( 'NONE', #599, #174 ) ;
#1019 = EDGE_LOOP ( 'NONE', ( #180, #677, #933, #955 ) ) ;
#1020 = PERSON_AND_ORGANIZATION ( #996, #716 ) ;
#1021 = ORIENTED_EDGE ( 'NONE', *, *, #227, .T. ) ;
#1022 = VERTEX_POINT ( 'NONE', #763 ) ;
#1023 = EDGE_LOOP ( 'NONE', ( #118, #711 ) ) ;
#1024 = DIRECTION ( 'NONE',  ( 0.000000000000000000, 0.000000000000000000, 1.000000000000000000 ) ) ;
#1025 = ORIENTED_EDGE ( 'NONE', *, *, #829, .F. ) ;
#1026 = ORIENTED_EDGE ( 'NONE', *, *, #151, .T. ) ;
#1027 = ORIENTED_EDGE ( 'NONE', *, *, #353, .F. ) ;
#1028 = PRODUCT_DEFINITION_SHAPE ( 'NONE', 'NONE',  #26 ) ;
#1029 = EDGE_LOOP ( 'NONE', ( #445, #313, #937, #960 ) ) ;
#1030 = AXIS2_PLACEMENT_3D ( 'NONE', #338, #768, #181 ) ;
#1031 = VECTOR ( 'NONE', #497, 1000.000000000000000 ) ;
#1032 = CARTESIAN_POINT ( 'NONE',  ( 77.00000000000000000, 61.00000000000000000, 2.000000000000000000 ) ) ;
#1033 = ORIENTED_EDGE ( 'NONE', *, *, #385, .F. ) ;
#1034 = EDGE_CURVE ( 'NONE', #508, #1040, #272, .T. ) ;
#1035 = ORIENTED_EDGE ( 'NONE', *, *, #733, .T. ) ;
#1036 = VERTEX_POINT ( 'NONE', #788 ) ;
#1037 = CARTESIAN_POINT ( 'NONE',  ( 70.50000000000000000, 35.00000000000000000, 0.000000000000000000 ) ) ;
#1038 = VERTEX_POINT ( 'NONE', #369 ) ;
#1039 = CARTESIAN_POINT ( 'NONE',  ( 70.50000000000000000, 35.00000000000000000, 2.000000000000000000 ) ) ;
#1040 = VERTEX_POINT ( 'NONE', #866 ) ;
#1041 = EDGE_CURVE ( 'NONE', #271, #798, #381, .T. ) ;
#1042 = LINE ( 'NONE', #55, #179 ) ;
#1043 = ORIENTED_EDGE ( 'NONE', *, *, #465, .T. ) ;
#1044 = EDGE_CURVE ( 'NONE', #458, #37, #614, .T. ) ;
#1045 = VECTOR ( 'NONE', #1076, 1000.000000000000000 ) ;
#1046 = CARTESIAN_POINT ( 'NONE',  ( 70.50000000000000000, 35.00000000000000000, 0.000000000000000000 ) ) ;
#1047 = EDGE_LOOP ( 'NONE', ( #642, #468, #221, #610 ) ) ;
#1048 = CC_DESIGN_APPROVAL ( #904, ( #434 ) ) ;
#1049 = DIRECTION ( 'NONE',  ( 0.000000000000000000, -0.000000000000000000, 1.000000000000000000 ) ) ;
#1050 = EDGE_CURVE ( 'NONE', #368, #374, #359, .T. ) ;
#1051 = CARTESIAN_POINT ( 'NONE',  ( 70.50000000000000000, 54.00000000000000000, 0.000000000000000000 ) ) ;
#1052 = ORIENTED_EDGE ( 'NONE', *, *, #889, .F. ) ;
#1053 = CARTESIAN_POINT ( 'NONE',  ( 6.500000000000000000, 54.00000000000000000, 2.000000000000000000 ) ) ;
#1054 = FACE_OUTER_BOUND ( 'NONE', #633, .T. ) ;
#1055 = EDGE_LOOP ( 'NONE', ( #303, #521, #880, #22 ) ) ;
#1056 = CALENDAR_DATE ( 2026, 13, 9 ) ;
#1057 = CARTESIAN_POINT ( 'NONE',  ( 7.849999999999999645, 18.00000000000000000, 2.000000000000000000 ) ) ;
#1058 = EDGE_CURVE ( 'NONE', #271, #794, #433, .T. ) ;
#1059 = CARTESIAN_POINT ( 'NONE',  ( 5.150000000000000355, 18.00000000000000000, 2.000000000000000000 ) ) ;
#1060 = VECTOR ( 'NONE', #812, 1000.000000000000000 ) ;
#1061 = ORIENTED_EDGE ( 'NONE', *, *, #524, .F. ) ;
#1062 = AXIS2_PLACEMENT_3D ( 'NONE', #339, #159, #673 ) ;
#1063 = CARTESIAN_POINT ( 'NONE',  ( 24.50000000000000000, 50.50000000000000000, 0.000000000000000000 ) ) ;
#1064 = LINE ( 'NONE', #817, #516 ) ;
#1065 = APPROVAL_ROLE ( '' ) ;
#1066 = CARTESIAN_POINT ( 'NONE',  ( 39.50000000000000000, 4.900000000000000355, 0.000000000000000000 ) ) ;
#1067 = CARTESIAN_POINT ( 'NONE',  ( 24.50000000000000000, 55.50000000000000000, 2.000000000000000000 ) ) ;
#1068 = AXIS2_PLACEMENT_3D ( 'NONE', #326, #87, #658 ) ;
#1069 = DIRECTION ( 'NONE',  ( -1.000000000000000000, 0.000000000000000000, 0.000000000000000000 ) ) ;
#1070 = DATE_AND_TIME ( #67, #402 ) ;
#1071 = DIRECTION ( 'NONE',  ( -1.000000000000000000, 0.000000000000000000, 0.000000000000000000 ) ) ;
#1072 = CARTESIAN_POINT ( 'NONE',  ( 67.50000000000000000, 4.900000000000000355, 2.000000000000000000 ) ) ;
#1073 = FACE_BOUND ( 'NONE', #598, .T. ) ;
#1074 = CIRCLE ( 'NONE', #86, 1.350000000000004086 ) ;
#1075 = CC_DESIGN_PERSON_AND_ORGANIZATION_ASSIGNMENT ( #738, #956, ( #931 ) ) ;
#1076 = DIRECTION ( 'NONE',  ( 1.000000000000000000, 0.000000000000000000, 0.000000000000000000 ) ) ;
#1077 = PLANE ( 'NONE',  #1068 ) ;
ENDSEC;
END-ISO-10303-21;
